<?xml version="1.0" encoding="UTF-8"?>
<svg xmlns="http://www.w3.org/2000/svg" xmlns:xlink="http://www.w3.org/1999/xlink" version="1.2" >
<font id="NDRSansDRegular">
<font-face  font-family="NDRSansDRegular" units-per-em="2048" ascent="1536" descent="-512" font-style="normal" font-weight="400" font-stretch="normal" cap-height="1467" x-height="1135" underline-position="-278" underline-thickness="141" />
<missing-glyph  horiz-adv-x="528" d="M53 0 L53 1467 L475 1467 L475 0 L53 0 Z M422 53 L422 1414 L106 1414 L106 53 L422 53 Z " />
<glyph glyph-name="space" unicode="&#x20;" horiz-adv-x="528" d="" />
<glyph glyph-name="exclam" unicode="&#x21;" horiz-adv-x="644" d="M453 1467 L418 372 L296 372 L260 1467 L453 1467 Z M455 0 L262 0 L262 255 L455 255 L455 0 Z " />
<glyph glyph-name="quotedbl" unicode="&#x22;" horiz-adv-x="763" d="M618 1519 L609 1024 L464 1024 L455 1519 L618 1519 Z M308 1519 L300 1024 L154 1024 L145 1519 L308 1519 Z " />
<glyph glyph-name="numbersign" unicode="&#x23;" horiz-adv-x="1247" d="M1185 1040 L1165 895 L932 895 L892 574 L1137 574 L1119 428 L875 428 L822 0 L675 0 L730 428 L438 428 L384 0 L239 0 L292 428 L63 428 L81 574 L310 574 L350 895 L111 895 L129 1040 L367 1040 L419 1467 L567 1467 L514 1040 L805 1040 L857 1467 L1002 1467 L950 1040 L1185 1040 Z M789 897 L495 897 L455 574 L747 574 L789 897 Z " />
<glyph glyph-name="dollar" unicode="&#x24;" horiz-adv-x="1165" d="M655 -29 L655 -218 L510 -218 L510 -25 Q260 10 134 229 Q102 286 90 336 L243 403 Q274 298 343.5 226.5 Q413 155 510 128 L510 692 Q364 750 289 810 Q149 920 149 1111 Q149 1323 293 1421 Q369 1473 510 1494 L510 1689 L655 1689 L655 1494 Q877 1462 1001 1257 Q1027 1212 1042 1163 L888 1102 Q827 1295 653 1348 L653 827 Q835 741 906 689 Q1062 574 1062 384 Q1062 188 952 82 Q899 31 833.5 6.5 Q768 -18 655 -29 Z M510 877 L510 1353 Q318 1305 318 1127 Q318 1042 361.5 985 Q405 928 510 877 Z M653 642 L653 121 Q740 134 788 166 Q882 230 882 374 Q882 461 833.5 518 Q785 575 653 642 Z " />
<glyph glyph-name="percent" unicode="&#x25;" horiz-adv-x="1844" d="M1370 1496 L608 -29 L474 -29 L1235 1496 L1370 1496 Z M459 1498 Q583 1498 659 1412 Q703 1363 729.5 1262.5 Q756 1162 756 1045 Q756 586 453 586 Q322 586 248 670 Q205 719 179 818 Q153 917 153 1032 Q153 1231 212 1346 Q291 1498 459 1498 Z M453 1390 Q398 1390 360 1347 Q332 1316 313 1228.5 Q294 1141 294 1042 Q294 933 315 845.5 Q336 758 369 728 Q405 695 453 695 Q511 695 549 739 Q578 773 596 852.5 Q614 932 614 1027 Q614 1390 453 1390 Z M1393 886 Q1518 886 1594 800 Q1638 751 1664.5 650.5 Q1691 550 1691 432 Q1691 -27 1388 -27 Q1257 -27 1184 57 Q1140 106 1114 205 Q1088 304 1088 418 Q1088 620 1147 735 Q1225 886 1393 886 Z M1388 779 Q1333 779 1295 736 Q1267 704 1248 616 Q1229 528 1229 427 Q1229 320 1250 232.5 Q1271 145 1304 116 Q1340 83 1388 83 Q1447 83 1485 128 Q1515 162 1533 241 Q1551 320 1551 415 Q1551 779 1388 779 Z " />
<glyph glyph-name="ampersand" unicode="&#x26;" horiz-adv-x="1357" d="M1293 126 L1251 -21 Q1017 -4 911 132 Q852 72 802 42 Q687 -27 525 -27 Q343 -27 229 58 Q101 153 101 337 Q101 494 182 610 Q263 726 445 829 Q379 958 367 985 Q334 1062 334 1160 Q334 1311 429 1405 Q525 1498 676 1498 Q816 1498 903 1420 Q994 1337 994 1208 Q994 1110 948 1037 Q900 962 837 908.5 Q774 855 651 785 Q775 559 934 350 Q1048 489 1110 715 L1244 671 Q1168 402 1024 246 Q1121 131 1293 126 Z M587 904 Q702 965 766.5 1041.5 Q831 1118 831 1194 Q831 1275 788 1323.5 Q745 1372 674 1372 Q594 1372 544.5 1313.5 Q495 1255 495 1161 Q495 1031 587 904 Z M833 227 Q642 470 510 706 Q412 646 363 592 Q271 490 271 354 Q271 231 343 167 Q416 103 549 103 Q633 103 697.5 131 Q762 159 833 227 Z " />
<glyph glyph-name="quotesingle" unicode="&#x27;" horiz-adv-x="444" d="M304 1519 L294 1024 L150 1024 L141 1519 L304 1519 Z " />
<glyph glyph-name="parenleft" unicode="&#x28;" horiz-adv-x="589" d="M528 -258 L394 -258 Q269 -26 206 147 Q92 460 92 732 Q92 959 163.5 1193 Q235 1427 394 1722 L528 1722 Q268 1125 268 733 Q268 456 393 86 Q439 -51 528 -258 Z " />
<glyph glyph-name="parenright" unicode="&#x29;" horiz-adv-x="590" d="M193 -258 L59 -258 Q173 3 229 190 Q321 497 321 733 Q321 1126 59 1722 L193 1722 Q318 1491 381 1317 Q495 1003 495 730 Q495 506 423.5 271.5 Q352 37 193 -258 Z " />
<glyph glyph-name="asterisk" unicode="&#x2a;" horiz-adv-x="1075" d="M921 1240 L631 1186 L820 963 L681 860 L538 1115 L386 860 L243 965 L442 1183 L153 1242 L207 1408 L478 1291 L446 1586 L622 1586 L597 1293 L866 1416 L921 1240 Z " />
<glyph glyph-name="plus" unicode="&#x2b;" horiz-adv-x="1100" d="M1024 497 L624 497 L624 97 L474 97 L474 497 L75 497 L75 638 L474 638 L474 1038 L624 1038 L624 638 L1024 638 L1024 497 Z " />
<glyph glyph-name="comma" unicode="&#x2c;" horiz-adv-x="462" d="M330 4 L195 -294 L128 -294 L207 0 L139 0 L139 255 L330 255 L330 4 Z " />
<glyph glyph-name="hyphen" unicode="&#x2d;" horiz-adv-x="592" d="M592 506 L0 506 L0 669 L592 669 L592 506 Z " />
<glyph glyph-name="period" unicode="&#x2e;" horiz-adv-x="464" d="M327 0 L136 0 L136 255 L327 255 L327 0 Z " />
<glyph glyph-name="slash" unicode="&#x2f;" horiz-adv-x="1108" d="M1026 1720 L239 -258 L79 -258 L868 1720 L1026 1720 Z " />
<glyph glyph-name="zero" unicode="0" horiz-adv-x="1165" d="M592 1498 Q774 1498 889 1368 Q968 1278 1011 1082 Q1047 921 1047 739 Q1047 548 1022 415.5 Q997 283 939 170 Q890 74 795 21 Q704 -31 585 -31 Q390 -31 275 100 Q197 189 154 380 Q119 534 119 713 Q119 1042 201 1228 Q320 1498 592 1498 Z M584 1355 Q484 1355 414 1275 Q363 1218 329.5 1061.5 Q296 905 296 727 Q296 436 384 236 Q408 181 464 146.5 Q520 112 585 112 Q686 112 753 190 Q805 250 837 391.5 Q869 533 869 704 Q869 894 848.5 1017 Q828 1140 779 1235 Q751 1291 699 1323 Q647 1355 584 1355 Z " />
<glyph glyph-name="one" unicode="1" horiz-adv-x="1165" d="M994 0 L218 0 L218 151 L519 151 L519 1295 L288 1170 L233 1309 L548 1475 L697 1475 L697 151 L994 151 L994 0 Z " />
<glyph glyph-name="two" unicode="2" horiz-adv-x="1165" d="M1007 0 L128 0 L128 101 Q128 251 220.5 387.5 Q313 524 532 699 Q693 826 764 926 Q835 1026 835 1123 Q835 1220 776 1286 Q711 1359 588 1359 Q441 1359 370 1258 Q322 1190 300 1064 L134 1108 Q176 1244 209 1301 Q323 1498 594 1498 Q795 1498 907 1391 Q1011 1290 1011 1120 Q1011 925 855 764 Q790 698 640 581 Q428 415 337 261 Q313 220 308 151 L1007 151 L1007 0 Z " />
<glyph glyph-name="three" unicode="3" horiz-adv-x="1165" d="M103 209 L237 315 Q286 234 331 194 Q421 115 544 115 Q664 115 741 196 Q818 277 818 411 Q818 564 733 633 Q650 699 475 699 L378 699 L378 842 L466 842 Q606 842 695 918 Q785 994 785 1121 Q785 1221 732 1282 Q671 1353 560 1353 Q473 1353 408 1314.5 Q343 1276 283 1188 L163 1297 Q228 1376 283 1414 Q406 1498 574 1498 Q751 1498 855 1405 Q961 1309 961 1122 Q961 984 895.5 895.5 Q830 807 708 781 Q807 766 875 702 Q994 592 994 402 Q994 242 915 134 Q795 -31 551 -31 Q401 -31 296 25.5 Q191 82 103 209 Z " />
<glyph glyph-name="four" unicode="4" horiz-adv-x="1165" d="M1058 361 L871 361 L871 0 L697 0 L697 361 L86 361 L86 483 L640 1467 L871 1467 L871 504 L1058 504 L1058 361 Z M711 1320 L258 504 L699 504 Q700 1061 711 1320 Z " />
<glyph glyph-name="five" unicode="5" horiz-adv-x="1165" d="M134 264 L281 334 Q312 249 348 206 Q425 115 562 115 Q679 115 746 191 Q784 233 806.5 314 Q829 395 829 485 Q829 635 771 726 Q702 835 574 835 Q487 835 427 791.5 Q367 748 321 650 L172 671 L246 1464 L932 1464 L932 1315 L388 1315 L345 853 Q386 899 421 921 Q502 974 615 974 Q805 974 912 828 Q1007 699 1007 499 Q1007 308 936 181 Q821 -27 566 -27 Q400 -27 281 52 Q190 112 134 264 Z " />
<glyph glyph-name="six" unicode="6" horiz-adv-x="1165" d="M1001 1379 L904 1249 Q786 1357 659 1357 Q556 1357 481 1291 Q433 1248 395 1161.5 Q357 1075 338 964 Q328 905 319 761 Q370 826 414 858 Q509 926 645 926 Q836 926 936 813 Q982 760 1009 667 Q1036 574 1036 467 Q1036 263 951 141 Q830 -31 596 -31 Q351 -31 244 155 Q143 330 143 684 Q143 1033 262 1275 Q312 1378 421 1439 Q527 1498 669 1498 Q865 1498 1001 1379 Z M321 592 L321 512 Q321 351 380 243 Q453 110 600 110 Q716 110 784 187 Q819 226 839.5 300.5 Q860 375 860 462 Q860 610 817 686 Q758 788 617 788 Q523 788 455.5 743 Q388 698 321 592 Z " />
<glyph glyph-name="seven" unicode="7" horiz-adv-x="1165" d="M1058 1354 Q788 905 707 716 Q571 397 565 0 L376 0 Q382 379 516 699 Q623 955 878 1316 L227 1316 L227 1467 L1058 1467 L1058 1354 Z " />
<glyph glyph-name="eight" unicode="8" horiz-adv-x="1165" d="M438 770 Q339 809 289 855 Q178 955 178 1130 Q178 1302 299 1404 Q412 1498 590 1498 Q766 1498 875 1406 Q992 1307 992 1136 Q992 937 856 836 Q816 805 739 774 Q861 725 923 671 Q1049 559 1049 374 Q1049 222 955 119 Q820 -31 580 -31 Q384 -31 256 73 Q117 186 117 372 Q117 591 286 702 Q338 736 438 770 Z M592 844 Q682 880 727 921 Q818 1002 818 1132 Q818 1216 776 1275 Q713 1364 586 1364 Q476 1364 414 1303 Q352 1242 352 1134 Q352 1024 406.5 958 Q461 892 592 844 Z M583 695 Q462 654 401 607 Q296 525 296 381 Q296 256 378 182 Q457 110 582 110 Q711 110 789 185 Q869 260 869 385 Q869 492 803.5 563 Q738 634 583 695 Z " />
<glyph glyph-name="nine" unicode="9" horiz-adv-x="1165" d="M153 107 L250 231 Q362 110 505 110 Q616 110 694 180 Q742 223 779 309 Q816 395 833 505 Q842 564 849 706 Q793 627 709 584 Q625 541 527 541 Q336 541 228 683 Q132 808 132 1011 Q132 1230 253 1362 Q380 1498 579 1498 Q775 1498 880 1377 Q951 1295 991 1114 Q1024 965 1024 800 Q1024 487 966 310 Q856 -31 496 -31 Q289 -31 153 107 Z M846 875 L846 955 Q846 1113 794 1219 Q725 1357 572 1357 Q453 1357 382 1279 Q347 1241 326.5 1168.5 Q306 1096 306 1013 Q306 680 563 680 Q649 680 724 731.5 Q799 783 846 875 Z " />
<glyph glyph-name="colon" unicode="&#x3a;" horiz-adv-x="464" d="M374 826 L183 826 L183 1084 L374 1084 L374 826 Z M374 0 L183 0 L183 255 L374 255 L374 0 Z " />
<glyph glyph-name="semicolon" unicode="&#x3b;" horiz-adv-x="464" d="M376 827 L183 827 L183 1082 L376 1082 L376 827 Z M376 4 L239 -294 L174 -294 L253 0 L183 0 L183 255 L376 255 L376 4 Z " />
<glyph glyph-name="less" unicode="&#x3c;" horiz-adv-x="1100" d="M1020 68 L79 501 L79 633 L1020 1066 L1020 915 L235 574 L1020 220 L1020 68 Z " />
<glyph glyph-name="equal" unicode="&#x3d;" horiz-adv-x="1100" d="M1026 690 L75 690 L75 829 L1026 829 L1026 690 Z M1026 342 L75 342 L75 482 L1026 482 L1026 342 Z " />
<glyph glyph-name="greater" unicode="&#x3e;" horiz-adv-x="1100" d="M1020 501 L79 68 L79 220 L864 567 L79 915 L79 1066 L1020 633 L1020 501 Z " />
<glyph glyph-name="question" unicode="&#x3f;" horiz-adv-x="873" d="M495 369 L346 369 L346 449 Q346 573 417 708 Q423 719 497 833 Q594 982 615 1028 Q649 1100 649 1164 Q649 1264 594 1314 Q547 1357 463 1357 Q383 1357 332.5 1321 Q282 1285 246 1203 L101 1276 Q113 1304 133 1331 Q257 1496 466 1496 Q812 1496 812 1165 Q812 1082 778 1004.5 Q744 927 653 804 Q562 681 532 610 Q495 522 495 442 L495 369 Z M519 0 L328 0 L328 255 L519 255 L519 0 Z " />
<glyph glyph-name="at" unicode="&#x40;" horiz-adv-x="2214" d="M1255 151 Q1202 86 1157 54 Q1064 -13 939 -13 Q780 -13 693 90 Q611 187 611 363 Q611 605 747 792 Q901 1003 1128 1003 Q1257 1003 1341 917 L1353 992 L1508 992 L1416 436 Q1396 315 1396 285 Q1396 197 1426 163 Q1460 125 1539 125 Q1709 125 1795 307 Q1862 449 1862 629 Q1862 937 1667 1116 Q1479 1289 1171 1289 Q818 1289 588 1056 Q363 827 363 465 Q363 119 545 -78 Q729 -279 1102 -279 Q1307 -279 1550 -220 L1576 -361 Q1347 -418 1108 -418 Q670 -418 438 -176 Q207 65 207 469 Q207 889 479 1156 Q751 1425 1166 1425 Q1533 1425 1764 1214 Q2003 994 2003 632 Q2003 428 1934 273 Q1874 136 1781 65 Q1681 -11 1526 -11 Q1296 -11 1255 151 Z M1313 793 Q1252 877 1143 877 Q973 877 868 714 Q778 573 778 383 Q778 121 961 121 Q1106 121 1231 302 L1313 793 Z " />
<glyph glyph-name="A" unicode="A" horiz-adv-x="1150" d="M1132 0 L941 0 L822 420 L321 420 L204 0 L19 0 L459 1467 L692 1467 L1132 0 Z M785 569 L629 1117 L571 1322 L514 1117 L358 569 L785 569 Z " />
<glyph glyph-name="B" unicode="B" horiz-adv-x="1242" d="M183 0 L183 1467 L667 1467 Q783 1467 877 1436.5 Q971 1406 1019 1352 Q1100 1262 1100 1098 Q1100 907 984 825 Q933 789 838 772 Q953 756 1026 689 Q1137 585 1137 403 Q1137 249 1057 149 Q940 0 690 0 L183 0 Z M361 1318 L361 835 L605 835 Q920 835 920 1087 Q920 1318 647 1318 L361 1318 Z M361 686 L361 149 L636 149 Q942 149 942 418 Q942 556 861 623 Q819 659 762 672.5 Q705 686 600 686 L361 686 Z " />
<glyph glyph-name="C" unicode="C" horiz-adv-x="1297" d="M1194 458 Q1179 336 1142 251 Q1018 -31 675 -31 Q518 -31 394 38 Q280 101 225 209 Q121 415 121 705 Q121 1081 268 1290 Q414 1498 685 1498 Q1018 1498 1141 1198 Q1173 1120 1187 1012 L1007 992 Q998 1078 973 1144 Q896 1353 680 1353 Q535 1353 443 1251 Q381 1181 344 1012 Q314 875 314 724 Q314 462 401 276 Q435 203 517 156 Q589 115 681 115 Q906 115 986 342 Q1006 400 1015 482 L1194 458 Z " />
<glyph glyph-name="D" unicode="D" horiz-adv-x="1341" d="M183 0 L183 1467 L552 1467 Q903 1467 1065 1290 Q1221 1120 1221 766 Q1221 596 1194 459 Q1162 293 1097 203 Q1028 109 931 69 Q763 0 543 0 L183 0 Z M361 1318 L361 149 L479 149 Q793 149 910 274 Q1027 400 1027 740 Q1027 1005 943 1140 Q832 1318 558 1318 L361 1318 Z " />
<glyph glyph-name="E" unicode="E" horiz-adv-x="1146" d="M1081 0 L183 0 L183 1467 L1029 1467 L1029 1318 L361 1318 L361 829 L902 829 L902 680 L361 680 L361 149 L1081 149 L1081 0 Z " />
<glyph glyph-name="F" unicode="F" horiz-adv-x="1036" d="M1045 1318 L361 1318 L361 833 L937 833 L937 684 L361 684 L361 0 L183 0 L183 1467 L1045 1467 L1045 1318 Z " />
<glyph glyph-name="G" unicode="G" horiz-adv-x="1364" d="M1209 1032 L1024 1010 Q1009 1096 992 1143 Q975 1190 942 1236 Q859 1355 691 1355 Q536 1355 443 1249 Q381 1178 344 1007 Q314 870 314 719 Q314 464 400 282 Q434 211 515 164 Q586 123 678 123 Q777 123 857 168.5 Q937 214 1024 319 L1024 563 L699 563 L699 713 L1198 713 L1198 0 L1055 0 L1040 154 L1027 142 Q958 80 946 68 Q899 24 818.5 -3.5 Q738 -31 654 -31 Q395 -31 256 165 Q121 358 121 708 Q121 1077 267 1285 Q416 1498 697 1498 Q909 1498 1039.5 1379.5 Q1170 1261 1209 1032 Z " />
<glyph glyph-name="H" unicode="H" horiz-adv-x="1383" d="M1201 0 L1023 0 L1023 697 L361 697 L361 0 L183 0 L183 1467 L361 1467 L361 846 L1023 846 L1023 1467 L1201 1467 L1201 0 Z " />
<glyph glyph-name="I" unicode="I" horiz-adv-x="543" d="M361 0 L183 0 L183 1467 L361 1467 L361 0 Z " />
<glyph glyph-name="J" unicode="J" horiz-adv-x="856" d="M13 46 L79 191 Q214 115 312 115 Q414 115 454.5 181.5 Q495 248 495 416 L495 1467 L673 1467 L673 365 Q673 182 613 91 Q533 -33 316 -33 Q145 -33 13 46 Z " />
<glyph glyph-name="K" unicode="K" horiz-adv-x="1133" d="M1165 0 L963 0 L539 743 L363 512 L363 0 L183 0 L183 1467 L363 1467 L363 754 L869 1467 L1075 1467 L653 884 L1165 0 Z " />
<glyph glyph-name="L" unicode="L" horiz-adv-x="1024" d="M1032 0 L183 0 L183 1467 L361 1467 L361 149 L1032 149 L1032 0 Z " />
<glyph glyph-name="M" unicode="M" horiz-adv-x="1592" d="M1410 0 L1236 0 L1236 939 Q1236 1001 1249 1309 Q1206 1116 1159 957 L873 0 L720 0 L429 959 Q391 1084 348 1309 Q361 1023 361 939 L361 0 L183 0 L183 1467 L466 1467 L732 531 Q778 371 798 216 Q814 375 858 531 L1124 1467 L1410 1467 L1410 0 Z " />
<glyph glyph-name="N" unicode="N" horiz-adv-x="1381" d="M1199 0 L975 0 L445 1043 Q434 1064 417 1096 Q363 1197 348 1261 Q359 1189 359 1113 L359 0 L183 0 L183 1467 L416 1467 L953 401 Q981 345 1037 204 Q1025 300 1025 382 L1025 1467 L1199 1467 L1199 0 Z " />
<glyph glyph-name="O" unicode="O" horiz-adv-x="1394" d="M699 1498 Q970 1498 1121 1296 Q1273 1093 1273 735 Q1273 438 1169 249 Q1014 -31 698 -31 Q429 -31 276 174 Q121 381 121 734 Q121 1092 275 1294 Q431 1498 699 1498 Z M695 1353 Q511 1353 414 1194 Q316 1034 316 736 Q316 438 415 276 Q514 115 697 115 Q881 115 979 274 Q1078 435 1078 731 Q1078 981 1008 1133 Q907 1353 695 1353 Z " />
<glyph glyph-name="P" unicode="P" horiz-adv-x="1150" d="M361 632 L361 0 L183 0 L183 1467 L629 1467 Q858 1467 973 1380 Q1102 1283 1102 1055 Q1102 632 592 632 L361 632 Z M361 1318 L361 781 L567 781 Q743 781 825 845 Q907 908 907 1052 Q907 1183 844 1247 Q773 1318 585 1318 L361 1318 Z " />
<glyph glyph-name="Q" unicode="Q" horiz-adv-x="1394" d="M1332 -66 L1251 -227 Q1051 -138 892 4 Q789 -31 692 -31 Q427 -31 274 173 Q121 379 121 732 Q121 1087 274 1293 Q427 1498 698 1498 Q969 1498 1121 1295 Q1273 1090 1273 744 Q1273 510 1197 317 Q1155 212 1044 103 Q1181 -7 1332 -66 Z M697 1353 Q515 1353 416 1190 Q316 1025 316 736 Q316 450 419 282 Q521 115 699 115 Q878 115 977 276 Q1078 439 1078 732 Q1078 984 1009 1134 Q908 1353 697 1353 Z " />
<glyph glyph-name="R" unicode="R" horiz-adv-x="1240" d="M1161 0 L955 0 L665 653 L361 653 L361 0 L183 0 L183 1467 L627 1467 Q866 1467 987 1392 Q1135 1299 1135 1073 Q1135 916 1058.5 816 Q982 716 838 682 L1161 0 Z M361 1318 L361 803 L600 803 Q775 803 854 859 Q938 918 938 1063 Q938 1205 863.5 1261.5 Q789 1318 600 1318 L361 1318 Z " />
<glyph glyph-name="S" unicode="S" horiz-adv-x="1198" d="M66 376 L240 431 Q268 306 318 239 Q411 117 598 117 Q720 117 804 173 Q904 239 904 357 Q904 488 778 570 Q734 598 587 660 Q374 749 297 803 Q118 928 118 1133 Q118 1322 257 1418 Q375 1498 561 1498 Q953 1498 1049 1131 L873 1085 Q842 1190 797 1245 Q713 1348 554 1348 Q411 1348 351 1280 Q305 1227 305 1149 Q305 1018 441 937 Q517 892 752 792 Q868 742 916.5 712.5 Q965 683 1006 635 Q1089 538 1089 379 Q1089 248 1037 157 Q990 75 914 36 Q780 -33 596 -33 Q370 -33 245.5 62.5 Q121 158 66 376 Z " />
<glyph glyph-name="T" unicode="T" horiz-adv-x="1003" d="M1007 1318 L589 1318 L589 0 L411 0 L411 1318 L-4 1318 L-4 1467 L1007 1467 L1007 1318 Z " />
<glyph glyph-name="U" unicode="U" horiz-adv-x="1361" d="M183 1467 L361 1467 L361 523 Q361 324 415 234 Q485 117 681 117 Q878 117 947 234 Q1001 324 1001 529 L1001 1467 L1179 1467 L1179 497 Q1179 276 1100 153 Q982 -29 675 -29 Q413 -29 293 109 Q183 236 183 497 L183 1467 Z " />
<glyph glyph-name="V" unicode="V" horiz-adv-x="1075" d="M1075 1467 L633 0 L442 0 L2 1467 L191 1467 L497 411 Q522 325 543 180 Q561 280 598 411 L895 1467 L1075 1467 Z " />
<glyph glyph-name="W" unicode="W" horiz-adv-x="1641" d="M1609 1467 L1273 0 L1095 0 L858 990 Q829 1112 818 1261 Q804 1103 776 990 L537 0 L361 0 L31 1467 L211 1467 L420 491 Q434 422 455 237 Q472 377 499 491 L732 1467 L915 1467 L1146 491 Q1162 420 1192 237 Q1202 375 1227 491 L1438 1467 L1609 1467 Z " />
<glyph glyph-name="X" unicode="X" horiz-adv-x="1121" d="M1106 0 L898 0 L655 426 L613 502 Q560 597 552 646 Q525 571 442 424 L202 0 L15 0 L457 766 L42 1467 L253 1467 L464 1093 Q543 953 562 875 Q586 947 659 1080 L873 1467 L1060 1467 L657 770 L1106 0 Z " />
<glyph glyph-name="Y" unicode="Y" horiz-adv-x="1087" d="M1097 1467 L627 631 L627 0 L451 0 L451 631 L-11 1467 L184 1467 L398 1073 Q476 930 503 870.5 Q530 811 549 739 Q579 852 698 1073 L912 1467 L1097 1467 Z " />
<glyph glyph-name="Z" unicode="Z" horiz-adv-x="1102" d="M1034 0 L77 0 L77 126 L818 1315 L125 1315 L125 1464 L1018 1464 L1018 1334 L276 147 L1034 147 L1034 0 Z " />
<glyph glyph-name="bracketleft" unicode="&#x5b;" horiz-adv-x="590" d="M475 -258 L161 -258 L161 1722 L475 1722 L475 1599 L310 1599 L310 -132 L475 -132 L475 -258 Z " />
<glyph glyph-name="backslash" unicode="&#x5c;" horiz-adv-x="1108" d="M1026 -258 L866 -258 L79 1720 L239 1720 L1026 -258 Z " />
<glyph glyph-name="bracketright" unicode="&#x5d;" horiz-adv-x="590" d="M429 -258 L112 -258 L112 -132 L278 -132 L278 1599 L112 1599 L112 1722 L429 1722 L429 -258 Z " />
<glyph glyph-name="asciicircum" unicode="&#x5e;" horiz-adv-x="1100" d="M950 1062 L787 1062 L549 1460 L312 1062 L149 1062 L451 1582 L650 1582 L950 1062 Z " />
<glyph glyph-name="underscore" unicode="&#x5f;" horiz-adv-x="1100" d="M1121 -348 L-21 -348 L-21 -207 L1121 -207 L1121 -348 Z " />
<glyph glyph-name="grave" unicode="&#x60;" horiz-adv-x="1100" d="M719 1280 L565 1280 L380 1586 L594 1586 L719 1280 Z " />
<glyph glyph-name="a" unicode="a" horiz-adv-x="1082" d="M911 0 L752 0 L752 136 Q624 -19 421 -19 Q274 -19 188 69 Q102 156 102 293 Q102 552 393 654 Q518 698 744 726 L744 807 Q744 907 686 964 Q625 1024 517 1024 Q430 1024 367.5 987 Q305 950 251 867 L108 955 Q163 1032 214 1071 Q333 1163 524 1163 Q626 1163 708 1135 Q790 1107 834 1057 Q911 971 911 818 L911 0 Z M744 286 L744 602 Q576 582 481 549 Q274 477 274 306 Q274 219 324 168 Q374 117 458 117 Q624 117 744 286 Z " />
<glyph glyph-name="b" unicode="b" horiz-adv-x="1177" d="M350 132 L346 0 L180 0 L180 1519 L350 1519 L350 1022 Q413 1083 499.5 1117.5 Q586 1152 673 1152 Q861 1152 960 1000 Q1060 846 1060 566 Q1060 325 986 184 Q879 -20 666 -20 Q579 -20 507.5 14.5 Q436 49 350 132 Z M350 890 L350 275 Q411 208 456 176 Q534 121 615 121 Q720 121 789 199 Q830 245 855 343 Q880 441 880 554 Q880 1014 620 1014 Q494 1014 350 890 Z " />
<glyph glyph-name="c" unicode="c" horiz-adv-x="1049" d="M988 296 Q967 218 933 161 Q816 -29 569 -29 Q335 -29 217 150 Q117 303 117 551 Q117 799 214 963 Q332 1163 571 1163 Q733 1163 835 1078 Q937 993 974 827 L807 785 Q783 886 742 941 Q680 1022 566 1022 Q455 1022 388 946 Q347 899 320.5 790.5 Q294 682 294 561 Q294 429 323.5 322.5 Q353 216 402 171 Q468 112 567 112 Q666 112 727 167.5 Q788 223 822 346 L988 296 Z " />
<glyph glyph-name="d" unicode="d" horiz-adv-x="1177" d="M996 0 L832 0 L828 132 Q743 50 670 15 Q597 -20 509 -20 Q325 -20 221 131 Q116 283 116 562 Q116 843 223 998 Q329 1152 521 1152 Q687 1152 826 1022 L826 1519 L996 1519 L996 0 Z M826 275 L826 890 Q680 1016 559 1016 Q454 1016 387 940 Q347 894 321 787 Q295 680 295 561 Q295 432 324.5 328.5 Q354 225 403 181 Q470 121 560 121 Q631 121 691.5 156 Q752 191 826 275 Z " />
<glyph glyph-name="e" unicode="e" horiz-adv-x="1112" d="M1004 258 Q953 148 898 92 Q776 -29 567 -29 Q361 -29 246 102 Q180 177 145 321 Q117 438 117 566 Q117 862 249 1017 Q374 1163 582 1163 Q796 1163 904 1002 Q996 864 996 640 L996 543 L294 543 Q298 424 311 360.5 Q324 297 358 234 Q423 112 573 112 Q672 112 737.5 163 Q803 214 853 330 L1004 258 Z M822 682 Q818 821 774 901 Q708 1022 572 1022 Q448 1022 380.5 940 Q313 858 294 682 L822 682 Z " />
<glyph glyph-name="f" unicode="f" horiz-adv-x="617" d="M642 1582 L627 1445 Q564 1461 509 1461 Q431 1461 401.5 1423.5 Q372 1386 372 1286 L372 1135 L602 1135 L602 988 L372 988 L372 0 L202 0 L202 988 L19 988 L19 1135 L202 1135 L202 1297 Q202 1597 484 1597 Q532 1597 642 1582 Z " />
<glyph glyph-name="g" unicode="g" horiz-adv-x="1117" d="M1062 1053 Q1058 1053 1043 1054 Q1039 1054 1036 1055 Q1022 1056 1012 1056 Q940 1056 882 1007 Q968 892 968 752 Q968 576 853 466 Q739 356 562 356 Q474 356 372 394 Q294 363 294 318 Q294 270 365 249 Q386 243 535 211 L734 170 Q888 137 960 88 Q1062 18 1062 -116 Q1062 -292 891 -370 Q765 -428 565 -428 Q379 -428 254 -380 Q75 -311 75 -153 Q75 -66 125 -4 Q175 58 286 109 Q141 156 141 275 Q141 389 296 430 Q241 466 213 502 Q139 596 139 759 Q139 940 256 1052 Q372 1163 550 1163 Q691 1163 812 1080 Q868 1151 912.5 1171.5 Q957 1192 1062 1196 L1062 1053 Z M551 1032 Q438 1032 373 952 Q315 881 315 761 Q315 641 373 569 Q436 490 552 490 Q667 490 728 566 Q785 637 785 755 Q785 852 748 920 Q686 1032 551 1032 Z M405 71 Q228 -18 228 -130 Q228 -185 272 -224 Q303 -251 386 -269.5 Q469 -288 561 -288 Q718 -288 798.5 -248.5 Q879 -209 879 -132 Q879 -20 636 27 L405 71 Z " />
<glyph glyph-name="h" unicode="h" horiz-adv-x="1158" d="M987 0 L817 0 L817 800 Q817 907 786 956 Q747 1016 651 1016 Q519 1016 350 875 L350 0 L180 0 L180 1519 L350 1519 L350 1005 Q431 1070 489 1101 Q590 1155 693 1155 Q774 1155 836.5 1126.5 Q899 1098 932 1046 Q987 959 987 766 L987 0 Z " />
<glyph glyph-name="i" unicode="i" horiz-adv-x="554" d="M373 1290 L180 1290 L180 1519 L373 1519 L373 1290 Z M363 0 L193 0 L193 1135 L363 1135 L363 0 Z " />
<glyph glyph-name="j" unicode="j" horiz-adv-x="554" d="M373 1290 L180 1290 L180 1519 L373 1519 L373 1290 Z M-69 -374 L-52 -239 Q11 -260 64 -260 Q136 -260 163.5 -217.5 Q191 -175 191 -66 L191 1135 L362 1135 L362 -40 Q362 -185 326 -264 Q265 -396 85 -396 Q4 -396 -69 -374 Z " />
<glyph glyph-name="k" unicode="k" horiz-adv-x="1042" d="M1045 0 L851 0 L516 596 L350 422 L350 0 L180 0 L180 1519 L350 1519 L350 613 L791 1133 L994 1133 L627 711 L1045 0 Z " />
<glyph glyph-name="l" unicode="l" horiz-adv-x="530" d="M350 0 L180 0 L180 1519 L350 1519 L350 0 Z " />
<glyph glyph-name="m" unicode="m" horiz-adv-x="1781" d="M1609 0 L1439 0 L1439 752 Q1439 873 1413 930 Q1376 1014 1271 1014 Q1122 1014 980 825 L980 0 L811 0 L811 785 Q811 1014 640 1014 Q504 1014 350 831 L350 0 L180 0 L180 1135 L338 1135 L340 970 Q402 1052 498 1102 Q594 1152 690 1152 Q797 1152 862 1105 Q927 1058 961 957 Q1031 1037 1087 1076 Q1196 1152 1324 1152 Q1609 1152 1609 798 L1609 0 Z " />
<glyph glyph-name="n" unicode="n" horiz-adv-x="1158" d="M987 0 L817 0 L817 812 Q817 1015 654 1015 Q531 1015 350 875 L350 0 L180 0 L180 1135 L340 1135 L343 1001 Q431 1067 491 1098 Q595 1152 698 1152 Q858 1152 928 1053 Q987 969 987 785 L987 0 Z " />
<glyph glyph-name="o" unicode="o" horiz-adv-x="1150" d="M586 1163 Q791 1163 906 1034 Q973 958 1007 814 Q1035 698 1035 569 Q1035 -29 568 -29 Q354 -29 243 98 Q178 173 143 315 Q116 428 116 557 Q116 827 213 977 Q332 1163 586 1163 Z M576 1022 Q457 1022 386 942 Q344 894 317.5 788.5 Q291 683 291 559 Q291 364 333 264 Q397 112 571 112 Q748 112 814 264 Q859 368 859 561 Q859 741 830 835 Q771 1022 576 1022 Z " />
<glyph glyph-name="p" unicode="p" horiz-adv-x="1177" d="M350 109 L350 -392 L180 -392 L180 1135 L346 1135 L350 1001 Q411 1062 459 1092 Q555 1152 671 1152 Q838 1152 939 1038 Q1001 968 1033 824 Q1060 707 1060 577 Q1060 332 989 188 Q886 -19 665 -19 Q584 -19 520 7 Q456 33 350 109 Z M350 854 L350 248 Q477 120 613 120 Q720 120 785 194 Q826 241 851.5 344.5 Q877 448 877 567 Q877 1013 620 1013 Q487 1013 350 854 Z " />
<glyph glyph-name="q" unicode="q" horiz-adv-x="1177" d="M996 -392 L826 -392 L826 109 Q674 -19 508 -19 Q316 -19 217 134 Q116 289 116 564 Q116 851 225 1002 Q333 1152 520 1152 Q607 1152 675.5 1118.5 Q744 1085 829 1001 L829 1135 L996 1135 L996 -392 Z M826 248 L826 854 Q767 924 722 957 Q645 1014 561 1014 Q456 1014 387 937 Q347 892 321 788 Q295 684 295 567 Q295 434 324.5 328.5 Q354 223 404 178 Q469 119 554 119 Q664 119 826 248 Z " />
<glyph glyph-name="r" unicode="r" horiz-adv-x="763" d="M740 980 Q689 979 644 972 Q486 946 350 684 L350 0 L180 0 L180 1135 L345 1135 L345 900 Q418 1014 460 1058 Q502 1102 559 1126 Q645 1161 740 1161 L740 980 Z " />
<glyph glyph-name="s" unicode="s" horiz-adv-x="955" d="M55 222 L200 294 Q233 222 269 185 Q345 107 487 107 Q616 107 672 169 Q710 212 710 268 Q710 319 688 351 Q645 414 554 458 L409 530 Q257 605 243 616 Q108 718 108 870 Q108 1006 208 1084 Q309 1163 476 1163 Q685 1163 793 1047 Q823 1015 858 952 L713 881 Q686 936 658 964 Q594 1027 472 1027 Q380 1027 327.5 989.5 Q275 952 275 887 Q275 838 296 808 Q353 728 579 631 Q684 585 730.5 557 Q777 529 808 493 Q882 407 882 286 Q882 193 842 123 Q805 59 745 29 Q633 -29 490 -29 Q371 -29 276 7 Q181 43 125 108 Q91 148 55 222 Z " />
<glyph glyph-name="t" unicode="t" horiz-adv-x="686" d="M682 11 Q564 -17 482 -17 Q349 -17 287 44 Q225 104 225 244 L225 988 L40 988 L40 1135 L225 1135 L225 1436 L397 1486 L397 1135 L673 1135 L673 988 L397 988 L397 244 Q397 177 423.5 150.5 Q450 124 517 124 Q583 124 661 149 L682 11 Z " />
<glyph glyph-name="u" unicode="u" horiz-adv-x="1161" d="M978 0 L818 0 L816 134 Q727 66 666 35 Q561 -20 458 -20 Q300 -20 229 80 Q172 161 172 348 L172 1135 L341 1135 L341 323 Q341 221 372 175 Q410 119 501 119 Q624 119 810 258 L810 1135 L978 1135 L978 0 Z " />
<glyph glyph-name="v" unicode="v" horiz-adv-x="919" d="M900 1135 L550 0 L378 0 L17 1135 L200 1135 L411 442 Q448 323 470 189 Q498 351 525 442 L726 1135 L900 1135 Z " />
<glyph glyph-name="w" unicode="w" horiz-adv-x="1447" d="M1416 1135 L1119 0 L954 0 L772 671 Q737 800 719 932 Q708 811 669 671 L482 0 L317 0 L29 1135 L204 1135 L365 436 Q392 318 403 209 Q417 338 444 436 L638 1135 L810 1135 L1001 436 Q1019 367 1045 209 Q1052 323 1078 436 L1240 1135 L1416 1135 Z " />
<glyph glyph-name="x" unicode="x" horiz-adv-x="986" d="M957 0 L766 0 L620 246 Q550 362 495 501 Q427 339 396 288 L225 0 L27 0 L389 602 L68 1135 L266 1135 L418 881 Q493 756 495 701 Q508 760 578 881 L724 1135 L917 1135 L598 605 L957 0 Z " />
<glyph glyph-name="y" unicode="y" horiz-adv-x="936" d="M917 1135 L533 -97 Q481 -262 412 -325 Q333 -398 165 -398 Q88 -398 31 -382 L48 -246 Q108 -260 155 -260 Q279 -260 331 -157 Q350 -120 392 21 L13 1135 L200 1135 L389 537 Q397 510 415 455 Q464 309 477 207 Q500 311 567 543 L739 1135 L917 1135 Z " />
<glyph glyph-name="z" unicode="z" horiz-adv-x="917" d="M846 0 L71 0 L71 117 L514 814 Q567 896 636 992 Q543 988 467 988 L128 988 L128 1135 L842 1135 L842 1011 L389 295 Q339 216 277 139 L299 139 Q389 141 416 141 L846 141 L846 0 Z " />
<glyph glyph-name="braceleft" unicode="&#x7b;" horiz-adv-x="589" d="M550 -258 L431 -258 Q204 -258 204 -2 L204 417 Q204 574 168 623 Q136 665 68 669 L68 797 Q147 800 175.5 852 Q204 904 204 1047 L204 1471 Q204 1722 431 1722 L550 1722 L550 1603 Q445 1602 413 1589 Q350 1564 350 1458 L350 982 Q350 880 313 821 Q276 762 197 736 L197 730 Q281 706 315.5 650 Q350 594 350 482 L350 10 Q350 -80 387.5 -107.5 Q425 -135 550 -137 L550 -258 Z " />
<glyph glyph-name="bar" unicode="&#x7c;" horiz-adv-x="1100" d="M628 -172 L473 -172 L473 1685 L628 1685 L628 -172 Z " />
<glyph glyph-name="braceright" unicode="&#x7d;" horiz-adv-x="589" d="M521 669 Q446 664 414 609 Q385 559 385 417 L385 -2 Q385 -258 158 -258 L40 -258 L40 -137 Q144 -135 176 -123 Q240 -98 240 10 L240 482 Q240 594 274.5 650 Q309 706 393 730 L393 736 Q340 754 312 777 Q240 839 240 982 L240 1458 Q240 1548 203 1574.5 Q166 1601 40 1603 L40 1722 L158 1722 Q385 1722 385 1471 L385 1047 Q385 892 422 842 Q454 800 521 797 L521 669 Z " />
<glyph glyph-name="asciitilde" unicode="&#x7e;" horiz-adv-x="1099" d="M1032 675 Q914 451 748 451 Q676 451 541 519 Q405 587 337 587 Q239 587 152 442 L68 495 Q196 724 344 724 Q416 724 554 655 Q692 587 762 587 Q862 587 946 726 L1032 675 Z " />
<glyph glyph-name="Adieresis" unicode="&#xc4;" horiz-adv-x="1150" d="M1132 0 L941 0 L822 420 L321 420 L204 0 L19 0 L459 1467 L692 1467 L1132 0 Z M785 569 L629 1117 L571 1322 L514 1117 L358 569 L785 569 Z M839 1591 L659 1591 L659 1815 L839 1815 L839 1591 Z M472 1591 L292 1591 L292 1815 L472 1815 L472 1591 Z " />
<glyph glyph-name="Aring" unicode="&#xc5;" horiz-adv-x="1150" d="M1132 0 L941 0 L822 420 L321 420 L204 0 L19 0 L459 1467 L692 1467 L1132 0 Z M785 569 L629 1117 L571 1322 L514 1117 L358 569 L785 569 Z M570 1936 Q661 1936 722 1879 Q783 1822 783 1738 Q783 1654 722 1597.5 Q661 1541 569 1541 Q479 1541 419.5 1596.5 Q360 1652 360 1736 Q360 1822 420 1879 Q480 1936 570 1936 Z M574 1839 Q528 1839 498 1810.5 Q468 1782 468 1738 Q468 1695 498 1665 Q528 1635 571 1635 Q615 1635 645 1664.5 Q675 1694 675 1736 Q675 1839 574 1839 Z " />
<glyph glyph-name="Ccedilla" unicode="&#xc7;" horiz-adv-x="1297" d="M411 -409 L428 -314 Q533 -336 582 -336 Q690 -336 690 -269 Q690 -204 565 -204 Q560 -204 518 -207 L594 -25 Q507 -10 458 8 Q409 26 363 59 Q260 132 215 229 Q121 429 121 708 Q121 1081 268 1290 Q414 1498 685 1498 Q1018 1498 1141 1198 Q1173 1120 1187 1012 L1007 993 Q998 1078 973 1145 Q896 1353 680 1353 Q535 1353 443 1251 Q381 1181 344 1012 Q314 875 314 724 Q314 462 401 276 Q435 203 517 156 Q589 115 681 115 Q906 115 986 342 Q1006 400 1015 483 L1194 458 Q1176 312 1125 216 Q991 -26 695 -31 L657 -121 Q745 -123 784.5 -156.5 Q824 -190 824 -262 Q824 -313 802 -351 Q752 -438 593 -438 Q513 -438 411 -409 Z " />
<glyph glyph-name="Eacute" unicode="&#xc9;" horiz-adv-x="1146" d="M1081 0 L183 0 L183 1467 L1029 1467 L1029 1318 L361 1318 L361 829 L902 829 L902 680 L361 680 L361 149 L1081 149 L1081 0 Z M842 1869 L605 1599 L443 1599 L628 1869 L842 1869 Z " />
<glyph glyph-name="Ntilde" unicode="&#xd1;" horiz-adv-x="1381" d="M1199 0 L975 0 L445 1043 Q434 1064 417 1096 Q363 1197 348 1261 Q359 1189 359 1113 L359 0 L183 0 L183 1467 L416 1467 L953 401 Q981 345 1037 204 Q1025 300 1025 382 L1025 1467 L1199 1467 L1199 0 Z M1049 1726 Q951 1594 840 1594 Q793 1594 707 1631 Q620 1669 579 1669 Q527 1669 471 1592 L368 1676 Q471 1819 591 1819 Q636 1819 737 1771 Q801 1741 839 1741 Q886 1741 954 1819 L1049 1726 Z " />
<glyph glyph-name="Odieresis" unicode="&#xd6;" horiz-adv-x="1394" d="M699 1498 Q970 1498 1121 1296 Q1273 1093 1273 735 Q1273 438 1169 249 Q1014 -31 698 -31 Q429 -31 276 174 Q121 381 121 734 Q121 1092 275 1294 Q431 1498 699 1498 Z M695 1353 Q511 1353 414 1194 Q316 1034 316 736 Q316 438 415 276 Q514 115 697 115 Q881 115 979 274 Q1078 435 1078 731 Q1078 981 1008 1133 Q907 1353 695 1353 Z M975 1591 L795 1591 L795 1815 L975 1815 L975 1591 Z M608 1591 L428 1591 L428 1815 L608 1815 L608 1591 Z " />
<glyph glyph-name="Udieresis" unicode="&#xdc;" horiz-adv-x="1361" d="M183 1467 L361 1467 L361 523 Q361 324 415 234 Q485 117 681 117 Q878 117 947 234 Q1001 324 1001 529 L1001 1467 L1179 1467 L1179 497 Q1179 276 1100 153 Q982 -29 675 -29 Q413 -29 293 109 Q183 236 183 497 L183 1467 Z M954 1591 L774 1591 L774 1815 L954 1815 L954 1591 Z M587 1591 L407 1591 L407 1815 L587 1815 L587 1591 Z " />
<glyph glyph-name="aacute" unicode="&#xe1;" horiz-adv-x="1082" d="M911 0 L752 0 L752 136 Q624 -19 421 -19 Q274 -19 188 69 Q102 156 102 293 Q102 552 393 654 Q518 698 744 726 L744 807 Q744 907 686 964 Q625 1024 517 1024 Q430 1024 367.5 987 Q305 950 251 867 L108 955 Q163 1032 214 1071 Q333 1163 524 1163 Q626 1163 708 1135 Q790 1107 834 1057 Q911 971 911 818 L911 0 Z M744 286 L744 602 Q576 582 481 549 Q274 477 274 306 Q274 219 324 168 Q374 117 458 117 Q624 117 744 286 Z M761 1586 L581 1280 L422 1280 L552 1586 L761 1586 Z " />
<glyph glyph-name="agrave" unicode="&#xe0;" horiz-adv-x="1082" d="M911 0 L752 0 L752 136 Q624 -19 421 -19 Q274 -19 188 69 Q102 156 102 293 Q102 552 393 654 Q518 698 744 726 L744 807 Q744 907 686 964 Q625 1024 517 1024 Q430 1024 367.5 987 Q305 950 251 867 L108 955 Q163 1032 214 1071 Q333 1163 524 1163 Q626 1163 708 1135 Q790 1107 834 1057 Q911 971 911 818 L911 0 Z M744 286 L744 602 Q576 582 481 549 Q274 477 274 306 Q274 219 324 168 Q374 117 458 117 Q624 117 744 286 Z M641 1280 L487 1280 L302 1586 L516 1586 L641 1280 Z " />
<glyph glyph-name="acircumflex" unicode="&#xe2;" horiz-adv-x="1082" d="M911 0 L752 0 L752 136 Q624 -19 421 -19 Q274 -19 188 69 Q102 156 102 293 Q102 552 393 654 Q518 698 744 726 L744 807 Q744 907 686 964 Q625 1024 517 1024 Q430 1024 367.5 987 Q305 950 251 867 L108 955 Q163 1032 214 1071 Q333 1163 524 1163 Q626 1163 708 1135 Q790 1107 834 1057 Q911 971 911 818 L911 0 Z M744 286 L744 602 Q576 582 481 549 Q274 477 274 306 Q274 219 324 168 Q374 117 458 117 Q624 117 744 286 Z M842 1278 L690 1278 L538 1484 L391 1278 L243 1278 L421 1586 L662 1586 L842 1278 Z " />
<glyph glyph-name="adieresis" unicode="&#xe4;" horiz-adv-x="1082" d="M911 0 L752 0 L752 136 Q624 -19 421 -19 Q274 -19 188 69 Q102 156 102 293 Q102 552 393 654 Q518 698 744 726 L744 807 Q744 907 686 964 Q625 1024 517 1024 Q430 1024 367.5 987 Q305 950 251 867 L108 955 Q163 1032 214 1071 Q333 1163 524 1163 Q626 1163 708 1135 Q790 1107 834 1057 Q911 971 911 818 L911 0 Z M744 286 L744 602 Q576 582 481 549 Q274 477 274 306 Q274 219 324 168 Q374 117 458 117 Q624 117 744 286 Z M787 1293 L607 1293 L607 1517 L787 1517 L787 1293 Z M422 1293 L242 1293 L242 1517 L422 1517 L422 1293 Z " />
<glyph glyph-name="atilde" unicode="&#xe3;" horiz-adv-x="1082" d="M911 0 L752 0 L752 136 Q624 -19 421 -19 Q274 -19 188 69 Q102 156 102 293 Q102 552 393 654 Q518 698 744 726 L744 807 Q744 907 686 964 Q625 1024 517 1024 Q430 1024 367.5 987 Q305 950 251 867 L108 955 Q163 1032 214 1071 Q333 1163 524 1163 Q626 1163 708 1135 Q790 1107 834 1057 Q911 971 911 818 L911 0 Z M744 286 L744 602 Q576 582 481 549 Q274 477 274 306 Q274 219 324 168 Q374 117 458 117 Q624 117 744 286 Z M869 1461 Q774 1331 665 1331 Q615 1331 530 1368 Q444 1406 401 1406 Q350 1406 294 1329 L193 1410 Q295 1553 413 1553 Q459 1553 543 1515 Q626 1478 662 1478 Q710 1478 777 1553 L869 1461 Z " />
<glyph glyph-name="aring" unicode="&#xe5;" horiz-adv-x="1082" d="M911 0 L752 0 L752 136 Q624 -19 421 -19 Q274 -19 188 69 Q102 156 102 293 Q102 552 393 654 Q518 698 744 726 L744 807 Q744 907 686 964 Q625 1024 517 1024 Q430 1024 367.5 987 Q305 950 251 867 L108 955 Q163 1032 214 1071 Q333 1163 524 1163 Q626 1163 708 1135 Q790 1107 834 1057 Q911 971 911 818 L911 0 Z M744 286 L744 602 Q576 582 481 549 Q274 477 274 306 Q274 219 324 168 Q374 117 458 117 Q624 117 744 286 Z M534 1645 Q625 1645 686 1588 Q747 1531 747 1447 Q747 1363 686 1306 Q625 1249 534 1249 Q443 1249 383.5 1304.5 Q324 1360 324 1445 Q324 1530 384 1587.5 Q444 1645 534 1645 Z M538 1548 Q493 1548 463 1519 Q433 1490 433 1447 Q433 1403 463 1373 Q493 1343 535 1343 Q579 1343 608.5 1372.5 Q638 1402 638 1445 Q638 1493 611.5 1520.5 Q585 1548 538 1548 Z " />
<glyph glyph-name="ccedilla" unicode="&#xe7;" horiz-adv-x="1049" d="M988 296 Q964 205 919 141 Q805 -18 596 -28 L556 -121 Q645 -124 684.5 -157 Q724 -190 724 -262 Q724 -342 674 -387 Q615 -438 492 -438 Q414 -438 310 -409 L328 -315 Q434 -336 481 -336 Q590 -336 590 -269 Q590 -204 465 -204 Q455 -204 418 -207 L495 -24 Q334 3 243 115 Q117 269 117 550 Q117 800 214 963 Q332 1163 571 1163 Q733 1163 835 1078 Q937 993 974 827 L807 785 Q783 886 742 941 Q680 1022 566 1022 Q455 1022 388 946 Q347 899 320.5 790.5 Q294 682 294 561 Q294 429 323.5 322.5 Q353 216 402 171 Q468 112 567 112 Q666 112 727 167.5 Q788 223 822 346 L988 296 Z " />
<glyph glyph-name="eacute" unicode="&#xe9;" horiz-adv-x="1112" d="M1004 258 Q953 148 898 92 Q776 -29 567 -29 Q361 -29 246 102 Q180 177 145 321 Q117 438 117 566 Q117 862 249 1017 Q374 1163 582 1163 Q796 1163 904 1002 Q996 864 996 640 L996 543 L294 543 Q298 424 311 360.5 Q324 297 358 234 Q423 112 573 112 Q672 112 737.5 163 Q803 214 853 330 L1004 258 Z M822 682 Q818 821 774 901 Q708 1022 572 1022 Q448 1022 380.5 940 Q313 858 294 682 L822 682 Z M800 1587 L620 1281 L461 1281 L591 1587 L800 1587 Z " />
<glyph glyph-name="egrave" unicode="&#xe8;" horiz-adv-x="1112" d="M1004 258 Q953 148 898 92 Q776 -29 567 -29 Q361 -29 246 102 Q180 177 145 321 Q117 438 117 566 Q117 862 249 1017 Q374 1163 582 1163 Q796 1163 904 1002 Q996 864 996 640 L996 543 L294 543 Q298 424 311 360.5 Q324 297 358 234 Q423 112 573 112 Q672 112 737.5 163 Q803 214 853 330 L1004 258 Z M822 682 Q818 821 774 901 Q708 1022 572 1022 Q448 1022 380.5 940 Q313 858 294 682 L822 682 Z M685 1280 L531 1280 L346 1586 L560 1586 L685 1280 Z " />
<glyph glyph-name="ecircumflex" unicode="&#xea;" horiz-adv-x="1112" d="M1004 258 Q953 148 898 92 Q776 -29 567 -29 Q361 -29 246 102 Q180 177 145 321 Q117 438 117 566 Q117 862 249 1017 Q374 1163 582 1163 Q796 1163 904 1002 Q996 864 996 640 L996 543 L294 543 Q298 424 311 360.5 Q324 297 358 234 Q423 112 573 112 Q672 112 737.5 163 Q803 214 853 330 L1004 258 Z M822 682 Q818 821 774 901 Q708 1022 572 1022 Q448 1022 380.5 940 Q313 858 294 682 L822 682 Z M869 1278 L717 1278 L565 1484 L418 1278 L270 1278 L448 1586 L689 1586 L869 1278 Z " />
<glyph glyph-name="edieresis" unicode="&#xeb;" horiz-adv-x="1100" d="M1004 258 Q953 148 898 92 Q776 -29 567 -29 Q361 -29 246 102 Q180 177 145 321 Q117 438 117 566 Q117 862 249 1017 Q374 1163 582 1163 Q796 1163 904 1002 Q996 864 996 640 L996 543 L294 543 Q298 424 311 360.5 Q324 297 358 234 Q423 112 573 112 Q672 112 737.5 163 Q803 214 853 330 L1004 258 Z M822 682 Q818 821 774 901 Q708 1022 572 1022 Q448 1022 380.5 940 Q313 858 294 682 L822 682 Z M841 1293 L661 1293 L661 1517 L841 1517 L841 1293 Z M476 1293 L296 1293 L296 1517 L476 1517 L476 1293 Z " />
<glyph glyph-name="iacute" unicode="&#xed;" horiz-adv-x="554" d="M363 0 L193 0 L193 1135 L363 1135 L363 0 Z M522 1586 L342 1280 L183 1280 L313 1586 L522 1586 Z " />
<glyph glyph-name="igrave" unicode="&#xec;" horiz-adv-x="554" d="M364 0 L194 0 L194 1135 L364 1135 L364 0 Z M377 1280 L223 1280 L38 1586 L252 1586 L377 1280 Z " />
<glyph glyph-name="icircumflex" unicode="&#xee;" horiz-adv-x="554" d="M512 1282 L380 1282 L273 1491 L172 1282 L42 1282 L174 1588 L376 1588 L512 1282 Z M363 0 L193 0 L193 1135 L363 1135 L363 0 Z " />
<glyph glyph-name="idieresis" unicode="&#xef;" horiz-adv-x="554" d="M363 0 L193 0 L193 1135 L363 1135 L363 0 Z M503 1295 L338 1295 L338 1519 L503 1519 L503 1295 Z M215 1295 L50 1295 L50 1519 L215 1519 L215 1295 Z " />
<glyph glyph-name="ntilde" unicode="&#xf1;" horiz-adv-x="1158" d="M987 0 L817 0 L817 812 Q817 1015 654 1015 Q531 1015 350 875 L350 0 L180 0 L180 1135 L340 1135 L343 1001 Q431 1067 491 1098 Q595 1152 698 1152 Q858 1152 928 1053 Q987 969 987 785 L987 0 Z M909 1461 Q814 1331 705 1331 Q655 1331 570 1368 Q484 1406 441 1406 Q390 1406 334 1329 L233 1410 Q335 1553 453 1553 Q499 1553 583 1515 Q666 1478 702 1478 Q750 1478 817 1553 L909 1461 Z " />
<glyph glyph-name="oacute" unicode="&#xf3;" horiz-adv-x="1150" d="M586 1163 Q791 1163 906 1034 Q973 958 1007 814 Q1035 698 1035 569 Q1035 -29 568 -29 Q354 -29 243 98 Q178 173 143 315 Q116 428 116 557 Q116 827 213 977 Q332 1163 586 1163 Z M576 1022 Q457 1022 386 942 Q344 894 317.5 788.5 Q291 683 291 559 Q291 364 333 264 Q397 112 571 112 Q748 112 814 264 Q859 368 859 561 Q859 741 830 835 Q771 1022 576 1022 Z M811 1586 L631 1280 L472 1280 L602 1586 L811 1586 Z " />
<glyph glyph-name="ograve" unicode="&#xf2;" horiz-adv-x="1150" d="M586 1163 Q791 1163 906 1034 Q973 958 1007 814 Q1035 698 1035 569 Q1035 -29 568 -29 Q354 -29 243 98 Q178 173 143 315 Q116 428 116 557 Q116 827 213 977 Q332 1163 586 1163 Z M576 1022 Q457 1022 386 942 Q344 894 317.5 788.5 Q291 683 291 559 Q291 364 333 264 Q397 112 571 112 Q748 112 814 264 Q859 368 859 561 Q859 741 830 835 Q771 1022 576 1022 Z M680 1280 L526 1280 L341 1586 L555 1586 L680 1280 Z " />
<glyph glyph-name="ocircumflex" unicode="&#xf4;" horiz-adv-x="1150" d="M586 1163 Q791 1163 906 1034 Q973 958 1007 814 Q1035 698 1035 569 Q1035 -29 568 -29 Q354 -29 243 98 Q178 173 143 315 Q116 428 116 557 Q116 827 213 977 Q332 1163 586 1163 Z M576 1022 Q457 1022 386 942 Q344 894 317.5 788.5 Q291 683 291 559 Q291 364 333 264 Q397 112 571 112 Q748 112 814 264 Q859 368 859 561 Q859 741 830 835 Q771 1022 576 1022 Z M883 1278 L731 1278 L579 1484 L432 1278 L284 1278 L462 1586 L703 1586 L883 1278 Z " />
<glyph glyph-name="odieresis" unicode="&#xf6;" horiz-adv-x="1150" d="M586 1163 Q791 1163 906 1034 Q973 958 1007 814 Q1035 698 1035 569 Q1035 -29 568 -29 Q354 -29 243 98 Q178 173 143 315 Q116 428 116 557 Q116 827 213 977 Q332 1163 586 1163 Z M576 1022 Q457 1022 386 942 Q344 894 317.5 788.5 Q291 683 291 559 Q291 364 333 264 Q397 112 571 112 Q748 112 814 264 Q859 368 859 561 Q859 741 830 835 Q771 1022 576 1022 Z M841 1293 L661 1293 L661 1517 L841 1517 L841 1293 Z M476 1293 L296 1293 L296 1517 L476 1517 L476 1293 Z " />
<glyph glyph-name="otilde" unicode="&#xf5;" horiz-adv-x="1150" d="M586 1163 Q791 1163 906 1034 Q973 958 1007 814 Q1035 698 1035 569 Q1035 -29 568 -29 Q354 -29 243 98 Q178 173 143 315 Q116 428 116 557 Q116 827 213 977 Q332 1163 586 1163 Z M576 1022 Q457 1022 386 942 Q344 894 317.5 788.5 Q291 683 291 559 Q291 364 333 264 Q397 112 571 112 Q748 112 814 264 Q859 368 859 561 Q859 741 830 835 Q771 1022 576 1022 Z M914 1461 Q819 1331 710 1331 Q660 1331 575 1368 Q489 1406 446 1406 Q395 1406 339 1329 L238 1410 Q340 1553 458 1553 Q504 1553 588 1515 Q671 1478 707 1478 Q755 1478 822 1553 L914 1461 Z " />
<glyph glyph-name="uacute" unicode="&#xfa;" horiz-adv-x="1161" d="M978 0 L818 0 L816 134 Q727 66 666 35 Q561 -20 458 -20 Q300 -20 229 80 Q172 161 172 348 L172 1135 L341 1135 L341 323 Q341 221 372 175 Q410 119 501 119 Q624 119 810 258 L810 1135 L978 1135 L978 0 Z M785 1586 L605 1280 L446 1280 L576 1586 L785 1586 Z " />
<glyph glyph-name="ugrave" unicode="&#xf9;" horiz-adv-x="1161" d="M978 0 L818 0 L816 134 Q727 66 666 35 Q561 -20 458 -20 Q300 -20 229 80 Q172 161 172 348 L172 1135 L341 1135 L341 323 Q341 221 372 175 Q410 119 501 119 Q624 119 810 258 L810 1135 L978 1135 L978 0 Z M670 1280 L516 1280 L331 1586 L545 1586 L670 1280 Z " />
<glyph glyph-name="ucircumflex" unicode="&#xfb;" horiz-adv-x="1161" d="M978 0 L818 0 L816 134 Q727 66 666 35 Q561 -20 458 -20 Q300 -20 229 80 Q172 161 172 348 L172 1135 L341 1135 L341 323 Q341 221 372 175 Q410 119 501 119 Q624 119 810 258 L810 1135 L978 1135 L978 0 Z M875 1278 L723 1278 L571 1484 L424 1278 L276 1278 L454 1586 L695 1586 L875 1278 Z " />
<glyph glyph-name="udieresis" unicode="&#xfc;" horiz-adv-x="1161" d="M978 0 L818 0 L816 134 Q727 66 666 35 Q561 -20 458 -20 Q300 -20 229 80 Q172 161 172 348 L172 1135 L341 1135 L341 323 Q341 221 372 175 Q410 119 501 119 Q624 119 810 258 L810 1135 L978 1135 L978 0 Z M847 1293 L667 1293 L667 1517 L847 1517 L847 1293 Z M482 1293 L302 1293 L302 1517 L482 1517 L482 1293 Z " />
<glyph glyph-name="dagger" unicode="&#x2020;" horiz-adv-x="1150" d="M1060 833 L656 833 L656 -392 L490 -392 L490 833 L90 833 L90 990 L490 990 L490 1467 L656 1467 L656 990 L1060 990 L1060 833 Z " />
<glyph glyph-name="degree" unicode="&#xb0;" horiz-adv-x="917" d="M460 1613 Q605 1613 696 1527 Q788 1441 788 1301 Q788 1160 697 1074 Q606 989 459 989 Q344 989 262 1046 Q133 1133 133 1301 Q133 1443 225 1527 Q318 1613 460 1613 Z M460 1490 Q378 1490 326.5 1438 Q275 1386 275 1302 Q275 1218 326.5 1165 Q378 1112 460 1112 Q541 1112 593.5 1165.5 Q646 1219 646 1301 Q646 1385 594 1437.5 Q542 1490 460 1490 Z " />
<glyph glyph-name="cent" unicode="&#xa2;" horiz-adv-x="1165" d="M1041 473 Q1010 356 917 273 Q824 190 695 165 L695 -71 L552 -71 L552 169 Q383 192 287 304 Q158 454 158 733 Q158 1044 314 1209 Q402 1302 552 1326 L552 1540 L695 1540 L695 1328 Q827 1309 918 1224 Q1010 1138 1036 1007 L880 965 Q841 1152 695 1181 L695 312 Q841 353 888 525 L1041 473 Z M550 310 L550 1188 Q498 1171 465.5 1143 Q433 1115 403 1062 Q336 942 336 736 Q336 459 459 355 Q489 329 550 310 Z " />
<glyph glyph-name="sterling" unicode="&#xa3;" horiz-adv-x="1165" d="M1071 306 Q1059 173 1014 102 Q933 -29 741 -29 Q545 -29 312 109 Q254 40 167 -29 L75 63 Q168 149 216 225 Q319 387 319 584 Q319 630 310 663 L136 663 L136 803 L294 803 Q207 1070 207 1162 Q207 1320 335 1413 Q448 1496 621 1496 Q853 1496 958 1352 Q1011 1280 1036 1146 L880 1124 Q860 1223 822 1275 Q757 1364 620 1364 Q506 1364 436.5 1305.5 Q367 1247 367 1151 Q367 1080 411 945 Q443 848 451 803 L737 803 L737 663 L464 663 Q468 620 468 565 Q468 396 382 216 Q571 107 720 107 Q817 107 862.5 154.5 Q908 202 911 306 L1071 306 Z " />
<glyph glyph-name="section" unicode="&#xa7;" horiz-adv-x="1271" d="M923 185 Q981 142 1009 103 Q1070 20 1070 -94 Q1070 -234 980 -315 Q932 -357 841.5 -383 Q751 -409 651 -409 Q249 -409 185 -46 L365 -8 Q378 -132 453 -204.5 Q528 -277 643 -277 Q788 -277 850 -208 Q892 -162 892 -103 Q892 -60 875 -33 Q826 47 699 130 L361 353 Q244 429 198 485 Q132 565 132 677 Q132 780 184 844 Q236 908 369 970 Q255 1072 255 1207 Q255 1358 379 1434 Q484 1498 633 1498 Q941 1498 1040 1263 Q1055 1229 1057 1196 L877 1163 Q853 1262 792 1314 Q731 1366 638 1366 Q537 1366 482.5 1326 Q428 1286 428 1212 Q428 1153 463 1111.5 Q498 1070 600 1007 L906 821 Q1139 679 1139 488 Q1139 386 1091.5 319.5 Q1044 253 923 185 Z M470 891 Q403 863 370 834 Q306 779 306 695 Q306 636 335.5 597.5 Q365 559 460 495 L814 258 Q963 334 963 459 Q963 585 783 697 L470 891 Z " />
<glyph glyph-name="bullet" unicode="&#x2022;" horiz-adv-x="838" d="M420 892 Q477 892 516 852 Q555 812 555 753 Q555 695 515.5 655 Q476 615 420 615 Q363 615 323.5 655.5 Q284 696 284 754 Q284 812 323.5 852 Q363 892 420 892 Z " />
<glyph glyph-name="paragraph" unicode="&#xb6;" horiz-adv-x="1161" d="M1106 1348 L976 1348 L976 -387 L829 -387 L829 1348 L627 1348 L627 -387 L479 -387 L479 690 L447 690 Q273 690 160 796 Q44 904 44 1081 Q44 1265 155 1363 Q209 1411 309 1439 Q409 1467 525 1467 L1106 1467 L1106 1348 Z " />
<glyph glyph-name="germandbls" unicode="&#xdf;" horiz-adv-x="1207" d="M554 4 L583 156 Q700 119 774 119 Q885 119 935 175 Q974 219 974 286 Q974 374 890 469 Q870 492 754 620 Q651 733 651 864 Q651 914 669.5 960.5 Q688 1007 748 1108 Q810 1212 810 1280 Q810 1363 754 1414 Q698 1465 586 1465 Q459 1465 403 1402 Q350 1341 350 1223 L350 -392 L180 -392 L180 1223 Q180 1414 288 1513 Q392 1610 583 1610 Q751 1610 855 1532 Q972 1443 972 1294 Q972 1235 955 1187 Q938 1139 881 1039 Q823 937 823 889 Q823 805 927 686 Q1049 544 1065 524 Q1150 420 1150 294 Q1150 -27 771 -27 Q643 -27 554 4 Z " />
<glyph glyph-name="registered" unicode="&#xae;" horiz-adv-x="1494" d="M981 682 L866 682 L746 932 L652 932 L652 682 L547 682 L547 1280 L751 1280 Q962 1280 962 1113 Q962 1047 936 1009 Q910 971 851 950 L981 682 Z M652 1188 L652 1024 L738 1024 Q855 1024 855 1108 Q855 1154 831.5 1171 Q808 1188 742 1188 L652 1188 Z M743 1597 Q1015 1597 1188 1422 Q1359 1248 1359 969 Q1359 746 1248 588 Q1078 348 746 348 Q470 348 302 523 Q134 696 134 973 Q134 1255 303 1423 Q476 1597 743 1597 Z M743 1478 Q522 1478 390 1337 Q262 1202 262 977 Q262 753 392 612 Q527 466 746 466 Q967 466 1101 610 Q1231 749 1231 976 Q1231 1155 1144 1280 Q1007 1478 743 1478 Z " />
<glyph glyph-name="copyright" unicode="&#xa9;" horiz-adv-x="1578" d="M1139 592 Q1126 462 1069 380 Q976 248 795 248 Q616 248 523 353 Q476 406 448 505.5 Q420 605 420 719 Q420 934 499 1066 Q598 1229 794 1229 Q964 1229 1051 1109 Q1106 1033 1135 890 L972 871 Q961 972 927 1026 Q884 1095 793 1095 Q713 1095 663 1038 Q632 1002 611 914.5 Q590 827 590 732 Q590 628 613 545.5 Q636 463 673 429 Q723 384 796 384 Q882 384 925 438 Q968 492 978 613 L1139 592 Z M787 1538 Q1136 1538 1358 1313 Q1578 1090 1578 734 Q1578 447 1436 244 Q1218 -66 789 -66 Q433 -66 216 158 Q0 380 0 737 Q0 1098 218 1315 Q443 1538 787 1538 Z M786 1402 Q496 1402 320 1216 Q151 1036 151 741 Q151 447 324 261 Q502 70 789 70 Q1079 70 1255 260 Q1426 444 1426 741 Q1426 974 1312 1140 Q1231 1259 1105 1328 Q970 1402 786 1402 Z " />
<glyph glyph-name="trademark" unicode="&#x2122;" horiz-adv-x="1582" d="M1447 638 L1324 638 L1324 1197 Q1324 1252 1335 1416 Q1307 1271 1288 1207 L1126 649 L1009 649 L845 1209 L826 1291 Q804 1385 799 1405 Q815 1248 815 1198 L815 638 L692 638 L692 1519 L876 1519 L1009 1062 Q1052 911 1072 768 Q1093 932 1130 1062 L1260 1519 L1447 1519 L1447 638 Z M581 1414 L352 1414 L352 638 L229 638 L229 1414 L0 1414 L0 1519 L581 1519 L581 1414 Z " />
<glyph glyph-name="acute" unicode="&#xb4;" horiz-adv-x="1100" d="M719 1586 L539 1280 L380 1280 L510 1586 L719 1586 Z " />
<glyph glyph-name="dieresis" unicode="&#xa8;" horiz-adv-x="1100" d="M822 1293 L642 1293 L642 1517 L822 1517 L822 1293 Z M457 1293 L277 1293 L277 1517 L457 1517 L457 1293 Z " />
<glyph glyph-name="notequal" unicode="&#x2260;" horiz-adv-x="1100" d="M1026 325 L514 325 L392 75 L239 75 L361 325 L75 325 L75 463 L424 463 L521 668 L73 668 L73 807 L585 807 L703 1053 L855 1053 L736 807 L1024 807 L1024 668 L675 668 L576 463 L1026 463 L1026 325 Z " />
<glyph glyph-name="AE" unicode="&#xc6;" horiz-adv-x="1717" d="M1652 0 L821 0 L821 411 L397 411 L185 0 L-21 0 L754 1467 L1601 1467 L1601 1318 L999 1318 L999 827 L1478 827 L1478 678 L999 678 L999 149 L1652 149 L1652 0 Z M829 1270 L466 565 L821 565 L821 657 Q821 717 828 1161 L829 1270 Z " />
<glyph glyph-name="Oslash" unicode="&#xd8;" horiz-adv-x="1394" d="M1334 1478 Q1261 1386 1154 1245 Q1195 1172 1216 1115 Q1273 955 1273 738 Q1273 417 1146 214 Q994 -31 696 -31 Q496 -31 346 97 Q279 -6 204 -117 L61 -13 Q116 59 237 227 Q195 302 174 362 Q119 521 119 733 Q119 1050 246 1253 Q399 1498 699 1498 Q898 1498 1044 1377 L1057 1395 L1104 1466 L1164 1554 L1185 1586 L1334 1478 Z M946 1232 Q846 1353 692 1353 Q536 1353 443 1245 Q380 1173 344 1013 Q316 887 316 738 Q316 546 361 398 L409 464 Q661 810 728.5 906.5 Q796 1003 946 1232 Z M1028 1071 Q750 701 442 237 Q544 114 698 114 Q853 114 947 221 Q1010 293 1045 453 Q1074 587 1074 729 Q1074 923 1028 1071 Z " />
<glyph glyph-name="infinity" unicode="&#x221e;" horiz-adv-x="1464" d="M737 468 Q662 370 600 322 Q488 235 362 235 Q226 235 132 331 Q40 425 40 571 Q40 717 132 812 Q224 908 360 908 Q466 908 551.5 854 Q637 800 730 675 Q803 773 862 820 Q973 908 1103 908 Q1241 908 1333 813 Q1425 719 1425 569 Q1425 452 1365 368 Q1270 235 1103 235 Q997 235 913 288.5 Q829 342 737 468 Z M810 571 Q875 479 908 447 Q981 374 1078 374 Q1163 374 1216 429 Q1269 484 1269 572 Q1269 640 1233 690 Q1175 769 1080 769 Q1004 769 942 723.5 Q880 678 810 571 Z M655 571 Q597 657 550 698 Q469 769 382 769 Q303 769 249.5 712.5 Q196 656 196 572 Q196 487 251 430.5 Q306 374 388 374 Q465 374 518 413.5 Q571 453 655 571 Z " />
<glyph glyph-name="plusminus" unicode="&#xb1;" horiz-adv-x="1100" d="M1024 603 L624 603 L624 220 L474 220 L474 603 L75 603 L75 741 L474 741 L474 1119 L624 1119 L624 741 L1024 741 L1024 603 Z M1024 -11 L75 -11 L75 129 L1024 129 L1024 -11 Z " />
<glyph glyph-name="lessequal" unicode="&#x2264;" horiz-adv-x="1099" d="M1020 231 L79 609 L79 741 L1020 1119 L1020 976 L239 675 L1020 374 L1020 231 Z M1022 -13 L77 -13 L77 128 L1022 128 L1022 -13 Z " />
<glyph glyph-name="greaterequal" unicode="&#x2265;" horiz-adv-x="1099" d="M1020 609 L79 231 L79 374 L858 675 L79 976 L79 1119 L1020 741 L1020 609 Z M1022 -13 L77 -13 L77 128 L1022 128 L1022 -13 Z " />
<glyph glyph-name="yen" unicode="&#xa5;" horiz-adv-x="1165" d="M1137 1467 L822 906 L1064 906 L1064 791 L757 791 L667 631 L667 596 L1064 596 L1064 482 L667 482 L667 0 L491 0 L491 482 L95 482 L95 596 L491 596 L491 631 L401 791 L95 791 L95 906 L336 906 L29 1467 L222 1467 L475 1009 Q537 896 583 763 Q613 869 694 1013 L950 1467 L1137 1467 Z " />
<glyph glyph-name="mu" unicode="&#xb5;" horiz-adv-x="1163" d="M978 0 L827 0 L827 119 Q739 -17 584 -17 Q430 -17 334 119 L334 -389 L176 -389 L176 1135 L334 1135 L334 325 Q375 237 441.5 186 Q508 135 585 135 Q678 135 746 205 Q777 237 802 274 Q827 311 827 325 L827 1135 L978 1135 L978 0 Z " />
<glyph glyph-name="partialdiff" unicode="&#x2202;" horiz-adv-x="1110" d="M829 754 Q820 941 800 1029 Q752 1243 647 1318 Q576 1368 481 1368 Q349 1368 231 1265 L136 1366 Q196 1427 288 1461.5 Q380 1496 484 1496 Q695 1496 819 1354 Q903 1259 950 1050 Q988 879 988 688 Q988 425 938 270 Q841 -29 541 -29 Q340 -29 221 111 Q112 240 112 464 Q112 587 145 684.5 Q178 782 237 835 Q339 926 499 926 Q605 926 679 887.5 Q753 849 829 754 Z M827 587 Q779 673 735 716 Q652 796 531 796 Q413 796 343 719 Q309 683 289 611 Q269 539 269 458 Q269 358 294 280 Q319 202 364 162 Q435 99 542 99 Q701 99 772 240 Q827 348 827 512 L827 587 Z " />
<glyph glyph-name="summation" unicode="&#x2211;" horiz-adv-x="1102" d="M1012 0 L57 0 L57 147 L438 768 L57 1322 L57 1467 L1005 1467 L1005 1331 L222 1331 L609 766 L220 139 L1012 139 L1012 0 Z " />
<glyph glyph-name="product" unicode="&#x220f;" horiz-adv-x="1385" d="M1291 1329 L1151 1329 L1151 0 L995 0 L995 1329 L419 1329 L419 0 L265 0 L265 1329 L95 1329 L95 1467 L1291 1467 L1291 1329 Z " />
<glyph glyph-name="pi" unicode="&#x3c0;" horiz-adv-x="1163" d="M1088 996 L927 996 L927 0 L778 0 L778 996 L391 996 L391 0 L239 0 L239 996 L77 996 L77 1135 L1088 1135 L1088 996 Z " />
<glyph glyph-name="integral" unicode="&#x222b;" horiz-adv-x="1100" d="M884 1471 L849 1337 Q795 1359 751 1359 Q663 1359 639 1275 Q627 1235 627 1119 L627 -12 Q627 -196 582 -280 Q522 -391 349 -391 Q285 -391 216 -369 L248 -235 Q299 -257 349 -257 Q437 -257 459 -175 Q470 -137 470 -24 L470 1131 Q470 1306 515 1387 Q575 1496 735 1496 Q799 1496 884 1471 Z " />
<glyph glyph-name="ordfeminine" unicode="&#xaa;" horiz-adv-x="928" d="M732 895 L612 895 L610 961 Q532 881 410 881 Q312 881 255 935 Q195 991 195 1079 Q195 1240 383 1299 Q461 1323 606 1343 L606 1389 Q606 1508 478 1508 Q424 1508 374.5 1480 Q325 1452 303 1409 L207 1471 Q235 1520 265 1545 Q341 1609 482 1609 Q732 1609 732 1395 L732 895 Z M606 1078 L606 1253 Q495 1237 445 1221 Q323 1180 323 1084 Q323 982 426 982 Q516 982 606 1078 Z M732 642 L197 642 L197 761 L732 761 L732 642 Z " />
<glyph glyph-name="ordmasculine" unicode="&#xba;" horiz-adv-x="926" d="M470 1609 Q766 1609 766 1246 Q766 877 459 877 Q314 877 237 974 Q161 1069 161 1241 Q161 1609 470 1609 Z M466 1508 Q292 1508 292 1243 Q292 978 464 978 Q636 978 636 1241 Q636 1508 466 1508 Z M766 642 L167 642 L167 759 L766 759 L766 642 Z " />
<glyph glyph-name="Omega" unicode="&#x2126;" horiz-adv-x="1508" d="M1458 0 L864 0 L864 128 Q1033 226 1118 319 Q1293 513 1293 793 Q1293 1035 1157 1195 Q1011 1366 767 1366 Q522 1366 366 1198 Q216 1035 216 788 Q216 473 439 269 Q509 205 644 128 L644 0 L50 0 L50 141 L455 141 Q306 227 231 313 Q63 505 63 791 Q63 1090 268 1293 Q473 1496 769 1496 Q1065 1496 1257 1294 Q1445 1096 1445 797 Q1445 468 1236 269 Q1174 211 1053 141 L1458 141 L1458 0 Z " />
<glyph glyph-name="ae" unicode="&#xe6;" horiz-adv-x="1720" d="M1608 258 Q1581 190 1539 139 Q1403 -29 1178 -29 Q981 -29 874 82 Q845 112 812 169 Q745 92 688 54 Q567 -27 421 -27 Q274 -27 187 61 Q101 150 101 290 Q101 544 384 644 Q502 686 735 722 Q738 765 741 798 Q744 819 744 834 Q744 918 681.5 971 Q619 1024 519 1024 Q424 1024 359.5 986.5 Q295 949 251 867 L117 950 Q170 1029 221 1069 Q342 1163 525 1163 Q710 1163 801 1075 Q825 1051 852 1007 Q894 1063 933 1091 Q1032 1163 1180 1163 Q1404 1163 1511 997 Q1599 860 1599 644 L1599 543 L898 543 Q901 346 948 249 Q1014 112 1177 112 Q1280 112 1345 162.5 Q1410 213 1456 330 L1608 258 Z M1425 682 Q1413 1022 1173 1022 Q1049 1022 983 940 Q917 858 898 682 L1425 682 Z M752 290 Q726 390 726 538 Q726 577 728 598 Q552 570 466 537 Q273 464 273 299 Q273 214 322 160.5 Q371 107 449 107 Q589 107 752 290 Z " />
<glyph glyph-name="oslash" unicode="&#xf8;" horiz-adv-x="1150" d="M1130 1163 L958 950 Q1034 795 1034 565 Q1034 334 950 168 Q906 80 814 29 Q709 -29 573 -29 Q400 -29 281 75 L140 -114 L19 -25 Q87 55 193 191 Q119 346 119 566 Q119 829 218 981 Q336 1163 585 1163 Q753 1163 868 1066 L1007 1251 L1130 1163 Z M772 938 Q702 1022 582 1022 Q457 1022 387 941 Q344 893 318 788 Q292 683 292 562 Q292 443 314 346 Q549 645 772 938 Z M837 796 Q595 486 378 200 Q452 112 573 112 Q749 112 814 267 Q858 371 858 561 Q858 696 837 796 Z " />
<glyph glyph-name="questiondown" unicode="&#xbf;" horiz-adv-x="873" d="M378 1126 L528 1126 L528 1047 Q528 904 449 774 Q439 758 320 577 Q224 430 224 330 Q224 231 279 182 Q326 139 410 139 Q490 139 540 174.5 Q590 210 627 292 L772 220 Q762 196 740 165 Q622 0 402 0 Q61 0 61 327 Q61 465 162 608 Q288 787 296 800 Q378 923 378 1053 L378 1126 Z M354 1496 L545 1496 L545 1240 L354 1240 L354 1496 Z " />
<glyph glyph-name="exclamdown" unicode="&#xa1;" horiz-adv-x="644" d="M380 1212 L189 1212 L189 1467 L380 1467 L380 1212 Z M384 0 L189 0 L224 1095 L346 1095 L384 0 Z " />
<glyph glyph-name="logicalnot" unicode="&#xac;" horiz-adv-x="1100" d="M1024 0 L875 0 L875 517 L75 517 L75 657 L1024 657 L1024 0 Z " />
<glyph glyph-name="radical" unicode="&#x221a;" horiz-adv-x="1372" d="M1394 1549 L959 1549 L531 0 L346 0 L158 661 L-21 661 L-21 803 L284 803 Q365 532 431 209 L445 209 Q554 704 832 1687 L1394 1687 L1394 1549 Z " />
<glyph glyph-name="florin" unicode="&#x192;" horiz-adv-x="1165" d="M988 1557 L955 1423 Q915 1432 876 1432 Q787 1432 747.5 1387 Q708 1342 691 1221 L662 1014 L898 1014 L898 869 L642 869 L479 -284 L311 -284 L473 869 L288 869 L288 1014 L493 1014 Q497 1051 500 1070 Q523 1261 524 1272 Q529 1325 554.5 1383.5 Q580 1442 616 1481 Q695 1568 859 1568 Q921 1568 988 1557 Z " />
<glyph glyph-name="approxequal" unicode="&#x2248;" horiz-adv-x="1099" d="M1032 820 Q914 596 748 596 Q676 596 541 663 Q405 730 336 730 Q238 730 152 587 L68 638 Q119 735 159 780 Q236 867 341 867 Q416 867 585 784 Q691 732 761 732 Q862 732 946 871 L1032 820 Z M1032 519 Q913 296 749 296 Q676 296 541 364 Q405 431 337 431 Q236 431 152 286 L68 338 Q195 567 344 567 Q417 567 585 483 Q691 430 761 430 Q862 430 946 569 L1032 519 Z " />
<glyph glyph-name="increment" unicode="&#x2206;" horiz-adv-x="1341" d="M1341 0 L0 0 L589 1467 L749 1467 L1341 0 Z M1121 141 L669 1285 L218 141 L1121 141 Z " />
<glyph glyph-name="guillemotleft" unicode="&#xab;" horiz-adv-x="1128" d="M976 1064 L772 565 L973 68 L849 46 L578 565 L846 1084 L976 1064 Z M549 1064 L345 565 L547 68 L419 46 L151 565 L419 1084 L549 1064 Z " />
<glyph glyph-name="guillemotright" unicode="&#xbb;" horiz-adv-x="1128" d="M976 565 L707 46 L583 68 L784 565 L578 1064 L710 1084 L976 565 Z M549 565 L279 46 L153 68 L356 565 L151 1064 L281 1084 L549 565 Z " />
<glyph glyph-name="ellipsis" unicode="&#x2026;" horiz-adv-x="1385" d="M1251 0 L1058 0 L1058 255 L1251 255 L1251 0 Z M786 0 L593 0 L593 255 L786 255 L786 0 Z M327 0 L136 0 L136 255 L327 255 L327 0 Z " />
<glyph glyph-name="Agrave" unicode="&#xc0;" horiz-adv-x="1150" d="M1132 0 L941 0 L822 420 L321 420 L204 0 L19 0 L459 1467 L692 1467 L1132 0 Z M785 569 L629 1117 L571 1322 L514 1117 L358 569 L785 569 Z M667 1599 L505 1599 L268 1869 L483 1869 L667 1599 Z " />
<glyph glyph-name="Atilde" unicode="&#xc3;" horiz-adv-x="1150" d="M1132 0 L941 0 L822 420 L321 420 L204 0 L19 0 L459 1467 L692 1467 L1132 0 Z M785 569 L629 1117 L571 1322 L514 1117 L358 569 L785 569 Z M921 1726 Q823 1594 712 1594 Q665 1594 579 1631 Q492 1669 451 1669 Q399 1669 343 1592 L240 1676 Q343 1819 463 1819 Q508 1819 609 1771 Q673 1741 711 1741 Q758 1741 826 1819 L921 1726 Z " />
<glyph glyph-name="Otilde" unicode="&#xd5;" horiz-adv-x="1394" d="M699 1498 Q970 1498 1121 1296 Q1273 1093 1273 735 Q1273 438 1169 249 Q1014 -31 698 -31 Q429 -31 276 174 Q121 381 121 734 Q121 1092 275 1294 Q431 1498 699 1498 Z M695 1353 Q511 1353 414 1194 Q316 1034 316 736 Q316 438 415 276 Q514 115 697 115 Q881 115 979 274 Q1078 435 1078 731 Q1078 981 1008 1133 Q907 1353 695 1353 Z M1029 1726 Q931 1594 820 1594 Q773 1594 687 1631 Q600 1669 559 1669 Q507 1669 451 1592 L348 1676 Q451 1819 571 1819 Q616 1819 717 1771 Q781 1741 819 1741 Q866 1741 934 1819 L1029 1726 Z " />
<glyph glyph-name="OE" unicode="&#x152;" horiz-adv-x="1943" d="M1878 0 L1000 0 L1000 103 Q860 -29 665 -29 Q376 -29 235 220 Q121 420 121 730 Q121 1043 240 1246 Q387 1496 675 1496 Q874 1496 1000 1366 L1000 1467 L1829 1467 L1829 1318 L1174 1318 L1174 829 L1702 829 L1702 680 L1174 680 L1174 149 L1878 149 L1878 0 Z M996 264 L996 1201 Q872 1353 700 1353 Q481 1353 385 1135 Q316 980 316 717 Q316 455 406 271 Q441 198 520 153 Q591 112 683 112 Q772 112 845 147.5 Q918 183 996 264 Z " />
<glyph glyph-name="oe" unicode="&#x153;" horiz-adv-x="1852" d="M947 162 Q901 93 857 58 Q747 -29 569 -29 Q355 -29 243 98 Q179 172 145 315 Q117 429 117 556 Q117 824 214 977 Q331 1163 586 1163 Q677 1163 757.5 1134.5 Q838 1106 889 1055 Q920 1026 954 970 Q1004 1042 1052 1078 Q1161 1163 1319 1163 Q1536 1163 1644 1002 Q1736 863 1736 640 L1736 543 L1035 543 Q1039 423 1052 360 Q1065 297 1099 234 Q1164 112 1314 112 Q1412 112 1477 163 Q1542 214 1593 330 L1745 258 Q1693 148 1637 93 Q1515 -29 1313 -29 Q1186 -29 1099 16.5 Q1012 62 947 162 Z M1562 682 Q1559 820 1514 901 Q1448 1022 1313 1022 Q1188 1022 1121 940 Q1054 858 1035 682 L1562 682 Z M577 1022 Q458 1022 387 942 Q345 894 318.5 788.5 Q292 683 292 559 Q292 364 334 264 Q397 112 572 112 Q749 112 815 264 Q860 368 860 561 Q860 741 831 835 Q772 1022 577 1022 Z " />
<glyph glyph-name="endash" unicode="&#x2013;" horiz-adv-x="805" d="M805 506 L0 506 L0 669 L805 669 L805 506 Z " />
<glyph glyph-name="emdash" unicode="&#x2014;" horiz-adv-x="1429" d="M1429 506 L0 506 L0 669 L1429 669 L1429 506 Z " />
<glyph glyph-name="quotedblleft" unicode="&#x201c;" horiz-adv-x="827" d="M702 1522 L624 1228 L691 1228 L691 972 L500 972 L500 1223 L634 1522 L702 1522 Z M343 1521 L264 1227 L334 1227 L334 971 L141 971 L141 1223 L277 1521 L343 1521 Z " />
<glyph glyph-name="quotedblright" unicode="&#x201d;" horiz-adv-x="827" d="M684 1271 L549 971 L484 971 L560 1264 L493 1264 L493 1521 L684 1521 L684 1271 Z M328 1271 L193 971 L126 971 L204 1264 L137 1264 L137 1521 L328 1521 L328 1271 Z " />
<glyph glyph-name="quoteleft" unicode="&#x2018;" horiz-adv-x="462" d="M333 1522 L257 1228 L325 1228 L325 972 L134 972 L134 1223 L268 1522 L333 1522 Z " />
<glyph glyph-name="quoteright" unicode="&#x2019;" horiz-adv-x="462" d="M330 1270 L193 971 L128 971 L207 1264 L137 1264 L137 1521 L330 1521 L330 1270 Z " />
<glyph glyph-name="divide" unicode="&#xf7;" horiz-adv-x="1097" d="M640 809 L460 809 L460 1036 L640 1036 L640 809 Z M1024 493 L73 493 L73 633 L1024 633 L1024 493 Z M640 90 L460 90 L460 314 L640 314 L640 90 Z " />
<glyph glyph-name="lozenge" unicode="&#x25ca;" horiz-adv-x="1172" d="M1154 732 L589 -57 L17 732 L589 1524 L1154 732 Z M982 732 Q827 948 589 1291 Q477 1124 189 732 Q326 546 589 176 Q711 355 982 732 Z " />
<glyph glyph-name="ydieresis" unicode="&#xff;" horiz-adv-x="936" d="M917 1135 L533 -97 Q481 -262 412 -325 Q333 -398 165 -398 Q88 -398 31 -382 L48 -246 Q108 -260 155 -260 Q279 -260 331 -157 Q350 -120 392 21 L13 1135 L200 1135 L389 537 Q397 510 415 455 Q464 309 477 207 Q500 311 567 543 L739 1135 L917 1135 Z M743 1293 L563 1293 L563 1517 L743 1517 L743 1293 Z M378 1293 L198 1293 L198 1517 L378 1517 L378 1293 Z " />
<glyph glyph-name="Ydieresis" unicode="&#x178;" horiz-adv-x="1087" d="M1097 1467 L627 631 L627 0 L451 0 L451 631 L-11 1467 L184 1467 L398 1073 Q476 930 503 870.5 Q530 811 549 739 Q579 852 698 1073 L912 1467 L1097 1467 Z M824 1591 L644 1591 L644 1815 L824 1815 L824 1591 Z M457 1591 L277 1591 L277 1815 L457 1815 L457 1591 Z " />
<glyph glyph-name="fraction" unicode="&#x2044;" horiz-adv-x="197" d="M548 1496 L-214 -29 L-350 -29 L411 1496 L548 1496 Z " />
<glyph glyph-name="Euro" unicode="&#x20ac;" horiz-adv-x="1165" d="M1154 1276 L1001 1196 Q964 1257 929 1288 Q852 1353 738 1353 Q577 1353 490 1229 Q452 1175 431.5 1120 Q411 1065 392 963 L858 963 L858 825 L375 825 Q373 754 373 682 L373 659 L858 659 L858 521 L384 521 Q401 416 420 359.5 Q439 303 476 246 Q565 114 740 114 Q827 114 888 145.5 Q949 177 998 248 L1139 147 Q1087 82 1039 50 Q921 -31 744 -31 Q445 -31 306 174 Q258 245 233.5 317 Q209 389 189 521 L15 521 L15 659 L180 659 L180 728 Q180 784 182 825 L15 825 L15 963 L199 963 Q238 1165 325 1287 Q475 1498 740 1498 Q882 1498 979.5 1445.5 Q1077 1393 1154 1276 Z " />
<glyph glyph-name="guilsinglleft" unicode="&#x2039;" horiz-adv-x="701" d="M549 1064 L345 565 L547 68 L422 46 L151 565 L419 1084 L549 1064 Z " />
<glyph glyph-name="guilsinglright" unicode="&#x203a;" horiz-adv-x="701" d="M549 565 L279 46 L153 68 L356 565 L151 1064 L281 1084 L549 565 Z " />
<glyph glyph-name="fi" unicode="&#xfb01;" horiz-adv-x="1146" d="M642 1582 L627 1445 Q564 1461 509 1461 Q431 1461 401.5 1423.5 Q372 1386 372 1286 L372 1135 L602 1135 L602 988 L372 988 L372 0 L202 0 L202 988 L19 988 L19 1135 L202 1135 L202 1297 Q202 1597 484 1597 Q532 1597 642 1582 Z M963 1290 L770 1290 L770 1519 L963 1519 L963 1290 Z M953 0 L783 0 L783 1135 L953 1135 L953 0 Z " />
<glyph glyph-name="fl" unicode="&#xfb02;" horiz-adv-x="1133" d="M642 1582 L627 1445 Q564 1461 509 1461 Q431 1461 401.5 1423.5 Q372 1386 372 1286 L372 1135 L602 1135 L602 988 L372 988 L372 0 L202 0 L202 988 L19 988 L19 1135 L202 1135 L202 1297 Q202 1597 484 1597 Q532 1597 642 1582 Z M952 0 L782 0 L782 1519 L952 1519 L952 0 Z " />
<glyph glyph-name="daggerdbl" unicode="&#x2021;" horiz-adv-x="1150" d="M1060 145 L656 145 L656 -392 L490 -392 L490 145 L90 145 L90 310 L490 310 L490 836 L90 836 L90 1001 L490 1001 L490 1467 L659 1467 L659 1001 L1060 1001 L1060 836 L659 836 L659 310 L1060 310 L1060 145 Z " />
<glyph glyph-name="periodcentered" unicode="&#xb7;" horiz-adv-x="464" d="M327 486 L136 486 L136 743 L327 743 L327 486 Z " />
<glyph glyph-name="quotesinglbase" unicode="&#x201a;" horiz-adv-x="462" d="M330 4 L193 -294 L128 -294 L207 0 L137 0 L137 255 L330 255 L330 4 Z " />
<glyph glyph-name="quotedblbase" unicode="&#x201e;" horiz-adv-x="827" d="M684 4 L549 -295 L484 -295 L560 0 L493 0 L493 255 L684 255 L684 4 Z M328 4 L193 -295 L126 -295 L204 0 L137 0 L137 255 L328 255 L328 4 Z " />
<glyph glyph-name="perthousand" unicode="&#x2030;" horiz-adv-x="2575" d="M2124 888 Q2253 888 2327 804 Q2370 755 2395.5 657.5 Q2421 560 2421 445 Q2421 -27 2113 -27 Q1985 -27 1912 56 Q1871 101 1844.5 205.5 Q1818 310 1818 423 Q1818 559 1849 666 Q1880 773 1935 821 Q2009 888 2124 888 Z M2121 776 Q2064 776 2026 732 Q1997 700 1978 611.5 Q1959 523 1959 423 Q1959 317 1979.5 232 Q2000 147 2033 117 Q2070 83 2119 83 Q2175 83 2213 127 Q2243 162 2261.5 244 Q2280 326 2280 425 Q2280 776 2121 776 Z M1394 888 Q1523 888 1597 804 Q1640 755 1665.5 657 Q1691 559 1691 444 Q1691 -27 1385 -27 Q1255 -27 1182 56 Q1142 102 1115 207 Q1088 312 1088 423 Q1088 619 1155 757 Q1185 818 1249 853 Q1313 888 1394 888 Z M1391 776 Q1335 776 1296 732 Q1267 700 1248 611.5 Q1229 523 1229 423 Q1229 317 1249.5 232 Q1270 147 1304 117 Q1341 83 1389 83 Q1446 83 1484 127 Q1514 162 1532.5 243.5 Q1551 325 1551 424 Q1551 776 1391 776 Z M1370 1496 L608 -29 L474 -29 L1235 1496 L1370 1496 Z M459 1498 Q588 1498 662 1414 Q705 1366 730.5 1268 Q756 1170 756 1056 Q756 586 450 586 Q321 586 246 670 Q206 715 179.5 818 Q153 921 153 1032 Q153 1169 184.5 1276 Q216 1383 270 1432 Q344 1498 459 1498 Z M457 1390 Q400 1390 360 1345 Q332 1313 313 1225.5 Q294 1138 294 1038 Q294 931 315 844.5 Q336 758 369 728 Q406 695 454 695 Q510 695 548 738 Q577 773 595.5 856 Q614 939 614 1038 Q614 1390 457 1390 Z " />
<glyph glyph-name="Acircumflex" unicode="&#xc2;" horiz-adv-x="1150" d="M1132 0 L941 0 L822 420 L321 420 L204 0 L19 0 L459 1467 L692 1467 L1132 0 Z M785 569 L629 1117 L571 1322 L514 1117 L358 569 L785 569 Z M896 1592 L746 1592 L575 1779 L409 1592 L262 1592 L455 1881 L700 1881 L896 1592 Z " />
<glyph glyph-name="Ecircumflex" unicode="&#xca;" horiz-adv-x="1146" d="M1081 0 L183 0 L183 1467 L1029 1467 L1029 1318 L361 1318 L361 829 L902 829 L902 680 L361 680 L361 149 L1081 149 L1081 0 Z M929 1592 L779 1592 L608 1779 L442 1592 L295 1592 L488 1881 L733 1881 L929 1592 Z " />
<glyph glyph-name="Aacute" unicode="&#xc1;" horiz-adv-x="1150" d="M1132 0 L941 0 L822 420 L321 420 L204 0 L19 0 L459 1467 L692 1467 L1132 0 Z M785 569 L629 1117 L571 1322 L514 1117 L358 569 L785 569 Z M856 1869 L619 1599 L457 1599 L642 1869 L856 1869 Z " />
<glyph glyph-name="Edieresis" unicode="&#xcb;" horiz-adv-x="1146" d="M1081 0 L183 0 L183 1467 L1029 1467 L1029 1318 L361 1318 L361 829 L902 829 L902 680 L361 680 L361 149 L1081 149 L1081 0 Z M873 1591 L693 1591 L693 1815 L873 1815 L873 1591 Z M506 1591 L326 1591 L326 1815 L506 1815 L506 1591 Z " />
<glyph glyph-name="Egrave" unicode="&#xc8;" horiz-adv-x="1146" d="M1081 0 L183 0 L183 1467 L1029 1467 L1029 1318 L361 1318 L361 829 L902 829 L902 680 L361 680 L361 149 L1081 149 L1081 0 Z M733 1599 L571 1599 L334 1869 L549 1869 L733 1599 Z " />
<glyph glyph-name="Iacute" unicode="&#xcd;" horiz-adv-x="543" d="M360 0 L182 0 L182 1467 L360 1467 L360 0 Z M550 1869 L313 1599 L151 1599 L336 1869 L550 1869 Z " />
<glyph glyph-name="Icircumflex" unicode="&#xce;" horiz-adv-x="543" d="M502 1592 L374 1592 L267 1799 L166 1592 L40 1592 L170 1898 L368 1898 L502 1592 Z M361 0 L183 0 L183 1467 L361 1467 L361 0 Z " />
<glyph glyph-name="Idieresis" unicode="&#xcf;" horiz-adv-x="543" d="M360 0 L182 0 L182 1467 L360 1467 L360 0 Z M499 1593 L325 1593 L325 1817 L499 1817 L499 1593 Z M222 1593 L50 1593 L50 1817 L222 1817 L222 1593 Z " />
<glyph glyph-name="Igrave" unicode="&#xcc;" horiz-adv-x="543" d="M361 0 L183 0 L183 1467 L361 1467 L361 0 Z M370 1599 L208 1599 L-29 1869 L186 1869 L370 1599 Z " />
<glyph glyph-name="Oacute" unicode="&#xd3;" horiz-adv-x="1394" d="M699 1498 Q970 1498 1121 1296 Q1273 1093 1273 735 Q1273 438 1169 249 Q1014 -31 698 -31 Q429 -31 276 174 Q121 381 121 734 Q121 1092 275 1294 Q431 1498 699 1498 Z M695 1353 Q511 1353 414 1194 Q316 1034 316 736 Q316 438 415 276 Q514 115 697 115 Q881 115 979 274 Q1078 435 1078 731 Q1078 981 1008 1133 Q907 1353 695 1353 Z M975 1869 L738 1599 L576 1599 L761 1869 L975 1869 Z " />
<glyph glyph-name="Ocircumflex" unicode="&#xd4;" horiz-adv-x="1394" d="M699 1498 Q970 1498 1121 1296 Q1273 1093 1273 735 Q1273 438 1169 249 Q1014 -31 698 -31 Q429 -31 276 174 Q121 381 121 734 Q121 1092 275 1294 Q431 1498 699 1498 Z M695 1353 Q511 1353 414 1194 Q316 1034 316 736 Q316 438 415 276 Q514 115 697 115 Q881 115 979 274 Q1078 435 1078 731 Q1078 981 1008 1133 Q907 1353 695 1353 Z M1024 1592 L874 1592 L703 1779 L537 1592 L390 1592 L583 1881 L828 1881 L1024 1592 Z " />
<glyph glyph-name="Ograve" unicode="&#xd2;" horiz-adv-x="1394" d="M699 1498 Q970 1498 1121 1296 Q1273 1093 1273 735 Q1273 438 1169 249 Q1014 -31 698 -31 Q429 -31 276 174 Q121 381 121 734 Q121 1092 275 1294 Q431 1498 699 1498 Z M695 1353 Q511 1353 414 1194 Q316 1034 316 736 Q316 438 415 276 Q514 115 697 115 Q881 115 979 274 Q1078 435 1078 731 Q1078 981 1008 1133 Q907 1353 695 1353 Z M801 1599 L639 1599 L402 1869 L617 1869 L801 1599 Z " />
<glyph glyph-name="Uacute" unicode="&#xda;" horiz-adv-x="1361" d="M183 1467 L361 1467 L361 523 Q361 324 415 234 Q485 117 681 117 Q878 117 947 234 Q1001 324 1001 529 L1001 1467 L1179 1467 L1179 497 Q1179 276 1100 153 Q982 -29 675 -29 Q413 -29 293 109 Q183 236 183 497 L183 1467 Z M928 1869 L691 1599 L529 1599 L714 1869 L928 1869 Z " />
<glyph glyph-name="Ucircumflex" unicode="&#xdb;" horiz-adv-x="1361" d="M183 1467 L361 1467 L361 523 Q361 324 415 234 Q485 117 681 117 Q878 117 947 234 Q1001 324 1001 529 L1001 1467 L1179 1467 L1179 497 Q1179 276 1100 153 Q982 -29 675 -29 Q413 -29 293 109 Q183 236 183 497 L183 1467 Z M998 1592 L848 1592 L677 1779 L511 1592 L364 1592 L557 1881 L802 1881 L998 1592 Z " />
<glyph glyph-name="Ugrave" unicode="&#xd9;" horiz-adv-x="1361" d="M183 1467 L361 1467 L361 523 Q361 324 415 234 Q485 117 681 117 Q878 117 947 234 Q1001 324 1001 529 L1001 1467 L1179 1467 L1179 497 Q1179 276 1100 153 Q982 -29 675 -29 Q413 -29 293 109 Q183 236 183 497 L183 1467 Z M787 1599 L625 1599 L388 1869 L603 1869 L787 1599 Z " />
<glyph glyph-name="dotlessi" unicode="&#x131;" horiz-adv-x="554" d="M363 0 L193 0 L193 1135 L363 1135 L363 0 Z " />
<glyph glyph-name="circumflex" unicode="&#x2c6;" horiz-adv-x="1100" d="M849 1278 L697 1278 L545 1484 L398 1278 L250 1278 L428 1586 L669 1586 L849 1278 Z " />
<glyph glyph-name="tilde" unicode="&#x2dc;" horiz-adv-x="1100" d="M887 1461 Q792 1331 683 1331 Q633 1331 548 1368 Q462 1406 419 1406 Q368 1406 312 1329 L211 1410 Q313 1553 431 1553 Q477 1553 561 1515 Q644 1478 680 1478 Q728 1478 795 1553 L887 1461 Z " />
<glyph glyph-name="overscore" unicode="&#xaf;" horiz-adv-x="1100" d="M851 1361 L248 1361 L248 1521 L851 1521 L851 1361 Z " />
<glyph glyph-name="breve" unicode="&#x2d8;" horiz-adv-x="1100" d="M829 1557 Q824 1459 776 1400 Q699 1307 550 1307 Q424 1307 351 1372.5 Q278 1438 271 1557 L410 1557 Q426 1434 550 1434 Q612 1434 651 1468 Q690 1502 691 1557 L829 1557 Z " />
<glyph glyph-name="dotaccent" unicode="&#x2d9;" horiz-adv-x="1100" d="M646 1293 L453 1293 L453 1517 L646 1517 L646 1293 Z " />
<glyph glyph-name="ring" unicode="&#x2da;" horiz-adv-x="1100" d="M548 1645 Q639 1645 700 1588 Q761 1531 761 1447 Q761 1363 700 1306 Q639 1249 548 1249 Q457 1249 397.5 1304.5 Q338 1360 338 1445 Q338 1530 398 1587.5 Q458 1645 548 1645 Z M552 1548 Q507 1548 477 1519 Q447 1490 447 1447 Q447 1403 477 1373 Q507 1343 549 1343 Q593 1343 622.5 1372.5 Q652 1402 652 1445 Q652 1493 625.5 1520.5 Q599 1548 552 1548 Z " />
<glyph glyph-name="cedilla" unicode="&#xb8;" horiz-adv-x="1099" d="M342 -409 L360 -315 Q466 -336 513 -336 Q622 -336 622 -269 Q622 -204 497 -204 Q487 -204 451 -207 L545 19 L648 19 L589 -121 Q677 -124 716.5 -157 Q756 -190 756 -263 Q756 -314 734 -351 Q683 -438 524 -438 Q445 -438 342 -409 Z " />
<glyph glyph-name="hungarumlaut" unicode="&#x2dd;" horiz-adv-x="1100" d="M877 1586 L699 1280 L552 1280 L682 1586 L877 1586 Z M547 1586 L369 1280 L222 1280 L352 1586 L547 1586 Z " />
<glyph glyph-name="ogonek" unicode="&#x2db;" horiz-adv-x="1099" d="M754 -348 Q658 -387 571 -387 Q462 -387 404 -343.5 Q346 -300 346 -219 Q346 -140 392.5 -82 Q439 -24 546 29 L750 33 L750 17 Q618 -24 562 -69 Q506 -114 506 -177 Q506 -254 601 -254 Q655 -254 722 -220 L754 -348 Z " />
<glyph glyph-name="caron" unicode="&#x2c7;" horiz-adv-x="1100" d="M849 1586 L684 1278 L418 1278 L250 1586 L400 1586 L554 1379 L699 1586 L849 1586 Z " />
<glyph glyph-name="nbspace" unicode="&#xa0;" horiz-adv-x="528" d="" />
<glyph glyph-name="currency" unicode="&#xa4;" horiz-adv-x="1357" d="M1293 235 L1185 126 L978 332 Q824 229 678 229 Q532 229 380 330 L174 126 L65 235 L272 440 Q170 587 170 732 Q170 873 270 1026 L61 1234 L172 1343 L380 1139 Q534 1240 680 1240 Q822 1240 974 1139 L1181 1343 L1290 1234 L1087 1026 Q1187 872 1187 732 Q1187 598 1087 440 L1293 235 Z M682 1064 Q540 1064 443 966 Q350 872 350 734 Q350 597 446 501 Q542 405 677 405 Q813 405 910 501 Q1007 597 1007 733 Q1007 842 944 927 Q843 1064 682 1064 Z " />
<glyph glyph-name="brokenbar" unicode="&#xa6;" horiz-adv-x="1099" d="M625 791 L475 791 L475 1467 L625 1467 L625 791 Z M625 -396 L475 -396 L475 286 L625 286 L625 -396 Z " />
<glyph glyph-name="uni00AD" unicode="&#xad;" horiz-adv-x="592" d="M592 506 L0 506 L0 669 L592 669 L592 506 Z " />
<glyph glyph-name="twosuperior" unicode="&#xb2;" horiz-adv-x="732" d="M664 633 L48 633 L48 692 Q48 818 170 941 Q198 969 349 1080 Q448 1154 483.5 1198.5 Q519 1243 519 1293 Q519 1354 477.5 1388 Q436 1422 363 1422 Q286 1422 243 1381.5 Q200 1341 182 1251 L50 1282 Q66 1380 125 1440 Q214 1532 372 1532 Q449 1532 512.5 1511 Q576 1490 609 1453 Q661 1394 661 1299 Q661 1226 625 1162 Q589 1098 524 1054 Q318 918 265 860 Q213 806 201 747 Q241 749 296 749 L664 749 L664 633 Z " />
<glyph glyph-name="threesuperior" unicode="&#xb3;" horiz-adv-x="732" d="M42 778 L147 851 Q205 730 342 730 Q418 730 463 772 Q508 814 508 885 Q508 1007 395 1031 Q354 1040 218 1040 L218 1152 Q326 1152 376 1164 Q486 1190 486 1299 Q486 1420 358 1420 Q266 1420 178 1319 L170 1327 L137 1353 L96 1387 L82 1399 Q128 1451 167 1477 Q250 1532 366 1532 Q509 1532 575 1459 Q627 1401 627 1302 Q627 1228 598 1181 Q569 1134 503 1104 Q559 1082 587 1056 Q653 997 653 880 Q653 778 592 711 Q507 617 350 617 Q248 617 166 660 Q84 703 42 778 Z " />
<glyph glyph-name="onesuperior" unicode="&#xb9;" horiz-adv-x="732" d="M642 631 L103 631 L103 743 L304 743 L304 1374 L165 1309 L117 1412 L336 1517 L447 1517 L447 743 L642 743 L642 631 Z " />
<glyph glyph-name="onequarter" unicode="&#xbc;" horiz-adv-x="1698" d="M1586 209 L1458 209 L1458 0 L1324 0 L1324 209 L932 209 L932 296 L1295 881 L1458 881 L1458 314 L1586 314 L1586 209 Z M1328 725 L1085 314 L1326 314 L1326 461 Q1326 613 1328 725 Z M1368 1496 L606 -29 L470 -29 L1231 1496 L1368 1496 Z M596 578 L59 578 L59 692 L258 692 L258 1324 L121 1257 L73 1362 L292 1467 L403 1467 L403 692 L596 692 L596 578 Z " />
<glyph glyph-name="onehalf" unicode="&#xbd;" horiz-adv-x="1698" d="M1627 0 L1011 0 L1011 59 Q1011 162 1068.5 236 Q1126 310 1312 447 Q1410 520 1446 565 Q1482 610 1482 660 Q1482 720 1440.5 754.5 Q1399 789 1327 789 Q1249 789 1206 749 Q1163 709 1145 618 L1013 649 Q1029 747 1088 807 Q1178 900 1334 900 Q1500 900 1571 821 Q1624 762 1624 667 Q1624 562 1554 481 Q1520 440 1405 364 Q1281 282 1228.5 228 Q1176 174 1164 115 Q1204 117 1260 117 L1627 117 L1627 0 Z M1303 1500 L543 -25 L409 -25 L1167 1500 L1303 1500 Z M585 579 L48 579 L48 695 L246 695 L246 1324 L109 1256 L61 1362 L281 1467 L392 1467 L392 695 L585 695 L585 579 Z " />
<glyph glyph-name="threequarters" unicode="&#xbe;" horiz-adv-x="1685" d="M1643 209 L1515 209 L1515 0 L1381 0 L1381 209 L990 209 L990 296 L1353 881 L1515 881 L1515 314 L1643 314 L1643 209 Z M1383 725 L1141 314 L1381 314 Q1381 586 1383 725 Z M1364 1496 L603 -29 L468 -29 L1228 1496 L1364 1496 Z M53 728 L158 800 Q228 680 354 680 Q428 680 473.5 722.5 Q519 765 519 834 Q519 957 407 981 Q364 990 229 990 L229 1102 Q338 1102 389 1114 Q497 1137 497 1249 Q497 1370 370 1370 Q276 1370 187 1269 L179 1276 Q138 1311 93 1348 Q139 1401 178 1426 Q261 1482 378 1482 Q521 1482 586 1409 Q638 1351 638 1252 Q638 1177 609 1130.5 Q580 1084 514 1054 Q570 1033 599 1007 Q664 948 664 830 Q664 729 604 662 Q519 567 351 567 Q248 567 182.5 602.5 Q117 638 53 728 Z " />
<glyph glyph-name="Eth" unicode="&#xd0;" horiz-adv-x="1341" d="M183 686 L25 686 L25 833 L183 833 L183 1467 L552 1467 Q903 1467 1065 1290 Q1134 1214 1163 1129 Q1221 958 1221 745 Q1221 553 1183.5 406 Q1146 259 1076 177 Q925 0 543 0 L183 0 L183 686 Z M761 833 L761 686 L361 686 L361 149 L479 149 Q793 149 910 274 Q954 322 974 380 Q1027 538 1027 729 Q1027 1048 909 1187 Q797 1318 558 1318 L361 1318 L361 833 L761 833 Z " />
<glyph glyph-name="multiply" unicode="&#xd7;" horiz-adv-x="1100" d="M966 257 L861 150 L546 465 L233 150 L133 250 L447 564 L133 878 L238 983 L553 670 L866 983 L966 885 L653 570 L966 257 Z " />
<glyph glyph-name="Yacute" unicode="&#xdd;" horiz-adv-x="1087" d="M1097 1467 L627 631 L627 0 L451 0 L451 631 L-11 1467 L184 1467 L398 1073 Q476 930 503 870.5 Q530 811 549 739 Q579 852 698 1073 L912 1467 L1097 1467 Z M802 1869 L565 1599 L403 1599 L588 1869 L802 1869 Z " />
<glyph glyph-name="Thorn" unicode="&#xde;" horiz-adv-x="1150" d="M361 1186 L629 1186 Q858 1186 973 1099 Q1102 1002 1102 774 Q1102 351 592 351 L361 351 L361 0 L183 0 L183 1467 L361 1467 L361 1186 Z M361 1037 L361 500 L567 500 Q743 500 825 564 Q907 627 907 771 Q907 902 844 966 Q773 1037 585 1037 L361 1037 Z " />
<glyph glyph-name="eth" unicode="&#xf0;" horiz-adv-x="1139" d="M754 1097 Q673 1271 554 1368 L394 1240 L330 1319 L470 1431 Q398 1472 250 1511 L290 1618 Q461 1583 577 1517 L728 1643 L796 1561 L667 1454 Q787 1348 846 1254 Q925 1128 972 928 Q1012 754 1012 567 Q1012 317 930 164 Q882 75 794 27 Q693 -29 567 -29 Q320 -29 205 162 Q114 315 114 561 Q114 813 212 963 Q328 1141 569 1141 Q670 1141 754 1097 Z M567 1007 Q450 1007 380 928 Q338 880 312 780 Q286 680 286 565 Q286 383 337 270 Q409 108 570 108 Q739 108 801 258 Q844 362 844 553 Q844 1007 567 1007 Z " />
<glyph glyph-name="yacute" unicode="&#xfd;" horiz-adv-x="936" d="M917 1135 L533 -97 Q481 -262 412 -325 Q333 -398 165 -398 Q88 -398 31 -382 L48 -246 Q108 -260 155 -260 Q279 -260 331 -157 Q350 -120 392 21 L13 1135 L200 1135 L389 537 Q397 510 415 455 Q464 309 477 207 Q500 311 567 543 L739 1135 L917 1135 Z M683 1586 L503 1280 L344 1280 L474 1586 L683 1586 Z " />
<glyph glyph-name="thorn" unicode="&#xfe;" horiz-adv-x="1177" d="M350 109 L350 -392 L180 -392 L180 1519 L350 1519 L350 1001 Q411 1062 459 1092 Q555 1152 671 1152 Q838 1152 939 1038 Q1001 968 1033 824 Q1060 707 1060 577 Q1060 332 989 188 Q886 -19 665 -19 Q584 -19 520 7 Q456 33 350 109 Z M350 854 L350 248 Q477 120 613 120 Q720 120 785 194 Q826 241 851.5 344.5 Q877 448 877 567 Q877 1013 620 1013 Q487 1013 350 854 Z " />
<glyph glyph-name="Amacron" unicode="&#x100;" horiz-adv-x="1150" d="M1132 0 L941 0 L822 420 L321 420 L204 0 L19 0 L459 1467 L692 1467 L1132 0 Z M785 569 L629 1117 L571 1322 L514 1117 L358 569 L785 569 Z M868 1616 L265 1616 L265 1779 L868 1779 L868 1616 Z " />
<glyph glyph-name="amacron" unicode="&#x101;" horiz-adv-x="1082" d="M911 0 L752 0 L752 136 Q624 -19 421 -19 Q274 -19 188 69 Q102 156 102 293 Q102 552 393 654 Q518 698 744 726 L744 807 Q744 907 686 964 Q625 1024 517 1024 Q430 1024 367.5 987 Q305 950 251 867 L108 955 Q163 1032 214 1071 Q333 1163 524 1163 Q626 1163 708 1135 Q790 1107 834 1057 Q911 971 911 818 L911 0 Z M744 286 L744 602 Q576 582 481 549 Q274 477 274 306 Q274 219 324 168 Q374 117 458 117 Q624 117 744 286 Z M837 1361 L234 1361 L234 1521 L837 1521 L837 1361 Z " />
<glyph glyph-name="Abreve" unicode="&#x102;" horiz-adv-x="1150" d="M1132 0 L941 0 L822 420 L321 420 L204 0 L19 0 L459 1467 L692 1467 L1132 0 Z M785 569 L629 1117 L571 1322 L514 1117 L358 569 L785 569 Z M844 1821 Q840 1724 791 1664 Q714 1570 565 1570 Q440 1570 366.5 1636 Q293 1702 286 1821 L425 1821 Q441 1698 565 1698 Q628 1698 666 1731.5 Q704 1765 706 1821 L844 1821 Z " />
<glyph glyph-name="abreve" unicode="&#x103;" horiz-adv-x="1082" d="M911 0 L752 0 L752 136 Q624 -19 421 -19 Q274 -19 188 69 Q102 156 102 293 Q102 552 393 654 Q518 698 744 726 L744 807 Q744 907 686 964 Q625 1024 517 1024 Q430 1024 367.5 987 Q305 950 251 867 L108 955 Q163 1032 214 1071 Q333 1163 524 1163 Q626 1163 708 1135 Q790 1107 834 1057 Q911 971 911 818 L911 0 Z M744 286 L744 602 Q576 582 481 549 Q274 477 274 306 Q274 219 324 168 Q374 117 458 117 Q624 117 744 286 Z M813 1557 Q808 1459 760 1400 Q683 1307 534 1307 Q408 1307 335 1372.5 Q262 1438 255 1557 L394 1557 Q410 1434 534 1434 Q596 1434 635 1468 Q674 1502 675 1557 L813 1557 Z " />
<glyph glyph-name="Aogonek" unicode="&#x104;" horiz-adv-x="1150" d="M1183 -348 Q1086 -387 998 -387 Q866 -387 812 -326 Q774 -284 774 -218 Q774 -88 936 11 L822 420 L319 420 L204 0 L19 0 L459 1467 L692 1467 L1132 0 Q1114 0 1086 -11 Q1014 -40 974 -83 Q934 -126 934 -175 Q934 -254 1030 -254 Q1083 -254 1149 -220 L1183 -348 Z M785 569 L571 1322 L358 569 L785 569 Z " />
<glyph glyph-name="aogonek" unicode="&#x105;" horiz-adv-x="1082" d="M911 0 L905 0 L911 0 L905 0 Q817 -19 766.5 -65.5 Q716 -112 716 -174 Q716 -254 811 -254 Q864 -254 930 -220 L964 -348 Q867 -387 780 -387 Q671 -387 613 -343.5 Q555 -300 555 -219 Q555 -140 600.5 -82.5 Q646 -25 750 28 L750 134 Q623 -19 420 -19 Q274 -19 188 69 Q102 156 102 296 Q102 551 391 653 Q515 696 741 725 L744 726 L744 812 Q744 908 684 966 Q623 1024 518 1024 Q430 1024 368 987.5 Q306 951 251 867 L108 955 Q163 1032 214 1071 Q333 1163 524 1163 Q714 1163 813 1078 Q891 1011 908 862 Q913 817 913 688 L911 411 L911 132 L911 0 Z M744 286 L744 602 Q576 582 481 549 Q274 477 274 306 Q274 219 324 168 Q374 117 458 117 Q624 117 744 286 Z " />
<glyph glyph-name="Cacute" unicode="&#x106;" horiz-adv-x="1297" d="M1194 458 Q1179 336 1142 251 Q1018 -31 675 -31 Q518 -31 394 38 Q280 101 225 209 Q121 415 121 705 Q121 1081 268 1290 Q414 1498 685 1498 Q1018 1498 1141 1198 Q1173 1120 1187 1012 L1007 992 Q998 1078 973 1144 Q896 1353 680 1353 Q535 1353 443 1251 Q381 1181 344 1012 Q314 875 314 724 Q314 462 401 276 Q435 203 517 156 Q589 115 681 115 Q906 115 986 342 Q1006 400 1015 482 L1194 458 Z M925 1869 L688 1599 L526 1599 L711 1869 L925 1869 Z " />
<glyph glyph-name="cacute" unicode="&#x107;" horiz-adv-x="1049" d="M988 296 Q967 218 933 161 Q816 -29 569 -29 Q335 -29 217 150 Q117 303 117 551 Q117 799 214 963 Q332 1163 571 1163 Q733 1163 835 1078 Q937 993 974 827 L807 785 Q783 886 742 941 Q680 1022 566 1022 Q455 1022 388 946 Q347 899 320.5 790.5 Q294 682 294 561 Q294 429 323.5 322.5 Q353 216 402 171 Q468 112 567 112 Q666 112 727 167.5 Q788 223 822 346 L988 296 Z M778 1586 L598 1280 L439 1280 L569 1586 L778 1586 Z " />
<glyph glyph-name="Ccircumflex" unicode="&#x108;" horiz-adv-x="1297" d="M1194 458 Q1179 336 1142 251 Q1018 -31 675 -31 Q518 -31 394 38 Q280 101 225 209 Q121 415 121 705 Q121 1081 268 1290 Q414 1498 685 1498 Q1018 1498 1141 1198 Q1173 1120 1187 1012 L1007 992 Q998 1078 973 1144 Q896 1353 680 1353 Q535 1353 443 1251 Q381 1181 344 1012 Q314 875 314 724 Q314 462 401 276 Q435 203 517 156 Q589 115 681 115 Q906 115 986 342 Q1006 400 1015 482 L1194 458 Z M984 1592 L832 1592 L680 1798 L533 1592 L385 1592 L563 1900 L804 1900 L984 1592 Z " />
<glyph glyph-name="ccircumflex" unicode="&#x109;" horiz-adv-x="1049" d="M988 296 Q967 218 933 161 Q816 -29 569 -29 Q335 -29 217 150 Q117 303 117 551 Q117 799 214 963 Q332 1163 571 1163 Q733 1163 835 1078 Q937 993 974 827 L807 785 Q783 886 742 941 Q680 1022 566 1022 Q455 1022 388 946 Q347 899 320.5 790.5 Q294 682 294 561 Q294 429 323.5 322.5 Q353 216 402 171 Q468 112 567 112 Q666 112 727 167.5 Q788 223 822 346 L988 296 Z M852 1278 L700 1278 L548 1484 L401 1278 L253 1278 L431 1586 L672 1586 L852 1278 Z " />
<glyph glyph-name="Cdotaccent" unicode="&#x10a;" horiz-adv-x="1297" d="M1194 458 Q1179 336 1142 251 Q1018 -31 675 -31 Q518 -31 394 38 Q280 101 225 209 Q121 415 121 705 Q121 1081 268 1290 Q414 1498 685 1498 Q1018 1498 1141 1198 Q1173 1120 1187 1012 L1007 992 Q998 1078 973 1144 Q896 1353 680 1353 Q535 1353 443 1251 Q381 1181 344 1012 Q314 875 314 724 Q314 462 401 276 Q435 203 517 156 Q589 115 681 115 Q906 115 986 342 Q1006 400 1015 482 L1194 458 Z M778 1594 L585 1594 L585 1818 L778 1818 L778 1594 Z " />
<glyph glyph-name="cdotaccent" unicode="&#x10b;" horiz-adv-x="1049" d="M988 296 Q967 218 933 161 Q816 -29 569 -29 Q335 -29 217 150 Q117 303 117 551 Q117 799 214 963 Q332 1163 571 1163 Q733 1163 835 1078 Q937 993 974 827 L807 785 Q783 886 742 941 Q680 1022 566 1022 Q455 1022 388 946 Q347 899 320.5 790.5 Q294 682 294 561 Q294 429 323.5 322.5 Q353 216 402 171 Q468 112 567 112 Q666 112 727 167.5 Q788 223 822 346 L988 296 Z M649 1293 L456 1293 L456 1517 L649 1517 L649 1293 Z " />
<glyph glyph-name="Ccaron" unicode="&#x10c;" horiz-adv-x="1297" d="M1194 458 Q1179 336 1142 251 Q1018 -31 675 -31 Q518 -31 394 38 Q280 101 225 209 Q121 415 121 705 Q121 1081 268 1290 Q414 1498 685 1498 Q1018 1498 1141 1198 Q1173 1120 1187 1012 L1007 992 Q998 1078 973 1144 Q896 1353 680 1353 Q535 1353 443 1251 Q381 1181 344 1012 Q314 875 314 724 Q314 462 401 276 Q435 203 517 156 Q589 115 681 115 Q906 115 986 342 Q1006 400 1015 482 L1194 458 Z M1001 1883 L808 1592 L563 1592 L368 1883 L517 1883 L689 1694 L854 1883 L1001 1883 Z " />
<glyph glyph-name="ccaron" unicode="&#x10d;" horiz-adv-x="1049" d="M988 296 Q967 218 933 161 Q816 -29 569 -29 Q335 -29 217 150 Q117 303 117 551 Q117 799 214 963 Q332 1163 571 1163 Q733 1163 835 1078 Q937 993 974 827 L807 785 Q783 886 742 941 Q680 1022 566 1022 Q455 1022 388 946 Q347 899 320.5 790.5 Q294 682 294 561 Q294 429 323.5 322.5 Q353 216 402 171 Q468 112 567 112 Q666 112 727 167.5 Q788 223 822 346 L988 296 Z M864 1586 L699 1278 L433 1278 L265 1586 L415 1586 L569 1379 L714 1586 L864 1586 Z " />
<glyph glyph-name="Dcaron" unicode="&#x10e;" horiz-adv-x="1341" d="M183 0 L183 1467 L552 1467 Q903 1467 1065 1290 Q1221 1120 1221 766 Q1221 596 1194 459 Q1162 293 1097 203 Q1028 109 931 69 Q763 0 543 0 L183 0 Z M361 1318 L361 149 L479 149 Q793 149 910 274 Q1027 400 1027 740 Q1027 1005 943 1140 Q832 1318 558 1318 L361 1318 Z M890 1883 L697 1592 L452 1592 L257 1883 L406 1883 L578 1694 L743 1883 L890 1883 Z " />
<glyph glyph-name="dcaron" unicode="&#x10f;" horiz-adv-x="1177" d="M996 0 L832 0 L828 132 Q743 50 670 15 Q597 -20 509 -20 Q325 -20 221 131 Q116 283 116 562 Q116 843 223 998 Q329 1152 521 1152 Q687 1152 826 1022 L826 1519 L996 1519 L996 0 Z M826 275 L826 890 Q680 1016 559 1016 Q454 1016 387 940 Q347 894 321 787 Q295 680 295 561 Q295 432 324.5 328.5 Q354 225 403 181 Q470 121 560 121 Q631 121 691.5 156 Q752 191 826 275 Z M1297 1270 L1160 971 L1095 971 L1174 1264 L1104 1264 L1104 1521 L1297 1521 L1297 1270 Z " />
<glyph glyph-name="Dcroat" unicode="&#x110;" horiz-adv-x="1341" d="M183 686 L25 686 L25 833 L183 833 L183 1467 L552 1467 Q903 1467 1065 1290 Q1134 1214 1163 1129 Q1221 958 1221 745 Q1221 553 1183.5 406 Q1146 259 1076 177 Q925 0 543 0 L183 0 L183 686 Z M761 833 L761 686 L361 686 L361 149 L479 149 Q793 149 910 274 Q954 322 974 380 Q1027 538 1027 729 Q1027 1048 909 1187 Q797 1318 558 1318 L361 1318 L361 833 L761 833 Z " />
<glyph glyph-name="dcroat" unicode="&#x111;" horiz-adv-x="1177" d="M1143 1271 L996 1271 L996 0 L832 0 L828 132 Q765 69 716 39 Q621 -20 510 -20 Q297 -20 195 171 Q117 319 117 563 Q117 804 193 954 Q293 1152 516 1152 Q687 1152 826 1022 L826 1271 L493 1271 L493 1420 L826 1420 L826 1586 L996 1586 L996 1420 L1143 1420 L1143 1271 Z M826 275 L826 890 Q681 1016 561 1016 Q455 1016 388 940 Q348 894 322 787 Q296 680 296 561 Q296 432 325.5 328.5 Q355 225 404 181 Q471 121 561 121 Q632 121 692 156 Q752 191 826 275 Z " />
<glyph glyph-name="Emacron" unicode="&#x112;" horiz-adv-x="1146" d="M1081 0 L183 0 L183 1467 L1029 1467 L1029 1318 L361 1318 L361 829 L902 829 L902 680 L361 680 L361 149 L1081 149 L1081 0 Z M902 1616 L299 1616 L299 1779 L902 1779 L902 1616 Z " />
<glyph glyph-name="emacron" unicode="&#x113;" horiz-adv-x="1112" d="M1004 258 Q953 148 898 92 Q776 -29 567 -29 Q361 -29 246 102 Q180 177 145 321 Q117 438 117 566 Q117 862 249 1017 Q374 1163 582 1163 Q796 1163 904 1002 Q996 864 996 640 L996 543 L294 543 Q298 424 311 360.5 Q324 297 358 234 Q423 112 573 112 Q672 112 737.5 163 Q803 214 853 330 L1004 258 Z M822 682 Q818 821 774 901 Q708 1022 572 1022 Q448 1022 380.5 940 Q313 858 294 682 L822 682 Z M863 1361 L260 1361 L260 1521 L863 1521 L863 1361 Z " />
<glyph glyph-name="Ebreve" unicode="&#x114;" horiz-adv-x="1146" d="M1081 0 L183 0 L183 1467 L1029 1467 L1029 1318 L361 1318 L361 829 L902 829 L902 680 L361 680 L361 149 L1081 149 L1081 0 Z M888 1821 Q884 1724 835 1664 Q758 1570 609 1570 Q484 1570 410.5 1636 Q337 1702 330 1821 L469 1821 Q485 1698 609 1698 Q672 1698 710 1731.5 Q748 1765 750 1821 L888 1821 Z " />
<glyph glyph-name="ebreve" unicode="&#x115;" horiz-adv-x="1112" d="M1004 258 Q953 148 898 92 Q776 -29 567 -29 Q361 -29 246 102 Q180 177 145 321 Q117 438 117 566 Q117 862 249 1017 Q374 1163 582 1163 Q796 1163 904 1002 Q996 864 996 640 L996 543 L294 543 Q298 424 311 360.5 Q324 297 358 234 Q423 112 573 112 Q672 112 737.5 163 Q803 214 853 330 L1004 258 Z M822 682 Q818 821 774 901 Q708 1022 572 1022 Q448 1022 380.5 940 Q313 858 294 682 L822 682 Z M840 1557 Q835 1459 787 1400 Q710 1307 561 1307 Q435 1307 362 1372.5 Q289 1438 282 1557 L421 1557 Q437 1434 561 1434 Q623 1434 662 1468 Q701 1502 702 1557 L840 1557 Z " />
<glyph glyph-name="Edotaccent" unicode="&#x116;" horiz-adv-x="1146" d="M1081 0 L183 0 L183 1467 L1029 1467 L1029 1318 L361 1318 L361 829 L902 829 L902 680 L361 680 L361 149 L1081 149 L1081 0 Z M712 1588 L519 1588 L519 1812 L712 1812 L712 1588 Z " />
<glyph glyph-name="edotaccent" unicode="&#x117;" horiz-adv-x="1112" d="M1004 258 Q953 148 898 92 Q776 -29 567 -29 Q361 -29 246 102 Q180 177 145 321 Q117 438 117 566 Q117 862 249 1017 Q374 1163 582 1163 Q796 1163 904 1002 Q996 864 996 640 L996 543 L294 543 Q298 424 311 360.5 Q324 297 358 234 Q423 112 573 112 Q672 112 737.5 163 Q803 214 853 330 L1004 258 Z M822 682 Q818 821 774 901 Q708 1022 572 1022 Q448 1022 380.5 940 Q313 858 294 682 L822 682 Z M670 1293 L477 1293 L477 1517 L670 1517 L670 1293 Z " />
<glyph glyph-name="Eogonek" unicode="&#x118;" horiz-adv-x="1146" d="M1131 -348 Q1035 -387 946 -387 Q837 -387 779.5 -343.5 Q722 -300 722 -218 Q722 -97 869 0 L183 0 L183 1467 L1029 1467 L1029 1318 L361 1318 L361 829 L902 829 L902 680 L361 680 L361 149 L1081 149 L1081 0 Q1066 0 1038 -10 Q964 -38 923 -81.5 Q882 -125 882 -176 Q882 -254 977 -254 Q1030 -254 1098 -220 L1131 -348 Z " />
<glyph glyph-name="eogonek" unicode="&#x119;" horiz-adv-x="1112" d="M1004 258 Q918 37 717 -9 Q675 -21 615 -69 Q556 -115 556 -177 Q556 -254 651 -254 Q704 -254 771 -220 L805 -348 Q707 -387 621 -387 Q488 -387 434 -326 Q396 -284 396 -219 Q396 -115 505 -25 Q381 -4 315 43 Q116 186 116 566 Q116 827 222 984 Q345 1163 577 1163 Q795 1163 904 1002 Q996 865 996 640 L996 543 L294 543 Q298 423 311 359.5 Q324 296 358 233 Q424 111 574 111 Q673 111 739 162.5 Q805 214 853 329 L1004 258 Z M822 682 Q818 798 783 876 Q717 1022 568 1022 Q411 1022 338 867 Q305 796 294 682 L822 682 Z " />
<glyph glyph-name="Ecaron" unicode="&#x11a;" horiz-adv-x="1146" d="M1081 0 L183 0 L183 1467 L1029 1467 L1029 1318 L361 1318 L361 829 L902 829 L902 680 L361 680 L361 149 L1081 149 L1081 0 Z M943 1883 L750 1592 L505 1592 L310 1883 L459 1883 L631 1694 L796 1883 L943 1883 Z " />
<glyph glyph-name="ecaron" unicode="&#x11b;" horiz-adv-x="1112" d="M1004 258 Q953 148 898 92 Q776 -29 567 -29 Q361 -29 246 102 Q180 177 145 321 Q117 438 117 566 Q117 862 249 1017 Q374 1163 582 1163 Q796 1163 904 1002 Q996 864 996 640 L996 543 L294 543 Q298 424 311 360.5 Q324 297 358 234 Q423 112 573 112 Q672 112 737.5 163 Q803 214 853 330 L1004 258 Z M822 682 Q818 821 774 901 Q708 1022 572 1022 Q448 1022 380.5 940 Q313 858 294 682 L822 682 Z M867 1586 L702 1278 L436 1278 L268 1586 L418 1586 L572 1379 L717 1586 L867 1586 Z " />
<glyph glyph-name="Gcircumflex" unicode="&#x11c;" horiz-adv-x="1364" d="M1209 1032 L1024 1010 Q1009 1096 992 1143 Q975 1190 942 1236 Q859 1355 691 1355 Q536 1355 443 1249 Q381 1178 344 1007 Q314 870 314 719 Q314 464 400 282 Q434 211 515 164 Q586 123 678 123 Q777 123 857 168.5 Q937 214 1024 319 L1024 563 L699 563 L699 713 L1198 713 L1198 0 L1055 0 L1040 154 L1027 142 Q958 80 946 68 Q899 24 818.5 -3.5 Q738 -31 654 -31 Q395 -31 256 165 Q121 358 121 708 Q121 1077 267 1285 Q416 1498 697 1498 Q909 1498 1039.5 1379.5 Q1170 1261 1209 1032 Z M980 1592 L827 1592 L676 1798 L529 1592 L381 1592 L559 1900 L799 1900 L980 1592 Z " />
<glyph glyph-name="gcircumflex" unicode="&#x11d;" horiz-adv-x="1117" d="M1062 1053 Q1058 1053 1043 1054 Q1039 1054 1036 1055 Q1022 1056 1012 1056 Q940 1056 882 1007 Q968 892 968 752 Q968 576 853 466 Q739 356 562 356 Q474 356 372 394 Q294 363 294 318 Q294 270 365 249 Q386 243 535 211 L734 170 Q888 137 960 88 Q1062 18 1062 -116 Q1062 -292 891 -370 Q765 -428 565 -428 Q379 -428 254 -380 Q75 -311 75 -153 Q75 -66 125 -4 Q175 58 286 109 Q141 156 141 275 Q141 389 296 430 Q241 466 213 502 Q139 596 139 759 Q139 940 256 1052 Q372 1163 550 1163 Q691 1163 812 1080 Q868 1151 912.5 1171.5 Q957 1192 1062 1196 L1062 1053 Z M551 1032 Q438 1032 373 952 Q315 881 315 761 Q315 641 373 569 Q436 490 552 490 Q667 490 728 566 Q785 637 785 755 Q785 852 748 920 Q686 1032 551 1032 Z M405 71 Q228 -18 228 -130 Q228 -185 272 -224 Q303 -251 386 -269.5 Q469 -288 561 -288 Q718 -288 798.5 -248.5 Q879 -209 879 -132 Q879 -20 636 27 L405 71 Z M868 1278 L716 1278 L564 1484 L417 1278 L269 1278 L447 1586 L688 1586 L868 1278 Z " />
<glyph glyph-name="Gbreve" unicode="&#x11e;" horiz-adv-x="1364" d="M1209 1032 L1024 1010 Q1009 1096 992 1143 Q975 1190 942 1236 Q859 1355 691 1355 Q536 1355 443 1249 Q381 1178 344 1007 Q314 870 314 719 Q314 464 400 282 Q434 211 515 164 Q586 123 678 123 Q777 123 857 168.5 Q937 214 1024 319 L1024 563 L699 563 L699 713 L1198 713 L1198 0 L1055 0 L1040 154 L1027 142 Q958 80 946 68 Q899 24 818.5 -3.5 Q738 -31 654 -31 Q395 -31 256 165 Q121 358 121 708 Q121 1077 267 1285 Q416 1498 697 1498 Q909 1498 1039.5 1379.5 Q1170 1261 1209 1032 Z M971 1821 Q967 1724 918 1664 Q841 1570 692 1570 Q567 1570 493.5 1636 Q420 1702 413 1821 L552 1821 Q568 1698 692 1698 Q755 1698 793 1731.5 Q831 1765 833 1821 L971 1821 Z " />
<glyph glyph-name="gbreve" unicode="&#x11f;" horiz-adv-x="1117" d="M1062 1053 Q1058 1053 1043 1054 Q1039 1054 1036 1055 Q1022 1056 1012 1056 Q940 1056 882 1007 Q968 892 968 752 Q968 576 853 466 Q739 356 562 356 Q474 356 372 394 Q294 363 294 318 Q294 270 365 249 Q386 243 535 211 L734 170 Q888 137 960 88 Q1062 18 1062 -116 Q1062 -292 891 -370 Q765 -428 565 -428 Q379 -428 254 -380 Q75 -311 75 -153 Q75 -66 125 -4 Q175 58 286 109 Q141 156 141 275 Q141 389 296 430 Q241 466 213 502 Q139 596 139 759 Q139 940 256 1052 Q372 1163 550 1163 Q691 1163 812 1080 Q868 1151 912.5 1171.5 Q957 1192 1062 1196 L1062 1053 Z M551 1032 Q438 1032 373 952 Q315 881 315 761 Q315 641 373 569 Q436 490 552 490 Q667 490 728 566 Q785 637 785 755 Q785 852 748 920 Q686 1032 551 1032 Z M405 71 Q228 -18 228 -130 Q228 -185 272 -224 Q303 -251 386 -269.5 Q469 -288 561 -288 Q718 -288 798.5 -248.5 Q879 -209 879 -132 Q879 -20 636 27 L405 71 Z M844 1557 Q839 1459 791 1400 Q714 1307 565 1307 Q439 1307 366 1372.5 Q293 1438 286 1557 L425 1557 Q441 1434 565 1434 Q627 1434 666 1468 Q705 1502 706 1557 L844 1557 Z " />
<glyph glyph-name="Gdotaccent" unicode="&#x120;" horiz-adv-x="1364" d="M1209 1032 L1024 1010 Q1009 1096 992 1143 Q975 1190 942 1236 Q859 1355 691 1355 Q536 1355 443 1249 Q381 1178 344 1007 Q314 870 314 719 Q314 464 400 282 Q434 211 515 164 Q586 123 678 123 Q777 123 857 168.5 Q937 214 1024 319 L1024 563 L699 563 L699 713 L1198 713 L1198 0 L1055 0 L1040 154 L1027 142 Q958 80 946 68 Q899 24 818.5 -3.5 Q738 -31 654 -31 Q395 -31 256 165 Q121 358 121 708 Q121 1077 267 1285 Q416 1498 697 1498 Q909 1498 1039.5 1379.5 Q1170 1261 1209 1032 Z M783 1594 L590 1594 L590 1818 L783 1818 L783 1594 Z " />
<glyph glyph-name="gdotaccent" unicode="&#x121;" horiz-adv-x="1117" d="M1062 1053 Q1058 1053 1043 1054 Q1039 1054 1036 1055 Q1022 1056 1012 1056 Q940 1056 882 1007 Q968 892 968 752 Q968 576 853 466 Q739 356 562 356 Q474 356 372 394 Q294 363 294 318 Q294 270 365 249 Q386 243 535 211 L734 170 Q888 137 960 88 Q1062 18 1062 -116 Q1062 -292 891 -370 Q765 -428 565 -428 Q379 -428 254 -380 Q75 -311 75 -153 Q75 -66 125 -4 Q175 58 286 109 Q141 156 141 275 Q141 389 296 430 Q241 466 213 502 Q139 596 139 759 Q139 940 256 1052 Q372 1163 550 1163 Q691 1163 812 1080 Q868 1151 912.5 1171.5 Q957 1192 1062 1196 L1062 1053 Z M551 1032 Q438 1032 373 952 Q315 881 315 761 Q315 641 373 569 Q436 490 552 490 Q667 490 728 566 Q785 637 785 755 Q785 852 748 920 Q686 1032 551 1032 Z M405 71 Q228 -18 228 -130 Q228 -185 272 -224 Q303 -251 386 -269.5 Q469 -288 561 -288 Q718 -288 798.5 -248.5 Q879 -209 879 -132 Q879 -20 636 27 L405 71 Z M665 1293 L472 1293 L472 1517 L665 1517 L665 1293 Z " />
<glyph glyph-name="Gcommaaccent" unicode="&#x122;" horiz-adv-x="1364" d="M1209 1032 L1024 1010 Q1009 1096 992 1143 Q975 1190 942 1236 Q859 1355 691 1355 Q536 1355 443 1249 Q381 1178 344 1007 Q314 870 314 719 Q314 464 400 282 Q434 211 515 164 Q586 123 678 123 Q777 123 857 168.5 Q937 214 1024 319 L1024 563 L699 563 L699 713 L1198 713 L1198 0 L1055 0 L1040 154 L1027 142 Q958 80 946 68 Q899 24 818.5 -3.5 Q738 -31 654 -31 Q395 -31 256 165 Q121 358 121 708 Q121 1077 267 1285 Q416 1498 697 1498 Q909 1498 1039.5 1379.5 Q1170 1261 1209 1032 Z M770 -341 L671 -550 L617 -550 L671 -346 L615 -346 L615 -141 L770 -141 L770 -341 Z " />
<glyph glyph-name="gcommaaccent" unicode="&#x123;" horiz-adv-x="1117" d="M1062 1053 Q1058 1053 1043 1054 Q1039 1054 1036 1055 Q1022 1056 1012 1056 Q940 1056 882 1007 Q968 892 968 752 Q968 576 853 466 Q739 356 562 356 Q474 356 372 394 Q294 363 294 318 Q294 270 365 249 Q386 243 535 211 L734 170 Q888 137 960 88 Q1062 18 1062 -116 Q1062 -292 891 -370 Q765 -428 565 -428 Q379 -428 254 -380 Q75 -311 75 -153 Q75 -66 125 -4 Q175 58 286 109 Q141 156 141 275 Q141 389 296 430 Q241 466 213 502 Q139 596 139 759 Q139 940 256 1052 Q372 1163 550 1163 Q691 1163 812 1080 Q868 1151 912.5 1171.5 Q957 1192 1062 1196 L1062 1053 Z M551 1032 Q438 1032 373 952 Q315 881 315 761 Q315 641 373 569 Q436 490 552 490 Q667 490 728 566 Q785 637 785 755 Q785 852 748 920 Q686 1032 551 1032 Z M405 71 Q228 -18 228 -130 Q228 -185 272 -224 Q303 -251 386 -269.5 Q469 -288 561 -288 Q718 -288 798.5 -248.5 Q879 -209 879 -132 Q879 -20 636 27 L405 71 Z M641 1821 L565 1527 L633 1527 L633 1271 L442 1271 L442 1522 L576 1821 L641 1821 Z " />
<glyph glyph-name="Hcircumflex" unicode="&#x124;" horiz-adv-x="1383" d="M1201 0 L1023 0 L1023 697 L361 697 L361 0 L183 0 L183 1467 L361 1467 L361 846 L1023 846 L1023 1467 L1201 1467 L1201 0 Z M991 1592 L839 1592 L688 1798 L541 1592 L392 1592 L571 1900 L811 1900 L991 1592 Z " />
<glyph glyph-name="hcircumflex" unicode="&#x125;" horiz-adv-x="1158" d="M988 0 L818 0 L818 800 Q818 907 787 956 Q748 1016 652 1016 Q520 1016 351 875 L351 0 L181 0 L181 1519 L351 1519 L351 1005 Q432 1070 490 1101 Q591 1155 694 1155 Q775 1155 838 1126.5 Q901 1098 933 1046 Q988 959 988 766 L988 0 Z M573 1563 L421 1563 L269 1769 L122 1563 L-26 1563 L152 1871 L393 1871 L573 1563 Z " />
<glyph glyph-name="Hbar" unicode="&#x126;" horiz-adv-x="1383" d="M183 1076 L14 1076 L14 1236 L183 1236 L183 1467 L361 1467 L361 1236 L1023 1236 L1023 1467 L1201 1467 L1201 1236 L1362 1236 L1362 1076 L1201 1076 L1201 0 L1023 0 L1023 697 L361 697 L361 0 L183 0 L183 1076 Z M361 1076 L361 846 L1023 846 L1023 1076 L361 1076 Z " />
<glyph glyph-name="hbar" unicode="&#x127;" horiz-adv-x="1158" d="M180 1241 L42 1241 L42 1389 L180 1389 L180 1519 L350 1519 L350 1389 L645 1389 L645 1241 L350 1241 L350 1005 Q432 1070 489 1101 Q591 1155 694 1155 Q775 1155 837.5 1126.5 Q900 1098 933 1046 Q988 959 988 766 L988 0 L818 0 L818 800 Q818 907 787 956 Q748 1016 652 1016 Q519 1016 350 875 L350 0 L180 0 L180 1241 Z " />
<glyph glyph-name="Itilde" unicode="&#x128;" horiz-adv-x="543" d="M361 0 L183 0 L183 1467 L361 1467 L361 0 Z M615 1794 Q517 1662 406 1662 Q359 1662 273 1699 Q186 1737 145 1737 Q93 1737 37 1660 L-66 1744 Q37 1887 157 1887 Q202 1887 303 1839 Q367 1809 405 1809 Q452 1809 520 1887 L615 1794 Z " />
<glyph glyph-name="itilde" unicode="&#x129;" horiz-adv-x="554" d="M363 0 L193 0 L193 1135 L363 1135 L363 0 Z M616 1461 Q521 1331 412 1331 Q362 1331 277 1368 Q191 1406 148 1406 Q97 1406 41 1329 L-60 1410 Q42 1553 160 1553 Q206 1553 290 1515 Q373 1478 409 1478 Q457 1478 524 1553 L616 1461 Z " />
<glyph glyph-name="Imacron" unicode="&#x12a;" horiz-adv-x="543" d="M541 1616 L4 1616 L4 1779 L541 1779 L541 1616 Z M361 0 L183 0 L183 1467 L361 1467 L361 0 Z " />
<glyph glyph-name="imacron" unicode="&#x12b;" horiz-adv-x="554" d="M557 1361 L-1 1361 L-1 1521 L557 1521 L557 1361 Z M363 0 L193 0 L193 1135 L363 1135 L363 0 Z " />
<glyph glyph-name="Ibreve" unicode="&#x12c;" horiz-adv-x="543" d="M360 0 L182 0 L182 1467 L360 1467 L360 0 Z M555 1821 Q551 1724 502 1664 Q425 1570 276 1570 Q151 1570 77.5 1636 Q4 1702 -3 1821 L136 1821 Q152 1698 276 1698 Q339 1698 377 1731.5 Q415 1765 417 1821 L555 1821 Z " />
<glyph glyph-name="ibreve" unicode="&#x12d;" horiz-adv-x="554" d="M363 0 L193 0 L193 1135 L363 1135 L363 0 Z M557 1557 Q552 1459 504 1400 Q427 1307 278 1307 Q152 1307 79 1372.5 Q6 1438 -1 1557 L138 1557 Q154 1434 278 1434 Q340 1434 379 1468 Q418 1502 419 1557 L557 1557 Z " />
<glyph glyph-name="Iogonek" unicode="&#x12e;" horiz-adv-x="543" d="M411 -347 Q313 -386 227 -386 Q118 -386 60 -343 Q2 -300 2 -218 Q2 -144 44 -88.5 Q86 -33 182 20 L182 1467 L360 1467 L360 0 L353 0 Q288 0 225.5 -57.5 Q163 -115 163 -175 Q163 -253 258 -253 Q310 -253 377 -220 L411 -347 Z " />
<glyph glyph-name="iogonek" unicode="&#x12f;" horiz-adv-x="554" d="M373 1290 L180 1290 L180 1519 L373 1519 L373 1290 Z M414 -348 Q316 -387 229 -387 Q120 -387 62 -343.5 Q4 -300 4 -219 Q4 -74 193 25 L193 1135 L363 1135 L363 0 L356 0 Q290 0 227.5 -58 Q165 -116 165 -176 Q165 -254 260 -254 Q313 -254 380 -220 L414 -348 Z " />
<glyph glyph-name="Idot" unicode="&#x130;" horiz-adv-x="543" d="M361 0 L183 0 L183 1467 L361 1467 L361 0 Z M368 1588 L175 1588 L175 1812 L368 1812 L368 1588 Z " />
<glyph glyph-name="IJ" unicode="&#x132;" horiz-adv-x="1399" d="M361 0 L183 0 L183 1467 L361 1467 L361 0 Z M557 46 L623 191 Q758 115 856 115 Q958 115 998.5 181.5 Q1039 248 1039 416 L1039 1467 L1217 1467 L1217 365 Q1217 182 1157 91 Q1077 -33 860 -33 Q689 -33 557 46 Z " />
<glyph glyph-name="ij" unicode="&#x133;" horiz-adv-x="1108" d="M373 1290 L180 1290 L180 1519 L373 1519 L373 1290 Z M363 0 L193 0 L193 1135 L363 1135 L363 0 Z M927 1290 L734 1290 L734 1519 L927 1519 L927 1290 Z M485 -374 L502 -239 Q565 -260 618 -260 Q690 -260 717.5 -217.5 Q745 -175 745 -66 L745 1135 L916 1135 L916 -40 Q916 -185 880 -264 Q819 -396 639 -396 Q558 -396 485 -374 Z " />
<glyph glyph-name="Jcircumflex" unicode="&#x134;" horiz-adv-x="856" d="M13 46 L79 191 Q214 115 312 115 Q414 115 454.5 181.5 Q495 248 495 416 L495 1467 L673 1467 L673 365 Q673 182 613 91 Q533 -33 316 -33 Q145 -33 13 46 Z M874 1592 L722 1592 L570 1798 L423 1592 L275 1592 L453 1900 L694 1900 L874 1592 Z " />
<glyph glyph-name="jcircumflex" unicode="&#x135;" horiz-adv-x="554" d="M-68 -374 L-51 -239 Q12 -260 65 -260 Q137 -260 164.5 -217.5 Q192 -175 192 -66 L192 1135 L363 1135 L363 -40 Q363 -185 327 -264 Q266 -396 86 -396 Q5 -396 -68 -374 Z M570 1266 L418 1266 L266 1472 L119 1266 L-29 1266 L149 1574 L390 1574 L570 1266 Z " />
<glyph glyph-name="Kcommaaccent" unicode="&#x136;" horiz-adv-x="1133" d="M1165 0 L963 0 L539 743 L363 512 L363 0 L183 0 L183 1467 L363 1467 L363 754 L869 1467 L1075 1467 L653 884 L1165 0 Z M720 -341 L621 -550 L567 -550 L621 -346 L565 -346 L565 -141 L720 -141 L720 -341 Z " />
<glyph glyph-name="kcommaaccent" unicode="&#x137;" horiz-adv-x="1042" d="M1045 0 L851 0 L516 596 L350 422 L350 0 L180 0 L180 1519 L350 1519 L350 613 L791 1133 L994 1133 L627 711 L1045 0 Z M663 -341 L564 -550 L510 -550 L564 -346 L508 -346 L508 -141 L663 -141 L663 -341 Z " />
<glyph glyph-name="Lacute" unicode="&#x139;" horiz-adv-x="1024" d="M1032 0 L183 0 L183 1467 L361 1467 L361 149 L1032 149 L1032 0 Z M582 1869 L345 1599 L183 1599 L368 1869 L582 1869 Z " />
<glyph glyph-name="lacute" unicode="&#x13a;" horiz-adv-x="530" d="M350 0 L180 0 L180 1519 L350 1519 L350 0 Z M568 1869 L331 1599 L169 1599 L354 1869 L568 1869 Z " />
<glyph glyph-name="Lcommaaccent" unicode="&#x13b;" horiz-adv-x="1024" d="M1032 0 L183 0 L183 1467 L361 1467 L361 149 L1032 149 L1032 0 Z M685 -341 L586 -550 L532 -550 L586 -346 L530 -346 L530 -141 L685 -141 L685 -341 Z " />
<glyph glyph-name="lcommaaccent" unicode="&#x13c;" d="M350 0 L180 0 L180 1519 L350 1519 L350 0 Z M343 -341 L244 -550 L190 -550 L244 -346 L188 -346 L188 -141 L343 -141 L343 -341 Z " />
<glyph glyph-name="Lcaron" unicode="&#x13d;" horiz-adv-x="1024" d="M1032 0 L183 0 L183 1467 L361 1467 L361 149 L1032 149 L1032 0 Z M819 1216 L682 917 L617 917 L696 1210 L626 1210 L626 1467 L819 1467 L819 1216 Z " />
<glyph glyph-name="lcaron" unicode="&#x13e;" horiz-adv-x="530" d="M350 0 L180 0 L180 1519 L350 1519 L350 0 Z M650 1270 L513 971 L448 971 L527 1264 L457 1264 L457 1521 L650 1521 L650 1270 Z " />
<glyph glyph-name="Ldot" unicode="&#x13f;" horiz-adv-x="1024" d="M1032 0 L183 0 L183 1467 L361 1467 L361 149 L1032 149 L1032 0 Z M754 577 L563 577 L563 834 L754 834 L754 577 Z " />
<glyph glyph-name="ldot" unicode="&#x140;" horiz-adv-x="722" d="M350 0 L180 0 L180 1519 L350 1519 L350 0 Z M640 592 L449 592 L449 849 L640 849 L640 592 Z " />
<glyph glyph-name="Lslash" unicode="&#x141;" horiz-adv-x="1024" d="M1032 0 L183 0 L183 589 L42 484 L42 638 L183 741 L183 1467 L361 1467 L361 844 L722 1106 L722 953 L361 692 L361 149 L1032 149 L1032 0 Z " />
<glyph glyph-name="lslash" unicode="&#x142;" horiz-adv-x="530" d="M506 956 L343 837 L343 0 L174 0 L174 736 L25 620 L25 772 L174 879 L174 1519 L343 1519 L343 980 L506 1106 L506 956 Z " />
<glyph glyph-name="Nacute" unicode="&#x143;" horiz-adv-x="1381" d="M1199 0 L975 0 L445 1043 Q434 1064 417 1096 Q363 1197 348 1261 Q359 1189 359 1113 L359 0 L183 0 L183 1467 L416 1467 L953 401 Q981 345 1037 204 Q1025 300 1025 382 L1025 1467 L1199 1467 L1199 0 Z M926 1869 L689 1599 L527 1599 L712 1869 L926 1869 Z " />
<glyph glyph-name="nacute" unicode="&#x144;" horiz-adv-x="1158" d="M987 0 L817 0 L817 812 Q817 1015 654 1015 Q531 1015 350 875 L350 0 L180 0 L180 1135 L340 1135 L343 1001 Q431 1067 491 1098 Q595 1152 698 1152 Q858 1152 928 1053 Q987 969 987 785 L987 0 Z M805 1586 L625 1280 L466 1280 L596 1586 L805 1586 Z " />
<glyph glyph-name="Ncommaaccent" unicode="&#x145;" horiz-adv-x="1381" d="M1199 0 L975 0 L445 1043 Q434 1064 417 1096 Q363 1197 348 1261 Q359 1189 359 1113 L359 0 L183 0 L183 1467 L416 1467 L953 401 Q981 345 1037 204 Q1025 300 1025 382 L1025 1467 L1199 1467 L1199 0 Z M771 -341 L672 -550 L618 -550 L672 -346 L616 -346 L616 -141 L771 -141 L771 -341 Z " />
<glyph glyph-name="ncommaaccent" unicode="&#x146;" horiz-adv-x="1158" d="M987 0 L817 0 L817 812 Q817 1015 654 1015 Q531 1015 350 875 L350 0 L180 0 L180 1135 L340 1135 L343 1001 Q431 1067 491 1098 Q595 1152 698 1152 Q858 1152 928 1053 Q987 969 987 785 L987 0 Z M671 -341 L572 -550 L518 -550 L572 -346 L516 -346 L516 -141 L671 -141 L671 -341 Z " />
<glyph glyph-name="Ncaron" unicode="&#x147;" horiz-adv-x="1381" d="M1199 0 L975 0 L445 1043 Q434 1064 417 1096 Q363 1197 348 1261 Q359 1189 359 1113 L359 0 L183 0 L183 1467 L416 1467 L953 401 Q981 345 1037 204 Q1025 300 1025 382 L1025 1467 L1199 1467 L1199 0 Z M1016 1883 L823 1592 L578 1592 L383 1883 L532 1883 L704 1694 L869 1883 L1016 1883 Z " />
<glyph glyph-name="ncaron" unicode="&#x148;" horiz-adv-x="1158" d="M987 0 L817 0 L817 812 Q817 1015 654 1015 Q531 1015 350 875 L350 0 L180 0 L180 1135 L340 1135 L343 1001 Q431 1067 491 1098 Q595 1152 698 1152 Q858 1152 928 1053 Q987 969 987 785 L987 0 Z M873 1586 L708 1278 L442 1278 L274 1586 L424 1586 L578 1379 L723 1586 L873 1586 Z " />
<glyph glyph-name="napostrophe" unicode="&#x149;" horiz-adv-x="1306" d="M1135 0 L965 0 L965 812 Q965 1015 802 1015 Q679 1015 498 875 L498 0 L328 0 L328 1135 L488 1135 L491 1001 Q579 1067 639 1098 Q743 1152 846 1152 Q1006 1152 1076 1053 Q1135 969 1135 785 L1135 0 Z M239 1211 L102 912 L37 912 L116 1205 L46 1205 L46 1462 L239 1462 L239 1211 Z " />
<glyph glyph-name="Omacron" unicode="&#x14c;" horiz-adv-x="1394" d="M699 1498 Q970 1498 1121 1296 Q1273 1093 1273 735 Q1273 438 1169 249 Q1014 -31 698 -31 Q429 -31 276 174 Q121 381 121 734 Q121 1092 275 1294 Q431 1498 699 1498 Z M695 1353 Q511 1353 414 1194 Q316 1034 316 736 Q316 438 415 276 Q514 115 697 115 Q881 115 979 274 Q1078 435 1078 731 Q1078 981 1008 1133 Q907 1353 695 1353 Z M993 1616 L390 1616 L390 1779 L993 1779 L993 1616 Z " />
<glyph glyph-name="omacron" unicode="&#x14d;" horiz-adv-x="1150" d="M586 1163 Q791 1163 906 1034 Q973 958 1007 814 Q1035 698 1035 569 Q1035 -29 568 -29 Q354 -29 243 98 Q178 173 143 315 Q116 428 116 557 Q116 827 213 977 Q332 1163 586 1163 Z M576 1022 Q457 1022 386 942 Q344 894 317.5 788.5 Q291 683 291 559 Q291 364 333 264 Q397 112 571 112 Q748 112 814 264 Q859 368 859 561 Q859 741 830 835 Q771 1022 576 1022 Z M869 1361 L266 1361 L266 1521 L869 1521 L869 1361 Z " />
<glyph glyph-name="Obreve" unicode="&#x14e;" horiz-adv-x="1394" d="M699 1498 Q970 1498 1121 1296 Q1273 1093 1273 735 Q1273 438 1169 249 Q1014 -31 698 -31 Q429 -31 276 174 Q121 381 121 734 Q121 1092 275 1294 Q431 1498 699 1498 Z M695 1353 Q511 1353 414 1194 Q316 1034 316 736 Q316 438 415 276 Q514 115 697 115 Q881 115 979 274 Q1078 435 1078 731 Q1078 981 1008 1133 Q907 1353 695 1353 Z M979 1821 Q975 1724 926 1664 Q849 1570 700 1570 Q575 1570 501.5 1636 Q428 1702 421 1821 L560 1821 Q576 1698 700 1698 Q763 1698 801 1731.5 Q839 1765 841 1821 L979 1821 Z " />
<glyph glyph-name="obreve" unicode="&#x14f;" horiz-adv-x="1150" d="M586 1163 Q791 1163 906 1034 Q973 958 1007 814 Q1035 698 1035 569 Q1035 -29 568 -29 Q354 -29 243 98 Q178 173 143 315 Q116 428 116 557 Q116 827 213 977 Q332 1163 586 1163 Z M576 1022 Q457 1022 386 942 Q344 894 317.5 788.5 Q291 683 291 559 Q291 364 333 264 Q397 112 571 112 Q748 112 814 264 Q859 368 859 561 Q859 741 830 835 Q771 1022 576 1022 Z M854 1557 Q849 1459 801 1400 Q724 1307 575 1307 Q449 1307 376 1372.5 Q303 1438 296 1557 L435 1557 Q451 1434 575 1434 Q637 1434 676 1468 Q715 1502 716 1557 L854 1557 Z " />
<glyph glyph-name="Ohungarumlaut" unicode="&#x150;" horiz-adv-x="1394" d="M699 1498 Q970 1498 1121 1296 Q1273 1093 1273 735 Q1273 438 1169 249 Q1014 -31 698 -31 Q429 -31 276 174 Q121 381 121 734 Q121 1092 275 1294 Q431 1498 699 1498 Z M695 1353 Q511 1353 414 1194 Q316 1034 316 736 Q316 438 415 276 Q514 115 697 115 Q881 115 979 274 Q1078 435 1078 731 Q1078 981 1008 1133 Q907 1353 695 1353 Z M1084 1905 L906 1599 L759 1599 L889 1905 L1084 1905 Z M754 1905 L576 1599 L429 1599 L559 1905 L754 1905 Z " />
<glyph glyph-name="ohungarumlaut" unicode="&#x151;" horiz-adv-x="1150" d="M586 1163 Q791 1163 906 1034 Q973 958 1007 814 Q1035 698 1035 569 Q1035 -29 568 -29 Q354 -29 243 98 Q178 173 143 315 Q116 428 116 557 Q116 827 213 977 Q332 1163 586 1163 Z M576 1022 Q457 1022 386 942 Q344 894 317.5 788.5 Q291 683 291 559 Q291 364 333 264 Q397 112 571 112 Q748 112 814 264 Q859 368 859 561 Q859 741 830 835 Q771 1022 576 1022 Z M980 1586 L802 1280 L655 1280 L785 1586 L980 1586 Z M650 1586 L472 1280 L325 1280 L455 1586 L650 1586 Z " />
<glyph glyph-name="Racute" unicode="&#x154;" horiz-adv-x="1240" d="M1161 0 L955 0 L665 653 L361 653 L361 0 L183 0 L183 1467 L627 1467 Q866 1467 987 1392 Q1135 1299 1135 1073 Q1135 916 1058.5 816 Q982 716 838 682 L1161 0 Z M361 1318 L361 803 L600 803 Q775 803 854 859 Q938 918 938 1063 Q938 1205 863.5 1261.5 Q789 1318 600 1318 L361 1318 Z M845 1869 L608 1599 L446 1599 L631 1869 L845 1869 Z " />
<glyph glyph-name="racute" unicode="&#x155;" horiz-adv-x="763" d="M740 980 Q689 979 644 972 Q486 946 350 684 L350 0 L180 0 L180 1135 L345 1135 L345 900 Q418 1014 460 1058 Q502 1102 559 1126 Q645 1161 740 1161 L740 980 Z M630 1586 L450 1280 L291 1280 L421 1586 L630 1586 Z " />
<glyph glyph-name="Rcommaaccent" unicode="&#x156;" horiz-adv-x="1240" d="M1161 0 L955 0 L665 653 L361 653 L361 0 L183 0 L183 1467 L627 1467 Q866 1467 987 1392 Q1135 1299 1135 1073 Q1135 916 1058.5 816 Q982 716 838 682 L1161 0 Z M361 1318 L361 803 L600 803 Q775 803 854 859 Q938 918 938 1063 Q938 1205 863.5 1261.5 Q789 1318 600 1318 L361 1318 Z M724 -341 L625 -550 L571 -550 L625 -346 L569 -346 L569 -141 L724 -141 L724 -341 Z " />
<glyph glyph-name="rcommaaccent" unicode="&#x157;" horiz-adv-x="763" d="M740 980 Q689 979 644 972 Q486 946 350 684 L350 0 L180 0 L180 1135 L345 1135 L345 900 Q418 1014 460 1058 Q502 1102 559 1126 Q645 1161 740 1161 L740 980 Z M342 -341 L243 -550 L189 -550 L243 -346 L187 -346 L187 -141 L342 -141 L342 -341 Z " />
<glyph glyph-name="Rcaron" unicode="&#x158;" horiz-adv-x="1240" d="M1161 0 L955 0 L665 653 L361 653 L361 0 L183 0 L183 1467 L627 1467 Q866 1467 987 1392 Q1135 1299 1135 1073 Q1135 916 1058.5 816 Q982 716 838 682 L1161 0 Z M361 1318 L361 803 L600 803 Q775 803 854 859 Q938 918 938 1063 Q938 1205 863.5 1261.5 Q789 1318 600 1318 L361 1318 Z M902 1883 L709 1592 L464 1592 L269 1883 L418 1883 L590 1694 L755 1883 L902 1883 Z " />
<glyph glyph-name="rcaron" unicode="&#x159;" horiz-adv-x="763" d="M740 980 Q689 979 644 972 Q486 946 350 684 L350 0 L180 0 L180 1135 L345 1135 L345 900 Q418 1014 460 1058 Q502 1102 559 1126 Q645 1161 740 1161 L740 980 Z M739 1586 L574 1278 L308 1278 L140 1586 L290 1586 L444 1379 L589 1586 L739 1586 Z " />
<glyph glyph-name="Sacute" unicode="&#x15a;" horiz-adv-x="1198" d="M66 376 L240 431 Q268 306 318 239 Q411 117 598 117 Q720 117 804 173 Q904 239 904 357 Q904 488 778 570 Q734 598 587 660 Q374 749 297 803 Q118 928 118 1133 Q118 1322 257 1418 Q375 1498 561 1498 Q953 1498 1049 1131 L873 1085 Q842 1190 797 1245 Q713 1348 554 1348 Q411 1348 351 1280 Q305 1227 305 1149 Q305 1018 441 937 Q517 892 752 792 Q868 742 916.5 712.5 Q965 683 1006 635 Q1089 538 1089 379 Q1089 248 1037 157 Q990 75 914 36 Q780 -33 596 -33 Q370 -33 245.5 62.5 Q121 158 66 376 Z M818 1869 L581 1599 L419 1599 L604 1869 L818 1869 Z " />
<glyph glyph-name="sacute" unicode="&#x15b;" horiz-adv-x="955" d="M55 222 L200 294 Q233 222 269 185 Q345 107 487 107 Q616 107 672 169 Q710 212 710 268 Q710 319 688 351 Q645 414 554 458 L409 530 Q257 605 243 616 Q108 718 108 870 Q108 1006 208 1084 Q309 1163 476 1163 Q685 1163 793 1047 Q823 1015 858 952 L713 881 Q686 936 658 964 Q594 1027 472 1027 Q380 1027 327.5 989.5 Q275 952 275 887 Q275 838 296 808 Q353 728 579 631 Q684 585 730.5 557 Q777 529 808 493 Q882 407 882 286 Q882 193 842 123 Q805 59 745 29 Q633 -29 490 -29 Q371 -29 276 7 Q181 43 125 108 Q91 148 55 222 Z M701 1586 L521 1280 L362 1280 L492 1586 L701 1586 Z " />
<glyph glyph-name="Scircumflex" unicode="&#x15c;" horiz-adv-x="1198" d="M66 376 L240 431 Q268 306 318 239 Q411 117 598 117 Q720 117 804 173 Q904 239 904 357 Q904 488 778 570 Q734 598 587 660 Q374 749 297 803 Q118 928 118 1133 Q118 1322 257 1418 Q375 1498 561 1498 Q953 1498 1049 1131 L873 1085 Q842 1190 797 1245 Q713 1348 554 1348 Q411 1348 351 1280 Q305 1227 305 1149 Q305 1018 441 937 Q517 892 752 792 Q868 742 916.5 712.5 Q965 683 1006 635 Q1089 538 1089 379 Q1089 248 1037 157 Q990 75 914 36 Q780 -33 596 -33 Q370 -33 245.5 62.5 Q121 158 66 376 Z M877 1592 L725 1592 L573 1798 L426 1592 L278 1592 L456 1900 L697 1900 L877 1592 Z " />
<glyph glyph-name="scircumflex" unicode="&#x15d;" horiz-adv-x="955" d="M55 222 L200 294 Q233 222 269 185 Q345 107 487 107 Q616 107 672 169 Q710 212 710 268 Q710 319 688 351 Q645 414 554 458 L409 530 Q257 605 243 616 Q108 718 108 870 Q108 1006 208 1084 Q309 1163 476 1163 Q685 1163 793 1047 Q823 1015 858 952 L713 881 Q686 936 658 964 Q594 1027 472 1027 Q380 1027 327.5 989.5 Q275 952 275 887 Q275 838 296 808 Q353 728 579 631 Q684 585 730.5 557 Q777 529 808 493 Q882 407 882 286 Q882 193 842 123 Q805 59 745 29 Q633 -29 490 -29 Q371 -29 276 7 Q181 43 125 108 Q91 148 55 222 Z M768 1278 L616 1278 L464 1484 L317 1278 L169 1278 L347 1586 L588 1586 L768 1278 Z " />
<glyph glyph-name="Scedilla" unicode="&#x15e;" horiz-adv-x="1198" d="M639 -32 L601 -121 Q690 -123 729.5 -156.5 Q769 -190 769 -263 Q769 -314 747 -351 Q696 -438 536 -438 Q457 -438 354 -409 L373 -314 Q477 -336 526 -336 Q635 -336 635 -269 Q635 -204 510 -204 Q504 -204 463 -207 L536 -31 Q431 -21 364 1 Q297 23 243 65 Q121 161 66 376 L240 431 Q268 306 318 240 Q411 117 598 117 Q720 117 804 173 Q904 239 904 357 Q904 487 778 570 Q735 597 587 660 Q374 749 297 803 Q118 928 118 1133 Q118 1322 257 1418 Q375 1498 561 1498 Q953 1498 1049 1131 L873 1085 Q843 1190 797 1245 Q713 1348 554 1348 Q411 1348 351 1280 Q305 1227 305 1149 Q305 1018 441 937 Q490 908 752 792 Q856 746 878 735 Q900 724 930 703 Q1013 644 1051 566.5 Q1089 489 1089 379 Q1089 184 975 80.5 Q861 -23 639 -32 Z " />
<glyph glyph-name="scedilla" unicode="&#x15f;" horiz-adv-x="955" d="M524 -28 L485 -121 Q574 -124 613.5 -157 Q653 -190 653 -262 Q653 -313 631 -351 Q581 -438 420 -438 Q341 -438 238 -409 L257 -315 Q363 -336 409 -336 Q519 -336 519 -269 Q519 -204 394 -204 Q385 -204 347 -207 L423 -26 Q283 -13 198.5 44 Q114 101 55 222 L200 294 Q233 222 269 185 Q345 107 487 107 Q616 107 672 169 Q710 212 710 268 Q710 319 688 351 Q645 414 554 458 L409 530 Q257 605 243 616 Q108 718 108 870 Q108 1006 208 1084 Q309 1163 476 1163 Q685 1163 793 1047 Q823 1015 858 952 L713 881 Q686 936 658 964 Q594 1027 472 1027 Q380 1027 327.5 989.5 Q275 952 275 887 Q275 838 296 808 Q353 728 579 630 Q684 585 730.5 557 Q777 529 808 493 Q882 407 882 286 Q882 -8 524 -28 Z " />
<glyph glyph-name="Scaron" unicode="&#x160;" horiz-adv-x="1198" d="M66 376 L240 431 Q268 306 318 239 Q411 117 598 117 Q720 117 804 173 Q904 239 904 357 Q904 488 778 570 Q734 598 587 660 Q374 749 297 803 Q118 928 118 1133 Q118 1322 257 1418 Q375 1498 561 1498 Q953 1498 1049 1131 L873 1085 Q842 1190 797 1245 Q713 1348 554 1348 Q411 1348 351 1280 Q305 1227 305 1149 Q305 1018 441 937 Q517 892 752 792 Q868 742 916.5 712.5 Q965 683 1006 635 Q1089 538 1089 379 Q1089 248 1037 157 Q990 75 914 36 Q780 -33 596 -33 Q370 -33 245.5 62.5 Q121 158 66 376 Z M900 1883 L707 1592 L462 1592 L267 1883 L416 1883 L588 1694 L753 1883 L900 1883 Z " />
<glyph glyph-name="scaron" unicode="&#x161;" horiz-adv-x="955" d="M55 222 L200 294 Q233 222 269 185 Q345 107 487 107 Q616 107 672 169 Q710 212 710 268 Q710 319 688 351 Q645 414 554 458 L409 530 Q257 605 243 616 Q108 718 108 870 Q108 1006 208 1084 Q309 1163 476 1163 Q685 1163 793 1047 Q823 1015 858 952 L713 881 Q686 936 658 964 Q594 1027 472 1027 Q380 1027 327.5 989.5 Q275 952 275 887 Q275 838 296 808 Q353 728 579 631 Q684 585 730.5 557 Q777 529 808 493 Q882 407 882 286 Q882 193 842 123 Q805 59 745 29 Q633 -29 490 -29 Q371 -29 276 7 Q181 43 125 108 Q91 148 55 222 Z M777 1586 L612 1278 L346 1278 L178 1586 L328 1586 L482 1379 L627 1586 L777 1586 Z " />
<glyph glyph-name="Tcommaaccent" unicode="&#x162;" horiz-adv-x="1003" d="M1007 1318 L589 1318 L589 0 L411 0 L411 1318 L-4 1318 L-4 1467 L1007 1467 L1007 1318 Z M579 -341 L480 -550 L426 -550 L480 -346 L424 -346 L424 -141 L579 -141 L579 -341 Z " />
<glyph glyph-name="tcommaaccent" unicode="&#x163;" horiz-adv-x="686" d="M682 11 Q564 -17 482 -17 Q349 -17 287 44 Q225 104 225 244 L225 988 L40 988 L40 1135 L225 1135 L225 1436 L397 1486 L397 1135 L673 1135 L673 988 L397 988 L397 244 Q397 177 423.5 150.5 Q450 124 517 124 Q583 124 661 149 L682 11 Z M461 -341 L362 -550 L308 -550 L362 -346 L306 -346 L306 -141 L461 -141 L461 -341 Z " />
<glyph glyph-name="Tcaron" unicode="&#x164;" horiz-adv-x="1003" d="M1007 1318 L589 1318 L589 0 L411 0 L411 1318 L-4 1318 L-4 1467 L1007 1467 L1007 1318 Z M814 1883 L621 1592 L376 1592 L181 1883 L330 1883 L502 1694 L667 1883 L814 1883 Z " />
<glyph glyph-name="tcaron" unicode="&#x165;" horiz-adv-x="686" d="M682 11 Q564 -17 482 -17 Q349 -17 287 44 Q225 104 225 244 L225 988 L40 988 L40 1135 L225 1135 L225 1436 L397 1486 L397 1135 L673 1135 L673 988 L397 988 L397 244 Q397 177 423.5 150.5 Q450 124 517 124 Q583 124 661 149 L682 11 Z M706 1539 L569 1240 L504 1240 L583 1533 L513 1533 L513 1790 L706 1790 L706 1539 Z " />
<glyph glyph-name="Tbar" unicode="&#x166;" horiz-adv-x="1003" d="M589 945 L865 945 L865 785 L589 785 L589 0 L411 0 L411 785 L157 785 L157 945 L411 945 L411 1318 L-4 1318 L-4 1467 L1007 1467 L1007 1318 L589 1318 L589 945 Z " />
<glyph glyph-name="tbar" unicode="&#x167;" horiz-adv-x="686" d="M225 646 L40 646 L40 790 L225 790 L225 988 L40 988 L40 1135 L225 1135 L225 1436 L397 1486 L397 1135 L673 1135 L673 988 L397 988 L397 790 L663 790 L663 646 L397 646 L397 244 Q397 177 423.5 150.5 Q450 124 517 124 Q583 124 662 149 L682 11 Q566 -17 483 -17 Q349 -17 287 44 Q225 104 225 244 L225 646 Z " />
<glyph glyph-name="Utilde" unicode="&#x168;" horiz-adv-x="1361" d="M183 1467 L361 1467 L361 523 Q361 324 415 234 Q485 117 681 117 Q878 117 947 234 Q1001 324 1001 529 L1001 1467 L1179 1467 L1179 497 Q1179 276 1100 153 Q982 -29 675 -29 Q413 -29 293 109 Q183 236 183 497 L183 1467 Z M1024 1794 Q926 1662 815 1662 Q768 1662 682 1699 Q595 1737 554 1737 Q502 1737 446 1660 L343 1744 Q446 1887 566 1887 Q611 1887 712 1839 Q776 1809 814 1809 Q861 1809 929 1887 L1024 1794 Z " />
<glyph glyph-name="utilde" unicode="&#x169;" horiz-adv-x="1161" d="M978 0 L818 0 L816 134 Q727 66 666 35 Q561 -20 458 -20 Q300 -20 229 80 Q172 161 172 348 L172 1135 L341 1135 L341 323 Q341 221 372 175 Q410 119 501 119 Q624 119 810 258 L810 1135 L978 1135 L978 0 Z M913 1461 Q818 1331 709 1331 Q659 1331 574 1368 Q488 1406 445 1406 Q394 1406 338 1329 L237 1410 Q339 1553 457 1553 Q503 1553 587 1515 Q670 1478 706 1478 Q754 1478 821 1553 L913 1461 Z " />
<glyph glyph-name="Umacron" unicode="&#x16a;" horiz-adv-x="1361" d="M183 1467 L361 1467 L361 523 Q361 324 415 234 Q485 117 681 117 Q878 117 947 234 Q1001 324 1001 529 L1001 1467 L1179 1467 L1179 497 Q1179 276 1100 153 Q982 -29 675 -29 Q413 -29 293 109 Q183 236 183 497 L183 1467 Z M982 1616 L379 1616 L379 1779 L982 1779 L982 1616 Z " />
<glyph glyph-name="umacron" unicode="&#x16b;" horiz-adv-x="1161" d="M978 0 L818 0 L816 134 Q727 66 666 35 Q561 -20 458 -20 Q300 -20 229 80 Q172 161 172 348 L172 1135 L341 1135 L341 323 Q341 221 372 175 Q410 119 501 119 Q624 119 810 258 L810 1135 L978 1135 L978 0 Z M879 1361 L276 1361 L276 1521 L879 1521 L879 1361 Z " />
<glyph glyph-name="Ubreve" unicode="&#x16c;" horiz-adv-x="1361" d="M183 1467 L361 1467 L361 523 Q361 324 415 234 Q485 117 681 117 Q878 117 947 234 Q1001 324 1001 529 L1001 1467 L1179 1467 L1179 497 Q1179 276 1100 153 Q982 -29 675 -29 Q413 -29 293 109 Q183 236 183 497 L183 1467 Z M956 1821 Q952 1724 903 1664 Q826 1570 677 1570 Q552 1570 478.5 1636 Q405 1702 398 1821 L537 1821 Q553 1698 677 1698 Q740 1698 778 1731.5 Q816 1765 818 1821 L956 1821 Z " />
<glyph glyph-name="ubreve" unicode="&#x16d;" horiz-adv-x="1161" d="M978 0 L818 0 L816 134 Q727 66 666 35 Q561 -20 458 -20 Q300 -20 229 80 Q172 161 172 348 L172 1135 L341 1135 L341 323 Q341 221 372 175 Q410 119 501 119 Q624 119 810 258 L810 1135 L978 1135 L978 0 Z M854 1557 Q849 1459 801 1400 Q724 1307 575 1307 Q449 1307 376 1372.5 Q303 1438 296 1557 L435 1557 Q451 1434 575 1434 Q637 1434 676 1468 Q715 1502 716 1557 L854 1557 Z " />
<glyph glyph-name="Uring" unicode="&#x16e;" horiz-adv-x="1361" d="M183 1467 L361 1467 L361 523 Q361 324 415 234 Q485 117 681 117 Q878 117 947 234 Q1001 324 1001 529 L1001 1467 L1179 1467 L1179 497 Q1179 276 1100 153 Q982 -29 675 -29 Q413 -29 293 109 Q183 236 183 497 L183 1467 Z M679 1933 Q770 1933 831 1876 Q892 1819 892 1735 Q892 1651 831 1594.5 Q770 1538 678 1538 Q588 1538 528.5 1593.5 Q469 1649 469 1733 Q469 1819 529 1876 Q589 1933 679 1933 Z M683 1836 Q637 1836 607 1807.5 Q577 1779 577 1735 Q577 1692 607 1662 Q637 1632 680 1632 Q724 1632 754 1661.5 Q784 1691 784 1733 Q784 1836 683 1836 Z " />
<glyph glyph-name="uring" unicode="&#x16f;" horiz-adv-x="1161" d="M978 0 L818 0 L816 134 Q727 66 666 35 Q561 -20 458 -20 Q300 -20 229 80 Q172 161 172 348 L172 1135 L341 1135 L341 323 Q341 221 372 175 Q410 119 501 119 Q624 119 810 258 L810 1135 L978 1135 L978 0 Z M574 1645 Q665 1645 726 1588 Q787 1531 787 1447 Q787 1363 726 1306 Q665 1249 574 1249 Q483 1249 423.5 1304.5 Q364 1360 364 1445 Q364 1530 424 1587.5 Q484 1645 574 1645 Z M578 1548 Q533 1548 503 1519 Q473 1490 473 1447 Q473 1403 503 1373 Q533 1343 575 1343 Q619 1343 648.5 1372.5 Q678 1402 678 1445 Q678 1493 651.5 1520.5 Q625 1548 578 1548 Z " />
<glyph glyph-name="Uhungarumlaut" unicode="&#x170;" horiz-adv-x="1361" d="M183 1467 L361 1467 L361 523 Q361 324 415 234 Q485 117 681 117 Q878 117 947 234 Q1001 324 1001 529 L1001 1467 L1179 1467 L1179 497 Q1179 276 1100 153 Q982 -29 675 -29 Q413 -29 293 109 Q183 236 183 497 L183 1467 Z M1062 1905 L884 1599 L737 1599 L867 1905 L1062 1905 Z M732 1905 L554 1599 L407 1599 L537 1905 L732 1905 Z " />
<glyph glyph-name="uhungarumlaut" unicode="&#x171;" horiz-adv-x="1161" d="M978 0 L818 0 L816 134 Q727 66 666 35 Q561 -20 458 -20 Q300 -20 229 80 Q172 161 172 348 L172 1135 L341 1135 L341 323 Q341 221 372 175 Q410 119 501 119 Q624 119 810 258 L810 1135 L978 1135 L978 0 Z M964 1586 L786 1280 L639 1280 L769 1586 L964 1586 Z M634 1586 L456 1280 L309 1280 L439 1586 L634 1586 Z " />
<glyph glyph-name="Uogonek" unicode="&#x172;" horiz-adv-x="1361" d="M907 -220 L939 -347 Q843 -386 756 -386 Q647 -386 589 -343 Q531 -300 531 -218 Q531 -115 638 -29 Q424 -13 324 75 Q183 199 183 519 L183 1467 L361 1467 L361 546 Q361 324 416 232 Q484 117 682 117 Q876 117 945 232 Q1001 326 1001 550 L1001 1467 L1179 1467 L1179 519 Q1177 51 859 -6 Q812 -19 753 -63 Q691 -109 691 -175 Q691 -253 786 -253 Q839 -253 907 -220 Z " />
<glyph glyph-name="uogonek" unicode="&#x173;" horiz-adv-x="1161" d="M1022 -348 Q925 -387 839 -387 Q730 -387 672 -343.5 Q614 -300 614 -219 Q614 -140 661 -82 Q708 -24 814 29 L818 29 L816 134 Q727 66 666 35 Q561 -20 458 -20 Q300 -20 229 80 Q172 161 172 348 L172 1135 L341 1135 L341 323 Q341 221 372 175 Q410 119 501 119 Q624 119 810 258 L810 1135 L978 1135 L978 0 L973 0 Q947 0 909 -19 Q838 -55 806.5 -92 Q775 -129 775 -176 Q775 -254 870 -254 Q923 -254 990 -220 L1022 -348 Z " />
<glyph glyph-name="Wcircumflex" unicode="&#x174;" horiz-adv-x="1641" d="M1609 1467 L1273 0 L1095 0 L858 990 Q829 1112 818 1261 Q804 1103 776 990 L537 0 L361 0 L31 1467 L211 1467 L420 491 Q434 422 455 237 Q472 377 499 491 L732 1467 L915 1467 L1146 491 Q1162 420 1192 237 Q1202 375 1227 491 L1438 1467 L1609 1467 Z M1108 1592 L956 1592 L804 1798 L657 1592 L509 1592 L687 1900 L928 1900 L1108 1592 Z " />
<glyph glyph-name="wcircumflex" unicode="&#x175;" horiz-adv-x="1447" d="M1416 1135 L1119 0 L954 0 L772 671 Q737 800 719 932 Q708 811 669 671 L482 0 L317 0 L29 1135 L204 1135 L365 436 Q392 318 403 209 Q417 338 444 436 L638 1135 L810 1135 L1001 436 Q1019 367 1045 209 Q1052 323 1078 436 L1240 1135 L1416 1135 Z M1022 1278 L870 1278 L718 1484 L571 1278 L423 1278 L601 1586 L842 1586 L1022 1278 Z " />
<glyph glyph-name="Ycircumflex" unicode="&#x176;" horiz-adv-x="1087" d="M1097 1467 L627 631 L627 0 L451 0 L451 631 L-11 1467 L184 1467 L398 1073 Q476 930 503 870.5 Q530 811 549 739 Q579 852 698 1073 L912 1467 L1097 1467 Z M842 1592 L690 1592 L538 1798 L391 1592 L243 1592 L421 1900 L662 1900 L842 1592 Z " />
<glyph glyph-name="ycircumflex" unicode="&#x177;" horiz-adv-x="936" d="M917 1135 L533 -97 Q481 -262 412 -325 Q333 -398 165 -398 Q88 -398 31 -382 L48 -246 Q108 -260 155 -260 Q279 -260 331 -157 Q350 -120 392 21 L13 1135 L200 1135 L389 537 Q397 510 415 455 Q464 309 477 207 Q500 311 567 543 L739 1135 L917 1135 Z M765 1278 L613 1278 L461 1484 L314 1278 L166 1278 L344 1586 L585 1586 L765 1278 Z " />
<glyph glyph-name="Zacute" unicode="&#x179;" horiz-adv-x="1102" d="M1034 0 L77 0 L77 126 L818 1315 L125 1315 L125 1464 L1018 1464 L1018 1334 L276 147 L1034 147 L1034 0 Z M835 1869 L598 1599 L436 1599 L621 1869 L835 1869 Z " />
<glyph glyph-name="zacute" unicode="&#x17a;" horiz-adv-x="917" d="M846 0 L71 0 L71 117 L514 814 Q567 896 636 992 Q543 988 467 988 L128 988 L128 1135 L842 1135 L842 1011 L389 295 Q339 216 277 139 L299 139 Q389 141 416 141 L846 141 L846 0 Z M699 1586 L519 1280 L360 1280 L490 1586 L699 1586 Z " />
<glyph glyph-name="Zdotaccent" unicode="&#x17b;" horiz-adv-x="1102" d="M1034 0 L77 0 L77 126 L818 1315 L125 1315 L125 1464 L1018 1464 L1018 1334 L276 147 L1034 147 L1034 0 Z M677 1588 L484 1588 L484 1812 L677 1812 L677 1588 Z " />
<glyph glyph-name="zdotaccent" unicode="&#x17c;" horiz-adv-x="917" d="M846 0 L71 0 L71 117 L514 814 Q567 896 636 992 Q543 988 467 988 L128 988 L128 1135 L842 1135 L842 1011 L389 295 Q339 216 277 139 L299 139 Q389 141 416 141 L846 141 L846 0 Z M590 1293 L397 1293 L397 1517 L590 1517 L590 1293 Z " />
<glyph glyph-name="Zcaron" unicode="&#x17d;" horiz-adv-x="1102" d="M1034 0 L77 0 L77 126 L818 1315 L125 1315 L125 1464 L1018 1464 L1018 1334 L276 147 L1034 147 L1034 0 Z M887 1883 L694 1592 L449 1592 L254 1883 L403 1883 L575 1694 L740 1883 L887 1883 Z " />
<glyph glyph-name="zcaron" unicode="&#x17e;" horiz-adv-x="917" d="M846 0 L71 0 L71 117 L514 814 Q567 896 636 992 Q543 988 467 988 L128 988 L128 1135 L842 1135 L842 1011 L389 295 Q339 216 277 139 L299 139 Q389 141 416 141 L846 141 L846 0 Z M793 1586 L628 1278 L362 1278 L194 1586 L344 1586 L498 1379 L643 1586 L793 1586 Z " />
<glyph glyph-name="longs" unicode="&#x17f;" horiz-adv-x="617" d="M643 1582 L628 1445 Q565 1461 510 1461 Q431 1461 401.5 1423.5 Q372 1386 372 1286 L372 0 L202 0 L202 988 L19 988 L19 1135 L202 1135 L202 1297 Q202 1597 484 1597 Q533 1597 643 1582 Z " />
<glyph glyph-name="uni01C4" unicode="&#x1c4;" horiz-adv-x="2443" d="M183 0 L183 1467 L552 1467 Q903 1467 1065 1290 Q1221 1120 1221 766 Q1221 596 1194 459 Q1162 293 1097 203 Q1028 109 931 69 Q763 0 543 0 L183 0 Z M361 1318 L361 149 L479 149 Q793 149 910 274 Q1027 400 1027 740 Q1027 1005 943 1140 Q832 1318 558 1318 L361 1318 Z M2375 0 L1419 0 L1419 126 L2159 1315 L1467 1315 L1467 1464 L2359 1464 L2359 1334 L1618 147 L2375 147 L2375 0 Z M2241 1884 L2048 1593 L1803 1593 L1607 1884 L1757 1884 L1929 1695 L2094 1884 L2241 1884 Z " />
<glyph glyph-name="uni01C5" unicode="&#x1c5;" horiz-adv-x="2258" d="M183 0 L183 1467 L552 1467 Q903 1467 1065 1290 Q1221 1120 1221 766 Q1221 596 1194 459 Q1162 293 1097 203 Q1028 109 931 69 Q763 0 543 0 L183 0 Z M361 1318 L361 149 L479 149 Q793 149 910 274 Q1027 400 1027 740 Q1027 1005 943 1140 Q832 1318 558 1318 L361 1318 Z M2188 0 L1412 0 L1412 117 L1856 814 Q1910 899 1977 992 Q1884 988 1808 988 L1469 988 L1469 1135 L2183 1135 L2183 1011 L1730 295 Q1681 216 1618 139 L1640 139 Q1730 141 1757 141 L2188 141 L2188 0 Z M2135 1586 L1970 1278 L1703 1278 L1536 1586 L1686 1586 L1840 1379 L1985 1586 L2135 1586 Z " />
<glyph glyph-name="uni01C6" unicode="&#x1c6;" horiz-adv-x="2094" d="M997 0 L833 0 L829 132 Q744 50 671 15 Q598 -20 510 -20 Q326 -20 222 131 Q117 283 117 562 Q117 843 224 998 Q330 1152 522 1152 Q688 1152 827 1022 L827 1519 L997 1519 L997 0 Z M827 275 L827 890 Q681 1016 560 1016 Q455 1016 388 940 Q348 894 322 787 Q296 680 296 561 Q296 432 325.5 328.5 Q355 225 404 181 Q471 121 561 121 Q632 121 692.5 156 Q753 191 827 275 Z M2023 0 L1247 0 L1247 117 L1691 814 Q1739 890 1812 992 Q1720 988 1643 988 L1304 988 L1304 1135 L2018 1135 L2018 1011 L1565 295 Q1516 217 1453 139 L1475 139 Q1565 141 1592 141 L2023 141 L2023 0 Z M1970 1586 L1805 1278 L1539 1278 L1371 1586 L1521 1586 L1675 1379 L1820 1586 L1970 1586 Z " />
<glyph glyph-name="uni01C7" unicode="&#x1c7;" horiz-adv-x="1942" d="M1032 0 L183 0 L183 1467 L361 1467 L361 149 L1032 149 L1032 0 Z M1100 46 L1166 191 Q1301 115 1399 115 Q1501 115 1541.5 181.5 Q1582 248 1582 416 L1582 1467 L1760 1467 L1760 365 Q1760 182 1700 91 Q1619 -33 1403 -33 Q1233 -33 1100 46 Z " />
<glyph glyph-name="uni01C8" unicode="&#x1c8;" horiz-adv-x="1578" d="M1032 0 L183 0 L183 1467 L361 1467 L361 149 L1032 149 L1032 0 Z M1398 1290 L1205 1290 L1205 1519 L1398 1519 L1398 1290 Z M957 -374 L974 -239 Q1038 -260 1091 -260 Q1162 -260 1189.5 -217.5 Q1217 -175 1217 -66 L1217 1135 L1388 1135 L1388 -40 Q1388 -186 1352 -264 Q1290 -396 1111 -396 Q1030 -396 957 -374 Z " />
<glyph glyph-name="uni01C9" unicode="&#x1c9;" horiz-adv-x="1084" d="M350 0 L180 0 L180 1519 L350 1519 L350 0 Z M904 1290 L711 1290 L711 1519 L904 1519 L904 1290 Z M462 -374 L479 -239 Q543 -260 596 -260 Q667 -260 694.5 -217.5 Q722 -175 722 -66 L722 1135 L893 1135 L893 -40 Q893 -186 857 -264 Q796 -396 616 -396 Q535 -396 462 -374 Z " />
<glyph glyph-name="uni01CA" unicode="&#x1ca;" horiz-adv-x="2236" d="M1199 0 L975 0 L445 1043 Q434 1064 417 1096 Q363 1197 348 1261 Q359 1189 359 1113 L359 0 L183 0 L183 1467 L416 1467 L953 401 Q981 345 1037 204 Q1025 300 1025 382 L1025 1467 L1199 1467 L1199 0 Z M1394 46 L1460 191 Q1595 115 1693 115 Q1795 115 1835.5 181.5 Q1876 248 1876 416 L1876 1467 L2054 1467 L2054 365 Q2054 182 1994 91 Q1913 -33 1697 -33 Q1527 -33 1394 46 Z " />
<glyph glyph-name="uni01CB" unicode="&#x1cb;" horiz-adv-x="1935" d="M1199 0 L975 0 L445 1043 Q434 1064 417 1096 Q363 1197 348 1261 Q359 1189 359 1113 L359 0 L183 0 L183 1467 L416 1467 L953 401 Q981 345 1037 204 Q1025 300 1025 382 L1025 1467 L1199 1467 L1199 0 Z M1755 1290 L1562 1290 L1562 1519 L1755 1519 L1755 1290 Z M1313 -374 L1330 -239 Q1394 -260 1446 -260 Q1518 -260 1545.5 -217.5 Q1573 -175 1573 -66 L1573 1135 L1744 1135 L1744 -40 Q1744 -186 1708 -264 Q1647 -396 1467 -396 Q1386 -396 1313 -374 Z " />
<glyph glyph-name="uni01CC" unicode="&#x1cc;" horiz-adv-x="1713" d="M988 0 L818 0 L818 812 Q818 1015 655 1015 Q532 1015 350 875 L350 0 L180 0 L180 1135 L340 1135 L343 1001 Q431 1067 491 1098 Q596 1152 698 1152 Q859 1152 929 1053 Q988 969 988 785 L988 0 Z M1532 1290 L1339 1290 L1339 1519 L1532 1519 L1532 1290 Z M1090 -374 L1107 -239 Q1171 -260 1224 -260 Q1295 -260 1322.5 -218 Q1350 -176 1350 -66 L1350 1135 L1521 1135 L1521 -40 Q1521 -186 1485 -264 Q1424 -396 1244 -396 Q1163 -396 1090 -374 Z " />
<glyph glyph-name="uni01CD" unicode="&#x1cd;" horiz-adv-x="1150" d="M1132 0 L941 0 L822 420 L321 420 L204 0 L19 0 L459 1467 L692 1467 L1132 0 Z M785 569 L629 1117 L571 1322 L514 1117 L358 569 L785 569 Z M875 1900 L710 1592 L444 1592 L276 1900 L426 1900 L580 1693 L725 1900 L875 1900 Z " />
<glyph glyph-name="uni01CE" unicode="&#x1ce;" horiz-adv-x="1082" d="M911 0 L752 0 L752 136 Q624 -19 421 -19 Q274 -19 188 69 Q102 156 102 293 Q102 552 393 654 Q518 698 744 726 L744 807 Q744 907 686 964 Q625 1024 517 1024 Q430 1024 367.5 987 Q305 950 251 867 L108 955 Q163 1032 214 1071 Q333 1163 524 1163 Q626 1163 708 1135 Q790 1107 834 1057 Q911 971 911 818 L911 0 Z M744 286 L744 602 Q576 582 481 549 Q274 477 274 306 Q274 219 324 168 Q374 117 458 117 Q624 117 744 286 Z M805 1586 L640 1278 L374 1278 L206 1586 L356 1586 L510 1379 L655 1586 L805 1586 Z " />
<glyph glyph-name="uni01CF" unicode="&#x1cf;" horiz-adv-x="543" d="M361 0 L183 0 L183 1467 L361 1467 L361 0 Z M575 1902 L410 1594 L144 1594 L-24 1902 L126 1902 L280 1695 L425 1902 L575 1902 Z " />
<glyph glyph-name="uni01D0" unicode="&#x1d0;" horiz-adv-x="554" d="M363 0 L193 0 L193 1135 L363 1135 L363 0 Z M577 1586 L412 1278 L146 1278 L-22 1586 L128 1586 L282 1379 L427 1586 L577 1586 Z " />
<glyph glyph-name="uni01D1" unicode="&#x1d1;" horiz-adv-x="1394" d="M699 1498 Q970 1498 1121 1296 Q1273 1093 1273 735 Q1273 438 1169 249 Q1014 -31 698 -31 Q429 -31 276 174 Q121 381 121 734 Q121 1092 275 1294 Q431 1498 699 1498 Z M695 1353 Q511 1353 414 1194 Q316 1034 316 736 Q316 438 415 276 Q514 115 697 115 Q881 115 979 274 Q1078 435 1078 731 Q1078 981 1008 1133 Q907 1353 695 1353 Z M1004 1898 L839 1590 L573 1590 L405 1898 L555 1898 L709 1691 L854 1898 L1004 1898 Z " />
<glyph glyph-name="uni01D2" unicode="&#x1d2;" horiz-adv-x="1150" d="M586 1163 Q791 1163 906 1034 Q973 958 1007 814 Q1035 698 1035 569 Q1035 -29 568 -29 Q354 -29 243 98 Q178 173 143 315 Q116 428 116 557 Q116 827 213 977 Q332 1163 586 1163 Z M576 1022 Q457 1022 386 942 Q344 894 317.5 788.5 Q291 683 291 559 Q291 364 333 264 Q397 112 571 112 Q748 112 814 264 Q859 368 859 561 Q859 741 830 835 Q771 1022 576 1022 Z M875 1586 L710 1278 L444 1278 L276 1586 L426 1586 L580 1379 L725 1586 L875 1586 Z " />
<glyph glyph-name="uni01D3" unicode="&#x1d3;" horiz-adv-x="1361" d="M183 1467 L361 1467 L361 523 Q361 324 415 234 Q485 117 681 117 Q878 117 947 234 Q1001 324 1001 529 L1001 1467 L1179 1467 L1179 497 Q1179 276 1100 153 Q982 -29 675 -29 Q413 -29 293 109 Q183 236 183 497 L183 1467 Z M961 1900 L796 1592 L530 1592 L362 1900 L513 1900 L666 1693 L811 1900 L961 1900 Z " />
<glyph glyph-name="uni01D4" unicode="&#x1d4;" horiz-adv-x="1161" d="M978 0 L818 0 L816 134 Q727 66 666 35 Q561 -20 458 -20 Q300 -20 229 80 Q172 161 172 348 L172 1135 L341 1135 L341 323 Q341 221 372 175 Q410 119 501 119 Q624 119 810 258 L810 1135 L978 1135 L978 0 Z M875 1586 L710 1278 L444 1278 L276 1586 L426 1586 L580 1379 L725 1586 L875 1586 Z " />
<glyph glyph-name="Gcaron" unicode="&#x1e6;" horiz-adv-x="1364" d="M1209 1032 L1024 1010 Q1009 1096 992 1143 Q975 1190 942 1236 Q859 1355 691 1355 Q536 1355 443 1249 Q381 1178 344 1007 Q314 870 314 719 Q314 464 400 282 Q434 211 515 164 Q586 123 678 123 Q777 123 857 168.5 Q937 214 1024 319 L1024 563 L699 563 L699 713 L1198 713 L1198 0 L1055 0 L1040 154 L1027 142 Q958 80 946 68 Q899 24 818.5 -3.5 Q738 -31 654 -31 Q395 -31 256 165 Q121 358 121 708 Q121 1077 267 1285 Q416 1498 697 1498 Q909 1498 1039.5 1379.5 Q1170 1261 1209 1032 Z M992 1900 L826 1592 L560 1592 L392 1900 L543 1900 L696 1693 L841 1900 L992 1900 Z " />
<glyph glyph-name="gcaron" unicode="&#x1e7;" horiz-adv-x="1117" d="M1062 1053 Q1058 1053 1043 1054 Q1039 1054 1036 1055 Q1022 1056 1012 1056 Q940 1056 882 1007 Q968 892 968 752 Q968 576 853 466 Q739 356 562 356 Q474 356 372 394 Q294 363 294 318 Q294 270 365 249 Q386 243 535 211 L734 170 Q888 137 960 88 Q1062 18 1062 -116 Q1062 -292 891 -370 Q765 -428 565 -428 Q379 -428 254 -380 Q75 -311 75 -153 Q75 -66 125 -4 Q175 58 286 109 Q141 156 141 275 Q141 389 296 430 Q241 466 213 502 Q139 596 139 759 Q139 940 256 1052 Q372 1163 550 1163 Q691 1163 812 1080 Q868 1151 912.5 1171.5 Q957 1192 1062 1196 L1062 1053 Z M551 1032 Q438 1032 373 952 Q315 881 315 761 Q315 641 373 569 Q436 490 552 490 Q667 490 728 566 Q785 637 785 755 Q785 852 748 920 Q686 1032 551 1032 Z M405 71 Q228 -18 228 -130 Q228 -185 272 -224 Q303 -251 386 -269.5 Q469 -288 561 -288 Q718 -288 798.5 -248.5 Q879 -209 879 -132 Q879 -20 636 27 L405 71 Z M868 1586 L703 1278 L437 1278 L269 1586 L419 1586 L573 1379 L718 1586 L868 1586 Z " />
<glyph glyph-name="uni01EA" unicode="&#x1ea;" horiz-adv-x="1394" d="M853 -220 L885 -347 Q789 -386 701 -386 Q593 -386 535 -342.5 Q477 -299 477 -217 Q477 -104 589 -21 Q441 7 339 104 Q121 309 121 734 Q121 1087 275 1294 Q428 1498 700 1498 Q970 1498 1121 1296 Q1273 1092 1273 736 Q1273 438 1169 250 Q1090 108 983 42 Q960 28 934 18 Q908 8 775 -38 Q637 -87 637 -174 Q637 -253 732 -253 Q786 -253 853 -220 Z M695 1353 Q511 1353 414 1194 Q316 1034 316 736 Q316 438 415 276 Q514 115 697 115 Q881 115 979 274 Q1078 435 1078 731 Q1078 981 1008 1133 Q907 1353 695 1353 Z " />
<glyph glyph-name="uni01EB" unicode="&#x1eb;" horiz-adv-x="1150" d="M462 -18 Q388 -5 333 26 Q242 77 199 163 Q116 329 116 557 Q116 824 213 977 Q330 1163 584 1163 Q792 1163 906 1034 Q974 958 1008 809 Q1035 689 1035 557 Q1035 397 993 270 Q941 112 855 51 Q839 39 812 29 Q785 19 638 -33 Q506 -79 506 -177 Q506 -254 601 -254 Q655 -254 721 -220 L754 -348 Q657 -387 571 -387 Q346 -387 346 -219 Q346 -104 462 -18 Z M576 1022 Q457 1022 386 942 Q344 894 317.5 788.5 Q291 683 291 559 Q291 364 333 264 Q397 112 571 112 Q748 112 814 264 Q859 368 859 561 Q859 741 830 835 Q771 1022 576 1022 Z " />
<glyph glyph-name="uni01F1" unicode="&#x1f1;" horiz-adv-x="2443" d="M183 0 L183 1467 L552 1467 Q903 1467 1065 1290 Q1221 1120 1221 766 Q1221 596 1194 459 Q1162 293 1097 203 Q1028 109 931 69 Q763 0 543 0 L183 0 Z M361 1318 L361 149 L479 149 Q793 149 910 274 Q1027 400 1027 740 Q1027 1005 943 1140 Q832 1318 558 1318 L361 1318 Z M2375 0 L1419 0 L1419 126 L2159 1315 L1467 1315 L1467 1464 L2359 1464 L2359 1334 L1618 147 L2375 147 L2375 0 Z " />
<glyph glyph-name="uni01F2" unicode="&#x1f2;" horiz-adv-x="2258" d="M183 0 L183 1467 L552 1467 Q903 1467 1065 1290 Q1221 1120 1221 766 Q1221 596 1194 459 Q1162 293 1097 203 Q1028 109 931 69 Q763 0 543 0 L183 0 Z M361 1318 L361 149 L479 149 Q793 149 910 274 Q1027 400 1027 740 Q1027 1005 943 1140 Q832 1318 558 1318 L361 1318 Z M2188 0 L1412 0 L1412 117 L1856 814 Q1910 899 1977 992 Q1884 988 1808 988 L1469 988 L1469 1135 L2183 1135 L2183 1011 L1730 295 Q1681 216 1618 139 L1640 139 Q1730 141 1757 141 L2188 141 L2188 0 Z " />
<glyph glyph-name="uni01F3" unicode="&#x1f3;" horiz-adv-x="2094" d="M997 0 L833 0 L829 132 Q744 50 671 15 Q598 -20 510 -20 Q326 -20 222 131 Q117 283 117 562 Q117 843 224 998 Q330 1152 522 1152 Q688 1152 827 1022 L827 1519 L997 1519 L997 0 Z M827 275 L827 890 Q681 1016 560 1016 Q455 1016 388 940 Q348 894 322 787 Q296 680 296 561 Q296 432 325.5 328.5 Q355 225 404 181 Q471 121 561 121 Q632 121 692.5 156 Q753 191 827 275 Z M2023 0 L1247 0 L1247 117 L1691 814 Q1739 890 1812 992 Q1720 988 1643 988 L1304 988 L1304 1135 L2018 1135 L2018 1011 L1565 295 Q1516 217 1453 139 L1475 139 Q1565 141 1592 141 L2023 141 L2023 0 Z " />
<glyph glyph-name="uni01F4" unicode="&#x1f4;" horiz-adv-x="1364" d="M1209 1032 L1024 1010 Q1009 1096 992 1143 Q975 1190 942 1236 Q859 1355 691 1355 Q536 1355 443 1249 Q381 1178 344 1007 Q314 870 314 719 Q314 464 400 282 Q434 211 515 164 Q586 123 678 123 Q777 123 857 168.5 Q937 214 1024 319 L1024 563 L699 563 L699 713 L1198 713 L1198 0 L1055 0 L1040 154 L1027 142 Q958 80 946 68 Q899 24 818.5 -3.5 Q738 -31 654 -31 Q395 -31 256 165 Q121 358 121 708 Q121 1077 267 1285 Q416 1498 697 1498 Q909 1498 1039.5 1379.5 Q1170 1261 1209 1032 Z M962 1869 L725 1599 L563 1599 L748 1869 L962 1869 Z " />
<glyph glyph-name="uni01F5" unicode="&#x1f5;" horiz-adv-x="1117" d="M1062 1053 Q1058 1053 1043 1054 Q1039 1054 1036 1055 Q1022 1056 1012 1056 Q940 1056 882 1007 Q968 892 968 752 Q968 576 853 466 Q739 356 562 356 Q474 356 372 394 Q294 363 294 318 Q294 270 365 249 Q386 243 535 211 L734 170 Q888 137 960 88 Q1062 18 1062 -116 Q1062 -292 891 -370 Q765 -428 565 -428 Q379 -428 254 -380 Q75 -311 75 -153 Q75 -66 125 -4 Q175 58 286 109 Q141 156 141 275 Q141 389 296 430 Q241 466 213 502 Q139 596 139 759 Q139 940 256 1052 Q372 1163 550 1163 Q691 1163 812 1080 Q868 1151 912.5 1171.5 Q957 1192 1062 1196 L1062 1053 Z M551 1032 Q438 1032 373 952 Q315 881 315 761 Q315 641 373 569 Q436 490 552 490 Q667 490 728 566 Q785 637 785 755 Q785 852 748 920 Q686 1032 551 1032 Z M405 71 Q228 -18 228 -130 Q228 -185 272 -224 Q303 -251 386 -269.5 Q469 -288 561 -288 Q718 -288 798.5 -248.5 Q879 -209 879 -132 Q879 -20 636 27 L405 71 Z M794 1586 L614 1280 L455 1280 L585 1586 L794 1586 Z " />
<glyph glyph-name="Aringacute" unicode="&#x1fa;" horiz-adv-x="1150" d="M1132 0 L941 0 L822 420 L321 420 L204 0 L19 0 L459 1467 L692 1467 L1132 0 Z M785 569 L629 1117 L571 1322 L514 1117 L358 569 L785 569 Z M532 2187 L352 1881 L193 1881 L323 2187 L532 2187 Z M574 1977 Q665 1977 726 1920 Q787 1863 787 1778 Q787 1694 725.5 1637.5 Q664 1581 573 1581 Q483 1581 423.5 1636.5 Q364 1692 364 1777 Q364 1863 424 1920 Q484 1977 574 1977 Z M579 1880 Q533 1880 502.5 1851 Q472 1822 472 1779 Q472 1735 502 1705 Q532 1675 575 1675 Q619 1675 649 1704.5 Q679 1734 679 1776 Q679 1824 652 1852 Q625 1880 579 1880 Z " />
<glyph glyph-name="aringacute" unicode="&#x1fb;" horiz-adv-x="1082" d="M911 0 L752 0 L752 136 Q624 -19 421 -19 Q274 -19 188 69 Q102 156 102 293 Q102 552 393 654 Q518 698 744 726 L744 807 Q744 907 686 964 Q625 1024 517 1024 Q430 1024 367.5 987 Q305 950 251 867 L108 955 Q163 1032 214 1071 Q333 1163 524 1163 Q626 1163 708 1135 Q790 1107 834 1057 Q911 971 911 818 L911 0 Z M744 286 L744 602 Q576 582 481 549 Q274 477 274 306 Q274 219 324 168 Q374 117 458 117 Q624 117 744 286 Z M501 1855 L320 1549 L162 1549 L292 1855 L501 1855 Z M504 1599 Q594 1599 656 1541 Q717 1484 717 1401 Q717 1316 656 1259 Q595 1202 503 1202 Q413 1202 353.5 1258 Q294 1314 294 1399 Q294 1484 354 1541.5 Q414 1599 504 1599 Z M509 1502 Q463 1502 433 1473.5 Q403 1445 403 1401 Q403 1357 432.5 1327 Q462 1297 505 1297 Q549 1297 578.5 1326.5 Q608 1356 608 1399 Q608 1502 509 1502 Z " />
<glyph glyph-name="AEacute" unicode="&#x1fc;" horiz-adv-x="1717" d="M1652 0 L821 0 L821 411 L397 411 L185 0 L-21 0 L754 1467 L1601 1467 L1601 1318 L999 1318 L999 827 L1478 827 L1478 678 L999 678 L999 149 L1652 149 L1652 0 Z M829 1270 L466 565 L821 565 L821 657 Q821 717 828 1161 L829 1270 Z M1434 1869 L1197 1599 L1035 1599 L1220 1869 L1434 1869 Z " />
<glyph glyph-name="aeacute" unicode="&#x1fd;" horiz-adv-x="1720" d="M1608 258 Q1581 190 1539 139 Q1403 -29 1178 -29 Q981 -29 874 82 Q845 112 812 169 Q745 92 688 54 Q567 -27 421 -27 Q274 -27 187 61 Q101 150 101 290 Q101 544 384 644 Q502 686 735 722 Q738 765 741 798 Q744 819 744 834 Q744 918 681.5 971 Q619 1024 519 1024 Q424 1024 359.5 986.5 Q295 949 251 867 L117 950 Q170 1029 221 1069 Q342 1163 525 1163 Q710 1163 801 1075 Q825 1051 852 1007 Q894 1063 933 1091 Q1032 1163 1180 1163 Q1404 1163 1511 997 Q1599 860 1599 644 L1599 543 L898 543 Q901 346 948 249 Q1014 112 1177 112 Q1280 112 1345 162.5 Q1410 213 1456 330 L1608 258 Z M1425 682 Q1413 1022 1173 1022 Q1049 1022 983 940 Q917 858 898 682 L1425 682 Z M752 290 Q726 390 726 538 Q726 577 728 598 Q552 570 466 537 Q273 464 273 299 Q273 214 322 160.5 Q371 107 449 107 Q589 107 752 290 Z M1086 1586 L906 1280 L747 1280 L877 1586 L1086 1586 Z " />
<glyph glyph-name="Oslashacute" unicode="&#x1fe;" horiz-adv-x="1394" d="M1334 1478 Q1261 1386 1154 1245 Q1195 1172 1216 1115 Q1273 955 1273 738 Q1273 417 1146 214 Q994 -31 696 -31 Q496 -31 346 97 Q279 -6 204 -117 L61 -13 Q116 59 237 227 Q195 302 174 362 Q119 521 119 733 Q119 1050 246 1253 Q399 1498 699 1498 Q898 1498 1044 1377 L1057 1395 L1104 1466 L1164 1554 L1185 1586 L1334 1478 Z M946 1232 Q846 1353 692 1353 Q536 1353 443 1245 Q380 1173 344 1013 Q316 887 316 738 Q316 546 361 398 L409 464 Q661 810 728.5 906.5 Q796 1003 946 1232 Z M1028 1071 Q750 701 442 237 Q544 114 698 114 Q853 114 947 221 Q1010 293 1045 453 Q1074 587 1074 729 Q1074 923 1028 1071 Z M986 1869 L749 1599 L587 1599 L772 1869 L986 1869 Z " />
<glyph glyph-name="oslashacute" unicode="&#x1ff;" horiz-adv-x="1150" d="M1130 1163 L958 950 Q1034 795 1034 565 Q1034 334 950 168 Q906 80 814 29 Q709 -29 573 -29 Q400 -29 281 75 L140 -114 L19 -25 Q87 55 193 191 Q119 346 119 566 Q119 829 218 981 Q336 1163 585 1163 Q753 1163 868 1066 L1007 1251 L1130 1163 Z M772 938 Q702 1022 582 1022 Q457 1022 387 941 Q344 893 318 788 Q292 683 292 562 Q292 443 314 346 Q549 645 772 938 Z M837 796 Q595 486 378 200 Q452 112 573 112 Q749 112 814 267 Q858 371 858 561 Q858 696 837 796 Z M801 1586 L621 1280 L462 1280 L592 1586 L801 1586 Z " />
<glyph glyph-name="uni0200" unicode="&#x200;" horiz-adv-x="1150" d="M1132 0 L941 0 L822 420 L321 420 L204 0 L19 0 L459 1467 L692 1467 L1132 0 Z M785 569 L629 1117 L571 1322 L514 1117 L358 569 L785 569 Z M162 1898 L358 1898 L487 1592 L340 1592 L162 1898 Z M492 1898 L687 1898 L817 1592 L670 1592 L492 1898 Z " />
<glyph glyph-name="uni0201" unicode="&#x201;" horiz-adv-x="1082" d="M911 0 L752 0 L752 136 Q624 -19 421 -19 Q274 -19 188 69 Q102 156 102 293 Q102 552 393 654 Q518 698 744 726 L744 807 Q744 907 686 964 Q625 1024 517 1024 Q430 1024 367.5 987 Q305 950 251 867 L108 955 Q163 1032 214 1071 Q333 1163 524 1163 Q626 1163 708 1135 Q790 1107 834 1057 Q911 971 911 818 L911 0 Z M744 286 L744 602 Q576 582 481 549 Q274 477 274 306 Q274 219 324 168 Q374 117 458 117 Q624 117 744 286 Z M146 1586 L341 1586 L471 1280 L324 1280 L146 1586 Z M476 1586 L671 1586 L801 1280 L654 1280 L476 1586 Z " />
<glyph glyph-name="uni0202" unicode="&#x202;" horiz-adv-x="1150" d="M856 1589 L718 1589 Q716 1645 677.5 1678.5 Q639 1712 576 1712 Q453 1712 436 1589 L298 1589 Q303 1686 352 1746 Q429 1840 577 1840 Q703 1840 776.5 1774 Q850 1708 856 1589 Z M1132 0 L941 0 L822 420 L321 420 L204 0 L19 0 L459 1467 L692 1467 L1132 0 Z M785 569 L629 1117 L571 1322 L514 1117 L358 569 L785 569 Z " />
<glyph glyph-name="uni0203" unicode="&#x203;" horiz-adv-x="1082" d="M814 1298 L675 1298 Q673 1355 635 1388 Q597 1421 534 1421 Q412 1421 394 1298 L256 1298 Q261 1396 310 1455 Q387 1549 535 1549 Q661 1549 734.5 1483 Q808 1417 814 1298 Z M911 0 L752 0 L752 136 Q624 -19 421 -19 Q274 -19 188 69 Q102 156 102 293 Q102 552 393 654 Q518 698 744 726 L744 807 Q744 907 686 964 Q625 1024 517 1024 Q430 1024 367.5 987 Q305 950 251 867 L108 955 Q163 1032 214 1071 Q333 1163 524 1163 Q626 1163 708 1135 Q790 1107 834 1057 Q911 971 911 818 L911 0 Z M744 286 L744 602 Q576 582 481 549 Q274 477 274 306 Q274 219 324 168 Q374 117 458 117 Q624 117 744 286 Z " />
<glyph glyph-name="uni0204" unicode="&#x204;" horiz-adv-x="1146" d="M1080 0 L182 0 L182 1467 L1028 1467 L1028 1318 L360 1318 L360 829 L902 829 L902 680 L360 680 L360 149 L1080 149 L1080 0 Z M193 1898 L389 1898 L519 1592 L372 1592 L193 1898 Z M523 1898 L718 1898 L848 1592 L701 1592 L523 1898 Z " />
<glyph glyph-name="uni0205" unicode="&#x205;" horiz-adv-x="1112" d="M194 1584 L389 1584 L519 1278 L372 1278 L194 1584 Z M523 1584 L719 1584 L849 1278 L702 1278 L523 1584 Z M1004 258 Q953 148 898 92 Q776 -29 567 -29 Q361 -29 246 102 Q180 177 145 321 Q117 438 117 566 Q117 862 249 1017 Q374 1163 582 1163 Q796 1163 904 1002 Q996 864 996 640 L996 543 L294 543 Q298 424 311 360.5 Q324 297 358 234 Q423 112 573 112 Q672 112 737.5 163 Q803 214 853 330 L1004 258 Z M822 682 Q818 821 774 901 Q708 1022 572 1022 Q448 1022 380.5 940 Q313 858 294 682 L822 682 Z " />
<glyph glyph-name="uni0206" unicode="&#x206;" horiz-adv-x="1146" d="M1081 0 L183 0 L183 1467 L1029 1467 L1029 1318 L361 1318 L361 829 L902 829 L902 680 L361 680 L361 149 L1081 149 L1081 0 Z M899 1597 L761 1597 Q759 1654 721 1687 Q683 1720 620 1720 Q497 1720 480 1597 L341 1597 Q347 1695 396 1754 Q473 1848 621 1848 Q782 1848 857 1739 Q895 1684 899 1597 Z " />
<glyph glyph-name="uni0207" unicode="&#x207;" horiz-adv-x="1112" d="M899 1283 L761 1283 Q758 1340 720 1373 Q682 1406 619 1406 Q496 1406 479 1283 L341 1283 Q346 1380 395 1440 Q472 1534 620 1534 Q746 1534 819.5 1468 Q893 1402 899 1283 Z M1004 258 Q953 148 898 92 Q776 -29 567 -29 Q361 -29 246 102 Q180 177 145 321 Q117 438 117 566 Q117 862 249 1017 Q374 1163 582 1163 Q796 1163 904 1002 Q996 864 996 640 L996 543 L294 543 Q298 424 311 360.5 Q324 297 358 234 Q423 112 573 112 Q672 112 737.5 163 Q803 214 853 330 L1004 258 Z M822 682 Q818 821 774 901 Q708 1022 572 1022 Q448 1022 380.5 940 Q313 858 294 682 L822 682 Z " />
<glyph glyph-name="uni0208" unicode="&#x208;" horiz-adv-x="543" d="M360 0 L182 0 L182 1467 L360 1467 L360 0 Z M-109 1894 L86 1894 L216 1588 L69 1588 L-109 1894 Z M221 1894 L416 1894 L546 1588 L399 1588 L221 1894 Z " />
<glyph glyph-name="uni0209" unicode="&#x209;" horiz-adv-x="554" d="M-109 1572 L86 1572 L216 1266 L69 1266 L-109 1572 Z M221 1572 L416 1572 L546 1266 L399 1266 L221 1572 Z M363 0 L193 0 L193 1135 L363 1135 L363 0 Z " />
<glyph glyph-name="uni020A" unicode="&#x20a;" horiz-adv-x="543" d="M577 1601 L439 1601 Q437 1657 398.5 1690.5 Q360 1724 298 1724 Q174 1724 158 1601 L19 1601 Q25 1698 74 1758 Q151 1852 298 1852 Q460 1852 535 1743 Q573 1688 577 1601 Z M361 0 L183 0 L183 1467 L361 1467 L361 0 Z " />
<glyph glyph-name="uni020B" unicode="&#x20b;" horiz-adv-x="554" d="M577 1275 L439 1275 Q437 1331 399 1364.5 Q361 1398 298 1398 Q174 1398 158 1275 L19 1275 Q25 1373 74 1432 Q151 1526 298 1526 Q425 1526 498.5 1460 Q572 1394 577 1275 Z M363 0 L193 0 L193 1135 L363 1135 L363 0 Z " />
<glyph glyph-name="uni020C" unicode="&#x20c;" horiz-adv-x="1394" d="M699 1498 Q970 1498 1121 1296 Q1273 1093 1273 735 Q1273 438 1169 249 Q1014 -31 698 -31 Q429 -31 276 174 Q121 381 121 734 Q121 1092 275 1294 Q431 1498 699 1498 Z M695 1353 Q511 1353 414 1194 Q316 1034 316 736 Q316 438 415 276 Q514 115 697 115 Q881 115 979 274 Q1078 435 1078 731 Q1078 981 1008 1133 Q907 1353 695 1353 Z M283 1902 L478 1902 L608 1596 L461 1596 L283 1902 Z M612 1902 L808 1902 L938 1596 L791 1596 L612 1902 Z " />
<glyph glyph-name="uni020D" unicode="&#x20d;" horiz-adv-x="1150" d="M186 1572 L381 1572 L511 1266 L364 1266 L186 1572 Z M516 1572 L711 1572 L841 1266 L694 1266 L516 1572 Z M590 1163 Q795 1163 910 1034 Q977 958 1011 814 Q1039 698 1039 569 Q1039 -29 572 -29 Q358 -29 247 98 Q182 173 147 315 Q120 428 120 557 Q120 827 217 977 Q336 1163 590 1163 Z M576 1022 Q457 1022 386 942 Q344 894 317.5 788.5 Q291 683 291 559 Q291 364 333 264 Q396 112 571 112 Q748 112 814 264 Q859 368 859 561 Q859 741 830 835 Q771 1022 576 1022 Z " />
<glyph glyph-name="uni020E" unicode="&#x20e;" horiz-adv-x="1394" d="M699 1498 Q970 1498 1121 1296 Q1273 1093 1273 735 Q1273 438 1169 249 Q1014 -31 698 -31 Q429 -31 276 174 Q121 381 121 734 Q121 1092 275 1294 Q431 1498 699 1498 Z M695 1353 Q511 1353 414 1194 Q316 1034 316 736 Q316 438 415 276 Q514 115 697 115 Q881 115 979 274 Q1078 435 1078 731 Q1078 981 1008 1133 Q907 1353 695 1353 Z M976 1601 L838 1601 Q836 1657 797.5 1690.5 Q759 1724 696 1724 Q573 1724 556 1601 L418 1601 Q423 1698 473 1758 Q550 1852 697 1852 Q858 1852 934 1743 Q972 1688 976 1601 Z " />
<glyph glyph-name="uni020F" unicode="&#x20f;" horiz-adv-x="1150" d="M845 1298 L706 1298 Q704 1355 666 1388 Q628 1421 565 1421 Q442 1421 425 1298 L286 1298 Q292 1396 341 1455 Q418 1549 566 1549 Q692 1549 765.5 1483 Q839 1417 845 1298 Z M586 1163 Q791 1163 906 1034 Q973 958 1007 814 Q1035 698 1035 569 Q1035 -29 568 -29 Q354 -29 243 98 Q178 173 143 315 Q116 428 116 557 Q116 827 213 977 Q332 1163 586 1163 Z M576 1022 Q457 1022 386 942 Q344 894 317.5 788.5 Q291 683 291 559 Q291 364 333 264 Q397 112 571 112 Q748 112 814 264 Q859 368 859 561 Q859 741 830 835 Q771 1022 576 1022 Z " />
<glyph glyph-name="uni0210" unicode="&#x210;" horiz-adv-x="1240" d="M1161 0 L955 0 L665 653 L361 653 L361 0 L183 0 L183 1467 L627 1467 Q866 1467 987 1392 Q1135 1300 1135 1073 Q1135 916 1058.5 816 Q982 716 838 682 L1161 0 Z M361 1318 L361 803 L600 803 Q775 803 854 859 Q938 918 938 1063 Q938 1205 863.5 1261.5 Q789 1318 600 1318 L361 1318 Z M151 1890 L346 1890 L476 1584 L329 1584 L151 1890 Z M481 1890 L676 1890 L806 1584 L659 1584 L481 1890 Z " />
<glyph glyph-name="uni0211" unicode="&#x211;" horiz-adv-x="763" d="M35 1576 L230 1576 L360 1270 L213 1270 L35 1576 Z M365 1576 L560 1576 L690 1270 L543 1270 L365 1576 Z M741 980 Q690 979 644 972 Q486 946 351 684 L351 0 L181 0 L181 1135 L346 1135 L346 900 Q415 1010 459 1056 Q503 1102 560 1126 Q646 1161 741 1161 L741 980 Z " />
<glyph glyph-name="uni0212" unicode="&#x212;" horiz-adv-x="1240" d="M1161 0 L955 0 L665 653 L361 653 L361 0 L183 0 L183 1467 L627 1467 Q866 1467 987 1392 Q1135 1299 1135 1073 Q1135 916 1058.5 816 Q982 716 838 682 L1161 0 Z M361 1318 L361 803 L600 803 Q775 803 854 859 Q938 918 938 1063 Q938 1205 863.5 1261.5 Q789 1318 600 1318 L361 1318 Z M857 1601 L718 1601 Q717 1657 678.5 1690.5 Q640 1724 577 1724 Q454 1724 437 1601 L299 1601 Q304 1698 353 1758 Q430 1852 578 1852 Q739 1852 814 1743 Q853 1688 857 1601 Z " />
<glyph glyph-name="uni0213" unicode="&#x213;" horiz-adv-x="763" d="M747 1302 L609 1302 Q606 1359 568.5 1392.5 Q531 1426 468 1426 Q345 1426 328 1302 L189 1302 Q195 1400 244 1460 Q321 1554 469 1554 Q595 1554 668.5 1487.5 Q742 1421 747 1302 Z M740 980 Q689 979 644 972 Q486 946 350 684 L350 0 L180 0 L180 1135 L345 1135 L345 900 Q418 1014 460 1058 Q502 1102 559 1126 Q645 1161 740 1161 L740 980 Z " />
<glyph glyph-name="uni0214" unicode="&#x214;" horiz-adv-x="1361" d="M183 1467 L361 1467 L361 523 Q361 324 415 234 Q485 117 681 117 Q878 117 947 234 Q1001 324 1001 529 L1001 1467 L1179 1467 L1179 497 Q1179 276 1100 153 Q982 -29 675 -29 Q413 -29 293 109 Q183 236 183 497 L183 1467 Z M268 1894 L463 1894 L593 1588 L446 1588 L268 1894 Z M598 1894 L793 1894 L923 1588 L776 1588 L598 1894 Z " />
<glyph glyph-name="uni0215" unicode="&#x215;" horiz-adv-x="1161" d="M174 1576 L370 1576 L500 1270 L353 1270 L174 1576 Z M504 1576 L700 1576 L830 1270 L682 1270 L504 1576 Z M978 0 L818 0 L816 134 Q727 66 666 35 Q561 -20 458 -20 Q300 -20 229 80 Q172 161 172 348 L172 1135 L341 1135 L341 323 Q341 221 372 175 Q410 119 501 119 Q624 119 810 258 L810 1135 L978 1135 L978 0 Z " />
<glyph glyph-name="uni0216" unicode="&#x216;" horiz-adv-x="1361" d="M958 1601 L819 1601 Q817 1658 779 1691 Q741 1724 678 1724 Q555 1724 538 1601 L399 1601 Q405 1698 454 1758 Q531 1852 679 1852 Q840 1852 915 1743 Q954 1687 958 1601 Z M183 1467 L361 1467 L361 523 Q361 324 415 234 Q485 117 681 117 Q878 117 947 234 Q1001 324 1001 529 L1001 1467 L1179 1467 L1179 497 Q1179 276 1100 153 Q982 -29 675 -29 Q413 -29 293 109 Q183 236 183 497 L183 1467 Z " />
<glyph glyph-name="uni0217" unicode="&#x217;" horiz-adv-x="1161" d="M853 1306 L714 1306 Q712 1363 674 1396.5 Q636 1430 573 1430 Q450 1430 433 1306 L294 1306 Q300 1404 349 1464 Q426 1558 574 1558 Q700 1558 773.5 1491.5 Q847 1425 853 1306 Z M978 0 L818 0 L816 134 Q727 66 666 35 Q561 -20 458 -20 Q300 -20 229 80 Q172 161 172 348 L172 1135 L341 1135 L341 323 Q341 221 372 175 Q410 119 501 119 Q624 119 810 258 L810 1135 L978 1135 L978 0 Z " />
<glyph glyph-name="Scommaaccent" unicode="&#x218;" horiz-adv-x="1198" d="M66 376 L240 431 Q268 306 318 239 Q411 117 598 117 Q720 117 804 173 Q904 239 904 357 Q904 488 778 570 Q734 598 587 660 Q374 749 297 803 Q118 928 118 1133 Q118 1322 257 1418 Q375 1498 561 1498 Q953 1498 1049 1131 L873 1085 Q842 1190 797 1245 Q713 1348 554 1348 Q411 1348 351 1280 Q305 1227 305 1149 Q305 1018 441 937 Q517 892 752 792 Q868 742 916.5 712.5 Q965 683 1006 635 Q1089 538 1089 379 Q1089 248 1037 157 Q990 75 914 36 Q780 -33 596 -33 Q370 -33 245.5 62.5 Q121 158 66 376 Z M655 -341 L556 -550 L502 -550 L556 -346 L500 -346 L500 -141 L655 -141 L655 -341 Z " />
<glyph glyph-name="scommaaccent" unicode="&#x219;" horiz-adv-x="955" d="M55 222 L200 294 Q233 222 269 185 Q345 107 487 107 Q616 107 672 169 Q710 212 710 268 Q710 319 688 351 Q645 414 554 458 L409 530 Q257 605 243 616 Q108 718 108 870 Q108 1006 208 1084 Q309 1163 476 1163 Q685 1163 793 1047 Q823 1015 858 952 L713 881 Q686 936 658 964 Q594 1027 472 1027 Q380 1027 327.5 989.5 Q275 952 275 887 Q275 838 296 808 Q353 728 579 631 Q684 585 730.5 557 Q777 529 808 493 Q882 407 882 286 Q882 193 842 123 Q805 59 745 29 Q633 -29 490 -29 Q371 -29 276 7 Q181 43 125 108 Q91 148 55 222 Z M546 -341 L447 -550 L393 -550 L447 -346 L391 -346 L391 -141 L546 -141 L546 -341 Z " />
<glyph glyph-name="uni021A" unicode="&#x21a;" horiz-adv-x="1003" d="M1007 1318 L589 1318 L589 0 L411 0 L411 1318 L-4 1318 L-4 1467 L1007 1467 L1007 1318 Z M579 -341 L480 -550 L426 -550 L480 -346 L424 -346 L424 -141 L579 -141 L579 -341 Z " />
<glyph glyph-name="uni021B" unicode="&#x21b;" horiz-adv-x="686" d="M682 11 Q564 -17 482 -17 Q349 -17 287 44 Q225 104 225 244 L225 988 L40 988 L40 1135 L225 1135 L225 1436 L397 1486 L397 1135 L673 1135 L673 988 L397 988 L397 244 Q397 177 423.5 150.5 Q450 124 517 124 Q583 124 661 149 L682 11 Z M461 -341 L362 -550 L308 -550 L362 -346 L306 -346 L306 -141 L461 -141 L461 -341 Z " />
<glyph glyph-name="uni0226" unicode="&#x226;" horiz-adv-x="1150" d="M1132 0 L941 0 L822 420 L321 420 L204 0 L19 0 L459 1467 L692 1467 L1132 0 Z M785 569 L629 1117 L571 1322 L514 1117 L358 569 L785 569 Z M672 1594 L479 1594 L479 1818 L672 1818 L672 1594 Z " />
<glyph glyph-name="uni0227" unicode="&#x227;" horiz-adv-x="1082" d="M911 0 L752 0 L752 136 Q624 -19 421 -19 Q274 -19 188 69 Q102 156 102 293 Q102 552 393 654 Q518 698 744 726 L744 807 Q744 907 686 964 Q625 1024 517 1024 Q430 1024 367.5 987 Q305 950 251 867 L108 955 Q163 1032 214 1071 Q333 1163 524 1163 Q626 1163 708 1135 Q790 1107 834 1057 Q911 971 911 818 L911 0 Z M744 286 L744 602 Q576 582 481 549 Q274 477 274 306 Q274 219 324 168 Q374 117 458 117 Q624 117 744 286 Z M602 1293 L409 1293 L409 1517 L602 1517 L602 1293 Z " />
<glyph glyph-name="uni0237" unicode="&#x237;" horiz-adv-x="554" d="M-69 -374 L-52 -239 Q11 -260 64 -260 Q136 -260 163.5 -217.5 Q191 -175 191 -66 L191 1135 L362 1135 L362 -40 Q362 -185 326 -264 Q265 -396 85 -396 Q4 -396 -69 -374 Z " />
<glyph glyph-name="uni02C9" unicode="&#x2c9;" horiz-adv-x="1100" d="M851 1361 L248 1361 L248 1521 L851 1521 L851 1361 Z " />
<glyph glyph-name="uni0312" unicode="&#x312;" horiz-adv-x="1024" d="M642 1821 L566 1527 L634 1527 L634 1271 L443 1271 L443 1522 L577 1821 L642 1821 Z " />
<glyph glyph-name="uni0313" unicode="&#x313;" horiz-adv-x="1024" d="M818 1216 L681 917 L616 917 L695 1210 L625 1210 L625 1467 L818 1467 L818 1216 Z " />
<glyph glyph-name="uni031B" unicode="&#x31b;" horiz-adv-x="1024" d="M818 1216 L681 917 L616 917 L695 1210 L625 1210 L625 1467 L818 1467 L818 1216 Z " />
<glyph glyph-name="commaaccent" unicode="&#x326;" horiz-adv-x="1198" d="M682 -341 L583 -550 L529 -550 L583 -346 L527 -346 L527 -141 L682 -141 L682 -341 Z " />
<glyph glyph-name="uni037E" unicode="&#x37e;" horiz-adv-x="464" d="M376 827 L183 827 L183 1082 L376 1082 L376 827 Z M376 4 L239 -294 L174 -294 L253 0 L183 0 L183 255 L376 255 L376 4 Z " />
<glyph glyph-name="uni0387" unicode="&#x387;" horiz-adv-x="464" d="M327 486 L136 486 L136 743 L327 743 L327 486 Z " />
<glyph glyph-name="uni0394" unicode="&#x394;" horiz-adv-x="1341" d="M1341 0 L0 0 L589 1467 L749 1467 L1341 0 Z M1121 141 L669 1285 L218 141 L1121 141 Z " />
<glyph glyph-name="uni03A9" unicode="&#x3a9;" horiz-adv-x="1508" d="M1458 0 L864 0 L864 128 Q1033 226 1118 319 Q1293 513 1293 793 Q1293 1035 1157 1195 Q1011 1366 767 1366 Q522 1366 366 1198 Q216 1035 216 788 Q216 473 439 269 Q509 205 644 128 L644 0 L50 0 L50 141 L455 141 Q306 227 231 313 Q63 505 63 791 Q63 1090 268 1293 Q473 1496 769 1496 Q1065 1496 1257 1294 Q1445 1096 1445 797 Q1445 468 1236 269 Q1174 211 1053 141 L1458 141 L1458 0 Z " />
<glyph glyph-name="uni03BC" unicode="&#x3bc;" horiz-adv-x="1163" d="M978 0 L827 0 L827 119 Q739 -17 584 -17 Q430 -17 334 119 L334 -389 L176 -389 L176 1135 L334 1135 L334 325 Q375 237 441.5 186 Q508 135 585 135 Q678 135 746 205 Q777 237 802 274 Q827 311 827 325 L827 1135 L978 1135 L978 0 Z " />
<glyph glyph-name="uni04D4" unicode="&#x4d4;" horiz-adv-x="1717" d="M1652 0 L821 0 L821 411 L397 411 L185 0 L-21 0 L754 1467 L1601 1467 L1601 1318 L999 1318 L999 827 L1478 827 L1478 678 L999 678 L999 149 L1652 149 L1652 0 Z M829 1270 L466 565 L821 565 L821 657 Q821 717 828 1161 L829 1270 Z " />
<glyph glyph-name="uni04D5" unicode="&#x4d5;" horiz-adv-x="1720" d="M1608 258 Q1581 190 1539 139 Q1403 -29 1178 -29 Q981 -29 874 82 Q845 112 812 169 Q745 92 688 54 Q567 -27 421 -27 Q274 -27 187 61 Q101 150 101 290 Q101 544 384 644 Q502 686 735 722 Q738 765 741 798 Q744 819 744 834 Q744 918 681.5 971 Q619 1024 519 1024 Q424 1024 359.5 986.5 Q295 949 251 867 L117 950 Q170 1029 221 1069 Q342 1163 525 1163 Q710 1163 801 1075 Q825 1051 852 1007 Q894 1063 933 1091 Q1032 1163 1180 1163 Q1404 1163 1511 997 Q1599 860 1599 644 L1599 543 L898 543 Q901 346 948 249 Q1014 112 1177 112 Q1280 112 1345 162.5 Q1410 213 1456 330 L1608 258 Z M1425 682 Q1413 1022 1173 1022 Q1049 1022 983 940 Q917 858 898 682 L1425 682 Z M752 290 Q726 390 726 538 Q726 577 728 598 Q552 570 466 537 Q273 464 273 299 Q273 214 322 160.5 Q371 107 449 107 Q589 107 752 290 Z " />
<glyph glyph-name="uni1E02" unicode="&#x1e02;" horiz-adv-x="1242" d="M183 0 L183 1467 L667 1467 Q783 1467 877 1436.5 Q971 1406 1019 1352 Q1100 1262 1100 1098 Q1100 907 984 825 Q933 789 838 772 Q953 756 1026 689 Q1137 585 1137 403 Q1137 249 1057 149 Q940 0 690 0 L183 0 Z M361 1318 L361 835 L605 835 Q920 835 920 1087 Q920 1318 647 1318 L361 1318 Z M361 686 L361 149 L636 149 Q942 149 942 418 Q942 556 861 623 Q819 659 762 672.5 Q705 686 600 686 L361 686 Z M675 1588 L482 1588 L482 1812 L675 1812 L675 1588 Z " />
<glyph glyph-name="uni1E03" unicode="&#x1e03;" horiz-adv-x="1177" d="M350 132 L346 0 L180 0 L180 1519 L350 1519 L350 1022 Q413 1083 499.5 1117.5 Q586 1152 673 1152 Q861 1152 960 1000 Q1060 846 1060 566 Q1060 325 986 184 Q879 -20 666 -20 Q579 -20 507.5 14.5 Q436 49 350 132 Z M350 890 L350 275 Q411 208 456 176 Q534 121 615 121 Q720 121 789 199 Q830 245 855 343 Q880 441 880 554 Q880 1014 620 1014 Q494 1014 350 890 Z M725 1305 L532 1305 L532 1529 L725 1529 L725 1305 Z " />
<glyph glyph-name="uni1E0C" unicode="&#x1e0c;" horiz-adv-x="1341" d="M679 -312 L486 -312 L486 -88 L679 -88 L679 -312 Z M183 0 L183 1467 L552 1467 Q903 1467 1065 1290 Q1221 1120 1221 766 Q1221 596 1194 459 Q1162 293 1097 203 Q1028 109 931 69 Q763 0 543 0 L183 0 Z M361 1318 L361 149 L479 149 Q793 149 910 274 Q1027 400 1027 740 Q1027 1005 943 1140 Q832 1318 558 1318 L361 1318 Z " />
<glyph glyph-name="uni1E0D" unicode="&#x1e0d;" horiz-adv-x="1177" d="M679 -312 L486 -312 L486 -88 L679 -88 L679 -312 Z M996 0 L832 0 L828 132 Q743 50 670 15 Q597 -20 509 -20 Q325 -20 221 131 Q116 283 116 562 Q116 843 223 998 Q329 1152 521 1152 Q687 1152 826 1022 L826 1519 L996 1519 L996 0 Z M826 275 L826 890 Q680 1016 559 1016 Q454 1016 387 940 Q347 894 321 787 Q295 680 295 561 Q295 432 324.5 328.5 Q354 225 403 181 Q470 121 560 121 Q631 121 691.5 156 Q752 191 826 275 Z " />
<glyph glyph-name="uni1E1E" unicode="&#x1e1e;" horiz-adv-x="1036" d="M1045 1318 L361 1318 L361 833 L937 833 L937 684 L361 684 L361 0 L183 0 L183 1467 L1045 1467 L1045 1318 Z M711 1582 L518 1582 L518 1806 L711 1806 L711 1582 Z " />
<glyph glyph-name="uni1E1F" unicode="&#x1e1f;" horiz-adv-x="617" d="M642 1582 L627 1445 Q564 1461 509 1461 Q431 1461 401.5 1423.5 Q372 1386 372 1286 L372 1135 L602 1135 L602 988 L372 988 L372 0 L202 0 L202 988 L19 988 L19 1135 L202 1135 L202 1297 Q202 1597 484 1597 Q532 1597 642 1582 Z M427 1625 L234 1625 L234 1849 L427 1849 L427 1625 Z " />
<glyph glyph-name="uni1E24" unicode="&#x1e24;" horiz-adv-x="1383" d="M1201 0 L1023 0 L1023 697 L361 697 L361 0 L183 0 L183 1467 L361 1467 L361 846 L1023 846 L1023 1467 L1201 1467 L1201 0 Z M799 -328 L606 -328 L606 -104 L799 -104 L799 -328 Z " />
<glyph glyph-name="uni1E25" unicode="&#x1e25;" horiz-adv-x="1158" d="M682 -328 L489 -328 L489 -104 L682 -104 L682 -328 Z M987 0 L817 0 L817 800 Q817 907 786 956 Q747 1016 651 1016 Q519 1016 350 875 L350 0 L180 0 L180 1519 L350 1519 L350 1005 Q431 1070 489 1101 Q590 1155 693 1155 Q774 1155 836.5 1126.5 Q899 1098 932 1046 Q987 959 987 766 L987 0 Z " />
<glyph glyph-name="uni1E44" unicode="&#x1e44;" horiz-adv-x="1381" d="M1199 0 L975 0 L445 1043 Q434 1064 417 1096 Q363 1197 348 1261 Q359 1189 359 1113 L359 0 L183 0 L183 1467 L416 1467 L953 401 Q981 345 1037 204 Q1025 300 1025 382 L1025 1467 L1199 1467 L1199 0 Z M830 1588 L637 1588 L637 1812 L830 1812 L830 1588 Z " />
<glyph glyph-name="uni1E45" unicode="&#x1e45;" horiz-adv-x="1158" d="M987 0 L817 0 L817 812 Q817 1015 654 1015 Q531 1015 350 875 L350 0 L180 0 L180 1135 L340 1135 L343 1001 Q431 1067 491 1098 Q595 1152 698 1152 Q858 1152 928 1053 Q987 969 987 785 L987 0 Z M678 1332 L485 1332 L485 1556 L678 1556 L678 1332 Z " />
<glyph glyph-name="uni1E5A" unicode="&#x1e5a;" horiz-adv-x="1240" d="M760 -328 L567 -328 L567 -104 L760 -104 L760 -328 Z M1161 0 L955 0 L665 653 L361 653 L361 0 L183 0 L183 1467 L627 1467 Q866 1467 987 1392 Q1135 1299 1135 1073 Q1135 916 1058.5 816 Q982 716 838 682 L1161 0 Z M361 1318 L361 803 L600 803 Q775 803 854 859 Q938 918 938 1063 Q938 1205 863.5 1261.5 Q789 1318 600 1318 L361 1318 Z " />
<glyph glyph-name="uni1E5B" unicode="&#x1e5b;" horiz-adv-x="763" d="M364 -328 L171 -328 L171 -104 L364 -104 L364 -328 Z M740 980 Q689 979 644 972 Q485 946 350 684 L350 0 L180 0 L180 1135 L345 1135 L345 900 Q416 1012 459 1057 Q502 1102 559 1126 Q646 1162 740 1161 L740 980 Z " />
<glyph glyph-name="uni1E62" unicode="&#x1e62;" horiz-adv-x="1198" d="M683 -328 L490 -328 L490 -104 L683 -104 L683 -328 Z M66 376 L240 431 Q268 306 318 239 Q411 117 598 117 Q720 117 804 173 Q904 239 904 357 Q904 488 778 570 Q734 598 587 660 Q374 749 297 803 Q118 928 118 1133 Q118 1322 257 1418 Q375 1498 561 1498 Q953 1498 1049 1131 L873 1085 Q842 1190 797 1245 Q713 1348 554 1348 Q411 1348 351 1280 Q305 1227 305 1149 Q305 1018 441 937 Q517 892 752 792 Q868 742 916.5 712.5 Q965 683 1006 635 Q1089 538 1089 379 Q1089 248 1037 157 Q990 75 914 36 Q780 -33 596 -33 Q370 -33 245.5 62.5 Q121 158 66 376 Z " />
<glyph glyph-name="uni1E63" unicode="&#x1e63;" horiz-adv-x="955" d="M566 -328 L373 -328 L373 -104 L566 -104 L566 -328 Z M55 222 L200 294 Q233 222 269 185 Q345 107 487 107 Q616 107 672 169 Q710 212 710 268 Q710 319 688 351 Q645 414 554 458 L409 530 Q257 605 243 616 Q108 718 108 870 Q108 1006 208 1084 Q309 1163 476 1163 Q685 1163 793 1047 Q823 1015 858 952 L713 881 Q686 936 658 964 Q594 1027 472 1027 Q380 1027 327.5 989.5 Q275 952 275 887 Q275 838 296 808 Q353 728 579 631 Q684 585 730.5 557 Q777 529 808 493 Q882 407 882 286 Q882 193 842 123 Q805 59 745 29 Q633 -29 490 -29 Q371 -29 276 7 Q181 43 125 108 Q91 148 55 222 Z " />
<glyph glyph-name="uni1E6C" unicode="&#x1e6c;" horiz-adv-x="1003" d="M593 -328 L400 -328 L400 -104 L593 -104 L593 -328 Z M1007 1318 L589 1318 L589 0 L411 0 L411 1318 L-4 1318 L-4 1467 L1007 1467 L1007 1318 Z " />
<glyph glyph-name="uni1E6D" unicode="&#x1e6d;" horiz-adv-x="686" d="M465 -328 L272 -328 L272 -104 L465 -104 L465 -328 Z M682 11 Q564 -17 482 -17 Q349 -17 287 44 Q225 104 225 244 L225 988 L40 988 L40 1135 L225 1135 L225 1436 L397 1486 L397 1135 L673 1135 L673 988 L397 988 L397 244 Q397 177 423.5 150.5 Q450 124 517 124 Q583 124 661 149 L682 11 Z " />
<glyph glyph-name="Wgrave" unicode="&#x1e80;" horiz-adv-x="1641" d="M1609 1467 L1273 0 L1095 0 L858 990 Q829 1112 818 1261 Q804 1103 776 990 L537 0 L361 0 L31 1467 L211 1467 L420 491 Q434 422 455 237 Q472 377 499 491 L732 1467 L915 1467 L1146 491 Q1162 420 1192 237 Q1202 375 1227 491 L1438 1467 L1609 1467 Z M930 1599 L768 1599 L531 1869 L746 1869 L930 1599 Z " />
<glyph glyph-name="wgrave" unicode="&#x1e81;" horiz-adv-x="1447" d="M1416 1135 L1119 0 L954 0 L772 671 Q737 800 719 932 Q708 811 669 671 L482 0 L317 0 L29 1135 L204 1135 L365 436 Q392 318 403 209 Q417 338 444 436 L638 1135 L810 1135 L1001 436 Q1019 367 1045 209 Q1052 323 1078 436 L1240 1135 L1416 1135 Z M835 1280 L681 1280 L496 1586 L710 1586 L835 1280 Z " />
<glyph glyph-name="Wacute" unicode="&#x1e82;" horiz-adv-x="1641" d="M1609 1467 L1273 0 L1095 0 L858 990 Q829 1112 818 1261 Q804 1103 776 990 L537 0 L361 0 L31 1467 L211 1467 L420 491 Q434 422 455 237 Q472 377 499 491 L732 1467 L915 1467 L1146 491 Q1162 420 1192 237 Q1202 375 1227 491 L1438 1467 L1609 1467 Z M1114 1869 L877 1599 L715 1599 L900 1869 L1114 1869 Z " />
<glyph glyph-name="wacute" unicode="&#x1e83;" horiz-adv-x="1447" d="M1416 1135 L1119 0 L954 0 L772 671 Q737 800 719 932 Q708 811 669 671 L482 0 L317 0 L29 1135 L204 1135 L365 436 Q392 318 403 209 Q417 338 444 436 L638 1135 L810 1135 L1001 436 Q1019 367 1045 209 Q1052 323 1078 436 L1240 1135 L1416 1135 Z M949 1586 L769 1280 L610 1280 L740 1586 L949 1586 Z " />
<glyph glyph-name="Wdieresis" unicode="&#x1e84;" horiz-adv-x="1641" d="M1609 1467 L1273 0 L1095 0 L858 990 Q829 1112 818 1261 Q804 1103 776 990 L537 0 L361 0 L31 1467 L211 1467 L420 491 Q434 422 455 237 Q472 377 499 491 L732 1467 L915 1467 L1146 491 Q1162 420 1192 237 Q1202 375 1227 491 L1438 1467 L1609 1467 Z M1093 1590 L913 1590 L913 1814 L1093 1814 L1093 1590 Z M728 1590 L548 1590 L548 1814 L728 1814 L728 1590 Z " />
<glyph glyph-name="wdieresis" unicode="&#x1e85;" horiz-adv-x="1447" d="M1416 1135 L1119 0 L954 0 L772 671 Q737 800 719 932 Q708 811 669 671 L482 0 L317 0 L29 1135 L204 1135 L365 436 Q392 318 403 209 Q417 338 444 436 L638 1135 L810 1135 L1001 436 Q1019 367 1045 209 Q1052 323 1078 436 L1240 1135 L1416 1135 Z M995 1293 L815 1293 L815 1517 L995 1517 L995 1293 Z M630 1293 L450 1293 L450 1517 L630 1517 L630 1293 Z " />
<glyph glyph-name="uni1E92" unicode="&#x1e92;" horiz-adv-x="1102" d="M635 -328 L442 -328 L442 -104 L635 -104 L635 -328 Z M1034 0 L77 0 L77 126 L818 1315 L125 1315 L125 1464 L1018 1464 L1018 1334 L276 147 L1034 147 L1034 0 Z " />
<glyph glyph-name="uni1E93" unicode="&#x1e93;" horiz-adv-x="917" d="M566 -328 L373 -328 L373 -104 L566 -104 L566 -328 Z M846 0 L71 0 L71 117 L514 814 Q567 896 636 992 Q543 988 467 988 L128 988 L128 1135 L842 1135 L842 1011 L389 295 Q339 216 277 139 L299 139 Q389 141 416 141 L846 141 L846 0 Z " />
<glyph glyph-name="uni2011" unicode="&#x2011;" horiz-adv-x="592" d="M592 506 L0 506 L0 669 L592 669 L592 506 Z " />
<glyph glyph-name="figuredash" unicode="&#x2012;" horiz-adv-x="805" d="M805 506 L0 506 L0 669 L805 669 L805 506 Z " />
<glyph glyph-name="afii00208" unicode="&#x2015;" horiz-adv-x="1429" d="M1429 506 L0 506 L0 669 L1429 669 L1429 506 Z " />
<glyph glyph-name="uni203E" unicode="&#x203e;" horiz-adv-x="1100" d="M851 1361 L248 1361 L248 1521 L851 1521 L851 1361 Z " />
<glyph glyph-name="minus" unicode="&#x2212;" horiz-adv-x="1100" d="M1026 517 L75 517 L75 657 L1026 657 L1026 517 Z " />
<glyph glyph-name="fraction004" unicode="&#x2215;" horiz-adv-x="197" d="M548 1496 L-214 -29 L-350 -29 L411 1496 L548 1496 Z " />
<glyph glyph-name="middot" unicode="&#x2219;" horiz-adv-x="464" d="M327 486 L136 486 L136 743 L327 743 L327 486 Z " />
<glyph glyph-name="dotmath" unicode="&#x22c5;" horiz-adv-x="464" d="M327 486 L136 486 L136 743 L327 743 L327 486 Z " />
</font>
</svg>
