<?xml version="1.0" encoding="UTF-8"?>
<svg xmlns="http://www.w3.org/2000/svg" xmlns:xlink="http://www.w3.org/1999/xlink" version="1.2" >
<font id="NDRSansDCondRegular">
<font-face  font-family="NDRSansDCondRegular" units-per-em="2048" ascent="1536" descent="-512" font-style="normal" font-weight="400" font-stretch="normal" cap-height="1467" x-height="1135" underline-position="-311" underline-thickness="165" />
<missing-glyph  horiz-adv-x="427" d="M43 0 L43 1467 L384 1467 L384 0 L43 0 Z M341 43 L341 1424 L86 1424 L86 43 L341 43 Z " />
<glyph glyph-name="space" unicode="&#x20;" horiz-adv-x="427" d="" />
<glyph glyph-name="exclam" unicode="&#x21;" horiz-adv-x="510" d="M395 1467 L373 396 L224 396 L204 1467 L395 1467 Z M398 0 L202 0 L202 244 L398 244 L398 0 Z " />
<glyph glyph-name="quotedbl" unicode="&#x22;" horiz-adv-x="767" d="M607 1605 L601 1079 L458 1079 L451 1605 L607 1605 Z M317 1605 L311 1079 L168 1079 L161 1605 L317 1605 Z " />
<glyph glyph-name="numbersign" unicode="&#x23;" horiz-adv-x="1091" d="M1011 1022 L1003 888 L813 888 L774 585 L952 585 L948 451 L756 451 L701 0 L563 0 L618 451 L396 451 L341 0 L202 0 L257 451 L79 451 L83 585 L275 585 L314 888 L134 888 L138 1022 L332 1022 L387 1467 L525 1467 L470 1022 L692 1022 L747 1467 L886 1467 L831 1022 L1011 1022 Z M675 888 L453 888 L413 585 L635 585 L675 888 Z " />
<glyph glyph-name="dollar" unicode="&#x24;" horiz-adv-x="981" d="M539 847 Q700 701 761 621 Q869 477 869 325 Q869 163 778 74 Q735 32 682.5 11.5 Q630 -9 539 -20 L539 -218 L433 -218 L433 -22 Q98 -2 97 341 L97 460 L286 460 L286 394 L286 393 L286 391 L286 388 L286 385 Q286 259 319.5 200.5 Q353 142 433 125 L433 673 Q300 790 246 857 Q130 998 130 1153 Q130 1289 208 1377 Q248 1423 299.5 1448 Q351 1473 433 1486 L433 1682 L539 1682 L539 1491 Q848 1475 849 1124 L849 1056 L666 1056 L666 1091 L666 1092 L666 1093 L666 1095 L666 1096 Q666 1215 637.5 1270.5 Q609 1326 539 1344 L539 847 Z M433 946 L433 1339 Q317 1297 317 1171 Q317 1068 433 946 Z M539 125 Q678 159 678 314 Q678 441 539 579 L539 125 Z " />
<glyph glyph-name="percent" unicode="&#x25;" horiz-adv-x="1491" d="M932 207 L932 664 Q932 770 993.5 828 Q1055 886 1167 886 Q1398 886 1398 655 L1398 202 Q1398 96 1337.5 39 Q1277 -18 1163 -18 Q1054 -18 993 41 Q932 100 932 207 Z M1264 191 L1264 655 Q1264 772 1165 772 Q1068 772 1068 664 L1068 209 Q1068 96 1166 96 Q1210 96 1237 122 Q1264 148 1264 191 Z M1176 1482 L450 -15 L319 -15 L1046 1482 L1176 1482 Z M92 805 L92 1265 Q92 1371 152.5 1429 Q213 1487 325 1487 Q556 1487 556 1256 L556 801 Q556 694 496 637.5 Q436 581 323 581 Q214 581 153 640 Q92 699 92 805 Z M422 792 L422 1256 Q422 1371 321 1371 Q226 1371 226 1265 L226 807 Q226 697 322 697 Q368 697 395 723 Q422 749 422 792 Z " />
<glyph glyph-name="ampersand" unicode="&#x26;" horiz-adv-x="1106" d="M1033 0 L824 0 L741 134 Q600 -20 417 -20 Q253 -20 161.5 71.5 Q70 163 70 327 Q70 478 124.5 575.5 Q179 673 336 803 Q243 935 210.5 1012 Q178 1089 178 1177 Q178 1480 502 1480 Q675 1480 754 1393 Q818 1322 818 1204 Q818 1096 756 995.5 Q694 895 554 774 L767 418 Q831 537 864 686 L1011 647 Q962 433 853 275 Q911 189 978 86 L1012 33 L1033 0 Z M468 902 Q649 1073 649 1195 Q649 1339 500 1339 Q349 1339 349 1188 Q349 1076 468 902 Z M661 257 L417 664 Q331 582 297.5 515.5 Q264 449 264 359 Q264 132 448 132 Q558 132 661 257 Z " />
<glyph glyph-name="quotesingle" unicode="&#x27;" horiz-adv-x="477" d="M317 1605 L311 1077 L168 1077 L161 1605 L317 1605 Z " />
<glyph glyph-name="parenleft" unicode="&#x28;" horiz-adv-x="572" d="M482 -70 L321 -70 Q84 376 84 734 Q84 922 140.5 1111.5 Q197 1301 321 1535 L482 1535 Q271 1054 271 734 Q271 415 482 -70 Z " />
<glyph glyph-name="parenright" unicode="&#x29;" horiz-adv-x="572" d="M251 1535 Q490 1091 490 731 Q490 377 251 -70 L90 -70 Q303 408 303 730 Q303 1051 90 1535 L251 1535 Z " />
<glyph glyph-name="asterisk" unicode="&#x2a;" horiz-adv-x="814" d="M813 1317 L600 1247 L730 1066 L620 987 L488 1170 L356 989 L246 1069 L378 1251 L167 1322 L209 1451 L422 1381 L422 1603 L558 1603 L558 1379 L771 1447 L813 1317 Z " />
<glyph glyph-name="plus" unicode="&#x2b;" horiz-adv-x="1100" d="M1025 493 L638 493 L638 101 L462 101 L462 493 L75 493 L75 658 L462 658 L462 1051 L638 1051 L638 658 L1025 658 L1025 493 Z " />
<glyph glyph-name="comma" unicode="&#x2c;" horiz-adv-x="413" d="M304 9 L287 -26 L259 -82 Q201 -199 161 -284 L86 -284 L176 0 L108 0 L108 244 L304 244 L304 9 Z " />
<glyph glyph-name="hyphen" unicode="&#x2d;" horiz-adv-x="451" d="M451 519 L0 519 L0 697 L451 697 L451 519 Z " />
<glyph glyph-name="period" unicode="&#x2e;" horiz-adv-x="413" d="M303 0 L110 0 L110 244 L303 244 L303 0 Z " />
<glyph glyph-name="slash" unicode="&#x2f;" horiz-adv-x="631" d="M563 1535 L231 -70 L68 -70 L400 1535 L563 1535 Z " />
<glyph glyph-name="zero" unicode="0" horiz-adv-x="981" d="M119 354 L119 1100 Q119 1307 230 1408 Q324 1493 488 1493 Q673 1493 772 1383 Q862 1282 862 1111 L862 361 Q862 167 748 64 Q652 -24 489 -24 Q304 -24 207 84 Q119 181 119 354 Z M677 352 L677 1120 Q677 1230 618 1285 Q570 1328 492 1328 Q383 1328 336 1248 Q304 1193 304 1106 L304 330 Q304 244 355 192.5 Q406 141 491 141 Q579 141 628 196 Q677 250 677 352 Z " />
<glyph glyph-name="one" unicode="1" horiz-adv-x="981" d="M858 0 L167 0 L167 161 L416 161 L416 1274 L204 1177 L141 1326 L429 1467 L601 1467 L601 161 L858 161 L858 0 Z " />
<glyph glyph-name="two" unicode="2" horiz-adv-x="981" d="M851 0 L114 0 L114 110 Q114 232 180.5 361 Q247 490 414 691 Q515 813 580 913 Q654 1025 654 1132 Q654 1232 614 1279 Q574 1326 489 1326 Q394 1326 355.5 1272.5 Q317 1219 317 1088 L317 1018 L134 1018 L134 1135 Q134 1317 239 1410 Q332 1493 494 1493 Q667 1493 756 1394 Q833 1308 833 1157 L833 1115 Q833 1002 777 894 Q721 786 567 603 Q428 439 383 360 Q338 281 313 161 L851 161 L851 0 Z " />
<glyph glyph-name="three" unicode="3" horiz-adv-x="981" d="M637 783 Q853 747 855 497 L855 328 Q855 151 753 60 Q659 -24 482 -24 Q287 -24 196 78 Q112 173 112 365 L112 442 L294 442 L294 378 L294 376 L294 374 Q294 272 314 227 Q351 141 481 141 Q599 141 643 216 Q671 265 671 400 Q671 563 639 618 Q612 664 556.5 680 Q501 696 356 699 L356 849 Q491 849 552 876 Q650 920 650 1038 L650 1106 Q650 1201 631 1246 Q596 1328 480 1328 Q363 1328 328 1239 Q310 1193 308 1064 L123 1064 L123 1159 Q123 1316 223 1404 Q321 1491 486 1491 Q656 1491 751 1396 Q835 1312 835 1176 L835 1099 Q835 966 806 904 Q783 857 746 830.5 Q709 804 637 783 Z " />
<glyph glyph-name="four" unicode="4" horiz-adv-x="981" d="M904 405 L728 405 L728 0 L545 0 L545 405 L79 405 L79 559 L497 1467 L728 1467 L728 563 L904 563 L904 405 Z M563 1291 Q520 1168 453 1018 L246 561 L554 561 L554 1010 L554 1011 L554 1014 L554 1017 L554 1018 Q554 1165 563 1291 Z " />
<glyph glyph-name="five" unicode="5" horiz-adv-x="981" d="M330 910 Q426 1001 551 1001 Q719 1001 793 874 Q842 788 842 657 L842 368 Q842 147 740 55 Q652 -24 480 -24 Q125 -24 125 354 L125 449 L312 449 L312 341 Q312 232 351 185.5 Q390 139 481 139 Q582 139 619.5 190 Q657 241 657 376 L657 653 Q657 741 615 789.5 Q573 838 498 838 Q386 838 312 721 L160 721 L189 1467 L805 1467 L805 1307 L349 1307 L330 910 Z " />
<glyph glyph-name="six" unicode="6" horiz-adv-x="981" d="M308 809 Q436 897 559 897 Q701 897 781 809 Q851 731 851 605 L851 316 Q851 148 753 61 Q658 -24 484 -24 Q299 -24 206 79 Q123 171 123 334 L123 1139 Q123 1318 223 1408 Q317 1491 490 1491 Q675 1491 769 1387 Q851 1296 851 1134 L851 1053 L664 1053 L664 1117 Q664 1202 645 1245 Q609 1328 488 1328 Q308 1328 308 1139 L308 809 Z M308 659 L308 338 Q308 226 360 180 Q403 141 487 141 Q666 141 666 323 L666 547 Q666 734 503 734 Q400 734 308 659 Z " />
<glyph glyph-name="seven" unicode="7" horiz-adv-x="981" d="M860 1322 Q662 934 584 686 Q533 519 509 367 Q485 215 477 0 L288 0 Q304 351 402 675 Q488 950 677 1304 L123 1304 L123 1467 L860 1467 L860 1322 Z " />
<glyph glyph-name="eight" unicode="8" horiz-adv-x="981" d="M653 785 Q857 737 858 515 L858 317 Q858 153 757 63 Q660 -24 486 -24 Q296 -24 200 82 Q121 169 121 317 L121 515 Q121 719 312 785 Q141 853 141 1021 L141 1181 Q141 1323 236 1407 Q331 1491 489 1491 Q609 1491 700 1439 Q842 1359 842 1181 L842 1023 Q842 852 653 785 Z M655 1025 L655 1168 Q655 1246 610.5 1292.5 Q566 1339 490 1339 Q416 1339 371 1292 Q326 1245 326 1168 L326 1025 Q326 950 369 907 Q412 864 488 864 Q567 864 611 906 Q655 948 655 1025 Z M673 332 L673 508 Q673 602 625 653 Q577 704 489 704 Q404 704 356 652 Q308 600 308 508 L308 332 Q308 234 355.5 180 Q403 126 489 126 Q577 126 625 180 Q673 234 673 332 Z " />
<glyph glyph-name="nine" unicode="9" horiz-adv-x="981" d="M666 668 Q538 580 413 580 Q272 580 194 668 Q123 747 123 879 L123 1139 Q123 1312 227 1405 Q323 1491 488 1491 Q669 1491 765 1385 Q851 1290 851 1122 L851 332 Q851 142 755 55 Q667 -24 490 -24 Q299 -24 206 80 Q123 172 123 336 L123 413 L308 413 L308 362 Q308 270 328 224 Q364 141 487 141 Q581 141 623.5 185.5 Q666 230 666 330 L666 668 Z M666 818 L666 1117 Q666 1328 489 1328 Q402 1328 355 1277.5 Q308 1227 308 1135 L308 924 Q308 816 352 777 Q390 743 470 743 Q575 743 666 818 Z " />
<glyph glyph-name="colon" unicode="&#x3a;" horiz-adv-x="413" d="M347 844 L154 844 L154 1088 L347 1088 L347 844 Z M347 0 L154 0 L154 244 L347 244 L347 0 Z " />
<glyph glyph-name="semicolon" unicode="&#x3b;" horiz-adv-x="413" d="M345 844 L149 844 L149 1088 L345 1088 L345 844 Z M343 9 L326 -26 L298 -82 Q240 -199 200 -284 L125 -284 L215 0 L147 0 L147 244 L343 244 L343 9 Z " />
<glyph glyph-name="less" unicode="&#x3c;" horiz-adv-x="1100" d="M1018 81 L81 497 L81 651 L1018 1064 L1018 886 L264 574 L1018 259 L1018 81 Z " />
<glyph glyph-name="equal" unicode="&#x3d;" horiz-adv-x="1100" d="M1027 679 L75 679 L75 844 L1027 844 L1027 679 Z M1027 308 L75 308 L75 473 L1027 473 L1027 308 Z " />
<glyph glyph-name="greater" unicode="&#x3e;" horiz-adv-x="1100" d="M1018 497 L81 81 L81 259 L835 574 L81 886 L81 1064 L1018 651 L1018 497 Z " />
<glyph glyph-name="question" unicode="&#x3f;" horiz-adv-x="866" d="M136 1086 L136 1167 Q136 1491 471 1491 Q635 1491 712 1412 Q789 1333 789 1165 L789 1121 Q789 1032 758.5 957 Q728 882 650 777 Q571 671 543.5 600 Q516 529 516 431 L516 361 L329 361 L329 455 Q329 555 362 638.5 Q395 722 482 845 Q552 943 577 1000 Q602 1057 602 1119 L602 1148 Q602 1234 586 1272 Q558 1337 464 1337 Q383 1337 350.5 1293.5 Q318 1250 318 1143 L318 1086 L136 1086 Z M519 0 L323 0 L323 244 L519 244 L519 0 Z " />
<glyph glyph-name="at" unicode="&#x40;" horiz-adv-x="2214" d="M1576 -361 Q1337 -418 1105 -418 Q656 -418 424 -158 Q213 76 213 468 Q213 879 486 1150 Q627 1289 813 1360 Q982 1425 1172 1425 Q1433 1425 1634 1310 Q1806 1211 1901 1045 Q2003 866 2003 633 Q2003 388 1900 205 Q1778 -11 1536 -11 Q1414 -11 1345 29 Q1276 69 1255 152 Q1120 -13 942 -13 Q784 -13 697 86 Q611 183 611 359 Q611 484 651.5 605.5 Q692 727 764 818 Q912 1003 1132 1003 Q1262 1003 1341 917 L1352 992 L1508 992 L1416 436 L1413 422 L1411 409 Q1396 331 1396 289 Q1396 208 1416 175 Q1445 125 1539 125 Q1695 125 1777 272 Q1862 426 1862 632 Q1862 923 1683 1101 Q1493 1289 1174 1289 Q830 1289 596 1056 Q363 822 363 465 Q363 83 577 -112 Q762 -279 1099 -279 Q1308 -279 1550 -220 L1576 -361 Z M1313 794 Q1250 878 1145 878 Q1023 878 930 789 Q859 722 818.5 613.5 Q778 505 778 383 Q778 121 963 121 Q1106 121 1231 301 L1313 794 Z " />
<glyph glyph-name="A" unicode="A" horiz-adv-x="954" d="M908 0 L704 0 L624 400 L310 400 L246 0 L46 0 L321 1467 L609 1467 L908 0 Z M598 556 Q537 871 464 1335 L448 1241 Q370 746 332 556 L598 556 Z " />
<glyph glyph-name="B" unicode="B" horiz-adv-x="948" d="M655 789 Q740 767 782 733 Q904 637 904 414 Q904 0 486 0 L132 0 L132 1467 L459 1467 Q862 1467 862 1117 Q862 947 779 855 Q733 805 655 789 Z M323 853 L422 853 Q673 853 673 1099 Q673 1221 615 1265 Q557 1309 396 1309 L323 1309 L323 853 Z M323 158 L459 158 Q592 158 651.5 223 Q711 288 711 431 Q711 697 433 697 L323 697 L323 158 Z " />
<glyph glyph-name="C" unicode="C" horiz-adv-x="985" d="M897 508 L897 354 Q897 -22 508 -22 Q132 -22 132 370 L132 1093 Q132 1299 247 1403 Q343 1491 511 1491 Q703 1491 804 1381 Q884 1294 884 1150 L884 983 L695 983 L695 1075 Q695 1179 673 1231 Q634 1321 514 1321 Q325 1321 325 1115 L325 392 Q325 147 519 147 Q617 147 660 206.5 Q703 266 703 400 L703 508 L897 508 Z " />
<glyph glyph-name="D" unicode="D" horiz-adv-x="1016" d="M132 1467 L436 1467 Q675 1467 788 1342 Q897 1221 897 968 L897 530 Q897 326 849 216 Q795 90 676 39 Q587 0 449 0 L132 0 L132 1467 Z M321 158 L449 158 Q706 158 706 490 L706 1021 Q706 1309 444 1309 L321 1309 L321 158 Z " />
<glyph glyph-name="E" unicode="E" horiz-adv-x="818" d="M774 0 L132 0 L132 1467 L752 1467 L752 1309 L325 1309 L325 840 L701 840 L701 682 L325 682 L325 158 L774 158 L774 0 Z " />
<glyph glyph-name="F" unicode="F" horiz-adv-x="794" d="M750 1309 L325 1309 L325 840 L693 840 L693 682 L325 682 L325 0 L132 0 L132 1467 L750 1467 L750 1309 Z " />
<glyph glyph-name="G" unicode="G" horiz-adv-x="996" d="M897 0 L732 0 L723 95 Q598 -24 441 -24 Q256 -24 179 112 Q119 217 119 407 L119 1084 Q119 1489 520 1489 Q714 1489 810 1383 Q893 1291 893 1128 L893 1018 L706 1018 L706 1080 Q706 1186 686 1232 Q649 1317 517 1317 Q402 1317 356 1259.5 Q310 1202 310 1060 L310 409 Q310 284 334 228 Q374 137 491 137 Q609 137 710 240 L710 572 L499 572 L499 730 L897 730 L897 0 Z " />
<glyph glyph-name="H" unicode="H" horiz-adv-x="1036" d="M904 0 L713 0 L713 695 L323 695 L323 0 L132 0 L132 1467 L323 1467 L323 849 L713 849 L713 1467 L904 1467 L904 0 Z " />
<glyph glyph-name="I" unicode="I" horiz-adv-x="477" d="M334 0 L143 0 L143 1467 L334 1467 L334 0 Z " />
<glyph glyph-name="J" unicode="J" horiz-adv-x="633" d="M501 1467 L501 284 Q501 -20 196 -20 Q94 -20 11 18 L53 185 Q119 152 178 152 Q310 152 310 319 L310 1467 L501 1467 Z " />
<glyph glyph-name="K" unicode="K" horiz-adv-x="972" d="M998 0 L780 0 L468 721 L323 506 L323 0 L132 0 L132 1467 L323 1467 L323 790 L741 1467 L967 1467 L596 887 L998 0 Z " />
<glyph glyph-name="L" unicode="L" horiz-adv-x="759" d="M748 0 L132 0 L132 1467 L323 1467 L323 158 L748 158 L748 0 Z " />
<glyph glyph-name="M" unicode="M" horiz-adv-x="1385" d="M1253 0 L1068 0 L1068 1254 L774 22 L605 22 L317 1254 L317 0 L132 0 L132 1467 L458 1467 L649 625 Q671 525 697 356 Q723 530 745 625 L941 1467 L1253 1467 L1253 0 Z " />
<glyph glyph-name="N" unicode="N" horiz-adv-x="1066" d="M935 0 L671 0 Q440 695 317 1159 L317 1102 L321 655 L321 0 L132 0 L132 1467 L398 1467 Q615 785 748 310 L747 383 L746 498 Q744 756 744 915 L744 1467 L935 1467 L935 0 Z " />
<glyph glyph-name="O" unicode="O" horiz-adv-x="1012" d="M119 376 L119 1076 Q119 1295 237 1402 Q334 1491 506 1491 Q697 1491 796 1380 Q893 1271 893 1062 L893 372 Q893 175 776 68 Q675 -24 503 -24 Q314 -24 213 88 Q119 193 119 376 Z M702 374 L702 1058 Q702 1322 505 1322 Q411 1322 360.5 1264 Q310 1206 310 1098 L310 381 Q310 148 504 148 Q597 148 650 206 Q702 264 702 374 Z " />
<glyph glyph-name="P" unicode="P" horiz-adv-x="908" d="M132 1467 L477 1467 Q684 1467 791 1348 Q886 1243 886 1058 Q886 858 770 742 Q654 627 459 627 L323 627 L323 0 L132 0 L132 1467 Z M323 783 L435 783 Q693 783 693 1057 Q693 1309 446 1309 L323 1309 L323 783 Z " />
<glyph glyph-name="Q" unicode="Q" horiz-adv-x="1012" d="M966 -4 L884 -156 Q812 -126 765 -93.5 Q718 -61 654 4 Q568 -24 491 -24 Q312 -24 214 87 Q119 194 119 383 L119 1069 Q119 1293 240 1404 Q338 1493 509 1493 Q893 1493 893 1060 L893 370 Q893 287 871 228.5 Q849 170 792 99 Q864 35 966 -4 Z M702 376 L702 1038 Q702 1152 674 1217 Q629 1321 507 1321 Q310 1321 310 1080 L310 385 Q310 148 504 148 Q702 148 702 376 Z " />
<glyph glyph-name="R" unicode="R" horiz-adv-x="963" d="M952 0 L750 0 L481 664 L325 660 L325 0 L132 0 L132 1467 L466 1467 Q688 1467 798 1346 Q888 1247 888 1083 Q888 948 830 852 Q772 756 661 708 L952 0 Z M325 809 L404 809 Q695 809 695 1074 Q695 1196 632 1253 Q570 1309 422 1309 L325 1309 L325 809 Z " />
<glyph glyph-name="S" unicode="S" horiz-adv-x="972" d="M659 1056 L659 1104 Q659 1201 629 1252 Q589 1322 481 1322 Q390 1322 344 1272 Q307 1232 307 1168 Q307 1097 358 1026.5 Q409 956 542 842 Q759 657 819 533 Q868 434 868 327 Q868 161 762 66 Q661 -24 485 -24 Q281 -24 177 89 Q92 182 92 341 L92 460 L285 460 L285 370 Q285 148 487 148 Q576 148 626.5 194.5 Q677 241 677 323 Q677 406 621.5 486 Q566 566 427 685 Q298 793 220 891 Q123 1011 123 1169 Q123 1322 220 1408 Q313 1491 483 1491 Q672 1491 766 1387 Q850 1295 850 1124 L850 1056 L659 1056 Z " />
<glyph glyph-name="T" unicode="T" horiz-adv-x="851" d="M818 1309 L521 1309 L521 0 L330 0 L330 1309 L33 1309 L33 1467 L818 1467 L818 1309 Z " />
<glyph glyph-name="U" unicode="U" horiz-adv-x="1027" d="M895 1467 L895 365 Q895 -24 515 -24 Q132 -24 132 365 L132 1467 L323 1467 L323 385 Q323 293 345 241 Q386 145 514 145 Q612 145 658 203 Q704 261 704 385 L704 1467 L895 1467 Z " />
<glyph glyph-name="V" unicode="V" horiz-adv-x="957" d="M886 1467 L593 0 L349 0 L70 1467 L263 1467 Q359 944 472 187 Q501 422 541 640 L692 1467 L886 1467 Z " />
<glyph glyph-name="W" unicode="W" horiz-adv-x="1445" d="M1412 1467 L1187 0 L902 0 L754 937 Q744 1006 721 1249 Q711 1056 693 939 L543 0 L257 0 L33 1467 L229 1467 L354 587 Q372 459 391 314 L401 239 L407 191 Q435 491 451 589 L592 1467 L855 1467 L998 616 Q1025 459 1040 288 Q1045 236 1049 193 Q1067 354 1104 625 L1214 1467 L1412 1467 Z " />
<glyph glyph-name="X" unicode="X" horiz-adv-x="921" d="M877 0 L684 0 L517 482 Q480 588 462 655 Q453 607 433 548 L409 482 L235 0 L44 0 L354 796 L84 1467 L281 1467 L407 1111 Q448 993 466 919 Q476 965 528 1111 L651 1467 L844 1467 L578 796 L877 0 Z " />
<glyph glyph-name="Y" unicode="Y" horiz-adv-x="950" d="M911 1467 L573 600 L573 0 L379 0 L379 600 L40 1467 L233 1467 L372 1082 Q381 1057 386 1043 Q452 862 476 750 Q479 781 507 862 L513 880 L586 1091 L718 1467 L911 1467 Z " />
<glyph glyph-name="Z" unicode="Z" horiz-adv-x="893" d="M813 0 L72 0 L72 138 L604 1309 L112 1309 L112 1467 L813 1467 L813 1333 L275 158 L813 158 L813 0 Z " />
<glyph glyph-name="bracketleft" unicode="&#x5b;" horiz-adv-x="607" d="M521 -70 L134 -70 L134 1535 L521 1535 L521 1377 L319 1377 L319 88 L521 88 L521 -70 Z " />
<glyph glyph-name="backslash" unicode="&#x5c;" horiz-adv-x="631" d="M563 -70 L398 -70 L68 1535 L231 1535 L563 -70 Z " />
<glyph glyph-name="bracketright" unicode="&#x5d;" horiz-adv-x="607" d="M473 -70 L88 -70 L88 88 L291 88 L291 1377 L88 1377 L88 1535 L473 1535 L473 -70 Z " />
<glyph glyph-name="asciicircum" unicode="&#x5e;" horiz-adv-x="1100" d="M987 917 L796 917 L550 1368 L303 917 L112 917 L433 1511 L668 1511 L987 917 Z " />
<glyph glyph-name="underscore" unicode="&#x5f;" horiz-adv-x="1100" d="M1121 -394 L-22 -394 L-22 -229 L1121 -229 L1121 -394 Z " />
<glyph glyph-name="grave" unicode="&#x60;" horiz-adv-x="1100" d="M726 1243 L559 1243 L374 1524 L596 1524 L726 1243 Z " />
<glyph glyph-name="a" unicode="a" horiz-adv-x="884" d="M778 0 L608 0 L604 95 Q489 -13 359 -13 Q232 -13 156.5 63.5 Q81 140 81 268 L81 330 Q81 532 276 628 Q383 681 593 706 L593 853 Q593 1009 446 1009 Q361 1009 326.5 963 Q292 917 292 805 L114 805 L114 842 Q114 1159 454 1159 Q778 1159 778 860 L778 0 Z M593 233 L593 574 Q439 551 371 512 Q265 451 265 334 L265 288 Q265 139 405 139 Q495 139 593 233 Z " />
<glyph glyph-name="b" unicode="b" horiz-adv-x="908" d="M295 1043 Q417 1155 546 1155 Q693 1155 759 1039 Q807 954 807 820 L807 290 Q807 176 761 97 Q693 -20 548 -20 Q429 -20 291 92 L286 0 L110 0 L110 1513 L295 1513 L295 1043 Z M295 238 Q392 147 488 147 Q622 147 622 308 L622 812 Q622 906 591 947 Q560 988 488 988 Q398 988 295 900 L295 238 Z " />
<glyph glyph-name="c" unicode="c" horiz-adv-x="842" d="M765 394 L765 293 Q765 137 672 54 Q586 -24 431 -24 Q261 -24 172 75 Q92 164 92 321 L92 833 Q92 977 181 1066 Q275 1159 429 1159 Q592 1159 683 1059 Q758 976 758 847 L758 754 L573 754 L573 809 Q573 994 429 994 Q277 994 277 803 L277 343 Q277 236 313.5 187.5 Q350 139 431 139 Q511 139 545.5 184.5 Q580 230 580 337 L580 394 L765 394 Z " />
<glyph glyph-name="d" unicode="d" horiz-adv-x="908" d="M798 0 L622 0 L617 92 Q540 30 482.5 5 Q425 -20 359 -20 Q215 -20 147 97 Q101 176 101 290 L101 820 Q101 955 149 1039 Q215 1155 362 1155 Q489 1155 613 1043 L613 1513 L798 1513 L798 0 Z M613 238 L613 900 Q508 988 420 988 Q348 988 317 947 Q286 906 286 812 L286 308 Q286 147 419 147 Q514 147 613 238 Z " />
<glyph glyph-name="e" unicode="e" horiz-adv-x="884" d="M785 350 L785 295 Q785 139 691 55 Q603 -24 447 -24 Q271 -24 180 77 Q99 167 99 326 L99 801 Q99 978 204 1073 Q297 1157 454 1157 Q616 1157 705 1059 Q785 969 785 818 L785 523 L286 523 L286 304 Q286 139 446 139 Q531 139 567 178.5 Q603 218 603 313 L603 350 L785 350 Z M607 673 L607 831 Q607 913 565 958 Q523 1003 446 1003 Q368 1003 326 958.5 Q284 914 284 831 L284 673 L607 673 Z " />
<glyph glyph-name="f" unicode="f" horiz-adv-x="616" d="M673 1542 L659 1386 Q587 1401 535 1401 Q453 1401 420 1363.5 Q387 1326 387 1232 L387 1135 L611 1135 L611 985 L389 985 L389 0 L204 0 L204 985 L33 985 L33 1135 L204 1135 L204 1232 Q204 1557 512 1557 Q592 1557 673 1542 Z " />
<glyph glyph-name="g" unicode="g" horiz-adv-x="917" d="M310 403 Q306 398 304 395 Q279 365 279 342 Q279 313 305 294 Q331 275 407 249 L616 176 Q768 123 829.5 58 Q891 -7 891 -116 Q891 -309 732 -399 Q616 -464 447 -464 Q278 -464 163 -398 Q20 -316 20 -154 Q20 35 233 137 Q112 180 112 286 Q112 334 134.5 370.5 Q157 407 211 449 Q159 472 127 539 Q95 606 95 695 L95 856 Q95 1029 230 1107 Q316 1157 444 1157 Q572 1157 662 1104 Q757 1194 847 1194 L880 1194 L880 1047 Q836 1054 822 1054 Q782 1054 743 1023 Q787 959 787 858 L787 693 Q787 385 444 385 Q356 385 310 403 Z M609 684 L609 847 Q609 926 564.5 970 Q520 1014 441 1014 Q363 1014 318 969 Q273 924 273 847 L273 684 Q273 614 318.5 572 Q364 530 441 530 Q519 530 564 571.5 Q609 613 609 684 Z M334 91 Q191 15 191 -100 Q191 -197 260.5 -249 Q330 -301 458 -301 Q712 -301 712 -143 Q712 -79 674 -44.5 Q636 -10 526 27 L334 91 Z " />
<glyph glyph-name="h" unicode="h" horiz-adv-x="902" d="M794 0 L609 0 L609 847 Q609 979 504 979 Q415 979 295 882 L295 0 L110 0 L110 1513 L295 1513 L295 1043 Q446 1153 571 1153 Q794 1153 794 867 L794 0 Z " />
<glyph glyph-name="i" unicode="i" horiz-adv-x="418" d="M301 0 L116 0 L116 1135 L301 1135 L301 0 Z M305 1302 L112 1302 L112 1511 L305 1511 L305 1302 Z " />
<glyph glyph-name="j" unicode="j" horiz-adv-x="418" d="M301 1135 L299 -145 Q298 -446 49 -446 Q-4 -446 -97 -431 L-93 -268 Q-44 -283 5 -283 Q66 -283 91 -242.5 Q116 -202 116 -101 L116 1135 L301 1135 Z M305 1302 L112 1302 L112 1511 L305 1511 L305 1302 Z " />
<glyph glyph-name="k" unicode="k" horiz-adv-x="855" d="M871 0 L671 0 L416 587 L297 429 L297 0 L112 0 L112 1513 L297 1513 L297 691 L616 1135 L829 1135 L541 730 L871 0 Z " />
<glyph glyph-name="l" unicode="l" horiz-adv-x="418" d="M302 0 L117 0 L117 1513 L302 1513 L302 0 Z " />
<glyph glyph-name="m" unicode="m" horiz-adv-x="1322" d="M1216 0 L1031 0 L1031 827 Q1031 977 922 977 Q837 977 757 871 L757 0 L572 0 L572 842 Q572 977 455 977 Q371 977 295 887 L295 0 L110 0 L110 1135 L277 1135 L284 1036 Q394 1153 523 1153 Q669 1153 735 1014 Q828 1153 984 1153 Q1216 1153 1216 869 L1216 0 Z " />
<glyph glyph-name="n" unicode="n" horiz-adv-x="886" d="M783 0 L598 0 L598 842 Q598 983 485 983 Q396 983 295 880 L295 0 L110 0 L110 1135 L282 1135 L288 1029 Q413 1155 539 1155 Q783 1155 783 882 L783 0 Z " />
<glyph glyph-name="o" unicode="o" horiz-adv-x="902" d="M99 319 L99 827 Q99 988 199 1076 Q293 1159 454 1159 Q634 1159 726 1059 Q803 975 803 827 L803 319 Q803 149 702 58 Q610 -24 451 -24 Q273 -24 179 80 Q99 169 99 319 Z M618 310 L618 823 Q618 900 572 947 Q526 994 450 994 Q374 994 329 948 Q284 902 284 823 L284 310 Q284 230 328 185.5 Q372 141 451 141 Q530 141 574 185.5 Q618 230 618 310 Z " />
<glyph glyph-name="p" unicode="p" horiz-adv-x="908" d="M291 1045 Q416 1153 551 1153 Q694 1153 763 1033 Q807 955 807 851 L807 310 Q807 182 759 97 Q693 -18 550 -18 Q423 -18 295 92 L295 -438 L110 -438 L110 1135 L286 1135 L291 1045 Z M295 240 Q393 149 490 149 Q561 149 593 192.5 Q625 236 625 334 L625 816 Q625 893 588 939.5 Q551 986 490 986 Q395 986 295 897 L295 240 Z " />
<glyph glyph-name="q" unicode="q" horiz-adv-x="908" d="M798 -438 L613 -438 L613 92 Q485 -18 359 -18 Q216 -18 150 97 Q101 181 101 310 L101 851 Q101 955 145 1033 Q214 1153 358 1153 Q491 1153 617 1045 L622 1135 L798 1135 L798 -438 Z M613 240 L613 897 Q511 986 419 986 Q357 986 320.5 940 Q284 894 284 816 L284 334 Q284 258 301 218 Q331 149 419 149 Q514 149 613 240 Z " />
<glyph glyph-name="r" unicode="r" horiz-adv-x="607" d="M598 941 Q383 931 295 724 L295 0 L110 0 L110 1135 L288 1135 L288 948 Q364 1057 428 1100 Q492 1143 598 1155 L598 941 Z " />
<glyph glyph-name="s" unicode="s" horiz-adv-x="789" d="M541 818 L541 864 Q541 1010 391 1010 Q324 1010 286.5 979.5 Q249 949 249 895 Q249 834 295 782 Q341 730 460 656 Q644 542 699 452 Q746 375 746 286 L746 259 Q746 -24 400 -24 Q226 -24 135 54.5 Q44 133 44 281 L44 345 L229 345 L229 292 Q229 123 401 123 Q475 123 517 158.5 Q559 194 559 258 Q559 320 514 372.5 Q469 425 351 498 Q170 611 116 702 Q70 780 70 873 L70 895 Q70 1041 188 1108 Q274 1157 397 1157 Q566 1157 652 1064 Q719 991 719 875 L719 818 L541 818 Z " />
<glyph glyph-name="t" unicode="t" horiz-adv-x="646" d="M615 4 Q516 -13 461 -13 Q323 -13 260.5 53.5 Q198 120 198 266 L198 985 L46 985 L46 1135 L200 1135 L200 1456 L385 1489 L385 1135 L600 1135 L600 985 L385 985 L385 259 Q385 137 503 137 Q544 137 609 152 L615 4 Z " />
<glyph glyph-name="u" unicode="u" horiz-adv-x="888" d="M776 0 L609 0 L600 99 Q472 -20 337 -20 Q103 -20 103 268 L103 1135 L288 1135 L288 279 Q288 212 312 184 Q336 156 394 156 Q499 156 591 253 L591 1135 L776 1135 L776 0 Z " />
<glyph glyph-name="v" unicode="v" horiz-adv-x="800" d="M772 1135 L508 0 L293 0 L29 1135 L218 1135 L352 471 Q386 306 401 176 Q415 287 444 436 Q473 585 588 1135 L772 1135 Z " />
<glyph glyph-name="w" unicode="w" horiz-adv-x="1209" d="M1170 1135 L955 0 L748 0 Q679 362 603 880 Q586 711 563 601 L440 0 L238 0 L40 1135 L225 1135 L326 458 Q347 317 357 194 Q373 327 396 458 L517 1135 L695 1135 Q764 746 845 194 Q921 735 985 1135 L1170 1135 Z " />
<glyph glyph-name="x" unicode="x" horiz-adv-x="794" d="M785 0 L588 0 L462 304 Q417 411 396 495 Q379 417 332 304 L207 0 L7 0 L295 590 L27 1135 L220 1135 L328 873 Q382 746 396 682 Q414 748 467 873 L576 1135 L772 1135 L506 587 L785 0 Z " />
<glyph glyph-name="y" unicode="y" horiz-adv-x="869" d="M816 1135 L499 -131 Q461 -284 404 -352 Q324 -448 162 -448 Q113 -448 55 -437 L55 -288 Q107 -296 138 -296 Q214 -296 252.5 -257.5 Q291 -219 312 -123 L345 25 L53 1135 L246 1135 Q332 750 440 223 Q543 748 631 1135 L816 1135 Z " />
<glyph glyph-name="z" unicode="z" horiz-adv-x="776" d="M710 0 L57 0 L57 130 L475 985 L92 985 L92 1135 L688 1135 L688 1001 L270 150 L710 150 L710 0 Z " />
<glyph glyph-name="braceleft" unicode="&#x7b;" horiz-adv-x="607" d="M572 -70 L426 -70 Q187 -70 187 189 L187 438 Q187 563 156 613 Q125 663 42 671 L42 798 Q112 806 145 844 Q187 894 187 1029 L187 1278 Q187 1535 426 1535 L572 1535 L572 1388 L493 1388 Q367 1388 367 1238 L367 983 Q367 871 330.5 817.5 Q294 764 200 739 L200 733 Q290 708 327 658 Q367 603 367 484 L367 229 Q367 75 499 75 L572 75 L572 -70 Z " />
<glyph glyph-name="bar" unicode="&#x7c;" horiz-adv-x="1100" d="M642 -218 L457 -218 L457 1684 L642 1684 L642 -218 Z " />
<glyph glyph-name="braceright" unicode="&#x7d;" horiz-adv-x="607" d="M565 671 Q493 664 461 626 Q421 580 421 438 L421 189 Q421 -70 178 -70 L33 -70 L33 75 L108 75 Q238 75 238 229 L238 484 Q238 598 275.5 653 Q313 708 408 733 L408 739 Q317 763 279 815 Q238 872 238 983 L238 1238 Q238 1388 115 1388 L33 1388 L33 1535 L178 1535 Q421 1535 421 1278 L421 1029 Q421 904 451.5 855.5 Q482 807 565 798 L565 671 Z " />
<glyph glyph-name="asciitilde" unicode="&#x7e;" horiz-adv-x="1100" d="M1042 668 Q918 424 740 424 Q667 424 538 490 Q411 555 340 555 Q286 555 245 523 Q204 491 160 416 L57 477 Q119 588 156 632 Q238 726 350 726 Q426 726 554 660 Q683 593 755 593 Q857 593 937 728 L1042 668 Z " />
<glyph glyph-name="Adieresis" unicode="&#xc4;" horiz-adv-x="954" d="M908 0 L704 0 L624 400 L310 400 L246 0 L46 0 L321 1467 L609 1467 L908 0 Z M598 556 Q537 871 464 1335 L448 1241 Q370 746 332 556 L598 556 Z M732 1577 L635 1577 L539 1577 L539 1786 L732 1786 L732 1577 Z M397 1577 L301 1577 L204 1577 L204 1786 L397 1786 L397 1577 Z " />
<glyph glyph-name="Aring" unicode="&#xc5;" horiz-adv-x="954" d="M908 0 L704 0 L624 400 L310 400 L246 0 L46 0 L321 1467 L609 1467 L908 0 Z M598 556 Q537 871 464 1335 L448 1241 Q370 746 332 556 L598 556 Z M463 1898 Q540 1898 592 1849 Q644 1800 644 1728 Q644 1653 592.5 1604 Q541 1555 463 1555 Q386 1555 334.5 1604 Q283 1653 283 1726 Q283 1800 334.5 1849 Q386 1898 463 1898 Z M463 1806 Q430 1806 407 1783 Q384 1760 384 1727 Q384 1693 407 1670 Q430 1647 463 1647 Q495 1647 519 1670.5 Q543 1694 543 1726 Q543 1758 519.5 1782 Q496 1806 463 1806 Z " />
<glyph glyph-name="Ccedilla" unicode="&#xc7;" horiz-adv-x="985" d="M444 -19 Q132 8 132 370 L132 1093 Q132 1299 247 1403 Q343 1491 511 1491 Q703 1491 804 1381 Q884 1294 884 1150 L884 983 L695 983 L695 1075 Q695 1179 673 1231 Q634 1321 514 1321 Q325 1321 325 1115 L325 392 Q325 147 519 147 Q617 147 660 206.5 Q703 266 703 400 L703 508 L897 508 L897 354 Q897 -2 549 -20 L510 -105 Q680 -114 680 -247 Q680 -418 437 -418 Q374 -418 279 -393 L292 -290 Q365 -312 417 -312 Q528 -312 528 -250 Q528 -187 424 -187 Q406 -187 369 -191 L444 -19 Z " />
<glyph glyph-name="Eacute" unicode="&#xc9;" horiz-adv-x="818" d="M774 0 L132 0 L132 1467 L752 1467 L752 1309 L325 1309 L325 840 L701 840 L701 682 L325 682 L325 158 L774 158 L774 0 Z M658 1826 L474 1545 L306 1545 L436 1826 L658 1826 Z " />
<glyph glyph-name="Ntilde" unicode="&#xd1;" horiz-adv-x="1066" d="M935 0 L671 0 Q440 695 317 1159 L317 1102 L321 655 L321 0 L132 0 L132 1467 L398 1467 Q615 785 748 310 L747 383 L746 498 Q744 756 744 915 L744 1467 L935 1467 L935 0 Z M851 1669 Q747 1566 660 1566 Q618 1566 542 1600 Q479 1629 450 1629 Q410 1629 356 1566 L266 1665 Q359 1781 452 1781 Q489 1781 558 1749 Q624 1718 660 1718 Q696 1718 772 1781 L851 1669 Z " />
<glyph glyph-name="Odieresis" unicode="&#xd6;" horiz-adv-x="1012" d="M119 376 L119 1076 Q119 1295 237 1402 Q334 1491 506 1491 Q697 1491 796 1380 Q893 1271 893 1062 L893 372 Q893 175 776 68 Q675 -24 503 -24 Q314 -24 213 88 Q119 193 119 376 Z M702 374 L702 1058 Q702 1322 505 1322 Q411 1322 360.5 1264 Q310 1206 310 1098 L310 381 Q310 148 504 148 Q597 148 650 206 Q702 264 702 374 Z M770 1577 L673 1577 L577 1577 L577 1786 L770 1786 L770 1577 Z M435 1577 L339 1577 L242 1577 L242 1786 L435 1786 L435 1577 Z " />
<glyph glyph-name="Udieresis" unicode="&#xdc;" horiz-adv-x="1027" d="M895 1467 L895 365 Q895 -24 515 -24 Q132 -24 132 365 L132 1467 L323 1467 L323 385 Q323 293 345 241 Q386 145 514 145 Q612 145 658 203 Q704 261 704 385 L704 1467 L895 1467 Z M779 1577 L682 1577 L586 1577 L586 1786 L779 1786 L779 1577 Z M444 1577 L348 1577 L251 1577 L251 1786 L444 1786 L444 1577 Z " />
<glyph glyph-name="aacute" unicode="&#xe1;" horiz-adv-x="884" d="M778 0 L608 0 L604 95 Q489 -13 359 -13 Q232 -13 156.5 63.5 Q81 140 81 268 L81 330 Q81 532 276 628 Q383 681 593 706 L593 853 Q593 1009 446 1009 Q361 1009 326.5 963 Q292 917 292 805 L114 805 L114 842 Q114 1159 454 1159 Q778 1159 778 860 L778 0 Z M593 233 L593 574 Q439 551 371 512 Q265 451 265 334 L265 288 Q265 139 405 139 Q495 139 593 233 Z M703 1524 L518 1243 L351 1243 L481 1524 L703 1524 Z " />
<glyph glyph-name="agrave" unicode="&#xe0;" horiz-adv-x="884" d="M778 0 L608 0 L604 95 Q489 -13 359 -13 Q232 -13 156.5 63.5 Q81 140 81 268 L81 330 Q81 532 276 628 Q383 681 593 706 L593 853 Q593 1009 446 1009 Q361 1009 326.5 963 Q292 917 292 805 L114 805 L114 842 Q114 1159 454 1159 Q778 1159 778 860 L778 0 Z M593 233 L593 574 Q439 551 371 512 Q265 451 265 334 L265 288 Q265 139 405 139 Q495 139 593 233 Z M554 1243 L387 1243 L202 1524 L424 1524 L554 1243 Z " />
<glyph glyph-name="acircumflex" unicode="&#xe2;" horiz-adv-x="884" d="M778 0 L608 0 L604 95 Q489 -13 359 -13 Q232 -13 156.5 63.5 Q81 140 81 268 L81 330 Q81 532 276 628 Q383 681 593 706 L593 853 Q593 1009 446 1009 Q361 1009 326.5 963 Q292 917 292 805 L114 805 L114 842 Q114 1159 454 1159 Q778 1159 778 860 L778 0 Z M593 233 L593 574 Q439 551 371 512 Q265 451 265 334 L265 288 Q265 139 405 139 Q495 139 593 233 Z M717 1245 L558 1245 L453 1423 L341 1245 L189 1245 L354 1525 L556 1525 L717 1245 Z " />
<glyph glyph-name="adieresis" unicode="&#xe4;" horiz-adv-x="884" d="M778 0 L608 0 L604 95 Q489 -13 359 -13 Q232 -13 156.5 63.5 Q81 140 81 268 L81 330 Q81 532 276 628 Q383 681 593 706 L593 853 Q593 1009 446 1009 Q361 1009 326.5 963 Q292 917 292 805 L114 805 L114 842 Q114 1159 454 1159 Q778 1159 778 860 L778 0 Z M593 233 L593 574 Q439 551 371 512 Q265 451 265 334 L265 288 Q265 139 405 139 Q495 139 593 233 Z M708 1287 L515 1287 L515 1511 L708 1511 L708 1287 Z M373 1287 L180 1287 L180 1511 L373 1511 L373 1287 Z " />
<glyph glyph-name="atilde" unicode="&#xe3;" horiz-adv-x="884" d="M778 0 L608 0 L604 95 Q489 -13 359 -13 Q232 -13 156.5 63.5 Q81 140 81 268 L81 330 Q81 532 276 628 Q383 681 593 706 L593 853 Q593 1009 446 1009 Q361 1009 326.5 963 Q292 917 292 805 L114 805 L114 842 Q114 1159 454 1159 Q778 1159 778 860 L778 0 Z M593 233 L593 574 Q439 551 371 512 Q265 451 265 334 L265 288 Q265 139 405 139 Q495 139 593 233 Z M745 1384 Q641 1280 554 1280 Q511 1280 436 1315 Q373 1344 344 1344 Q304 1344 250 1280 L160 1379 Q253 1496 346 1496 Q384 1496 453 1463 Q519 1432 553 1432 Q595 1432 666 1496 L745 1384 Z " />
<glyph glyph-name="aring" unicode="&#xe5;" horiz-adv-x="884" d="M778 0 L608 0 L604 95 Q489 -13 359 -13 Q232 -13 156.5 63.5 Q81 140 81 268 L81 330 Q81 532 276 628 Q383 681 593 706 L593 853 Q593 1009 446 1009 Q361 1009 326.5 963 Q292 917 292 805 L114 805 L114 842 Q114 1159 454 1159 Q778 1159 778 860 L778 0 Z M593 233 L593 574 Q439 551 371 512 Q265 451 265 334 L265 288 Q265 139 405 139 Q495 139 593 233 Z M454 1579 Q531 1579 583 1530 Q635 1481 635 1409 Q635 1334 583.5 1285 Q532 1236 454 1236 Q377 1236 325.5 1285 Q274 1334 274 1407 Q274 1481 325.5 1530 Q377 1579 454 1579 Z M454 1487 Q420 1487 397.5 1464.5 Q375 1442 375 1408 Q375 1374 398 1351 Q421 1328 454 1328 Q486 1328 510 1351.5 Q534 1375 534 1407 Q534 1440 510.5 1463.5 Q487 1487 454 1487 Z " />
<glyph glyph-name="ccedilla" unicode="&#xe7;" horiz-adv-x="842" d="M461 -24 L424 -105 Q593 -114 593 -246 Q593 -417 352 -417 Q277 -417 196 -394 L193 -393 L206 -290 Q280 -311 331 -311 Q441 -311 441 -249 Q441 -186 338 -186 Q319 -186 284 -191 L358 -19 Q356 -19 352 -18 Q228 2 160 90 Q92 177 92 321 L92 833 Q92 977 181 1066 Q275 1159 429 1159 Q592 1159 683 1059 Q758 976 758 847 L758 754 L573 754 L573 809 Q573 994 429 994 Q277 994 277 803 L277 343 Q277 236 313.5 187.5 Q350 139 431 139 Q511 139 545.5 184.5 Q580 230 580 337 L580 394 L765 394 L765 293 Q765 149 686 67 Q607 -15 461 -24 Z " />
<glyph glyph-name="eacute" unicode="&#xe9;" horiz-adv-x="884" d="M785 350 L785 295 Q785 139 691 55 Q603 -24 447 -24 Q271 -24 180 77 Q99 167 99 326 L99 801 Q99 978 204 1073 Q297 1157 454 1157 Q616 1157 705 1059 Q785 969 785 818 L785 523 L286 523 L286 304 Q286 139 446 139 Q531 139 567 178.5 Q603 218 603 313 L603 350 L785 350 Z M607 673 L607 831 Q607 913 565 958 Q523 1003 446 1003 Q368 1003 326 958.5 Q284 914 284 831 L284 673 L607 673 Z M688 1524 L503 1243 L336 1243 L466 1524 L688 1524 Z " />
<glyph glyph-name="egrave" unicode="&#xe8;" horiz-adv-x="884" d="M785 350 L785 295 Q785 139 691 55 Q603 -24 447 -24 Q271 -24 180 77 Q99 167 99 326 L99 801 Q99 978 204 1073 Q297 1157 454 1157 Q616 1157 705 1059 Q785 969 785 818 L785 523 L286 523 L286 304 Q286 139 446 139 Q531 139 567 178.5 Q603 218 603 313 L603 350 L785 350 Z M607 673 L607 831 Q607 913 565 958 Q523 1003 446 1003 Q368 1003 326 958.5 Q284 914 284 831 L284 673 L607 673 Z M552 1243 L385 1243 L200 1524 L422 1524 L552 1243 Z " />
<glyph glyph-name="ecircumflex" unicode="&#xea;" horiz-adv-x="884" d="M785 350 L785 295 Q785 139 691 55 Q603 -24 447 -24 Q271 -24 180 77 Q99 167 99 326 L99 801 Q99 978 204 1073 Q297 1157 454 1157 Q616 1157 705 1059 Q785 969 785 818 L785 523 L286 523 L286 304 Q286 139 446 139 Q531 139 567 178.5 Q603 218 603 313 L603 350 L785 350 Z M607 673 L607 831 Q607 913 565 958 Q523 1003 446 1003 Q368 1003 326 958.5 Q284 914 284 831 L284 673 L607 673 Z M719 1245 L560 1245 L455 1423 L343 1245 L191 1245 L356 1525 L558 1525 L719 1245 Z " />
<glyph glyph-name="edieresis" unicode="&#xeb;" horiz-adv-x="884" d="M785 350 L785 295 Q785 139 691 55 Q603 -24 447 -24 Q271 -24 180 77 Q99 167 99 326 L99 801 Q99 978 204 1073 Q297 1157 454 1157 Q616 1157 705 1059 Q785 969 785 818 L785 523 L286 523 L286 304 Q286 139 446 139 Q531 139 567 178.5 Q603 218 603 313 L603 350 L785 350 Z M607 673 L607 831 Q607 913 565 958 Q523 1003 446 1003 Q368 1003 326 958.5 Q284 914 284 831 L284 673 L607 673 Z M713 1287 L520 1287 L520 1511 L713 1511 L713 1287 Z M378 1287 L185 1287 L185 1511 L378 1511 L378 1287 Z " />
<glyph glyph-name="iacute" unicode="&#xed;" horiz-adv-x="418" d="M297 0 L112 0 L112 1135 L297 1135 L297 0 Z M466 1524 L281 1243 L114 1243 L244 1524 L466 1524 Z " />
<glyph glyph-name="igrave" unicode="&#xec;" horiz-adv-x="418" d="M289 0 L104 0 L104 1135 L289 1135 L289 0 Z M304 1243 L137 1243 L-48 1524 L174 1524 L304 1243 Z " />
<glyph glyph-name="icircumflex" unicode="&#xee;" horiz-adv-x="418" d="M291 0 L106 0 L106 1135 L291 1135 L291 0 Z M442 1245 L288 1245 L202 1421 L110 1245 L-35 1245 L106 1524 L306 1524 L442 1245 Z " />
<glyph glyph-name="idieresis" unicode="&#xef;" horiz-adv-x="418" d="M297 0 L112 0 L112 1135 L297 1135 L297 0 Z M424 1287 L257 1287 L257 1511 L424 1511 L424 1287 Z M160 1287 L-7 1287 L-7 1511 L160 1511 L160 1287 Z " />
<glyph glyph-name="ntilde" unicode="&#xf1;" horiz-adv-x="886" d="M783 0 L598 0 L598 842 Q598 983 485 983 Q396 983 295 880 L295 0 L110 0 L110 1135 L282 1135 L288 1029 Q413 1155 539 1155 Q783 1155 783 882 L783 0 Z M730 1397 Q626 1293 539 1293 Q496 1293 421 1328 Q358 1357 329 1357 Q289 1357 235 1293 L145 1392 Q238 1509 331 1509 Q369 1509 438 1476 Q504 1445 538 1445 Q580 1445 651 1509 L730 1397 Z " />
<glyph glyph-name="oacute" unicode="&#xf3;" horiz-adv-x="902" d="M99 319 L99 827 Q99 988 199 1076 Q293 1159 454 1159 Q634 1159 726 1059 Q803 975 803 827 L803 319 Q803 149 702 58 Q610 -24 451 -24 Q273 -24 179 80 Q99 169 99 319 Z M618 310 L618 823 Q618 900 572 947 Q526 994 450 994 Q374 994 329 948 Q284 902 284 823 L284 310 Q284 230 328 185.5 Q372 141 451 141 Q530 141 574 185.5 Q618 230 618 310 Z M682 1524 L497 1243 L330 1243 L460 1524 L682 1524 Z " />
<glyph glyph-name="ograve" unicode="&#xf2;" horiz-adv-x="902" d="M99 319 L99 827 Q99 988 199 1076 Q293 1159 454 1159 Q634 1159 726 1059 Q803 975 803 827 L803 319 Q803 149 702 58 Q610 -24 451 -24 Q273 -24 179 80 Q99 169 99 319 Z M618 310 L618 823 Q618 900 572 947 Q526 994 450 994 Q374 994 329 948 Q284 902 284 823 L284 310 Q284 230 328 185.5 Q372 141 451 141 Q530 141 574 185.5 Q618 230 618 310 Z M563 1243 L396 1243 L211 1524 L433 1524 L563 1243 Z " />
<glyph glyph-name="ocircumflex" unicode="&#xf4;" horiz-adv-x="902" d="M99 319 L99 827 Q99 988 199 1076 Q293 1159 454 1159 Q634 1159 726 1059 Q803 975 803 827 L803 319 Q803 149 702 58 Q610 -24 451 -24 Q273 -24 179 80 Q99 169 99 319 Z M618 310 L618 823 Q618 900 572 947 Q526 994 450 994 Q374 994 329 948 Q284 902 284 823 L284 310 Q284 230 328 185.5 Q372 141 451 141 Q530 141 574 185.5 Q618 230 618 310 Z M713 1242 L554 1242 L449 1420 L337 1242 L185 1242 L350 1522 L552 1522 L713 1242 Z " />
<glyph glyph-name="odieresis" unicode="&#xf6;" horiz-adv-x="902" d="M99 319 L99 827 Q99 988 199 1076 Q293 1159 454 1159 Q634 1159 726 1059 Q803 975 803 827 L803 319 Q803 149 702 58 Q610 -24 451 -24 Q273 -24 179 80 Q99 169 99 319 Z M618 310 L618 823 Q618 900 572 947 Q526 994 450 994 Q374 994 329 948 Q284 902 284 823 L284 310 Q284 230 328 185.5 Q372 141 451 141 Q530 141 574 185.5 Q618 230 618 310 Z M711 1287 L518 1287 L518 1511 L711 1511 L711 1287 Z M376 1287 L183 1287 L183 1511 L376 1511 L376 1287 Z " />
<glyph glyph-name="otilde" unicode="&#xf5;" horiz-adv-x="902" d="M99 319 L99 827 Q99 988 199 1076 Q293 1159 454 1159 Q634 1159 726 1059 Q803 975 803 827 L803 319 Q803 149 702 58 Q610 -24 451 -24 Q273 -24 179 80 Q99 169 99 319 Z M618 310 L618 823 Q618 900 572 947 Q526 994 450 994 Q374 994 329 948 Q284 902 284 823 L284 310 Q284 230 328 185.5 Q372 141 451 141 Q530 141 574 185.5 Q618 230 618 310 Z M748 1397 Q644 1293 557 1293 Q514 1293 439 1328 Q376 1357 347 1357 Q307 1357 253 1293 L163 1392 Q256 1509 349 1509 Q387 1509 456 1476 Q522 1445 556 1445 Q598 1445 669 1509 L748 1397 Z " />
<glyph glyph-name="uacute" unicode="&#xfa;" horiz-adv-x="888" d="M776 0 L609 0 L600 99 Q472 -20 337 -20 Q103 -20 103 268 L103 1135 L288 1135 L288 279 Q288 212 312 184 Q336 156 394 156 Q499 156 591 253 L591 1135 L776 1135 L776 0 Z M664 1524 L479 1243 L312 1243 L442 1524 L664 1524 Z " />
<glyph glyph-name="ugrave" unicode="&#xf9;" horiz-adv-x="888" d="M776 0 L609 0 L600 99 Q472 -20 337 -20 Q103 -20 103 268 L103 1135 L288 1135 L288 279 Q288 212 312 184 Q336 156 394 156 Q499 156 591 253 L591 1135 L776 1135 L776 0 Z M572 1243 L405 1243 L220 1524 L442 1524 L572 1243 Z " />
<glyph glyph-name="ucircumflex" unicode="&#xfb;" horiz-adv-x="888" d="M776 0 L609 0 L600 99 Q472 -20 337 -20 Q103 -20 103 268 L103 1135 L288 1135 L288 279 Q288 212 312 184 Q336 156 394 156 Q499 156 591 253 L591 1135 L776 1135 L776 0 Z M703 1242 L544 1242 L439 1420 L327 1242 L175 1242 L340 1522 L542 1522 L703 1242 Z " />
<glyph glyph-name="udieresis" unicode="&#xfc;" horiz-adv-x="888" d="M776 0 L609 0 L600 99 Q472 -20 337 -20 Q103 -20 103 268 L103 1135 L288 1135 L288 279 Q288 212 312 184 Q336 156 394 156 Q499 156 591 253 L591 1135 L776 1135 L776 0 Z M703 1287 L510 1287 L510 1511 L703 1511 L703 1287 Z M368 1287 L175 1287 L175 1511 L368 1511 L368 1287 Z " />
<glyph glyph-name="dagger" unicode="&#x2020;" horiz-adv-x="981" d="M888 939 L578 939 L578 -46 L402 -46 L402 939 L92 939 L92 1106 L402 1106 L402 1511 L578 1511 L578 1106 L888 1106 L888 939 Z " />
<glyph glyph-name="degree" unicode="&#xb0;" horiz-adv-x="937" d="M469 1524 Q621 1524 711 1434 Q799 1346 799 1203 Q799 1055 711 967 Q621 877 470 877 Q320 877 229 969 Q139 1058 139 1201 Q139 1345 227 1434 Q316 1524 469 1524 Z M469 1394 Q384 1394 333 1341.5 Q282 1289 282 1201 Q282 1113 334 1059 Q386 1005 470 1005 Q554 1005 605 1058.5 Q656 1112 656 1200 Q656 1288 605 1341 Q554 1394 469 1394 Z " />
<glyph glyph-name="cent" unicode="&#xa2;" horiz-adv-x="981" d="M829 574 L829 471 Q829 179 534 156 L534 -75 L433 -75 L433 158 Q147 189 147 501 L147 1009 Q147 1141 222 1225.5 Q297 1310 433 1332 L433 1537 L534 1537 L534 1335 Q672 1315 742 1238 Q818 1154 818 1025 L818 930 L638 930 L638 965 L638 966 L638 967 L638 969 L638 970 Q638 1059 615 1102 Q592 1145 534 1165 L534 323 Q595 341 619.5 382 Q644 423 644 508 L644 574 L829 574 Z M433 325 L433 1165 Q332 1128 332 981 L332 521 Q332 354 433 325 Z " />
<glyph glyph-name="sterling" unicode="&#xa3;" horiz-adv-x="981" d="M899 330 Q896 194 862 118 Q800 -22 633 -22 Q461 -22 305 114 Q215 22 109 -31 L46 108 Q145 174 195 246 Q272 355 272 505 Q272 550 265 637 L263 655 L83 655 L83 794 L248 794 Q242 819 232 859 Q186 1044 186 1142 Q186 1491 542 1491 Q740 1491 809 1372 Q859 1284 859 1051 L859 1049 L859 1048 L859 1047 L681 1047 L681 1126 Q681 1214 662 1258 Q630 1335 526 1335 Q364 1335 364 1143 Q364 1063 399 902 Q415 832 422 794 L624 794 L624 655 L430 655 Q441 532 441 492 Q441 372 373 238 Q497 130 607 130 Q675 130 701 171 Q727 212 727 317 L727 330 L899 330 Z " />
<glyph glyph-name="section" unicode="&#xa7;" horiz-adv-x="1034" d="M690 1119 Q689 1228 665 1269 Q628 1332 518 1332 Q350 1332 350 1185 L350 1154 Q350 1075 449 1019 L692 875 Q817 802 863.5 740.5 Q910 679 910 589 Q910 446 761 346 Q835 282 861.5 228.5 Q888 175 888 88 L888 49 Q888 -263 510 -263 Q297 -263 207 -163 Q132 -80 132 82 L132 150 L325 150 Q326 25 347 -21 Q384 -105 511 -105 Q688 -105 688 53 L688 88 Q688 144 657.5 178 Q627 212 519 275 L321 392 Q223 449 186 489 Q123 556 123 667 Q123 744 157.5 794.5 Q192 845 284 904 Q160 995 160 1154 L160 1179 Q160 1330 251 1410 Q343 1491 521 1491 Q716 1491 808 1391 Q879 1314 879 1181 L879 1119 L690 1119 Z M655 412 Q727 477 727 553 Q727 613 674 660 Q653 678 569 730 L385 844 Q331 804 312 777 Q293 750 293 711 Q293 660 323.5 625.5 Q354 591 448 535 L655 412 Z " />
<glyph glyph-name="bullet" unicode="&#x2022;" horiz-adv-x="680" d="M341 893 Q395 893 435 852.5 Q475 812 475 756 Q475 698 435.5 657 Q396 616 340 616 Q283 616 244 656 Q205 696 205 754 Q205 813 244.5 853 Q284 893 341 893 Z " />
<glyph glyph-name="paragraph" unicode="&#xb6;" horiz-adv-x="1267" d="M1172 1326 L1035 1326 L1035 -438 L877 -438 L877 1326 L661 1326 L661 -438 L503 -438 L503 692 L472 692 Q290 692 178 803 Q72 908 72 1076 Q72 1464 558 1464 L1172 1464 L1172 1326 Z " />
<glyph glyph-name="germandbls" unicode="&#xdf;" horiz-adv-x="972" d="M114 -438 L114 1139 Q114 1359 219 1455 Q309 1537 479 1537 Q658 1537 749 1437 Q825 1355 825 1226 Q825 1176 810.5 1128.5 Q796 1081 755 1002 Q705 904 705 860 Q705 803 794 652 Q869 523 898.5 442.5 Q928 362 928 284 Q928 -24 630 -24 Q529 -24 433 13 L492 178 Q557 141 615 141 Q743 141 743 290 Q743 345 719 402 Q695 459 631 558 Q564 661 539 722 Q514 783 514 841 Q514 904 578 1013 Q615 1076 628.5 1113.5 Q642 1151 642 1191 Q642 1370 475 1370 Q378 1370 338.5 1318 Q299 1266 299 1139 L299 -438 L114 -438 Z " />
<glyph glyph-name="registered" unicode="&#xae;" horiz-adv-x="1108" d="M736 891 L642 891 L551 1119 L514 1117 L514 891 L426 891 L426 1420 L556 1420 Q626 1420 665.5 1382.5 Q705 1345 705 1278 Q705 1185 631 1141 L736 891 Z M514 1194 Q617 1196 617 1273 Q617 1313 598 1328 Q579 1343 529 1343 L514 1343 L514 1194 Z M556 1647 Q763 1647 879 1517 Q994 1388 994 1159 Q994 897 850 766 Q739 664 556 664 Q347 664 229 798 Q114 929 114 1156 Q114 1409 258 1542 Q371 1647 556 1647 Z M554 1563 Q358 1563 271 1412 Q213 1312 213 1156 Q213 997 272 895 Q359 745 555 745 Q777 745 856 937 Q895 1030 895 1153 Q895 1312 835 1413 Q747 1563 554 1563 Z " />
<glyph glyph-name="copyright" unicode="&#xa9;" horiz-adv-x="1420" d="M992 631 L992 490 Q992 360 919 292 Q846 224 706 224 Q429 224 429 515 L429 957 Q429 1102 509 1174 Q579 1238 707 1238 Q849 1238 923 1157 Q983 1093 983 988 L983 849 L825 849 L825 974 Q825 1100 708 1100 Q587 1100 587 961 L587 523 Q587 435 614 400 Q641 365 708 365 Q770 365 797.5 397.5 Q825 430 825 504 L825 631 L992 631 Z M713 1530 Q1050 1530 1236 1320 Q1356 1185 1400 960 Q1420 856 1420 739 Q1420 312 1191 102 Q1011 -64 713 -64 Q374 -64 187 147 Q0 357 0 733 Q0 1151 231 1363 Q413 1530 713 1530 Z M709 1376 Q395 1376 258 1139 Q167 981 167 733 Q167 485 257 328 Q393 90 710 90 Q1067 90 1193 392 Q1253 536 1253 729 Q1253 978 1161 1136 Q1022 1376 709 1376 Z " />
<glyph glyph-name="trademark" unicode="&#x2122;" horiz-adv-x="1416" d="M1337 717 L1196 717 L1196 1097 Q1196 1325 1216 1447 L1024 717 L903 717 L709 1447 Q727 1260 727 1108 L727 717 L589 717 L589 1607 L789 1607 L916 1141 Q955 998 967 860 Q973 966 1015 1134 L1134 1607 L1337 1607 L1337 717 Z M530 1495 L352 1495 L352 717 L211 717 L211 1495 L33 1495 L33 1605 L530 1605 L530 1495 Z " />
<glyph glyph-name="acute" unicode="&#xb4;" horiz-adv-x="1100" d="M726 1524 L541 1243 L374 1243 L504 1524 L726 1524 Z " />
<glyph glyph-name="dieresis" unicode="&#xa8;" horiz-adv-x="1100" d="M814 1287 L621 1287 L621 1511 L814 1511 L814 1287 Z M479 1287 L286 1287 L286 1511 L479 1511 L479 1287 Z " />
<glyph glyph-name="notequal" unicode="&#x2260;" horiz-adv-x="1100" d="M1026 310 L501 310 L382 68 L237 68 L353 310 L74 310 L74 473 L426 473 L521 666 L72 666 L72 827 L595 827 L714 1073 L859 1073 L740 827 L1024 827 L1024 666 L668 666 L573 473 L1026 473 L1026 310 Z " />
<glyph glyph-name="AE" unicode="&#xc6;" horiz-adv-x="1275" d="M1231 0 L660 0 L660 604 L409 604 L240 0 L44 0 L490 1467 L1218 1467 L1218 1309 L847 1309 L847 840 L1168 840 L1168 680 L847 680 L847 158 L1231 158 L1231 0 Z M660 756 L660 1309 L616 1309 L451 756 L660 756 Z " />
<glyph glyph-name="Oslash" unicode="&#xd8;" horiz-adv-x="1012" d="M972 1463 Q937 1403 916 1366 Q901 1339 873 1292 L860 1269 Q893 1172 893 1062 L893 372 Q893 175 776 68 Q675 -24 503 -24 Q314 -24 207 95 Q199 81 182 49 Q153 -5 130 -53 L40 0 L53 23 L74 59 Q109 118 150 191 Q119 277 119 376 L119 1076 Q119 1491 504 1491 Q699 1491 807 1368 L880 1507 L972 1463 Z M693 1183 Q659 1322 507 1322 Q310 1322 310 1098 L310 495 L356 577 Q483 801 576 969 L648 1100 L693 1183 Z M317 277 Q347 148 504 148 Q702 148 702 374 L702 970 Q612 809 508 623 L435 492 L362 360 L317 277 Z " />
<glyph glyph-name="infinity" unicode="&#x221e;" horiz-adv-x="1464" d="M730 693 Q895 913 1094 913 Q1239 913 1332 817.5 Q1425 722 1425 573 Q1425 420 1330 324 Q1237 231 1093 231 Q902 231 737 451 Q564 231 370 231 Q228 231 135 325 Q40 421 40 573 Q40 723 135 818 Q229 913 370 913 Q557 913 730 693 Z M825 572 Q882 490 912 461 Q980 394 1066 394 Q1144 394 1193.5 444 Q1243 494 1243 571 Q1243 648 1192.5 699 Q1142 750 1067 750 Q938 750 825 572 Z M643 572 Q519 750 397 750 Q323 750 274 699 Q225 648 225 572 Q225 495 274 444.5 Q323 394 399 394 Q467 394 517 430.5 Q567 467 643 572 Z " />
<glyph glyph-name="plusminus" unicode="&#xb1;" horiz-adv-x="1100" d="M1025 583 L640 583 L640 211 L462 211 L462 583 L75 583 L75 750 L462 750 L462 1117 L640 1117 L640 750 L1025 750 L1025 583 Z M1025 -29 L75 -29 L75 136 L1025 136 L1025 -29 Z " />
<glyph glyph-name="lessequal" unicode="&#x2264;" horiz-adv-x="1100" d="M1018 225 L81 596 L81 750 L1018 1122 L1018 953 L272 673 L1018 394 L1018 225 Z M1018 -35 L81 -35 L81 130 L1018 130 L1018 -35 Z " />
<glyph glyph-name="greaterequal" unicode="&#x2265;" horiz-adv-x="1100" d="M1018 596 L81 225 L81 394 L827 673 L81 953 L81 1122 L1018 750 L1018 596 Z M1018 -35 L81 -35 L81 130 L1018 130 L1018 -35 Z " />
<glyph glyph-name="yen" unicode="&#xa5;" horiz-adv-x="981" d="M926 1467 L706 904 L862 904 L862 792 L660 790 L588 601 L588 594 L862 594 L862 480 L588 480 L588 0 L394 0 L394 480 L121 480 L121 594 L394 594 L394 601 L321 790 L297 790 L260 790 Q197 790 121 792 L121 904 L275 904 L55 1467 L249 1467 L387 1082 Q396 1057 402 1043 Q467 862 491 750 Q503 842 576 1029 Q591 1069 599 1091 L733 1467 L926 1467 Z " />
<glyph glyph-name="mu" unicode="&#xb5;" horiz-adv-x="1159" d="M1010 0 L834 0 L834 130 Q767 -26 573 -26 Q402 -26 328 117 L328 -398 L150 -398 L150 1139 L328 1139 L328 477 Q328 357 362 278 Q422 139 576 139 Q834 139 834 495 L834 1139 L1010 1139 L1010 0 Z " />
<glyph glyph-name="partialdiff" unicode="&#x2202;" horiz-adv-x="1093" d="M144 1359 Q201 1419 291 1455 Q381 1491 472 1491 Q781 1491 909 1163 Q990 953 990 607 Q990 360 927 214 Q825 -24 552 -24 Q340 -24 221 110 Q106 239 106 468 Q106 711 235 830 Q336 922 501 922 Q730 922 812 763 Q801 977 761 1102 Q680 1352 471 1352 Q330 1352 236 1243 L144 1359 Z M810 603 Q770 689 698 737.5 Q626 786 538 786 Q277 786 277 458 Q277 316 324 233 Q392 114 547 114 Q716 114 776 266 Q810 353 810 495 L810 603 Z " />
<glyph glyph-name="summation" unicode="&#x2211;" horiz-adv-x="1124" d="M1048 0 L59 0 L59 171 L464 746 L59 1298 L59 1467 L1040 1467 L1040 1309 L250 1309 L659 746 L248 158 L1048 158 L1048 0 Z " />
<glyph glyph-name="product" unicode="&#x220f;" horiz-adv-x="1445" d="M1359 1299 L1194 1299 L1194 0 L1007 0 L1007 1299 L438 1299 L438 0 L253 0 L253 1299 L84 1299 L84 1464 L1359 1464 L1359 1299 Z " />
<glyph glyph-name="pi" unicode="&#x3c0;" horiz-adv-x="1159" d="M1093 972 L932 972 L932 0 L754 0 L754 972 L411 972 L411 0 L231 0 L231 972 L66 972 L66 1139 L1093 1139 L1093 972 Z " />
<glyph glyph-name="integral" unicode="&#x222b;" horiz-adv-x="1100" d="M908 1469 L869 1309 Q812 1330 765 1330 Q694 1330 667 1282 Q640 1234 640 1109 L640 31 Q640 -182 604 -266 Q543 -409 345 -409 Q272 -409 191 -387 L228 -228 Q285 -251 333 -251 Q401 -251 429 -207 Q457 -163 457 -55 L457 1076 Q457 1264 493 1348 Q554 1491 747 1491 Q818 1491 908 1469 Z " />
<glyph glyph-name="ordfeminine" unicode="&#xaa;" horiz-adv-x="745" d="M607 774 L477 774 L475 838 Q425 767 329 767 Q241 767 189.5 815.5 Q138 864 138 948 L138 985 Q139 1184 466 1221 L466 1298 Q466 1379 383 1379 Q334 1379 315 1354 Q296 1329 296 1263 L296 1258 L160 1258 L160 1291 Q160 1491 388 1491 Q607 1491 607 1300 L607 774 Z M466 930 L466 1119 Q279 1088 279 987 L279 959 Q279 879 357 879 Q413 879 466 930 Z M607 571 L139 571 L139 688 L607 688 L607 571 Z " />
<glyph glyph-name="ordmasculine" unicode="&#xba;" horiz-adv-x="750" d="M139 979 L139 1280 Q139 1375 204.5 1433 Q270 1491 377 1491 Q499 1491 562 1422 Q612 1367 612 1280 L612 979 Q612 761 379 761 Q255 761 191 831 Q139 887 139 979 Z M471 972 L471 1278 Q471 1370 375 1370 Q280 1370 280 1278 L280 972 Q280 882 374 882 Q471 882 471 972 Z M612 571 L139 571 L139 688 L612 688 L612 571 Z " />
<glyph glyph-name="Omega" unicode="&#x2126;" horiz-adv-x="1559" d="M1487 0 L889 0 L889 152 Q1062 252 1151 365 Q1291 540 1291 777 Q1291 1038 1131 1199 Q990 1339 781 1339 Q570 1339 428 1197 Q268 1035 268 776 Q268 525 424 343 Q511 242 671 152 L671 0 L75 0 L75 165 L460 165 Q366 220 312 267 Q258 314 211 381 Q90 552 90 788 Q90 1094 289 1294 Q486 1491 781 1491 Q1074 1491 1270 1295 Q1469 1096 1469 789 Q1469 537 1332 358 Q1252 255 1102 165 L1487 165 L1487 0 Z " />
<glyph glyph-name="ae" unicode="&#xe6;" horiz-adv-x="1370" d="M1271 352 L1271 304 Q1271 143 1173 56 Q1084 -24 934 -24 Q836 -24 768.5 10.5 Q701 45 648 123 Q559 43 496.5 12.5 Q434 -18 359 -18 Q232 -18 156.5 59 Q81 136 81 264 L81 330 Q81 502 215 600.5 Q349 699 593 706 L593 838 Q593 1007 443 1007 Q363 1007 327.5 968.5 Q292 930 292 842 L292 805 L114 805 L114 847 Q114 1000 204 1080 Q290 1157 442 1157 Q625 1157 699 1040 Q786 1157 942 1157 Q1088 1157 1178 1067 Q1271 973 1271 816 L1271 563 L769 563 L769 304 Q769 229 813 183 Q857 137 930 137 Q1002 137 1046.5 183 Q1091 229 1091 304 L1091 352 L1271 352 Z M1095 706 L1095 831 Q1095 913 1053 958 Q1011 1003 934 1003 Q856 1003 812.5 958 Q769 913 769 831 L769 706 L1095 706 Z M593 233 L593 563 Q265 555 265 334 L265 284 Q265 213 302 173.5 Q339 134 405 134 Q486 134 593 233 Z " />
<glyph glyph-name="oslash" unicode="&#xf8;" horiz-adv-x="902" d="M891 1137 Q855 1087 811 1023 L790 992 L776 972 Q803 906 803 827 L803 319 Q803 151 702 59 Q610 -24 451 -24 Q286 -24 182 79 L92 -66 L11 -11 Q54 47 95 105 L118 138 L132 158 Q99 231 99 319 L99 827 Q99 969 188 1060 Q286 1159 451 1159 Q622 1159 726 1056 L735 1072 Q763 1118 783 1149 Q801 1177 809 1190 L891 1137 Z M611 889 Q579 994 454 994 Q376 994 330 947.5 Q284 901 284 823 L284 394 L611 889 Z M293 233 Q325 141 450 141 Q618 141 618 310 L618 724 L293 233 Z " />
<glyph glyph-name="questiondown" unicode="&#xbf;" horiz-adv-x="866" d="M543 1220 L347 1220 L347 1464 L543 1464 L543 1220 Z M730 378 L730 297 Q730 -26 395 -26 Q226 -26 149 59 Q77 138 77 299 L77 343 Q77 431 107 505.5 Q137 580 215 686 Q295 794 322.5 865 Q350 936 350 1034 L350 1104 L537 1104 L537 1009 Q537 910 503.5 826 Q470 742 383 619 Q313 521 288.5 464 Q264 407 264 345 L264 316 Q264 230 280 193 Q308 128 401 128 Q480 128 515 169 Q550 210 550 304 L547 378 L730 378 Z " />
<glyph glyph-name="exclamdown" unicode="&#xa1;" horiz-adv-x="510" d="M310 1223 L114 1223 L114 1467 L310 1467 L310 1223 Z M303 0 L116 0 L136 1069 L288 1069 L303 0 Z " />
<glyph glyph-name="logicalnot" unicode="&#xac;" horiz-adv-x="1100" d="M1025 0 L847 0 L847 477 L75 477 L75 642 L1025 642 L1025 0 Z " />
<glyph glyph-name="radical" unicode="&#x221a;" horiz-adv-x="1425" d="M1420 1588 L991 1588 L591 0 L365 0 L191 649 L4 649 L4 814 L338 814 Q411 564 472 238 L486 238 Q559 588 629 878 Q675 1078 732 1316 Q790 1554 839 1753 L1420 1753 L1420 1588 Z " />
<glyph glyph-name="florin" unicode="&#x192;" horiz-adv-x="981" d="M886 1515 L853 1372 Q809 1385 752 1385 Q586 1385 563 1211 L527 945 L776 945 L758 804 L508 804 L351 -387 L167 -387 L323 804 L114 804 L132 945 L343 945 L378 1215 Q419 1530 728 1530 Q811 1530 886 1515 Z " />
<glyph glyph-name="approxequal" unicode="&#x2248;" horiz-adv-x="1100" d="M1069 926 Q940 671 754 671 Q676 671 537 742 Q458 782 413.5 796.5 Q369 811 326 811 Q268 811 224.5 778 Q181 745 132 664 L31 726 Q92 838 134 886 Q220 985 336 985 Q415 985 555 915 Q636 874 681 859.5 Q726 845 771 845 Q874 845 963 987 L1069 926 Z M1069 510 Q940 255 754 255 Q709 255 663 270 Q617 285 537 326 Q458 367 413.5 381.5 Q369 396 326 396 Q271 396 227.5 363 Q184 330 132 248 L31 310 Q93 424 134 470 Q219 567 336 567 Q415 567 555 497 Q634 458 680 443.5 Q726 429 771 429 Q875 429 963 572 L1069 510 Z " />
<glyph glyph-name="increment" unicode="&#x2206;" horiz-adv-x="1392" d="M1372 0 L20 0 L601 1467 L794 1467 L1372 0 Z M1117 165 L695 1251 L279 165 L1117 165 Z " />
<glyph glyph-name="guillemotleft" unicode="&#xab;" horiz-adv-x="787" d="M713 110 L572 95 L405 565 L577 1036 L713 1018 L574 567 L713 110 Z M392 110 L251 95 L84 565 L255 1036 L392 1018 L253 567 L392 110 Z " />
<glyph glyph-name="guillemotright" unicode="&#xbb;" horiz-adv-x="787" d="M704 565 L535 95 L396 110 L537 565 L396 1018 L535 1034 L704 565 Z M383 565 L214 95 L75 110 L214 565 L75 1018 L214 1034 L383 565 Z " />
<glyph glyph-name="ellipsis" unicode="&#x2026;" horiz-adv-x="1245" d="M1135 0 L942 0 L942 244 L1135 244 L1135 0 Z M722 0 L526 0 L526 244 L722 244 L722 0 Z M303 0 L110 0 L110 244 L303 244 L303 0 Z " />
<glyph glyph-name="Agrave" unicode="&#xc0;" horiz-adv-x="954" d="M908 0 L704 0 L624 400 L310 400 L246 0 L46 0 L321 1467 L609 1467 L908 0 Z M598 556 Q537 871 464 1335 L448 1241 Q370 746 332 556 L598 556 Z M543 1545 L376 1545 L191 1826 L413 1826 L543 1545 Z " />
<glyph glyph-name="Atilde" unicode="&#xc3;" horiz-adv-x="954" d="M908 0 L704 0 L624 400 L310 400 L246 0 L46 0 L321 1467 L609 1467 L908 0 Z M598 556 Q537 871 464 1335 L448 1241 Q370 746 332 556 L598 556 Z M754 1669 Q650 1566 563 1566 Q521 1566 445 1600 Q382 1629 353 1629 Q313 1629 259 1566 L169 1665 Q262 1781 355 1781 Q392 1781 461 1749 Q527 1718 563 1718 Q599 1718 675 1781 L754 1669 Z " />
<glyph glyph-name="Otilde" unicode="&#xd5;" horiz-adv-x="1012" d="M119 376 L119 1076 Q119 1295 237 1402 Q334 1491 506 1491 Q697 1491 796 1380 Q893 1271 893 1062 L893 372 Q893 175 776 68 Q675 -24 503 -24 Q314 -24 213 88 Q119 193 119 376 Z M702 374 L702 1058 Q702 1322 505 1322 Q411 1322 360.5 1264 Q310 1206 310 1098 L310 381 Q310 148 504 148 Q597 148 650 206 Q702 264 702 374 Z M785 1669 Q681 1566 594 1566 Q552 1566 476 1600 Q413 1629 384 1629 Q344 1629 290 1566 L200 1665 Q293 1781 386 1781 Q423 1781 492 1749 Q558 1718 594 1718 Q630 1718 706 1781 L785 1669 Z " />
<glyph glyph-name="OE" unicode="&#x152;" horiz-adv-x="1322" d="M1278 0 L678 0 L678 75 Q553 -22 415 -22 Q245 -22 175 99 Q119 196 119 418 L119 1093 Q119 1489 411 1489 Q530 1489 678 1395 L678 1467 L1267 1467 L1267 1309 L874 1309 L874 840 L1229 840 L1229 682 L874 682 L874 158 L1278 158 L1278 0 Z M678 220 L678 1236 Q569 1329 467 1329 Q312 1329 312 1135 L312 360 Q312 134 472 134 Q563 134 678 220 Z " />
<glyph glyph-name="oe" unicode="&#x153;" horiz-adv-x="1401" d="M1302 350 L1302 301 Q1302 143 1204 55 Q1116 -24 974 -24 Q816 -24 713 92 Q612 -24 445 -24 Q286 -24 192 70 Q99 163 99 319 L99 825 Q99 967 190 1058 Q290 1157 454 1157 Q629 1157 713 1045 Q805 1157 971 1157 Q1119 1157 1209 1067 Q1302 973 1302 816 L1302 524 L801 524 L801 304 Q801 230 846 183.5 Q891 137 963 137 Q1038 137 1078.5 176 Q1119 215 1119 286 L1119 350 L1302 350 Z M1126 671 L1126 832 Q1126 913 1084 958 Q1042 1003 965 1003 Q887 1003 844 958 Q801 913 801 832 L801 671 L1126 671 Z M618 310 L618 821 Q618 899 572 946.5 Q526 994 451 994 Q376 994 330 946.5 Q284 899 284 821 L284 310 Q284 230 328 185.5 Q372 141 451 141 Q530 141 574 185.5 Q618 230 618 310 Z " />
<glyph glyph-name="endash" unicode="&#x2013;" horiz-adv-x="673" d="M673 519 L0 519 L0 697 L673 697 L673 519 Z " />
<glyph glyph-name="emdash" unicode="&#x2014;" horiz-adv-x="1106" d="M1106 519 L0 519 L0 697 L1106 697 L1106 519 Z " />
<glyph glyph-name="quotedblleft" unicode="&#x201c;" horiz-adv-x="734" d="M637 1508 L545 1225 L613 1225 L613 983 L417 983 L417 1216 L560 1508 L637 1508 Z M331 1508 L241 1225 L307 1225 L307 983 L114 983 L114 1216 L254 1508 L331 1508 Z " />
<glyph glyph-name="quotedblright" unicode="&#x201d;" horiz-adv-x="732" d="M620 1277 L477 983 L402 983 L492 1266 L424 1266 L424 1508 L620 1508 L620 1277 Z M317 1277 L174 983 L99 983 L189 1266 L121 1266 L121 1508 L317 1508 L317 1277 Z " />
<glyph glyph-name="quoteleft" unicode="&#x2018;" horiz-adv-x="429" d="M329 1511 L241 1227 L307 1227 L307 983 L114 983 L114 1216 L254 1511 L329 1511 Z " />
<glyph glyph-name="quoteright" unicode="&#x2019;" horiz-adv-x="429" d="M317 1277 L174 983 L99 983 L189 1266 L121 1266 L121 1508 L317 1508 L317 1277 Z " />
<glyph glyph-name="divide" unicode="&#xf7;" horiz-adv-x="1097" d="M646 827 L452 827 L452 1049 L646 1049 L646 827 Z M1024 499 L72 499 L72 664 L1024 664 L1024 499 Z M646 112 L452 112 L452 334 L646 334 L646 112 Z " />
<glyph glyph-name="lozenge" unicode="&#x25ca;" horiz-adv-x="1192" d="M1161 732 L598 -57 L31 732 L598 1524 L1161 732 Z M963 732 L951 748 Q615 1198 598 1275 Q571 1205 502.5 1104 Q434 1003 243 752 L229 732 L475 405 Q580 265 598 198 Q613 247 728 407 L963 732 Z " />
<glyph glyph-name="ydieresis" unicode="&#xff;" horiz-adv-x="869" d="M816 1135 L499 -131 Q461 -284 404 -352 Q324 -448 162 -448 Q113 -448 55 -437 L55 -288 Q107 -296 138 -296 Q214 -296 252.5 -257.5 Q291 -219 312 -123 L345 25 L53 1135 L246 1135 Q332 750 440 223 Q543 748 631 1135 L816 1135 Z M702 1289 L509 1289 L509 1513 L702 1513 L702 1289 Z M367 1289 L174 1289 L174 1513 L367 1513 L367 1289 Z " />
<glyph glyph-name="Ydieresis" unicode="&#x178;" horiz-adv-x="950" d="M911 1467 L573 600 L573 0 L379 0 L379 600 L40 1467 L233 1467 L372 1082 Q381 1057 386 1043 Q452 862 476 750 Q479 781 507 862 L513 880 L586 1091 L718 1467 L911 1467 Z M737 1577 L640 1577 L544 1577 L544 1786 L737 1786 L737 1577 Z M402 1577 L306 1577 L209 1577 L209 1786 L402 1786 L402 1577 Z " />
<glyph glyph-name="fraction" unicode="&#x2044;" horiz-adv-x="286" d="M572 1482 L-154 -15 L-286 -15 L440 1482 L572 1482 Z " />
<glyph glyph-name="Euro" unicode="&#x20ac;" horiz-adv-x="1165" d="M1154 1275 L1000 1196 Q906 1353 740 1353 Q597 1353 513 1258.5 Q429 1164 391 963 L857 963 L857 825 L376 825 Q373 766 373 675 L373 660 L857 660 L857 521 L384 521 Q408 363 457 276 Q550 114 742 114 Q903 114 998 248 L1139 147 Q1064 54 969.5 11.5 Q875 -31 740 -31 Q503 -31 363 105 Q292 176 252.5 269.5 Q213 363 189 521 L15 521 L15 660 L180 660 L180 673 Q180 766 182 825 L15 825 L15 963 L200 963 Q239 1153 311 1266 Q458 1498 742 1498 Q881 1498 978.5 1445 Q1076 1392 1154 1275 Z " />
<glyph glyph-name="guilsinglleft" unicode="&#x2039;" horiz-adv-x="466" d="M392 110 L251 95 L84 565 L255 1036 L392 1018 L253 567 L392 110 Z " />
<glyph glyph-name="guilsinglright" unicode="&#x203a;" horiz-adv-x="466" d="M383 565 L214 95 L75 110 L214 565 L75 1018 L214 1034 L383 565 Z " />
<glyph glyph-name="fi" unicode="&#xfb01;" horiz-adv-x="1042" d="M673 1542 L659 1386 Q587 1401 535 1401 Q453 1401 420 1363.5 Q387 1326 387 1232 L387 1135 L611 1135 L611 985 L389 985 L389 0 L204 0 L204 985 L33 985 L33 1135 L204 1135 L204 1232 Q204 1557 512 1557 Q592 1557 673 1542 Z M924 0 L739 0 L739 1135 L924 1135 L924 0 Z M928 1302 L735 1302 L735 1511 L928 1511 L928 1302 Z " />
<glyph glyph-name="fl" unicode="&#xfb02;" horiz-adv-x="1042" d="M673 1542 L659 1386 Q587 1401 535 1401 Q453 1401 420 1363.5 Q387 1326 387 1232 L387 1135 L611 1135 L611 985 L389 985 L389 0 L204 0 L204 985 L33 985 L33 1135 L204 1135 L204 1232 Q204 1557 512 1557 Q592 1557 673 1542 Z M926 0 L741 0 L741 1513 L926 1513 L926 0 Z " />
<glyph glyph-name="daggerdbl" unicode="&#x2021;" horiz-adv-x="981" d="M888 356 L578 356 L578 -46 L402 -46 L402 356 L92 356 L92 523 L402 523 L402 939 L92 939 L92 1106 L402 1106 L402 1511 L578 1511 L578 1106 L888 1106 L888 939 L578 939 L578 523 L888 523 L888 356 Z " />
<glyph glyph-name="periodcentered" unicode="&#xb7;" horiz-adv-x="413" d="M303 486 L110 486 L110 730 L303 730 L303 486 Z " />
<glyph glyph-name="quotesinglbase" unicode="&#x201a;" horiz-adv-x="429" d="M317 9 L300 -26 L272 -82 Q214 -199 174 -284 L99 -284 L189 0 L121 0 L121 244 L317 244 L317 9 Z " />
<glyph glyph-name="quotedblbase" unicode="&#x201e;" horiz-adv-x="734" d="M620 9 Q538 -155 477 -284 L402 -284 L492 0 L424 0 L424 244 L620 244 L620 9 Z M317 9 L300 -26 L272 -82 Q214 -199 174 -284 L99 -284 L189 0 L121 0 L121 244 L317 244 L317 9 Z " />
<glyph glyph-name="perthousand" unicode="&#x2030;" horiz-adv-x="2089" d="M1531 207 L1531 664 Q1531 770 1592 828 Q1653 886 1765 886 Q1996 886 1996 655 L1996 202 Q1996 96 1935.5 39 Q1875 -18 1762 -18 Q1652 -18 1591.5 41 Q1531 100 1531 207 Z M1862 191 L1862 655 Q1862 710 1836 741 Q1810 772 1763 772 Q1667 772 1667 664 L1667 209 Q1667 96 1763 96 Q1808 96 1835 122 Q1862 148 1862 191 Z M932 207 L932 664 Q932 769 994 827.5 Q1056 886 1167 886 Q1398 886 1398 655 L1398 202 Q1398 96 1337.5 39 Q1277 -18 1163 -18 Q1054 -18 993 41 Q932 100 932 207 Z M1264 191 L1264 655 Q1264 772 1165 772 Q1068 772 1068 664 L1068 209 Q1068 96 1166 96 Q1210 96 1237 122 Q1264 148 1264 191 Z M1176 1482 L450 -15 L319 -15 L1046 1482 L1176 1482 Z M92 805 L92 1265 Q92 1371 152.5 1429 Q213 1487 325 1487 Q556 1487 556 1256 L556 801 Q556 694 496 637.5 Q436 581 323 581 Q214 581 153 640 Q92 699 92 805 Z M422 792 L422 1256 Q422 1371 321 1371 Q226 1371 226 1265 L226 807 Q226 697 322 697 Q368 697 395 723 Q422 749 422 792 Z " />
<glyph glyph-name="Acircumflex" unicode="&#xc2;" horiz-adv-x="954" d="M908 0 L704 0 L624 400 L310 400 L246 0 L46 0 L321 1467 L609 1467 L908 0 Z M598 556 Q537 871 464 1335 L448 1241 Q370 746 332 556 L598 556 Z M728 1546 L569 1546 L464 1724 L352 1546 L200 1546 L365 1825 L567 1825 L728 1546 Z " />
<glyph glyph-name="Ecircumflex" unicode="&#xca;" horiz-adv-x="818" d="M774 0 L132 0 L132 1467 L752 1467 L752 1309 L325 1309 L325 840 L701 840 L701 682 L325 682 L325 158 L774 158 L774 0 Z M700 1546 L541 1546 L436 1724 L324 1546 L172 1546 L337 1825 L539 1825 L700 1546 Z " />
<glyph glyph-name="Aacute" unicode="&#xc1;" horiz-adv-x="954" d="M908 0 L704 0 L624 400 L310 400 L246 0 L46 0 L321 1467 L609 1467 L908 0 Z M598 556 Q537 871 464 1335 L448 1241 Q370 746 332 556 L598 556 Z M715 1826 L531 1545 L363 1545 L493 1826 L715 1826 Z " />
<glyph glyph-name="Edieresis" unicode="&#xcb;" horiz-adv-x="818" d="M774 0 L132 0 L132 1467 L752 1467 L752 1309 L325 1309 L325 840 L701 840 L701 682 L325 682 L325 158 L774 158 L774 0 Z M706 1577 L609 1577 L513 1577 L513 1786 L706 1786 L706 1577 Z M371 1577 L275 1577 L178 1577 L178 1786 L371 1786 L371 1577 Z " />
<glyph glyph-name="Egrave" unicode="&#xc8;" horiz-adv-x="818" d="M774 0 L132 0 L132 1467 L752 1467 L752 1309 L325 1309 L325 840 L701 840 L701 682 L325 682 L325 158 L774 158 L774 0 Z M563 1545 L396 1545 L211 1826 L433 1826 L563 1545 Z " />
<glyph glyph-name="Iacute" unicode="&#xcd;" horiz-adv-x="475" d="M334 0 L143 0 L143 1467 L334 1467 L334 0 Z M495 1826 L311 1545 L143 1545 L273 1826 L495 1826 Z " />
<glyph glyph-name="Icircumflex" unicode="&#xce;" horiz-adv-x="477" d="M334 0 L143 0 L143 1467 L334 1467 L334 0 Z M502 1546 L343 1546 L238 1724 L126 1546 L-26 1546 L139 1825 L341 1825 L502 1546 Z " />
<glyph glyph-name="Idieresis" unicode="&#xcf;" horiz-adv-x="477" d="M334 0 L143 0 L143 1467 L334 1467 L334 0 Z M483 1577 L300 1577 L300 1786 L483 1786 L483 1577 Z M176 1577 L-7 1577 L-7 1786 L176 1786 L176 1577 Z " />
<glyph glyph-name="Igrave" unicode="&#xcc;" horiz-adv-x="475" d="M334 0 L143 0 L143 1467 L334 1467 L334 0 Z M332 1545 L165 1545 L-20 1826 L202 1826 L332 1545 Z " />
<glyph glyph-name="Oacute" unicode="&#xd3;" horiz-adv-x="1012" d="M119 376 L119 1076 Q119 1295 237 1402 Q334 1491 506 1491 Q697 1491 796 1380 Q893 1271 893 1062 L893 372 Q893 175 776 68 Q675 -24 503 -24 Q314 -24 213 88 Q119 193 119 376 Z M702 374 L702 1058 Q702 1322 505 1322 Q411 1322 360.5 1264 Q310 1206 310 1098 L310 381 Q310 148 504 148 Q597 148 650 206 Q702 264 702 374 Z M748 1826 L564 1545 L396 1545 L526 1826 L748 1826 Z " />
<glyph glyph-name="Ocircumflex" unicode="&#xd4;" horiz-adv-x="1012" d="M119 376 L119 1076 Q119 1295 237 1402 Q334 1491 506 1491 Q697 1491 796 1380 Q893 1271 893 1062 L893 372 Q893 175 776 68 Q675 -24 503 -24 Q314 -24 213 88 Q119 193 119 376 Z M702 374 L702 1058 Q702 1322 505 1322 Q411 1322 360.5 1264 Q310 1206 310 1098 L310 381 Q310 148 504 148 Q597 148 650 206 Q702 264 702 374 Z M766 1546 L607 1546 L502 1724 L390 1546 L238 1546 L403 1825 L605 1825 L766 1546 Z " />
<glyph glyph-name="Ograve" unicode="&#xd2;" horiz-adv-x="1012" d="M119 376 L119 1076 Q119 1295 237 1402 Q334 1491 506 1491 Q697 1491 796 1380 Q893 1271 893 1062 L893 372 Q893 175 776 68 Q675 -24 503 -24 Q314 -24 213 88 Q119 193 119 376 Z M702 374 L702 1058 Q702 1322 505 1322 Q411 1322 360.5 1264 Q310 1206 310 1098 L310 381 Q310 148 504 148 Q597 148 650 206 Q702 264 702 374 Z M623 1545 L456 1545 L271 1826 L493 1826 L623 1545 Z " />
<glyph glyph-name="Uacute" unicode="&#xda;" horiz-adv-x="1027" d="M895 1467 L895 365 Q895 -24 515 -24 Q132 -24 132 365 L132 1467 L323 1467 L323 385 Q323 293 345 241 Q386 145 514 145 Q612 145 658 203 Q704 261 704 385 L704 1467 L895 1467 Z M725 1826 L541 1545 L373 1545 L503 1826 L725 1826 Z " />
<glyph glyph-name="Ucircumflex" unicode="&#xdb;" horiz-adv-x="1027" d="M895 1467 L895 365 Q895 -24 515 -24 Q132 -24 132 365 L132 1467 L323 1467 L323 385 Q323 293 345 241 Q386 145 514 145 Q612 145 658 203 Q704 261 704 385 L704 1467 L895 1467 Z M770 1546 L611 1546 L506 1724 L394 1546 L242 1546 L407 1825 L609 1825 L770 1546 Z " />
<glyph glyph-name="Ugrave" unicode="&#xd9;" horiz-adv-x="1027" d="M895 1467 L895 365 Q895 -24 515 -24 Q132 -24 132 365 L132 1467 L323 1467 L323 385 Q323 293 345 241 Q386 145 514 145 Q612 145 658 203 Q704 261 704 385 L704 1467 L895 1467 Z M623 1545 L456 1545 L271 1826 L493 1826 L623 1545 Z " />
<glyph glyph-name="dotlessi" unicode="&#x131;" horiz-adv-x="418" d="M302 0 L117 0 L117 1135 L302 1135 L302 0 Z " />
<glyph glyph-name="circumflex" unicode="&#x2c6;" horiz-adv-x="1100" d="M814 1242 L655 1242 L550 1420 L438 1242 L286 1242 L451 1522 L653 1522 L814 1242 Z " />
<glyph glyph-name="tilde" unicode="&#x2dc;" horiz-adv-x="1100" d="M842 1397 Q738 1293 651 1293 Q608 1293 533 1328 Q470 1357 441 1357 Q401 1357 347 1293 L257 1392 Q350 1509 443 1509 Q481 1509 550 1476 Q616 1445 650 1445 Q692 1445 763 1509 L842 1397 Z " />
<glyph glyph-name="overscore" unicode="&#xaf;" horiz-adv-x="1099" d="M793 1335 L306 1335 L306 1484 L793 1484 L793 1335 Z " />
<glyph glyph-name="breve" unicode="&#x2d8;" horiz-adv-x="1100" d="M807 1513 Q799 1399 739 1340 Q669 1271 551 1271 Q434 1271 366.5 1334 Q299 1397 292 1513 L417 1513 Q425 1457 460.5 1425.5 Q496 1394 552 1394 Q670 1394 681 1513 L807 1513 Z " />
<glyph glyph-name="dotaccent" unicode="&#x2d9;" horiz-adv-x="1100" d="M646 1302 L453 1302 L453 1511 L646 1511 L646 1302 Z " />
<glyph glyph-name="ring" unicode="&#x2da;" horiz-adv-x="1100" d="M549 1579 Q626 1579 678 1530 Q730 1481 730 1409 Q730 1334 678.5 1285 Q627 1236 549 1236 Q472 1236 420.5 1285 Q369 1334 369 1407 Q369 1481 420.5 1530 Q472 1579 549 1579 Z M549 1487 Q515 1487 492.5 1464.5 Q470 1442 470 1408 Q470 1374 493 1351 Q516 1328 549 1328 Q581 1328 605 1351.5 Q629 1375 629 1407 Q629 1440 605.5 1463.5 Q582 1487 549 1487 Z " />
<glyph glyph-name="cedilla" unicode="&#xb8;" horiz-adv-x="1100" d="M581 -106 Q750 -114 750 -245 Q750 -418 508 -418 Q445 -418 350 -394 L363 -290 Q436 -312 487 -312 Q598 -312 598 -250 Q598 -187 489 -187 Q475 -187 440 -191 L528 13 L636 13 L581 -106 Z " />
<glyph glyph-name="hungarumlaut" unicode="&#x2dd;" horiz-adv-x="1100" d="M855 1524 L679 1245 L534 1245 L662 1524 L855 1524 Z M567 1524 L389 1245 L244 1245 L372 1524 L567 1524 Z " />
<glyph glyph-name="ogonek" unicode="&#x2db;" horiz-adv-x="1100" d="M765 -369 L743 -373 Q628 -394 574 -394 Q462 -394 398 -346 Q334 -298 334 -214 Q334 -78 499 13 L692 13 Q488 -45 488 -170 Q488 -260 607 -260 Q645 -260 734 -240 L765 -369 Z " />
<glyph glyph-name="caron" unicode="&#x2c7;" horiz-adv-x="1100" d="M814 1524 L649 1245 L447 1245 L286 1524 L444 1524 L550 1346 L662 1524 L814 1524 Z " />
<glyph glyph-name="nbspace" unicode="&#xa0;" horiz-adv-x="427" d="" />
<glyph glyph-name="currency" unicode="&#xa4;" horiz-adv-x="1357" d="M1293 235 L1185 126 L978 332 Q824 229 678 229 Q533 229 380 330 L174 126 L65 235 L272 440 Q170 587 170 732 Q170 873 270 1026 L61 1234 L172 1343 L380 1139 Q534 1240 680 1240 Q822 1240 974 1139 L1181 1343 L1290 1234 L1087 1026 Q1187 872 1187 732 Q1187 598 1087 440 L1293 235 Z M682 1064 Q540 1064 443 966 Q350 872 350 734 Q350 597 446 501 Q542 405 678 405 Q814 405 910 501 Q1007 597 1007 733 Q1007 843 944 928 Q845 1064 682 1064 Z " />
<glyph glyph-name="brokenbar" unicode="&#xa6;" horiz-adv-x="1100" d="M642 840 L457 840 L457 1467 L642 1467 L642 840 Z M642 -438 L457 -438 L457 193 L642 193 L642 -438 Z " />
<glyph glyph-name="uni00AD" unicode="&#xad;" horiz-adv-x="451" d="M451 519 L0 519 L0 697 L451 697 L451 519 Z " />
<glyph glyph-name="twosuperior" unicode="&#xb2;" horiz-adv-x="682" d="M603 625 L77 625 L77 700 Q77 780 124 859.5 Q171 939 288 1057 Q376 1145 410.5 1198.5 Q445 1252 445 1299 Q445 1403 342 1403 Q284 1403 261 1372.5 Q238 1342 238 1267 L238 1227 L90 1227 L90 1297 Q90 1402 159 1463 Q228 1524 351 1524 Q590 1524 590 1308 L590 1280 Q590 1216 548 1148 Q506 1080 394 965 Q310 879 282.5 841 Q255 803 238 750 L603 750 L603 625 Z " />
<glyph glyph-name="threesuperior" unicode="&#xb3;" horiz-adv-x="682" d="M494 1101 Q602 1056 602 934 L602 833 Q602 613 338 613 Q194 613 133 680 Q81 738 81 857 L81 910 L231 910 L231 875 L231 874 L231 873 L231 871 L231 870 Q231 793 255 762.5 Q279 732 342 732 Q403 732 427.5 759.5 Q452 787 452 857 L452 858 L452 860 L452 863 L452 864 L452 914 Q452 983 418 1010.5 Q384 1038 296 1038 L246 1038 L246 1150 L286 1150 Q368 1150 403.5 1172 Q439 1194 439 1245 L439 1317 Q439 1407 339 1407 Q285 1407 263.5 1382.5 Q242 1358 242 1297 L242 1251 L92 1251 L92 1315 Q92 1435 187 1489 Q253 1526 344 1526 Q434 1526 497 1490 Q589 1437 589 1326 L589 1245 Q589 1150 494 1101 Z " />
<glyph glyph-name="onesuperior" unicode="&#xb9;" horiz-adv-x="682" d="M589 625 L112 625 L112 750 L281 750 L281 1359 L147 1306 L92 1421 L303 1511 L431 1511 L431 750 L589 750 L589 625 Z " />
<glyph glyph-name="onequarter" unicode="&#xbc;" horiz-adv-x="1623" d="M1522 237 L1412 237 L1412 0 L1262 0 L1262 237 L928 237 L928 345 L1209 888 L1412 888 L1412 360 L1522 360 L1522 237 Z M1273 771 L1262 771 Q1236 689 1206.5 625.5 Q1177 562 1073 358 L1260 358 L1260 359 L1260 360 L1260 362 Q1260 603 1273 771 Z M1301 1482 L576 -15 L444 -15 L1170 1482 L1301 1482 Z M589 579 L110 579 L110 704 L281 704 L281 1315 L145 1263 L90 1377 L301 1467 L428 1467 L428 704 L589 704 L589 579 Z " />
<glyph glyph-name="onehalf" unicode="&#xbd;" horiz-adv-x="1623" d="M1543 0 L1018 0 L1018 75 Q1018 155 1065 234.5 Q1112 314 1228 432 Q1316 521 1350.5 574.5 Q1385 628 1385 675 Q1385 779 1282 779 Q1225 779 1201.5 748.5 Q1178 718 1178 643 L1178 603 L1031 603 L1031 673 Q1031 779 1099 839 Q1169 900 1291 900 Q1530 900 1530 684 L1530 656 Q1530 592 1487.5 523.5 Q1445 455 1334 341 Q1250 254 1223 216.5 Q1196 179 1178 125 L1543 125 L1543 0 Z M1271 1482 L545 -15 L413 -15 L1139 1482 L1271 1482 Z M569 579 L90 579 L90 704 L261 704 L261 1315 L125 1263 L70 1377 L281 1467 L408 1467 L408 704 L569 704 L569 579 Z " />
<glyph glyph-name="threequarters" unicode="&#xbe;" horiz-adv-x="1623" d="M1521 237 L1411 237 L1411 0 L1261 0 L1261 237 L928 237 L928 345 L1208 888 L1411 888 L1411 360 L1521 360 L1521 237 Z M1272 771 L1261 771 Q1235 690 1206.5 627.5 Q1178 565 1072 358 L1259 358 L1259 359 L1259 360 L1259 362 Q1259 608 1272 771 Z M1295 1482 L569 -15 L437 -15 L1165 1482 L1295 1482 Z M538 1057 Q646 1012 646 890 L646 789 Q646 569 382 569 Q238 569 177 636 Q125 694 125 813 L125 866 L275 866 L275 831 L275 830 L275 829 L275 827 L275 826 Q275 748 299 718 Q323 688 386 688 Q447 688 471.5 715.5 Q496 743 496 813 L496 814 L496 816 L496 819 L496 820 L496 870 Q496 939 462 966.5 Q428 994 340 994 L290 994 L290 1106 L330 1106 Q412 1106 447.5 1128 Q483 1150 483 1200 L483 1273 Q483 1363 383 1363 Q329 1363 307.5 1339 Q286 1315 286 1253 L286 1207 L136 1207 L136 1271 Q136 1391 231 1445 Q296 1482 388 1482 Q478 1482 541 1446 Q633 1393 633 1282 L633 1200 Q633 1106 538 1057 Z " />
<glyph glyph-name="Eth" unicode="&#xd0;" horiz-adv-x="1014" d="M129 1467 L432 1467 Q677 1467 789 1343 Q895 1224 895 968 L895 530 Q895 321 846 211 Q792 89 675 39 Q585 0 445 0 L129 0 L129 695 L4 695 L4 849 L129 849 L129 1467 Z M322 158 L445 158 Q704 158 704 490 L704 1021 Q704 1309 441 1309 L322 1309 L322 849 L538 849 L538 695 L322 695 L322 158 Z " />
<glyph glyph-name="multiply" unicode="&#xd7;" horiz-adv-x="1100" d="M979 270 L855 147 L548 455 L242 150 L125 266 L431 572 L121 882 L244 1005 L554 695 L860 1001 L976 884 L671 578 L979 270 Z " />
<glyph glyph-name="Yacute" unicode="&#xdd;" horiz-adv-x="950" d="M911 1467 L573 600 L573 0 L379 0 L379 600 L40 1467 L233 1467 L372 1082 Q381 1057 386 1043 Q452 862 476 750 Q479 781 507 862 L513 880 L586 1091 L718 1467 L911 1467 Z M714 1826 L530 1545 L362 1545 L492 1826 L714 1826 Z " />
<glyph glyph-name="Thorn" unicode="&#xde;" horiz-adv-x="908" d="M323 344 L323 0 L132 0 L132 1467 L323 1467 L323 1184 L477 1184 Q684 1184 791 1065 Q886 960 886 775 Q886 576 770 459 Q655 344 459 344 L323 344 Z M323 500 L435 500 Q693 500 693 774 Q693 1026 446 1026 L323 1026 L323 500 Z " />
<glyph glyph-name="eth" unicode="&#xf0;" horiz-adv-x="902" d="M572 1392 Q802 1143 803 810 L803 310 Q803 160 712 70 Q616 -24 452 -24 Q273 -24 178 81 Q99 167 99 310 L99 810 Q99 964 214 1046 Q305 1111 434 1111 Q512 1111 578 1080 Q540 1198 438 1311 L260 1203 L202 1298 L357 1390 Q291 1444 154 1502 L211 1606 Q370 1557 482 1469 L658 1575 L717 1480 L572 1392 Z M618 312 L618 783 Q618 861 572 908 Q526 955 451 955 Q377 955 330.5 907 Q284 859 284 783 L284 312 Q284 231 328 186 Q372 141 452 141 Q618 141 618 312 Z " />
<glyph glyph-name="yacute" unicode="&#xfd;" horiz-adv-x="869" d="M816 1135 L499 -131 Q461 -284 404 -352 Q324 -448 162 -448 Q113 -448 55 -437 L55 -288 Q107 -296 138 -296 Q214 -296 252.5 -257.5 Q291 -219 312 -123 L345 25 L53 1135 L246 1135 Q332 750 440 223 Q543 748 631 1135 L816 1135 Z M672 1524 L487 1243 L320 1243 L450 1524 L672 1524 Z " />
<glyph glyph-name="thorn" unicode="&#xfe;" horiz-adv-x="908" d="M295 1047 Q424 1153 549 1153 Q696 1153 765 1032 Q809 954 809 851 L809 310 Q809 -18 554 -18 Q425 -18 295 92 L295 -438 L110 -438 L110 1513 L295 1513 L295 1047 Z M295 240 Q398 151 487 151 Q624 151 624 334 L624 816 Q624 986 490 986 Q399 986 295 897 L295 240 Z " />
<glyph glyph-name="Amacron" unicode="&#x100;" horiz-adv-x="955" d="M908 0 L704 0 L624 400 L310 400 L246 0 L46 0 L321 1467 L609 1467 L908 0 Z M598 556 Q537 871 464 1335 L448 1241 Q370 746 332 556 L598 556 Z M709 1601 L222 1601 L222 1750 L709 1750 L709 1601 Z " />
<glyph glyph-name="amacron" unicode="&#x101;" horiz-adv-x="884" d="M780 0 L610 0 L606 95 Q491 -13 361 -13 Q234 -13 158.5 63.5 Q83 140 83 268 L83 330 Q83 532 278 628 Q385 681 595 706 L595 853 Q595 1009 448 1009 Q363 1009 328.5 963 Q294 917 294 805 L116 805 L116 842 Q116 1159 456 1159 Q780 1159 780 860 L780 0 Z M595 233 L595 574 Q441 551 373 512 Q267 451 267 334 L267 288 Q267 139 407 139 Q497 139 595 233 Z M697 1335 L210 1335 L210 1484 L697 1484 L697 1335 Z " />
<glyph glyph-name="Abreve" unicode="&#x102;" horiz-adv-x="955" d="M908 0 L704 0 L624 400 L310 400 L246 0 L46 0 L321 1467 L609 1467 L908 0 Z M598 556 Q537 871 464 1335 L448 1241 Q370 746 332 556 L598 556 Z M718 1803 Q711 1688 649 1629 Q580 1561 462 1561 Q345 1561 277.5 1624 Q210 1687 203 1803 L328 1803 Q336 1746 371.5 1715 Q407 1684 463 1684 Q578 1684 592 1803 L718 1803 Z " />
<glyph glyph-name="abreve" unicode="&#x103;" horiz-adv-x="884" d="M778 0 L608 0 L604 95 Q489 -13 359 -13 Q232 -13 156.5 63.5 Q81 140 81 268 L81 330 Q81 532 276 628 Q383 681 593 706 L593 853 Q593 1009 446 1009 Q361 1009 326.5 963 Q292 917 292 805 L114 805 L114 842 Q114 1159 454 1159 Q778 1159 778 860 L778 0 Z M593 233 L593 574 Q439 551 371 512 Q265 451 265 334 L265 288 Q265 139 405 139 Q495 139 593 233 Z M713 1513 Q705 1399 645 1340 Q575 1271 457 1271 Q340 1271 272.5 1334 Q205 1397 198 1513 L323 1513 Q331 1457 366.5 1425.5 Q402 1394 458 1394 Q576 1394 587 1513 L713 1513 Z " />
<glyph glyph-name="Aogonek" unicode="&#x104;" horiz-adv-x="955" d="M1017 -369 Q880 -394 823 -394 Q715 -394 651.5 -345.5 Q588 -297 588 -214 Q588 -87 729 0 L704 0 L626 400 L309 400 L247 0 L47 0 L322 1467 L610 1467 L909 0 Q742 -66 742 -173 Q742 -260 858 -260 Q897 -260 986 -239 L1017 -369 Z M599 556 Q547 818 465 1335 Q434 1142 352 677 L331 556 L599 556 Z " />
<glyph glyph-name="aogonek" unicode="&#x105;" horiz-adv-x="884" d="M889 -369 Q749 -394 694 -394 Q588 -394 524.5 -345.5 Q461 -297 461 -215 Q461 -85 610 6 L606 95 Q491 -13 358 -13 Q235 -13 159 63 Q83 139 83 268 L83 330 Q84 646 595 705 L595 853 Q595 1010 447 1010 Q363 1010 328.5 964 Q294 918 293 805 L115 805 L115 842 Q115 1159 455 1159 Q779 1159 779 860 L779 0 L775 0 Q614 -63 614 -171 Q614 -260 729 -260 Q765 -260 859 -239 L889 -369 Z M595 233 L595 574 Q467 555 400 525 Q267 467 267 334 L267 288 Q267 138 405 138 Q494 138 595 233 Z " />
<glyph glyph-name="Cacute" unicode="&#x106;" horiz-adv-x="986" d="M897 508 L897 354 Q897 -22 508 -22 Q132 -22 132 370 L132 1093 Q132 1299 247 1403 Q343 1491 511 1491 Q703 1491 804 1381 Q884 1294 884 1150 L884 983 L695 983 L695 1075 Q695 1179 673 1231 Q634 1321 514 1321 Q325 1321 325 1115 L325 392 Q325 147 519 147 Q617 147 660 206.5 Q703 266 703 400 L703 508 L897 508 Z M749 1827 L565 1546 L397 1546 L527 1827 L749 1827 Z " />
<glyph glyph-name="cacute" unicode="&#x107;" horiz-adv-x="842" d="M765 393 L765 292 Q765 136 672 53 Q586 -25 431 -25 Q261 -25 172 74 Q92 163 92 320 L92 832 Q92 976 181 1065 Q275 1158 429 1158 Q592 1158 683 1058 Q758 975 758 846 L758 753 L573 753 L573 808 Q573 993 429 993 Q277 993 277 802 L277 342 Q277 235 313.5 186.5 Q350 138 431 138 Q511 138 545.5 183.5 Q580 229 580 336 L580 393 L765 393 Z M638 1524 L453 1243 L286 1243 L416 1524 L638 1524 Z " />
<glyph glyph-name="Ccircumflex" unicode="&#x108;" horiz-adv-x="985" d="M897 508 L897 354 Q897 -22 508 -22 Q132 -22 132 370 L132 1093 Q132 1299 247 1403 Q343 1491 511 1491 Q703 1491 804 1381 Q884 1294 884 1150 L884 983 L695 983 L695 1075 Q695 1179 673 1231 Q634 1321 514 1321 Q325 1321 325 1115 L325 392 Q325 147 519 147 Q617 147 660 206.5 Q703 266 703 400 L703 508 L897 508 Z M779 1546 L620 1546 L515 1724 L403 1546 L251 1546 L416 1825 L618 1825 L779 1546 Z " />
<glyph glyph-name="ccircumflex" unicode="&#x109;" horiz-adv-x="842" d="M765 394 L765 293 Q765 137 672 54 Q586 -24 431 -24 Q261 -24 172 75 Q92 164 92 321 L92 833 Q92 977 181 1066 Q275 1159 429 1159 Q592 1159 683 1059 Q758 976 758 847 L758 754 L573 754 L573 809 Q573 994 429 994 Q277 994 277 803 L277 343 Q277 236 313.5 187.5 Q350 139 431 139 Q511 139 545.5 184.5 Q580 230 580 337 L580 394 L765 394 Z M692 1242 L533 1242 L428 1420 L316 1242 L164 1242 L329 1522 L531 1522 L692 1242 Z " />
<glyph glyph-name="Cdotaccent" unicode="&#x10a;" horiz-adv-x="985" d="M897 508 L897 354 Q897 -22 508 -22 Q132 -22 132 370 L132 1093 Q132 1299 247 1403 Q343 1491 511 1491 Q703 1491 804 1381 Q884 1294 884 1150 L884 983 L695 983 L695 1075 Q695 1179 673 1231 Q634 1321 514 1321 Q325 1321 325 1115 L325 392 Q325 147 519 147 Q617 147 660 206.5 Q703 266 703 400 L703 508 L897 508 Z M608 1588 L415 1588 L415 1797 L608 1797 L608 1588 Z " />
<glyph glyph-name="cdotaccent" unicode="&#x10b;" horiz-adv-x="842" d="M765 394 L765 293 Q765 137 672 54 Q586 -24 431 -24 Q261 -24 172 75 Q92 164 92 321 L92 833 Q92 977 181 1066 Q275 1159 429 1159 Q592 1159 683 1059 Q758 976 758 847 L758 754 L573 754 L573 809 Q573 994 429 994 Q277 994 277 803 L277 343 Q277 236 313.5 187.5 Q350 139 431 139 Q511 139 545.5 184.5 Q580 230 580 337 L580 394 L765 394 Z M525 1302 L332 1302 L332 1511 L525 1511 L525 1302 Z " />
<glyph glyph-name="Ccaron" unicode="&#x10c;" horiz-adv-x="986" d="M897 508 L897 354 Q897 -22 508 -22 Q132 -22 132 370 L132 1093 Q132 1299 247 1403 Q343 1491 511 1491 Q703 1491 804 1381 Q884 1294 884 1150 L884 983 L695 983 L695 1075 Q695 1179 673 1231 Q634 1321 514 1321 Q325 1321 325 1115 L325 392 Q325 147 519 147 Q617 147 660 206.5 Q703 266 703 400 L703 508 L897 508 Z M779 1825 L614 1546 L412 1546 L251 1825 L410 1825 L515 1647 L627 1825 L779 1825 Z " />
<glyph glyph-name="ccaron" unicode="&#x10d;" horiz-adv-x="842" d="M765 393 L765 292 Q765 136 672 53 Q586 -25 431 -25 Q261 -25 172 74 Q92 163 92 320 L92 832 Q92 976 181 1065 Q275 1158 429 1158 Q592 1158 683 1058 Q758 975 758 846 L758 753 L573 753 L573 808 Q573 993 429 993 Q277 993 277 802 L277 342 Q277 235 313.5 186.5 Q350 138 431 138 Q511 138 545.5 183.5 Q580 229 580 336 L580 393 L765 393 Z M696 1524 L531 1245 L329 1245 L168 1524 L326 1524 L432 1346 L544 1524 L696 1524 Z " />
<glyph glyph-name="Dcaron" unicode="&#x10e;" horiz-adv-x="1016" d="M132 1467 L436 1467 Q675 1467 788 1342 Q897 1221 897 968 L897 530 Q897 326 849 216 Q795 90 676 39 Q587 0 449 0 L132 0 L132 1467 Z M321 158 L449 158 Q706 158 706 490 L706 1021 Q706 1309 444 1309 L321 1309 L321 158 Z M726 1825 L561 1546 L359 1546 L198 1825 L357 1825 L462 1647 L574 1825 L726 1825 Z " />
<glyph glyph-name="dcaron" unicode="&#x10f;" horiz-adv-x="908" d="M798 0 L624 0 L618 92 Q480 -19 355 -19 Q233 -19 163 73 Q101 156 101 290 L101 821 Q101 1155 357 1155 Q489 1155 614 1043 L614 1513 L798 1513 L798 0 Z M614 237 L614 900 Q512 989 422 989 Q286 989 286 812 L286 308 Q286 147 420 147 Q515 147 614 237 Z M1094 1281 Q1042 1173 973 1025 L955 986 L881 986 L972 1269 L907 1269 L907 1512 L1094 1512 L1094 1281 Z " />
<glyph glyph-name="Dcroat" unicode="&#x110;" horiz-adv-x="1014" d="M129 1467 L432 1467 Q677 1467 789 1343 Q895 1224 895 968 L895 530 Q895 321 846 211 Q792 89 675 39 Q585 0 445 0 L129 0 L129 695 L4 695 L4 849 L129 849 L129 1467 Z M322 158 L445 158 Q704 158 704 490 L704 1021 Q704 1309 441 1309 L322 1309 L322 849 L538 849 L538 695 L322 695 L322 158 Z " />
<glyph glyph-name="dcroat" unicode="&#x111;" horiz-adv-x="908" d="M902 1245 L798 1245 L798 0 L624 0 L618 92 Q480 -19 355 -19 Q233 -19 163 73 Q101 156 101 290 L101 821 Q101 1155 356 1155 Q489 1155 614 1043 L614 1245 L367 1245 L367 1399 L614 1399 L614 1513 L798 1513 L798 1399 L902 1399 L902 1245 Z M614 237 L614 900 Q511 988 422 988 Q286 988 286 812 L286 308 Q286 147 420 147 Q515 147 614 237 Z " />
<glyph glyph-name="Emacron" unicode="&#x112;" horiz-adv-x="818" d="M774 0 L132 0 L132 1467 L752 1467 L752 1309 L325 1309 L325 840 L701 840 L701 682 L325 682 L325 158 L774 158 L774 0 Z M688 1601 L201 1601 L201 1750 L688 1750 L688 1601 Z " />
<glyph glyph-name="emacron" unicode="&#x113;" horiz-adv-x="884" d="M785 349 L785 294 Q785 138 691 54 Q603 -25 447 -25 Q271 -25 180 76 Q99 166 99 325 L99 800 Q99 977 204 1072 Q297 1156 454 1156 Q616 1156 705 1058 Q785 968 785 817 L785 522 L286 522 L286 303 Q286 138 446 138 Q531 138 567 177.5 Q603 217 603 312 L603 349 L785 349 Z M607 672 L607 830 Q607 912 565 957 Q523 1002 446 1002 Q368 1002 326 957.5 Q284 913 284 830 L284 672 L607 672 Z M701 1336 L214 1336 L214 1485 L701 1485 L701 1336 Z " />
<glyph glyph-name="Ebreve" unicode="&#x114;" horiz-adv-x="818" d="M774 0 L132 0 L132 1467 L752 1467 L752 1309 L325 1309 L325 840 L701 840 L701 682 L325 682 L325 158 L774 158 L774 0 Z M708 1798 Q701 1683 639 1624 Q570 1556 452 1556 Q335 1556 267.5 1619 Q200 1682 193 1798 L318 1798 Q326 1741 361.5 1710 Q397 1679 453 1679 Q568 1679 582 1798 L708 1798 Z " />
<glyph glyph-name="ebreve" unicode="&#x115;" horiz-adv-x="884" d="M785 350 L785 295 Q785 139 691 55 Q603 -24 447 -24 Q271 -24 180 77 Q99 167 99 326 L99 801 Q99 978 204 1073 Q297 1157 454 1157 Q616 1157 705 1059 Q785 969 785 818 L785 523 L286 523 L286 304 Q286 139 446 139 Q531 139 567 178.5 Q603 218 603 313 L603 350 L785 350 Z M607 673 L607 831 Q607 913 565 958 Q523 1003 446 1003 Q368 1003 326 958.5 Q284 914 284 831 L284 673 L607 673 Z M700 1513 Q692 1399 632 1340 Q562 1271 444 1271 Q327 1271 259.5 1334 Q192 1397 185 1513 L310 1513 Q318 1457 353.5 1425.5 Q389 1394 445 1394 Q563 1394 574 1513 L700 1513 Z " />
<glyph glyph-name="Edotaccent" unicode="&#x116;" horiz-adv-x="818" d="M774 0 L132 0 L132 1467 L752 1467 L752 1309 L325 1309 L325 840 L701 840 L701 682 L325 682 L325 158 L774 158 L774 0 Z M535 1577 L342 1577 L342 1786 L535 1786 L535 1577 Z " />
<glyph glyph-name="edotaccent" unicode="&#x117;" horiz-adv-x="884" d="M785 349 L785 294 Q785 138 691 54 Q603 -25 447 -25 Q271 -25 180 76 Q99 166 99 325 L99 800 Q99 977 204 1072 Q297 1156 454 1156 Q616 1156 705 1058 Q785 968 785 817 L785 522 L286 522 L286 303 Q286 138 446 138 Q531 138 567 177.5 Q603 217 603 312 L603 349 L785 349 Z M607 672 L607 830 Q607 912 565 957 Q523 1002 446 1002 Q368 1002 326 957.5 Q284 913 284 830 L284 672 L607 672 Z M546 1302 L353 1302 L353 1511 L546 1511 L546 1302 Z " />
<glyph glyph-name="Eogonek" unicode="&#x118;" horiz-adv-x="818" d="M883 -369 Q743 -394 688 -394 Q582 -394 518.5 -345.5 Q455 -297 455 -215 Q455 -88 596 0 L132 0 L132 1467 L751 1467 L751 1309 L325 1309 L325 840 L701 840 L701 682 L325 682 L325 158 L774 158 L774 0 L770 0 Q609 -63 609 -170 Q609 -260 724 -260 Q760 -260 853 -239 L883 -369 Z " />
<glyph glyph-name="eogonek" unicode="&#x119;" horiz-adv-x="884" d="M676 -239 L706 -370 Q564 -394 509 -394 Q402 -394 338.5 -345.5 Q275 -297 275 -215 Q275 -104 386 -20 Q280 -4 223 35 Q99 120 99 325 L99 800 Q99 970 193 1063 Q287 1157 450 1157 Q613 1157 699 1066 Q785 976 785 818 L785 523 L286 523 L286 304 Q286 139 447 139 Q531 139 567 179 Q603 219 603 312 L603 350 L785 350 L785 294 Q785 64 597 0 Q429 -57 429 -170 Q429 -260 545 -260 Q583 -260 676 -239 Z M607 673 L607 831 Q607 1003 446 1003 Q284 1003 284 831 L284 673 L607 673 Z " />
<glyph glyph-name="Ecaron" unicode="&#x11a;" horiz-adv-x="818" d="M774 0 L132 0 L132 1467 L752 1467 L752 1309 L325 1309 L325 840 L701 840 L701 682 L325 682 L325 158 L774 158 L774 0 Z M718 1825 L553 1546 L351 1546 L190 1825 L349 1825 L454 1647 L566 1825 L718 1825 Z " />
<glyph glyph-name="ecaron" unicode="&#x11b;" horiz-adv-x="884" d="M785 349 L785 294 Q785 138 691 54 Q603 -25 447 -25 Q271 -25 180 76 Q99 166 99 325 L99 800 Q99 977 204 1072 Q297 1156 454 1156 Q616 1156 705 1058 Q785 968 785 817 L785 522 L286 522 L286 303 Q286 138 446 138 Q531 138 567 177.5 Q603 217 603 312 L603 349 L785 349 Z M607 672 L607 830 Q607 912 565 957 Q523 1002 446 1002 Q368 1002 326 957.5 Q284 913 284 830 L284 672 L607 672 Z M716 1524 L551 1245 L349 1245 L188 1524 L346 1524 L452 1346 L564 1524 L716 1524 Z " />
<glyph glyph-name="Gcircumflex" unicode="&#x11c;" horiz-adv-x="996" d="M897 0 L732 0 L723 95 Q598 -24 441 -24 Q256 -24 179 112 Q119 217 119 407 L119 1084 Q119 1489 520 1489 Q714 1489 810 1383 Q893 1291 893 1128 L893 1018 L706 1018 L706 1080 Q706 1186 686 1232 Q649 1317 517 1317 Q402 1317 356 1259.5 Q310 1202 310 1060 L310 409 Q310 284 334 228 Q374 137 491 137 Q609 137 710 240 L710 572 L499 572 L499 730 L897 730 L897 0 Z M772 1546 L613 1546 L508 1724 L396 1546 L244 1546 L409 1825 L611 1825 L772 1546 Z " />
<glyph glyph-name="gcircumflex" unicode="&#x11d;" horiz-adv-x="917" d="M310 403 Q306 398 304 395 Q279 365 279 342 Q279 313 305 294 Q331 275 407 249 L616 176 Q768 123 829.5 58 Q891 -7 891 -116 Q891 -309 732 -399 Q616 -464 447 -464 Q278 -464 163 -398 Q20 -316 20 -154 Q20 35 233 137 Q112 180 112 286 Q112 334 134.5 370.5 Q157 407 211 449 Q159 472 127 539 Q95 606 95 695 L95 856 Q95 1029 230 1107 Q316 1157 444 1157 Q572 1157 662 1104 Q757 1194 847 1194 L880 1194 L880 1047 Q836 1054 822 1054 Q782 1054 743 1023 Q787 959 787 858 L787 693 Q787 385 444 385 Q356 385 310 403 Z M609 684 L609 847 Q609 926 564.5 970 Q520 1014 441 1014 Q363 1014 318 969 Q273 924 273 847 L273 684 Q273 614 318.5 572 Q364 530 441 530 Q519 530 564 571.5 Q609 613 609 684 Z M334 91 Q191 15 191 -100 Q191 -197 260.5 -249 Q330 -301 458 -301 Q712 -301 712 -143 Q712 -79 674 -44.5 Q636 -10 526 27 L334 91 Z M714 1242 L555 1242 L450 1420 L338 1242 L186 1242 L351 1522 L553 1522 L714 1242 Z " />
<glyph glyph-name="Gbreve" unicode="&#x11e;" horiz-adv-x="996" d="M897 -1 L732 -1 L723 94 Q598 -25 441 -25 Q256 -25 179 111 Q119 216 119 406 L119 1083 Q119 1488 520 1488 Q714 1488 810 1382 Q893 1290 893 1127 L893 1017 L706 1017 L706 1079 Q706 1185 686 1231 Q649 1316 517 1316 Q402 1316 356 1258.5 Q310 1201 310 1059 L310 408 Q310 283 334 227 Q374 136 491 136 Q609 136 710 239 L710 571 L499 571 L499 729 L897 729 L897 -1 Z M775 1803 Q768 1688 706 1629 Q637 1561 519 1561 Q402 1561 334.5 1624 Q267 1687 260 1803 L385 1803 Q393 1746 428.5 1715 Q464 1684 520 1684 Q635 1684 649 1803 L775 1803 Z " />
<glyph glyph-name="gbreve" unicode="&#x11f;" horiz-adv-x="917" d="M309 404 Q305 399 303 396 Q278 366 278 343 Q278 314 304 295 Q330 276 406 250 L615 177 Q767 124 828.5 59 Q890 -6 890 -115 Q890 -308 731 -398 Q615 -463 446 -463 Q277 -463 162 -397 Q19 -315 19 -153 Q19 36 232 138 Q111 181 111 287 Q111 335 133.5 371.5 Q156 408 210 450 Q158 473 126 540 Q94 607 94 696 L94 857 Q94 1030 229 1108 Q315 1158 443 1158 Q571 1158 661 1105 Q756 1195 846 1195 L879 1195 L879 1048 Q835 1055 821 1055 Q781 1055 742 1024 Q786 960 786 859 L786 694 Q786 386 443 386 Q355 386 309 404 Z M608 685 L608 848 Q608 927 563.5 971 Q519 1015 440 1015 Q362 1015 317 970 Q272 925 272 848 L272 685 Q272 615 317.5 573 Q363 531 440 531 Q518 531 563 572.5 Q608 614 608 685 Z M333 92 Q190 16 190 -99 Q190 -196 259.5 -248 Q329 -300 457 -300 Q711 -300 711 -142 Q711 -78 673 -43.5 Q635 -9 525 28 L333 92 Z M701 1513 Q693 1399 633 1340 Q563 1271 445 1271 Q328 1271 260.5 1334 Q193 1397 186 1513 L311 1513 Q319 1457 354.5 1425.5 Q390 1394 446 1394 Q564 1394 575 1513 L701 1513 Z " />
<glyph glyph-name="Gdotaccent" unicode="&#x120;" horiz-adv-x="996" d="M897 0 L732 0 L723 95 Q598 -24 441 -24 Q256 -24 179 112 Q119 217 119 407 L119 1084 Q119 1489 520 1489 Q714 1489 810 1383 Q893 1291 893 1128 L893 1018 L706 1018 L706 1080 Q706 1186 686 1232 Q649 1317 517 1317 Q402 1317 356 1259.5 Q310 1202 310 1060 L310 409 Q310 284 334 228 Q374 137 491 137 Q609 137 710 240 L710 572 L499 572 L499 730 L897 730 L897 0 Z M605 1587 L412 1587 L412 1796 L605 1796 L605 1587 Z " />
<glyph glyph-name="gdotaccent" unicode="&#x121;" horiz-adv-x="917" d="M310 403 Q306 398 304 395 Q279 365 279 342 Q279 313 305 294 Q331 275 407 249 L616 176 Q768 123 829.5 58 Q891 -7 891 -116 Q891 -309 732 -399 Q616 -464 447 -464 Q278 -464 163 -398 Q20 -316 20 -154 Q20 35 233 137 Q112 180 112 286 Q112 334 134.5 370.5 Q157 407 211 449 Q159 472 127 539 Q95 606 95 695 L95 856 Q95 1029 230 1107 Q316 1157 444 1157 Q572 1157 662 1104 Q757 1194 847 1194 L880 1194 L880 1047 Q836 1054 822 1054 Q782 1054 743 1023 Q787 959 787 858 L787 693 Q787 385 444 385 Q356 385 310 403 Z M609 684 L609 847 Q609 926 564.5 970 Q520 1014 441 1014 Q363 1014 318 969 Q273 924 273 847 L273 684 Q273 614 318.5 572 Q364 530 441 530 Q519 530 564 571.5 Q609 613 609 684 Z M334 91 Q191 15 191 -100 Q191 -197 260.5 -249 Q330 -301 458 -301 Q712 -301 712 -143 Q712 -79 674 -44.5 Q636 -10 526 27 L334 91 Z M544 1302 L351 1302 L351 1511 L544 1511 L544 1302 Z " />
<glyph glyph-name="Gcommaaccent" unicode="&#x122;" horiz-adv-x="996" d="M897 -1 L732 -1 L723 94 Q598 -25 441 -25 Q256 -25 179 111 Q119 216 119 406 L119 1083 Q119 1488 520 1488 Q714 1488 810 1382 Q893 1290 893 1127 L893 1017 L706 1017 L706 1079 Q706 1185 686 1231 Q649 1316 517 1316 Q402 1316 356 1258.5 Q310 1201 310 1059 L310 408 Q310 283 334 227 Q374 136 491 136 Q609 136 710 239 L710 571 L499 571 L499 729 L897 729 L897 -1 Z M602 -304 Q542 -424 487 -539 L426 -539 L499 -312 L443 -312 L443 -117 L602 -117 L602 -304 Z " />
<glyph glyph-name="gcommaaccent" unicode="&#x123;" horiz-adv-x="917" d="M309 404 Q305 399 303 396 Q278 366 278 343 Q278 314 304 295 Q330 276 406 250 L615 177 Q767 124 828.5 59 Q890 -6 890 -115 Q890 -308 731 -398 Q615 -463 446 -463 Q277 -463 162 -397 Q19 -315 19 -153 Q19 36 232 138 Q111 181 111 287 Q111 335 133.5 371.5 Q156 408 210 450 Q158 473 126 540 Q94 607 94 696 L94 857 Q94 1030 229 1108 Q315 1158 443 1158 Q571 1158 661 1105 Q756 1195 846 1195 L879 1195 L879 1048 Q835 1055 821 1055 Q781 1055 742 1024 Q786 960 786 859 L786 694 Q786 386 443 386 Q355 386 309 404 Z M608 685 L608 848 Q608 927 563.5 971 Q519 1015 440 1015 Q362 1015 317 970 Q272 925 272 848 L272 685 Q272 615 317.5 573 Q363 531 440 531 Q518 531 563 572.5 Q608 614 608 685 Z M333 92 Q190 16 190 -99 Q190 -196 259.5 -248 Q329 -300 457 -300 Q711 -300 711 -142 Q711 -78 673 -43.5 Q635 -9 525 28 L333 92 Z M562 1775 L475 1492 L541 1492 L541 1247 L347 1247 L347 1481 L488 1775 L562 1775 Z " />
<glyph glyph-name="Hcircumflex" unicode="&#x124;" horiz-adv-x="1036" d="M904 0 L713 0 L713 695 L323 695 L323 0 L132 0 L132 1467 L323 1467 L323 849 L713 849 L713 1467 L904 1467 L904 0 Z M782 1546 L623 1546 L518 1724 L406 1546 L254 1546 L419 1825 L621 1825 L782 1546 Z " />
<glyph glyph-name="hcircumflex" unicode="&#x125;" horiz-adv-x="902" d="M794 0 L609 0 L609 847 Q609 979 504 979 Q415 979 295 882 L295 0 L110 0 L110 1513 L295 1513 L295 1043 Q446 1153 571 1153 Q794 1153 794 867 L794 0 Z M501 1546 L342 1546 L237 1724 L125 1546 L-27 1546 L138 1825 L340 1825 L501 1546 Z " />
<glyph glyph-name="Hbar" unicode="&#x126;" horiz-adv-x="1036" d="M904 1103 L904 0 L713 0 L713 695 L323 695 L323 0 L132 0 L132 1103 L26 1103 L26 1252 L132 1252 L132 1467 L323 1467 L323 1252 L713 1252 L713 1467 L904 1467 L904 1252 L1020 1252 L1020 1103 L904 1103 Z M713 1103 L323 1103 L323 849 L713 849 L713 1103 Z " />
<glyph glyph-name="hbar" unicode="&#x127;" horiz-adv-x="902" d="M295 1241 L295 1043 Q446 1152 571 1152 Q794 1152 794 867 L794 0 L609 0 L609 847 Q609 978 504 978 Q415 978 295 882 L295 0 L110 0 L110 1241 L22 1241 L22 1370 L110 1370 L110 1513 L295 1513 L295 1370 L566 1370 L566 1241 L295 1241 Z " />
<glyph glyph-name="Itilde" unicode="&#x128;" horiz-adv-x="477" d="M334 0 L143 0 L143 1467 L334 1467 L334 0 Z M531 1682 Q427 1579 340 1579 Q298 1579 222 1613 Q159 1642 130 1642 Q90 1642 36 1579 L-54 1678 Q39 1794 132 1794 Q169 1794 238 1762 Q304 1731 340 1731 Q376 1731 452 1794 L531 1682 Z " />
<glyph glyph-name="itilde" unicode="&#x129;" horiz-adv-x="418" d="M301 0 L116 0 L116 1135 L301 1135 L301 0 Z M501 1397 Q397 1293 310 1293 Q267 1293 192 1328 Q129 1357 100 1357 Q60 1357 6 1293 L-84 1392 Q9 1509 102 1509 Q140 1509 209 1476 Q275 1445 309 1445 Q351 1445 422 1509 L501 1397 Z " />
<glyph glyph-name="Imacron" unicode="&#x12a;" horiz-adv-x="477" d="M334 0 L143 0 L143 1467 L334 1467 L334 0 Z M485 1601 L-2 1601 L-2 1750 L485 1750 L485 1601 Z " />
<glyph glyph-name="imacron" unicode="&#x12b;" horiz-adv-x="418" d="M416 1335 L-2 1335 L-2 1484 L416 1484 L416 1335 Z M302 0 L117 0 L117 1135 L302 1135 L302 0 Z " />
<glyph glyph-name="Ibreve" unicode="&#x12c;" horiz-adv-x="477" d="M334 0 L143 0 L143 1467 L334 1467 L334 0 Z M496 1798 Q489 1683 427 1624 Q358 1556 240 1556 Q123 1556 55.5 1619 Q-12 1682 -19 1798 L106 1798 Q114 1741 149.5 1710 Q185 1679 241 1679 Q356 1679 370 1798 L496 1798 Z " />
<glyph glyph-name="ibreve" unicode="&#x12d;" horiz-adv-x="418" d="M302 0 L117 0 L117 1135 L302 1135 L302 0 Z M467 1513 Q459 1399 399 1340 Q329 1271 211 1271 Q94 1271 26.5 1334 Q-41 1397 -48 1513 L77 1513 Q85 1457 120.5 1425.5 Q156 1394 212 1394 Q330 1394 341 1513 L467 1513 Z " />
<glyph glyph-name="Iogonek" unicode="&#x12e;" horiz-adv-x="477" d="M445 -369 Q305 -394 250 -394 Q142 -394 78.5 -345.5 Q15 -297 15 -214 Q15 -88 156 0 L143 0 L143 1467 L334 1467 L334 0 L330 0 Q170 -64 170 -171 Q170 -260 285 -260 Q321 -260 413 -239 L445 -369 Z " />
<glyph glyph-name="iogonek" unicode="&#x12f;" horiz-adv-x="418" d="M306 1302 L112 1302 L112 1511 L306 1511 L306 1302 Z M408 -369 Q268 -394 213 -394 Q105 -394 42 -345.5 Q-21 -297 -21 -214 Q-21 -88 120 0 L118 0 L118 1135 L303 1135 L303 0 L293 0 Q132 -63 132 -171 Q132 -260 248 -260 Q283 -260 377 -239 L408 -369 Z " />
<glyph glyph-name="Idot" unicode="&#x130;" horiz-adv-x="477" d="M334 0 L143 0 L143 1467 L334 1467 L334 0 Z M335 1577 L142 1577 L142 1786 L335 1786 L335 1577 Z " />
<glyph glyph-name="IJ" unicode="&#x132;" horiz-adv-x="1110" d="M334 0 L143 0 L143 1467 L334 1467 L334 0 Z M979 1467 L979 284 Q979 -20 674 -20 Q572 -20 489 18 L531 185 Q597 152 656 152 Q788 152 788 319 L788 1467 L979 1467 Z " />
<glyph glyph-name="ij" unicode="&#x133;" horiz-adv-x="836" d="M301 0 L116 0 L116 1135 L301 1135 L301 0 Z M305 1302 L112 1302 L112 1511 L305 1511 L305 1302 Z M719 1135 L717 -145 Q716 -446 467 -446 Q414 -446 321 -431 L325 -268 Q374 -283 423 -283 Q484 -283 509 -242.5 Q534 -202 534 -101 L534 1135 L719 1135 Z M723 1302 L530 1302 L530 1511 L723 1511 L723 1302 Z " />
<glyph glyph-name="Jcircumflex" unicode="&#x134;" horiz-adv-x="633" d="M501 1467 L501 284 Q501 -20 196 -20 Q94 -20 11 18 L53 185 Q119 152 178 152 Q310 152 310 319 L310 1467 L501 1467 Z M660 1546 L501 1546 L396 1724 L284 1546 L132 1546 L297 1825 L499 1825 L660 1546 Z " />
<glyph glyph-name="jcircumflex" unicode="&#x135;" horiz-adv-x="418" d="M301 1135 L299 -145 Q298 -446 49 -446 Q-4 -446 -97 -431 L-93 -268 Q-44 -283 5 -283 Q66 -283 91 -242.5 Q116 -202 116 -101 L116 1135 L301 1135 Z M466 1242 L307 1242 L202 1420 L90 1242 L-62 1242 L103 1522 L305 1522 L466 1242 Z " />
<glyph glyph-name="Kcommaaccent" unicode="&#x136;" horiz-adv-x="972" d="M998 0 L780 0 L468 721 L323 506 L323 0 L132 0 L132 1467 L323 1467 L323 790 L741 1467 L967 1467 L596 887 L998 0 Z M627 -304 Q567 -424 512 -539 L451 -539 L524 -312 L468 -312 L468 -117 L627 -117 L627 -304 Z " />
<glyph glyph-name="kcommaaccent" unicode="&#x137;" horiz-adv-x="856" d="M871 0 L671 0 L416 587 L297 429 L297 0 L112 0 L112 1513 L297 1513 L297 691 L616 1135 L829 1135 L541 730 L871 0 Z M560 -304 Q536 -351 460 -508 L445 -539 L384 -539 L457 -312 L401 -312 L401 -117 L560 -117 L560 -304 Z " />
<glyph glyph-name="Lacute" unicode="&#x139;" horiz-adv-x="759" d="M748 0 L132 0 L132 1467 L323 1467 L323 158 L748 158 L748 0 Z M485 1827 L301 1546 L133 1546 L263 1827 L485 1827 Z " />
<glyph glyph-name="lacute" unicode="&#x13a;" horiz-adv-x="418" d="M302 0 L117 0 L117 1513 L302 1513 L302 0 Z M477 1876 L292 1595 L125 1595 L255 1876 L477 1876 Z " />
<glyph glyph-name="Lcommaaccent" unicode="&#x13b;" horiz-adv-x="759" d="M748 0 L132 0 L132 1467 L323 1467 L323 158 L748 158 L748 0 Z M530 -304 Q470 -424 415 -539 L354 -539 L427 -312 L371 -312 L371 -117 L530 -117 L530 -304 Z " />
<glyph glyph-name="lcommaaccent" unicode="&#x13c;" horiz-adv-x="418" d="M302 0 L117 0 L117 1513 L302 1513 L302 0 Z M289 -304 Q265 -351 189 -508 L174 -539 L113 -539 L186 -312 L130 -312 L130 -117 L289 -117 L289 -304 Z " />
<glyph glyph-name="Lcaron" unicode="&#x13d;" horiz-adv-x="759" d="M748 0 L132 0 L132 1467 L323 1467 L323 158 L748 158 L748 0 Z M631 1237 Q568 1107 492 942 L418 942 L508 1226 L444 1226 L444 1468 L631 1468 L631 1237 Z " />
<glyph glyph-name="lcaron" unicode="&#x13e;" horiz-adv-x="418" d="M302 0 L117 0 L117 1513 L302 1513 L302 0 Z M597 1281 Q555 1194 476 1025 L458 986 L384 986 L475 1269 L410 1269 L410 1512 L597 1512 L597 1281 Z " />
<glyph glyph-name="Ldot" unicode="&#x13f;" horiz-adv-x="759" d="M748 0 L132 0 L132 1467 L323 1467 L323 158 L748 158 L748 0 Z M669 582 L476 582 L476 826 L669 826 L669 582 Z " />
<glyph glyph-name="ldot" unicode="&#x140;" horiz-adv-x="757" d="M302 0 L117 0 L117 1513 L302 1513 L302 0 Z M624 592 L431 592 L431 836 L624 836 L624 592 Z " />
<glyph glyph-name="Lslash" unicode="&#x141;" horiz-adv-x="759" d="M748 0 L132 0 L132 580 L-2 479 L-2 642 L132 737 L132 1467 L323 1467 L323 838 L616 1049 L616 886 L323 682 L323 158 L748 158 L748 0 Z " />
<glyph glyph-name="lslash" unicode="&#x142;" horiz-adv-x="418" d="M434 875 L302 789 L302 0 L117 0 L117 690 L-4 607 L-4 765 L117 842 L117 1513 L302 1513 L302 943 L434 1036 L434 875 Z " />
<glyph glyph-name="Nacute" unicode="&#x143;" horiz-adv-x="1066" d="M935 0 L671 0 Q440 695 317 1159 L317 1102 L321 655 L321 0 L132 0 L132 1467 L398 1467 Q615 785 748 310 L747 383 L746 498 Q744 756 744 915 L744 1467 L935 1467 L935 0 Z M772 1827 L588 1546 L420 1546 L550 1827 L772 1827 Z " />
<glyph glyph-name="nacute" unicode="&#x144;" horiz-adv-x="886" d="M782 0 L597 0 L597 842 Q597 983 484 983 Q395 983 294 880 L294 0 L109 0 L109 1135 L281 1135 L287 1029 Q412 1155 538 1155 Q782 1155 782 882 L782 0 Z M661 1524 L476 1243 L309 1243 L439 1524 L661 1524 Z " />
<glyph glyph-name="Ncommaaccent" unicode="&#x145;" horiz-adv-x="1066" d="M935 0 L671 0 Q440 695 317 1159 L317 1102 L321 655 L321 0 L132 0 L132 1467 L398 1467 Q615 785 748 310 L747 383 L746 498 Q744 756 744 915 L744 1467 L935 1467 L935 0 Z M605 -304 Q545 -424 490 -539 L429 -539 L502 -312 L446 -312 L446 -117 L605 -117 L605 -304 Z " />
<glyph glyph-name="ncommaaccent" unicode="&#x146;" horiz-adv-x="886" d="M782 0 L597 0 L597 842 Q597 983 484 983 Q395 983 294 880 L294 0 L109 0 L109 1135 L281 1135 L287 1029 Q412 1155 538 1155 Q782 1155 782 882 L782 0 Z M536 -304 Q512 -351 436 -508 L421 -539 L360 -539 L433 -312 L377 -312 L377 -117 L536 -117 L536 -304 Z " />
<glyph glyph-name="Ncaron" unicode="&#x147;" horiz-adv-x="1066" d="M935 0 L671 0 Q440 695 317 1159 L317 1102 L321 655 L321 0 L132 0 L132 1467 L398 1467 Q615 785 748 310 L747 383 L746 498 Q744 756 744 915 L744 1467 L935 1467 L935 0 Z M793 1825 L628 1546 L426 1546 L265 1825 L424 1825 L529 1647 L641 1825 L793 1825 Z " />
<glyph glyph-name="ncaron" unicode="&#x148;" horiz-adv-x="886" d="M782 0 L597 0 L597 842 Q597 983 484 983 Q395 983 294 880 L294 0 L109 0 L109 1135 L281 1135 L287 1029 Q412 1155 538 1155 Q782 1155 782 882 L782 0 Z M709 1524 L544 1245 L342 1245 L181 1524 L339 1524 L445 1346 L557 1524 L709 1524 Z " />
<glyph glyph-name="napostrophe" unicode="&#x149;" horiz-adv-x="1017" d="M913 0 L728 0 L728 842 Q728 983 615 983 Q526 983 426 880 L426 0 L241 0 L241 1135 L413 1135 L419 1029 Q543 1155 669 1155 Q913 1155 913 882 L913 0 Z M243 1258 L228 1226 L176 1118 L122 1002 L104 963 L30 963 L120 1247 L56 1247 L56 1489 L243 1489 L243 1258 Z " />
<glyph glyph-name="Omacron" unicode="&#x14c;" horiz-adv-x="1011" d="M119 375 L119 1075 Q119 1294 237 1401 Q334 1490 506 1490 Q697 1490 796 1379 Q893 1270 893 1061 L893 371 Q893 174 776 67 Q675 -25 503 -25 Q314 -25 213 87 Q119 192 119 375 Z M702 373 L702 1057 Q702 1321 505 1321 Q411 1321 360.5 1263 Q310 1205 310 1097 L310 380 Q310 147 504 147 Q597 147 650 205 Q702 263 702 373 Z M743 1601 L256 1601 L256 1750 L743 1750 L743 1601 Z " />
<glyph glyph-name="omacron" unicode="&#x14d;" horiz-adv-x="902" d="M99 318 L99 826 Q99 987 199 1075 Q293 1158 454 1158 Q634 1158 726 1058 Q803 974 803 826 L803 318 Q803 148 702 57 Q610 -25 451 -25 Q273 -25 179 79 Q99 168 99 318 Z M618 309 L618 822 Q618 899 572 946 Q526 993 450 993 Q374 993 329 947 Q284 901 284 822 L284 309 Q284 229 328 184.5 Q372 140 451 140 Q530 140 574 184.5 Q618 229 618 309 Z M693 1335 L206 1335 L206 1484 L693 1484 L693 1335 Z " />
<glyph glyph-name="Obreve" unicode="&#x14e;" horiz-adv-x="1012" d="M119 376 L119 1076 Q119 1295 237 1402 Q334 1491 506 1491 Q697 1491 796 1380 Q893 1271 893 1062 L893 372 Q893 175 776 68 Q675 -24 503 -24 Q314 -24 213 88 Q119 193 119 376 Z M702 374 L702 1058 Q702 1322 505 1322 Q411 1322 360.5 1264 Q310 1206 310 1098 L310 381 Q310 148 504 148 Q597 148 650 206 Q702 264 702 374 Z M764 1794 Q757 1679 695 1620 Q626 1552 508 1552 Q391 1552 323.5 1615 Q256 1678 249 1794 L374 1794 Q382 1737 417.5 1706 Q453 1675 509 1675 Q624 1675 638 1794 L764 1794 Z " />
<glyph glyph-name="obreve" unicode="&#x14f;" horiz-adv-x="902" d="M99 319 L99 827 Q99 988 199 1076 Q293 1159 454 1159 Q634 1159 726 1059 Q803 975 803 827 L803 319 Q803 149 702 58 Q610 -24 451 -24 Q273 -24 179 80 Q99 169 99 319 Z M618 310 L618 823 Q618 900 572 947 Q526 994 450 994 Q374 994 329 948 Q284 902 284 823 L284 310 Q284 230 328 185.5 Q372 141 451 141 Q530 141 574 185.5 Q618 230 618 310 Z M709 1513 Q701 1399 641 1340 Q571 1271 453 1271 Q336 1271 268.5 1334 Q201 1397 194 1513 L319 1513 Q327 1457 362.5 1425.5 Q398 1394 454 1394 Q572 1394 583 1513 L709 1513 Z " />
<glyph glyph-name="Ohungarumlaut" unicode="&#x150;" horiz-adv-x="1011" d="M119 375 L119 1075 Q119 1294 237 1401 Q334 1490 506 1490 Q697 1490 796 1379 Q893 1270 893 1061 L893 371 Q893 174 776 67 Q675 -25 503 -25 Q314 -25 213 87 Q119 192 119 375 Z M702 373 L702 1057 Q702 1321 505 1321 Q411 1321 360.5 1263 Q310 1205 310 1097 L310 380 Q310 147 504 147 Q597 147 650 205 Q702 263 702 373 Z M877 1825 L701 1546 L556 1546 L683 1825 L877 1825 Z M588 1825 L410 1546 L265 1546 L393 1825 L588 1825 Z " />
<glyph glyph-name="ohungarumlaut" unicode="&#x151;" horiz-adv-x="902" d="M99 318 L99 826 Q99 987 199 1075 Q293 1158 454 1158 Q634 1158 726 1058 Q803 974 803 826 L803 318 Q803 148 702 57 Q610 -25 451 -25 Q273 -25 179 79 Q99 168 99 318 Z M618 309 L618 822 Q618 899 572 946 Q526 993 450 993 Q374 993 329 947 Q284 901 284 822 L284 309 Q284 229 328 184.5 Q372 140 451 140 Q530 140 574 184.5 Q618 229 618 309 Z M799 1524 L623 1245 L478 1245 L606 1524 L799 1524 Z M511 1524 L333 1245 L188 1245 L316 1524 L511 1524 Z " />
<glyph glyph-name="Racute" unicode="&#x154;" horiz-adv-x="963" d="M952 0 L750 0 L481 664 L325 660 L325 0 L132 0 L132 1467 L466 1467 Q688 1467 798 1346 Q888 1247 888 1083 Q888 948 830 852 Q772 756 661 708 L952 0 Z M325 809 L404 809 Q695 809 695 1074 Q695 1196 632 1253 Q570 1309 422 1309 L325 1309 L325 809 Z M661 1827 L477 1546 L309 1546 L439 1827 L661 1827 Z " />
<glyph glyph-name="racute" unicode="&#x155;" horiz-adv-x="607" d="M597 941 Q382 931 294 724 L294 0 L109 0 L109 1135 L287 1135 L287 948 Q363 1057 427 1100 Q491 1143 597 1155 L597 941 Z M528 1524 L343 1243 L176 1243 L306 1524 L528 1524 Z " />
<glyph glyph-name="Rcommaaccent" unicode="&#x156;" horiz-adv-x="963" d="M952 0 L750 0 L481 664 L325 660 L325 0 L132 0 L132 1467 L466 1467 Q688 1467 798 1346 Q888 1247 888 1083 Q888 948 830 852 Q772 756 661 708 L952 0 Z M325 809 L404 809 Q695 809 695 1074 Q695 1196 632 1253 Q570 1309 422 1309 L325 1309 L325 809 Z M602 -304 Q542 -424 487 -539 L426 -539 L499 -312 L443 -312 L443 -117 L602 -117 L602 -304 Z " />
<glyph glyph-name="rcommaaccent" unicode="&#x157;" horiz-adv-x="607" d="M598 941 Q383 931 295 724 L295 0 L110 0 L110 1135 L288 1135 L288 948 Q364 1057 428 1100 Q492 1143 598 1155 L598 941 Z M283 -304 Q259 -351 183 -508 L168 -539 L107 -539 L180 -312 L124 -312 L124 -117 L283 -117 L283 -304 Z " />
<glyph glyph-name="Rcaron" unicode="&#x158;" horiz-adv-x="963" d="M952 0 L750 0 L481 664 L325 660 L325 0 L132 0 L132 1467 L466 1467 Q688 1467 798 1346 Q888 1247 888 1083 Q888 948 830 852 Q772 756 661 708 L952 0 Z M325 809 L404 809 Q695 809 695 1074 Q695 1196 632 1253 Q570 1309 422 1309 L325 1309 L325 809 Z M700 1825 L535 1546 L333 1546 L172 1825 L331 1825 L436 1647 L548 1825 L700 1825 Z " />
<glyph glyph-name="rcaron" unicode="&#x159;" horiz-adv-x="607" d="M598 941 Q383 931 295 724 L295 0 L110 0 L110 1135 L288 1135 L288 948 Q364 1057 428 1100 Q492 1143 598 1155 L598 941 Z M618 1524 L453 1245 L251 1245 L90 1524 L248 1524 L354 1346 L466 1524 L618 1524 Z " />
<glyph glyph-name="Sacute" unicode="&#x15a;" horiz-adv-x="972" d="M659 1056 L659 1104 Q659 1201 629 1252 Q589 1322 481 1322 Q390 1322 344 1272 Q307 1232 307 1168 Q307 1097 358 1026.5 Q409 956 542 842 Q759 657 819 533 Q868 434 868 327 Q868 161 762 66 Q661 -24 485 -24 Q281 -24 177 89 Q92 182 92 341 L92 460 L285 460 L285 370 Q285 148 487 148 Q576 148 626.5 194.5 Q677 241 677 323 Q677 406 621.5 486 Q566 566 427 685 Q298 793 220 891 Q123 1011 123 1169 Q123 1322 220 1408 Q313 1491 483 1491 Q672 1491 766 1387 Q850 1295 850 1124 L850 1056 L659 1056 Z M738 1827 L554 1546 L386 1546 L516 1827 L738 1827 Z " />
<glyph glyph-name="sacute" unicode="&#x15b;" horiz-adv-x="789" d="M541 817 L541 863 Q541 1009 391 1009 Q324 1009 286.5 978.5 Q249 948 249 894 Q249 833 295 781 Q341 729 460 655 Q644 541 699 451 Q746 374 746 285 L746 258 Q746 -25 400 -25 Q226 -25 135 53.5 Q44 132 44 280 L44 344 L229 344 L229 291 Q229 122 401 122 Q475 122 517 157.5 Q559 193 559 257 Q559 319 514 371.5 Q469 424 351 497 Q170 610 116 701 Q70 779 70 872 L70 894 Q70 1040 188 1107 Q274 1156 397 1156 Q566 1156 652 1063 Q719 990 719 874 L719 817 L541 817 Z M633 1524 L448 1243 L281 1243 L411 1524 L633 1524 Z " />
<glyph glyph-name="Scircumflex" unicode="&#x15c;" horiz-adv-x="972" d="M659 1056 L659 1104 Q659 1201 629 1252 Q589 1322 481 1322 Q390 1322 344 1272 Q307 1232 307 1168 Q307 1097 358 1026.5 Q409 956 542 842 Q759 657 819 533 Q868 434 868 327 Q868 161 762 66 Q661 -24 485 -24 Q281 -24 177 89 Q92 182 92 341 L92 460 L285 460 L285 370 Q285 148 487 148 Q576 148 626.5 194.5 Q677 241 677 323 Q677 406 621.5 486 Q566 566 427 685 Q298 793 220 891 Q123 1011 123 1169 Q123 1322 220 1408 Q313 1491 483 1491 Q672 1491 766 1387 Q850 1295 850 1124 L850 1056 L659 1056 Z M744 1546 L585 1546 L480 1724 L368 1546 L216 1546 L381 1825 L583 1825 L744 1546 Z " />
<glyph glyph-name="scircumflex" unicode="&#x15d;" horiz-adv-x="789" d="M541 818 L541 864 Q541 1010 391 1010 Q324 1010 286.5 979.5 Q249 949 249 895 Q249 834 295 782 Q341 730 460 656 Q644 542 699 452 Q746 375 746 286 L746 259 Q746 -24 400 -24 Q226 -24 135 54.5 Q44 133 44 281 L44 345 L229 345 L229 292 Q229 123 401 123 Q475 123 517 158.5 Q559 194 559 258 Q559 320 514 372.5 Q469 425 351 498 Q170 611 116 702 Q70 780 70 873 L70 895 Q70 1041 188 1108 Q274 1157 397 1157 Q566 1157 652 1064 Q719 991 719 875 L719 818 L541 818 Z M659 1242 L500 1242 L395 1420 L283 1242 L131 1242 L296 1522 L498 1522 L659 1242 Z " />
<glyph glyph-name="Scedilla" unicode="&#x15e;" horiz-adv-x="972" d="M433 -22 Q321 -11 250 31 Q92 123 92 341 L92 460 L285 460 L285 370 Q285 148 487 148 Q576 148 626.5 194.5 Q677 241 677 323 Q677 406 621.5 486 Q566 566 427 684 Q298 793 220 891 Q123 1011 123 1169 Q123 1322 220 1408 Q313 1491 483 1491 Q672 1491 766 1387 Q850 1295 850 1124 L850 1056 L659 1056 L659 1104 Q659 1201 629 1252 Q589 1322 481 1322 Q390 1322 344 1272 Q307 1232 307 1168 Q307 1097 358 1026.5 Q409 956 542 842 Q759 657 819 533 Q868 433 868 327 Q868 120 710 29 Q641 -11 538 -21 L500 -105 Q669 -114 669 -246 Q669 -417 427 -417 Q361 -417 269 -393 L282 -290 Q354 -311 406 -311 Q517 -311 517 -249 Q517 -186 413 -186 Q395 -186 359 -191 L433 -22 Z " />
<glyph glyph-name="scedilla" unicode="&#x15f;" horiz-adv-x="789" d="M458 -22 L420 -105 Q589 -114 589 -247 Q589 -417 347 -417 Q275 -417 192 -394 L189 -393 L202 -290 Q278 -311 326 -311 Q437 -311 437 -249 Q437 -186 333 -186 Q316 -186 279 -191 L352 -22 Q247 -14 172 24 Q46 87 44 282 L44 346 L229 346 L229 292 Q229 124 404 124 Q558 124 558 254 Q558 333 480 406 Q457 428 314 527 Q191 612 179 625 Q71 735 71 873 L71 895 Q71 1029 172 1098 Q259 1157 398 1157 Q542 1157 627 1088 Q719 1014 719 875 L719 818 L541 818 L541 864 Q541 1010 387 1010 Q248 1010 248 897 Q248 841 281.5 796.5 Q315 752 406 690 L497 627 Q621 541 638.5 526.5 Q656 512 685 472 Q745 385 745 286 L745 260 Q745 130 675.5 61.5 Q606 -7 458 -22 Z " />
<glyph glyph-name="Scaron" unicode="&#x160;" horiz-adv-x="972" d="M659 1056 L659 1104 Q659 1201 629 1252 Q589 1322 481 1322 Q390 1322 344 1272 Q307 1232 307 1168 Q307 1097 358 1026.5 Q409 956 542 842 Q759 657 819 533 Q868 434 868 327 Q868 161 762 66 Q661 -24 485 -24 Q281 -24 177 89 Q92 182 92 341 L92 460 L285 460 L285 370 Q285 148 487 148 Q576 148 626.5 194.5 Q677 241 677 323 Q677 406 621.5 486 Q566 566 427 685 Q298 793 220 891 Q123 1011 123 1169 Q123 1322 220 1408 Q313 1491 483 1491 Q672 1491 766 1387 Q850 1295 850 1124 L850 1056 L659 1056 Z M748 1825 L583 1546 L381 1546 L220 1825 L379 1825 L484 1647 L596 1825 L748 1825 Z " />
<glyph glyph-name="scaron" unicode="&#x161;" horiz-adv-x="789" d="M541 818 L541 864 Q541 1010 391 1010 Q324 1010 286.5 979.5 Q249 949 249 895 Q249 834 295 782 Q341 730 460 656 Q644 542 699 452 Q746 375 746 286 L746 259 Q746 -24 400 -24 Q226 -24 135 54.5 Q44 133 44 281 L44 345 L229 345 L229 292 Q229 123 401 123 Q475 123 517 158.5 Q559 194 559 258 Q559 320 514 372.5 Q469 425 351 498 Q170 611 116 702 Q70 780 70 873 L70 895 Q70 1041 188 1108 Q274 1157 397 1157 Q566 1157 652 1064 Q719 991 719 875 L719 818 L541 818 Z M667 1524 L502 1245 L300 1245 L139 1524 L297 1524 L403 1346 L515 1524 L667 1524 Z " />
<glyph glyph-name="Tcommaaccent" unicode="&#x162;" horiz-adv-x="851" d="M818 1309 L521 1309 L521 0 L330 0 L330 1309 L33 1309 L33 1467 L818 1467 L818 1309 Z M505 -304 Q445 -424 390 -539 L329 -539 L402 -312 L346 -312 L346 -117 L505 -117 L505 -304 Z " />
<glyph glyph-name="tcommaaccent" unicode="&#x163;" horiz-adv-x="646" d="M615 4 Q516 -13 461 -13 Q323 -13 260.5 53.5 Q198 120 198 266 L198 985 L46 985 L46 1135 L200 1135 L200 1456 L385 1489 L385 1135 L600 1135 L600 985 L385 985 L385 259 Q385 137 503 137 Q544 137 609 152 L615 4 Z M376 -304 Q352 -351 276 -508 L261 -539 L200 -539 L273 -312 L217 -312 L217 -117 L376 -117 L376 -304 Z " />
<glyph glyph-name="Tcaron" unicode="&#x164;" horiz-adv-x="851" d="M818 1309 L521 1309 L521 0 L330 0 L330 1309 L33 1309 L33 1467 L818 1467 L818 1309 Z M691 1825 L526 1546 L324 1546 L163 1825 L322 1825 L427 1647 L539 1825 L691 1825 Z " />
<glyph glyph-name="tcaron" unicode="&#x165;" horiz-adv-x="646" d="M615 4 Q515 -13 457 -13 Q321 -13 259 55 Q197 122 197 266 L197 986 L46 986 L46 1135 L199 1135 L199 1456 L384 1488 L384 1135 L600 1135 L600 986 L384 986 L384 260 Q384 136 499 136 Q537 136 609 151 L615 4 Z M700 1537 L685 1505 L634 1397 L579 1281 L561 1242 L487 1242 L577 1525 L513 1525 L513 1768 L700 1768 L700 1537 Z " />
<glyph glyph-name="Tbar" unicode="&#x166;" horiz-adv-x="851" d="M330 866 L330 1309 L33 1309 L33 1467 L818 1467 L818 1309 L521 1309 L521 866 L669 866 L669 717 L521 717 L521 0 L330 0 L330 717 L182 717 L182 866 L330 866 Z " />
<glyph glyph-name="tbar" unicode="&#x167;" horiz-adv-x="646" d="M385 617 L385 259 Q385 136 503 136 Q544 136 609 151 L615 4 Q516 -13 461 -13 Q323 -13 260.5 53.5 Q198 120 198 266 L198 617 L46 617 L46 767 L198 767 L198 985 L46 985 L46 1135 L200 1135 L200 1456 L385 1489 L385 1135 L600 1135 L600 985 L385 985 L385 767 L600 767 L600 617 L385 617 Z " />
<glyph glyph-name="Utilde" unicode="&#x168;" horiz-adv-x="1027" d="M895 1467 L895 365 Q895 -24 515 -24 Q132 -24 132 365 L132 1467 L323 1467 L323 385 Q323 293 345 241 Q386 145 514 145 Q612 145 658 203 Q704 261 704 385 L704 1467 L895 1467 Z M806 1696 Q702 1593 615 1593 Q573 1593 497 1627 Q434 1656 405 1656 Q365 1656 311 1593 L221 1692 Q314 1808 407 1808 Q444 1808 513 1776 Q579 1745 615 1745 Q651 1745 727 1808 L806 1696 Z " />
<glyph glyph-name="utilde" unicode="&#x169;" horiz-adv-x="888" d="M776 0 L609 0 L600 99 Q472 -20 337 -20 Q103 -20 103 268 L103 1135 L288 1135 L288 279 Q288 212 312 184 Q336 156 394 156 Q499 156 591 253 L591 1135 L776 1135 L776 0 Z M732 1397 Q628 1293 541 1293 Q498 1293 423 1328 Q360 1357 331 1357 Q291 1357 237 1293 L147 1392 Q240 1509 333 1509 Q371 1509 440 1476 Q506 1445 540 1445 Q582 1445 653 1509 L732 1397 Z " />
<glyph glyph-name="Umacron" unicode="&#x16a;" horiz-adv-x="1027" d="M895 1466 L895 364 Q895 -25 515 -25 Q132 -25 132 364 L132 1466 L323 1466 L323 384 Q323 292 345 240 Q386 144 514 144 Q612 144 658 202 Q704 260 704 384 L704 1466 L895 1466 Z M759 1601 L272 1601 L272 1750 L759 1750 L759 1601 Z " />
<glyph glyph-name="umacron" unicode="&#x16b;" horiz-adv-x="888" d="M776 1 L609 1 L600 100 Q472 -19 337 -19 Q103 -19 103 269 L103 1136 L288 1136 L288 280 Q288 213 312 185 Q336 157 394 157 Q499 157 591 254 L591 1136 L776 1136 L776 1 Z M685 1335 L198 1335 L198 1484 L685 1484 L685 1335 Z " />
<glyph glyph-name="Ubreve" unicode="&#x16c;" horiz-adv-x="1027" d="M895 1467 L895 365 Q895 -24 515 -24 Q132 -24 132 365 L132 1467 L323 1467 L323 385 Q323 293 345 241 Q386 145 514 145 Q612 145 658 203 Q704 261 704 385 L704 1467 L895 1467 Z M771 1798 Q764 1683 702 1624 Q633 1556 515 1556 Q398 1556 330.5 1619 Q263 1682 256 1798 L381 1798 Q389 1741 424.5 1710 Q460 1679 516 1679 Q631 1679 645 1798 L771 1798 Z " />
<glyph glyph-name="ubreve" unicode="&#x16d;" horiz-adv-x="888" d="M776 0 L609 0 L600 99 Q472 -20 337 -20 Q103 -20 103 268 L103 1135 L288 1135 L288 279 Q288 212 312 184 Q336 156 394 156 Q499 156 591 253 L591 1135 L776 1135 L776 0 Z M697 1513 Q689 1399 629 1340 Q559 1271 441 1271 Q324 1271 256.5 1334 Q189 1397 182 1513 L307 1513 Q315 1457 350.5 1425.5 Q386 1394 442 1394 Q560 1394 571 1513 L697 1513 Z " />
<glyph glyph-name="Uring" unicode="&#x16e;" horiz-adv-x="1027" d="M895 1466 L895 364 Q895 -25 515 -25 Q132 -25 132 364 L132 1466 L323 1466 L323 384 Q323 292 345 240 Q386 144 514 144 Q612 144 658 202 Q704 260 704 384 L704 1466 L895 1466 Z M513 1898 Q590 1898 642 1849 Q694 1800 694 1728 Q694 1653 642.5 1604 Q591 1555 513 1555 Q436 1555 384.5 1604 Q333 1653 333 1726 Q333 1800 384.5 1849 Q436 1898 513 1898 Z M513 1806 Q480 1806 457 1783 Q434 1760 434 1727 Q434 1693 457 1670 Q480 1647 513 1647 Q545 1647 569 1670.5 Q593 1694 593 1726 Q593 1758 569.5 1782 Q546 1806 513 1806 Z " />
<glyph glyph-name="uring" unicode="&#x16f;" horiz-adv-x="888" d="M776 1 L609 1 L600 100 Q472 -19 337 -19 Q103 -19 103 269 L103 1136 L288 1136 L288 280 Q288 213 312 185 Q336 157 394 157 Q499 157 591 254 L591 1136 L776 1136 L776 1 Z M445 1579 Q522 1579 574 1530 Q626 1481 626 1409 Q626 1334 574.5 1285 Q523 1236 445 1236 Q368 1236 316.5 1285 Q265 1334 265 1407 Q265 1481 316.5 1530 Q368 1579 445 1579 Z M445 1487 Q411 1487 388.5 1464.5 Q366 1442 366 1408 Q366 1374 389 1351 Q412 1328 445 1328 Q477 1328 501 1351.5 Q525 1375 525 1407 Q525 1440 501.5 1463.5 Q478 1487 445 1487 Z " />
<glyph glyph-name="Uhungarumlaut" unicode="&#x170;" horiz-adv-x="1026" d="M895 1466 L895 364 Q895 -25 515 -25 Q132 -25 132 364 L132 1466 L323 1466 L323 384 Q323 292 345 240 Q386 144 514 144 Q612 144 658 202 Q704 260 704 384 L704 1466 L895 1466 Z M904 1825 L728 1546 L583 1546 L710 1825 L904 1825 Z M615 1825 L437 1546 L292 1546 L420 1825 L615 1825 Z " />
<glyph glyph-name="uhungarumlaut" unicode="&#x171;" horiz-adv-x="888" d="M776 1 L609 1 L600 100 Q472 -19 337 -19 Q103 -19 103 269 L103 1136 L288 1136 L288 280 Q288 213 312 185 Q336 157 394 157 Q499 157 591 254 L591 1136 L776 1136 L776 1 Z M786 1524 L610 1245 L465 1245 L593 1524 L786 1524 Z M498 1524 L320 1245 L175 1245 L303 1524 L498 1524 Z " />
<glyph glyph-name="Uogonek" unicode="&#x172;" horiz-adv-x="1027" d="M751 -239 L782 -369 Q644 -394 587 -394 Q480 -394 417 -345 Q354 -296 354 -213 Q354 -102 462 -21 Q340 -6 274 37 Q132 130 132 365 L132 1467 L323 1467 L323 385 Q323 269 361 213 Q406 145 512 145 Q703 145 703 385 L703 1467 L895 1467 L895 365 Q892 71 672 2 Q507 -60 507 -170 Q507 -260 623 -260 Q659 -260 751 -239 Z " />
<glyph glyph-name="uogonek" unicode="&#x173;" horiz-adv-x="888" d="M890 -369 Q750 -394 695 -394 Q589 -394 525.5 -345.5 Q462 -297 462 -215 Q462 -87 609 4 L600 99 Q471 -19 335 -19 Q103 -19 103 268 L103 1135 L288 1135 L288 286 Q288 156 396 156 Q495 156 592 253 L592 1135 L776 1135 L776 0 Q616 -64 616 -170 Q616 -260 731 -260 Q766 -260 860 -239 L890 -369 Z " />
<glyph glyph-name="Wcircumflex" unicode="&#x174;" horiz-adv-x="1445" d="M1412 1467 L1187 0 L902 0 L754 937 Q744 1006 721 1249 Q711 1056 693 939 L543 0 L257 0 L33 1467 L229 1467 L354 587 Q372 459 391 314 L401 239 L407 191 Q435 491 451 589 L592 1467 L855 1467 L998 616 Q1025 459 1040 288 Q1045 236 1049 193 Q1067 354 1104 625 L1214 1467 L1412 1467 Z M987 1546 L828 1546 L723 1724 L611 1546 L459 1546 L624 1825 L826 1825 L987 1546 Z " />
<glyph glyph-name="wcircumflex" unicode="&#x175;" horiz-adv-x="1209" d="M1170 1135 L955 0 L748 0 Q679 362 603 880 Q586 711 563 601 L440 0 L238 0 L40 1135 L225 1135 L326 458 Q347 317 357 194 Q373 327 396 458 L517 1135 L695 1135 Q764 746 845 194 Q921 735 985 1135 L1170 1135 Z M869 1242 L710 1242 L605 1420 L493 1242 L341 1242 L506 1522 L708 1522 L869 1242 Z " />
<glyph glyph-name="Ycircumflex" unicode="&#x176;" horiz-adv-x="950" d="M911 1467 L573 600 L573 0 L379 0 L379 600 L40 1467 L233 1467 L372 1082 Q381 1057 386 1043 Q452 862 476 750 Q479 781 507 862 L513 880 L586 1091 L718 1467 L911 1467 Z M739 1546 L580 1546 L475 1724 L363 1546 L211 1546 L376 1825 L578 1825 L739 1546 Z " />
<glyph glyph-name="ycircumflex" unicode="&#x177;" horiz-adv-x="869" d="M816 1135 L499 -131 Q461 -284 404 -352 Q324 -448 162 -448 Q113 -448 55 -437 L55 -288 Q107 -296 138 -296 Q214 -296 252.5 -257.5 Q291 -219 312 -123 L345 25 L53 1135 L246 1135 Q332 750 440 223 Q543 748 631 1135 L816 1135 Z M699 1242 L540 1242 L435 1420 L323 1242 L171 1242 L336 1522 L538 1522 L699 1242 Z " />
<glyph glyph-name="Zacute" unicode="&#x179;" horiz-adv-x="892" d="M814 0 L73 0 L73 138 L605 1309 L113 1309 L113 1467 L814 1467 L814 1333 L276 158 L814 158 L814 0 Z M685 1827 L501 1546 L333 1546 L463 1827 L685 1827 Z " />
<glyph glyph-name="zacute" unicode="&#x17a;" horiz-adv-x="776" d="M710 0 L57 0 L57 130 L475 985 L92 985 L92 1135 L688 1135 L688 1001 L270 150 L710 150 L710 0 Z M643 1524 L458 1243 L291 1243 L421 1524 L643 1524 Z " />
<glyph glyph-name="Zdotaccent" unicode="&#x17b;" horiz-adv-x="892" d="M814 0 L73 0 L73 138 L605 1309 L113 1309 L113 1467 L814 1467 L814 1333 L276 158 L814 158 L814 0 Z M560 1577 L367 1577 L367 1786 L560 1786 L560 1577 Z " />
<glyph glyph-name="zdotaccent" unicode="&#x17c;" horiz-adv-x="776" d="M710 0 L57 0 L57 130 L475 985 L92 985 L92 1135 L688 1135 L688 1001 L270 150 L710 150 L710 0 Z M511 1302 L318 1302 L318 1511 L511 1511 L511 1302 Z " />
<glyph glyph-name="Zcaron" unicode="&#x17d;" horiz-adv-x="893" d="M813 0 L72 0 L72 138 L604 1309 L112 1309 L112 1467 L813 1467 L813 1333 L275 158 L813 158 L813 0 Z M733 1825 L568 1546 L366 1546 L205 1825 L364 1825 L469 1647 L581 1825 L733 1825 Z " />
<glyph glyph-name="zcaron" unicode="&#x17e;" horiz-adv-x="776" d="M710 0 L57 0 L57 130 L475 985 L92 985 L92 1135 L688 1135 L688 1001 L270 150 L710 150 L710 0 Z M664 1524 L499 1245 L297 1245 L136 1524 L294 1524 L400 1346 L512 1524 L664 1524 Z " />
<glyph glyph-name="longs" unicode="&#x17f;" horiz-adv-x="616" d="M672 1542 L659 1386 Q587 1401 535 1401 Q453 1401 419.5 1363 Q386 1325 386 1232 L389 0 L204 0 L204 985 L33 985 L33 1135 L204 1135 L204 1232 Q204 1557 512 1557 Q592 1557 672 1542 Z " />
<glyph glyph-name="uni01C4" unicode="&#x1c4;" horiz-adv-x="1909" d="M132 1467 L436 1467 Q675 1467 788 1342 Q897 1221 897 968 L897 530 Q897 326 849 216 Q795 90 676 39 Q587 0 449 0 L132 0 L132 1467 Z M321 158 L449 158 Q706 158 706 490 L706 1021 Q706 1309 444 1309 L321 1309 L321 158 Z M1751 1823 L1584 1544 L1384 1544 L1221 1823 L1380 1823 L1485 1647 L1597 1823 L1751 1823 Z M1830 0 L1089 0 L1089 138 L1621 1309 L1128 1309 L1128 1467 L1830 1467 L1830 1333 L1291 158 L1830 158 L1830 0 Z " />
<glyph glyph-name="uni01C5" unicode="&#x1c5;" horiz-adv-x="1792" d="M132 1467 L436 1467 Q675 1467 788 1342 Q897 1221 897 968 L897 530 Q897 326 849 216 Q795 90 676 39 Q587 0 449 0 L132 0 L132 1467 Z M321 158 L449 158 Q706 158 706 490 L706 1021 Q706 1309 444 1309 L321 1309 L321 158 Z M1682 1524 L1515 1245 L1315 1245 L1152 1524 L1313 1524 L1418 1346 L1531 1524 L1682 1524 Z M1726 0 L1073 0 L1073 130 L1491 985 L1108 985 L1108 1135 L1704 1135 L1704 1001 L1286 150 L1726 150 L1726 0 Z " />
<glyph glyph-name="uni01C6" unicode="&#x1c6;" horiz-adv-x="1684" d="M798 0 L622 0 L617 92 Q540 30 482.5 5 Q425 -20 359 -20 Q215 -20 147 97 Q101 176 101 290 L101 820 Q101 955 149 1039 Q215 1155 362 1155 Q489 1155 613 1043 L613 1513 L798 1513 L798 0 Z M613 238 L613 900 Q508 988 420 988 Q348 988 317 947 Q286 906 286 812 L286 308 Q286 147 419 147 Q514 147 613 238 Z M1574 1524 L1407 1245 L1207 1245 L1044 1524 L1205 1524 L1310 1346 L1423 1524 L1574 1524 Z M1618 0 L965 0 L965 130 L1383 985 L1000 985 L1000 1135 L1596 1135 L1596 1001 L1178 150 L1618 150 L1618 0 Z " />
<glyph glyph-name="uni01C7" unicode="&#x1c7;" horiz-adv-x="1392" d="M748 0 L132 0 L132 1467 L323 1467 L323 158 L748 158 L748 0 Z M1260 1467 L1260 284 Q1260 -20 955 -20 Q853 -20 770 18 L812 185 Q878 152 937 152 Q1069 152 1069 319 L1069 1467 L1260 1467 Z " />
<glyph glyph-name="uni01C8" unicode="&#x1c8;" horiz-adv-x="1176" d="M748 0 L132 0 L132 1467 L323 1467 L323 158 L748 158 L748 0 Z M1060 1135 L1057 -145 Q1057 -446 807 -446 Q756 -446 662 -431 L666 -268 Q716 -283 764 -283 Q825 -283 850 -242 Q875 -201 875 -101 L875 1135 L1060 1135 Z M1064 1302 L870 1302 L870 1511 L1064 1511 L1064 1302 Z " />
<glyph glyph-name="uni01C9" unicode="&#x1c9;" horiz-adv-x="836" d="M302 0 L117 0 L117 1513 L302 1513 L302 0 Z M720 1135 L718 -145 Q717 -446 468 -446 Q416 -446 322 -431 L326 -268 Q376 -283 424 -283 Q485 -283 510 -242.5 Q535 -202 535 -101 L535 1135 L720 1135 Z M724 1302 L531 1302 L531 1511 L724 1511 L724 1302 Z " />
<glyph glyph-name="uni01CA" unicode="&#x1ca;" horiz-adv-x="1700" d="M934 0 L670 0 Q441 689 317 1159 L317 1102 L321 655 L321 0 L132 0 L132 1467 L398 1467 L408 1436 Q632 723 747 310 L747 383 L745 498 Q743 756 743 915 L743 1467 L934 1467 L934 0 Z M1568 1467 L1568 284 Q1568 -20 1263 -20 Q1162 -20 1078 18 L1120 185 Q1187 152 1245 152 Q1377 152 1377 319 L1377 1467 L1568 1467 Z " />
<glyph glyph-name="uni01CB" unicode="&#x1cb;" horiz-adv-x="1484" d="M934 0 L670 0 Q441 689 317 1159 L317 1102 L321 655 L321 0 L132 0 L132 1467 L398 1467 L408 1436 Q632 723 747 310 L747 383 L745 498 Q743 756 743 915 L743 1467 L934 1467 L934 0 Z M1368 1135 L1366 -145 Q1365 -446 1115 -446 Q1064 -446 970 -431 L974 -268 Q1023 -283 1072 -283 Q1134 -283 1158.5 -242.5 Q1183 -202 1183 -101 L1183 1135 L1368 1135 Z M1372 1302 L1178 1302 L1178 1511 L1372 1511 L1372 1302 Z " />
<glyph glyph-name="uni01CC" unicode="&#x1cc;" horiz-adv-x="1304" d="M783 0 L598 0 L598 842 Q598 983 485 983 Q396 983 295 880 L295 0 L110 0 L110 1135 L282 1135 L288 1029 Q413 1155 539 1155 Q783 1155 783 882 L783 0 Z M1188 1135 L1186 -145 Q1185 -446 936 -446 Q883 -446 790 -431 L794 -268 Q844 -283 892 -283 Q953 -283 978 -242.5 Q1003 -202 1003 -101 L1003 1135 L1188 1135 Z M1192 1302 L999 1302 L999 1511 L1192 1511 L1192 1302 Z " />
<glyph glyph-name="uni01CD" unicode="&#x1cd;" horiz-adv-x="954" d="M908 0 L704 0 L624 400 L310 400 L246 0 L46 0 L321 1467 L609 1467 L908 0 Z M598 556 Q537 871 464 1335 L448 1241 Q370 746 332 556 L598 556 Z M741 1825 L576 1546 L374 1546 L213 1825 L372 1825 L477 1647 L589 1825 L741 1825 Z " />
<glyph glyph-name="uni01CE" unicode="&#x1ce;" horiz-adv-x="884" d="M778 0 L608 0 L604 95 Q489 -13 359 -13 Q232 -13 156.5 63.5 Q81 140 81 268 L81 330 Q81 532 276 628 Q383 681 593 706 L593 853 Q593 1009 446 1009 Q361 1009 326.5 963 Q292 917 292 805 L114 805 L114 842 Q114 1159 454 1159 Q778 1159 778 860 L778 0 Z M593 233 L593 574 Q439 551 371 512 Q265 451 265 334 L265 288 Q265 139 405 139 Q495 139 593 233 Z M704 1524 L539 1245 L337 1245 L176 1524 L334 1524 L440 1346 L552 1524 L704 1524 Z " />
<glyph glyph-name="uni01CF" unicode="&#x1cf;" horiz-adv-x="477" d="M334 0 L143 0 L143 1467 L334 1467 L334 0 Z M503 1825 L338 1546 L136 1546 L-25 1825 L133 1825 L239 1647 L351 1825 L503 1825 Z " />
<glyph glyph-name="uni01D0" unicode="&#x1d0;" horiz-adv-x="418" d="M301 0 L116 0 L116 1135 L301 1135 L301 0 Z M473 1524 L308 1245 L106 1245 L-55 1524 L103 1524 L209 1346 L321 1524 L473 1524 Z " />
<glyph glyph-name="uni01D1" unicode="&#x1d1;" horiz-adv-x="1012" d="M119 376 L119 1076 Q119 1295 237 1402 Q334 1491 506 1491 Q697 1491 796 1380 Q893 1271 893 1062 L893 372 Q893 175 776 68 Q675 -24 503 -24 Q314 -24 213 88 Q119 193 119 376 Z M702 374 L702 1058 Q702 1322 505 1322 Q411 1322 360.5 1264 Q310 1206 310 1098 L310 381 Q310 148 504 148 Q597 148 650 206 Q702 264 702 374 Z M770 1825 L605 1546 L403 1546 L242 1825 L401 1825 L506 1647 L618 1825 L770 1825 Z " />
<glyph glyph-name="uni01D2" unicode="&#x1d2;" horiz-adv-x="902" d="M99 319 L99 827 Q99 988 199 1076 Q293 1159 454 1159 Q634 1159 726 1059 Q803 975 803 827 L803 319 Q803 149 702 58 Q610 -24 451 -24 Q273 -24 179 80 Q99 169 99 319 Z M618 310 L618 823 Q618 900 572 947 Q526 994 450 994 Q374 994 329 948 Q284 902 284 823 L284 310 Q284 230 328 185.5 Q372 141 451 141 Q530 141 574 185.5 Q618 230 618 310 Z M715 1524 L550 1245 L348 1245 L187 1524 L345 1524 L451 1346 L563 1524 L715 1524 Z " />
<glyph glyph-name="uni01D3" unicode="&#x1d3;" horiz-adv-x="1027" d="M895 1467 L895 365 Q895 -24 515 -24 Q132 -24 132 365 L132 1467 L323 1467 L323 385 Q323 293 345 241 Q386 145 514 145 Q612 145 658 203 Q704 261 704 385 L704 1467 L895 1467 Z M778 1825 L613 1546 L411 1546 L250 1825 L409 1825 L514 1647 L626 1825 L778 1825 Z " />
<glyph glyph-name="uni01D4" unicode="&#x1d4;" horiz-adv-x="888" d="M776 0 L609 0 L600 99 Q472 -20 337 -20 Q103 -20 103 268 L103 1135 L288 1135 L288 279 Q288 212 312 184 Q336 156 394 156 Q499 156 591 253 L591 1135 L776 1135 L776 0 Z M703 1524 L538 1245 L336 1245 L175 1524 L333 1524 L439 1346 L551 1524 L703 1524 Z " />
<glyph glyph-name="Gcaron" unicode="&#x1e6;" horiz-adv-x="996" d="M897 0 L732 0 L723 95 Q598 -24 441 -24 Q256 -24 179 112 Q119 217 119 407 L119 1084 Q119 1489 520 1489 Q714 1489 810 1383 Q893 1291 893 1128 L893 1018 L706 1018 L706 1080 Q706 1186 686 1232 Q649 1317 517 1317 Q402 1317 356 1259.5 Q310 1202 310 1060 L310 409 Q310 284 334 228 Q374 137 491 137 Q609 137 710 240 L710 572 L499 572 L499 730 L897 730 L897 0 Z M772 1825 L607 1546 L405 1546 L244 1825 L403 1825 L508 1647 L620 1825 L772 1825 Z " />
<glyph glyph-name="gcaron" unicode="&#x1e7;" horiz-adv-x="917" d="M310 403 Q306 398 304 395 Q279 365 279 342 Q279 313 305 294 Q331 275 407 249 L616 176 Q768 123 829.5 58 Q891 -7 891 -116 Q891 -309 732 -399 Q616 -464 447 -464 Q278 -464 163 -398 Q20 -316 20 -154 Q20 35 233 137 Q112 180 112 286 Q112 334 134.5 370.5 Q157 407 211 449 Q159 472 127 539 Q95 606 95 695 L95 856 Q95 1029 230 1107 Q316 1157 444 1157 Q572 1157 662 1104 Q757 1194 847 1194 L880 1194 L880 1047 Q836 1054 822 1054 Q782 1054 743 1023 Q787 959 787 858 L787 693 Q787 385 444 385 Q356 385 310 403 Z M609 684 L609 847 Q609 926 564.5 970 Q520 1014 441 1014 Q363 1014 318 969 Q273 924 273 847 L273 684 Q273 614 318.5 572 Q364 530 441 530 Q519 530 564 571.5 Q609 613 609 684 Z M334 91 Q191 15 191 -100 Q191 -197 260.5 -249 Q330 -301 458 -301 Q712 -301 712 -143 Q712 -79 674 -44.5 Q636 -10 526 27 L334 91 Z M719 1524 L554 1245 L352 1245 L191 1524 L349 1524 L455 1346 L567 1524 L719 1524 Z " />
<glyph glyph-name="uni01EA" unicode="&#x1ea;" horiz-adv-x="1012" d="M416 -17 Q340 -3 289 27 Q119 126 119 376 L119 1076 Q119 1294 237 1402 Q334 1491 506 1491 Q697 1491 796 1380 Q893 1271 893 1063 L893 372 Q893 204 806.5 100 Q720 -4 567 -20 Q455 -76 455 -169 Q455 -259 574 -259 Q610 -259 701 -239 L732 -369 Q598 -393 542 -393 Q428 -393 364.5 -345 Q301 -297 301 -213 Q301 -97 416 -17 Z M702 374 L702 1058 Q702 1322 505 1322 Q413 1322 362 1265 Q310 1207 310 1098 L310 381 Q310 148 504 148 Q597 148 650 206 Q702 264 702 374 Z " />
<glyph glyph-name="uni01EB" unicode="&#x1eb;" horiz-adv-x="902" d="M371 -17 Q239 5 169 92 Q99 179 99 319 L99 827 Q99 988 199 1076 Q293 1159 454 1159 Q634 1159 726 1059 Q803 975 803 827 L803 319 Q803 176 731 88.5 Q659 1 526 -18 Q410 -75 410 -169 Q410 -259 529 -259 Q565 -259 656 -239 L687 -369 Q552 -393 496 -393 Q383 -393 319.5 -345.5 Q256 -298 256 -213 Q256 -98 371 -17 Z M618 310 L618 823 Q618 900 572 947 Q526 994 450 994 Q374 994 329 948 Q284 902 284 823 L284 310 Q284 230 328 185.5 Q372 141 451 141 Q530 141 574 185.5 Q618 230 618 310 Z " />
<glyph glyph-name="uni01F1" unicode="&#x1f1;" horiz-adv-x="1909" d="M132 1467 L436 1467 Q675 1467 788 1342 Q897 1221 897 968 L897 530 Q897 326 849 216 Q795 90 676 39 Q587 0 449 0 L132 0 L132 1467 Z M321 158 L449 158 Q706 158 706 490 L706 1021 Q706 1309 444 1309 L321 1309 L321 158 Z M1830 0 L1089 0 L1089 138 L1621 1309 L1128 1309 L1128 1467 L1830 1467 L1830 1333 L1291 158 L1830 158 L1830 0 Z " />
<glyph glyph-name="uni01F2" unicode="&#x1f2;" horiz-adv-x="1792" d="M132 1467 L436 1467 Q675 1467 788 1342 Q897 1221 897 968 L897 530 Q897 326 849 216 Q795 90 676 39 Q587 0 449 0 L132 0 L132 1467 Z M321 158 L449 158 Q706 158 706 490 L706 1021 Q706 1309 444 1309 L321 1309 L321 158 Z M1726 0 L1073 0 L1073 130 L1491 985 L1108 985 L1108 1135 L1704 1135 L1704 1001 L1286 150 L1726 150 L1726 0 Z " />
<glyph glyph-name="uni01F3" unicode="&#x1f3;" horiz-adv-x="1684" d="M798 0 L622 0 L617 92 Q540 30 482.5 5 Q425 -20 359 -20 Q215 -20 147 97 Q101 176 101 290 L101 820 Q101 955 149 1039 Q215 1155 362 1155 Q489 1155 613 1043 L613 1513 L798 1513 L798 0 Z M613 238 L613 900 Q508 988 420 988 Q348 988 317 947 Q286 906 286 812 L286 308 Q286 147 419 147 Q514 147 613 238 Z M1618 0 L965 0 L965 130 L1383 985 L1000 985 L1000 1135 L1596 1135 L1596 1001 L1178 150 L1618 150 L1618 0 Z " />
<glyph glyph-name="uni01F4" unicode="&#x1f4;" horiz-adv-x="996" d="M897 0 L732 0 L723 95 Q598 -24 441 -24 Q256 -24 179 112 Q119 217 119 407 L119 1084 Q119 1489 520 1489 Q714 1489 810 1383 Q893 1291 893 1128 L893 1018 L706 1018 L706 1080 Q706 1186 686 1232 Q649 1317 517 1317 Q402 1317 356 1259.5 Q310 1202 310 1060 L310 409 Q310 284 334 228 Q374 137 491 137 Q609 137 710 240 L710 572 L499 572 L499 730 L897 730 L897 0 Z M743 1827 L559 1546 L391 1546 L521 1827 L743 1827 Z " />
<glyph glyph-name="uni01F5" unicode="&#x1f5;" horiz-adv-x="917" d="M310 403 Q306 398 304 395 Q279 365 279 342 Q279 313 305 294 Q331 275 407 249 L616 176 Q768 123 829.5 58 Q891 -7 891 -116 Q891 -309 732 -399 Q616 -464 447 -464 Q278 -464 163 -398 Q20 -316 20 -154 Q20 35 233 137 Q112 180 112 286 Q112 334 134.5 370.5 Q157 407 211 449 Q159 472 127 539 Q95 606 95 695 L95 856 Q95 1029 230 1107 Q316 1157 444 1157 Q572 1157 662 1104 Q757 1194 847 1194 L880 1194 L880 1047 Q836 1054 822 1054 Q782 1054 743 1023 Q787 959 787 858 L787 693 Q787 385 444 385 Q356 385 310 403 Z M609 684 L609 847 Q609 926 564.5 970 Q520 1014 441 1014 Q363 1014 318 969 Q273 924 273 847 L273 684 Q273 614 318.5 572 Q364 530 441 530 Q519 530 564 571.5 Q609 613 609 684 Z M334 91 Q191 15 191 -100 Q191 -197 260.5 -249 Q330 -301 458 -301 Q712 -301 712 -143 Q712 -79 674 -44.5 Q636 -10 526 27 L334 91 Z M690 1524 L505 1243 L338 1243 L468 1524 L690 1524 Z " />
<glyph glyph-name="Aringacute" unicode="&#x1fa;" horiz-adv-x="954" d="M908 0 L704 0 L624 400 L310 400 L246 0 L46 0 L321 1467 L609 1467 L908 0 Z M598 556 Q537 871 464 1335 L448 1241 Q370 746 332 556 L598 556 Z M537 2084 L352 1802 L185 1802 L314 2084 L537 2084 Z M477 1831 Q553 1831 605 1782 Q657 1733 657 1661 Q657 1586 606 1537 Q555 1488 477 1488 Q400 1488 348.5 1537 Q297 1586 297 1660 Q297 1733 348.5 1782 Q400 1831 477 1831 Z M477 1739 Q443 1739 420.5 1716 Q398 1693 398 1660 Q398 1626 421 1603 Q444 1580 476 1580 Q508 1580 532 1603.5 Q556 1627 556 1659 Q556 1692 532.5 1715.5 Q509 1739 477 1739 Z " />
<glyph glyph-name="aringacute" unicode="&#x1fb;" horiz-adv-x="884" d="M778 0 L608 0 L604 95 Q489 -13 359 -13 Q233 -13 157 64 Q81 141 81 268 L81 330 Q81 494 203 583.5 Q325 673 593 706 L593 853 Q593 1009 446 1009 Q362 1009 327 963 Q292 917 292 805 L114 805 L114 842 Q114 1159 454 1159 Q778 1159 778 860 L778 0 Z M593 233 L593 574 Q439 551 371 512 Q265 451 265 334 L265 288 Q265 139 405 139 Q495 139 593 233 Z M421 1767 L236 1486 L69 1486 L199 1767 L421 1767 Z M430 1579 Q506 1579 558 1530 Q610 1481 610 1408 Q610 1334 558.5 1285 Q507 1236 430 1236 Q353 1236 301.5 1285 Q250 1334 250 1407 Q250 1481 301.5 1530 Q353 1579 430 1579 Z M429 1487 Q396 1487 373.5 1464 Q351 1441 351 1408 Q351 1374 374 1351 Q397 1328 429 1328 Q461 1328 485 1352 Q509 1376 509 1407 Q509 1440 485.5 1463.5 Q462 1487 429 1487 Z " />
<glyph glyph-name="AEacute" unicode="&#x1fc;" horiz-adv-x="1275" d="M1231 0 L660 0 L660 604 L409 604 L240 0 L44 0 L490 1467 L1218 1467 L1218 1309 L847 1309 L847 840 L1168 840 L1168 680 L847 680 L847 158 L1231 158 L1231 0 Z M660 756 L660 1309 L616 1309 L451 756 L660 756 Z M1033 1827 L849 1546 L681 1546 L811 1827 L1033 1827 Z " />
<glyph glyph-name="aeacute" unicode="&#x1fd;" horiz-adv-x="1370" d="M1271 352 L1271 304 Q1271 143 1173 56 Q1084 -24 934 -24 Q836 -24 768.5 10.5 Q701 45 648 123 Q559 43 496.5 12.5 Q434 -18 359 -18 Q232 -18 156.5 59 Q81 136 81 264 L81 330 Q81 502 215 600.5 Q349 699 593 706 L593 838 Q593 1007 443 1007 Q363 1007 327.5 968.5 Q292 930 292 842 L292 805 L114 805 L114 847 Q114 1000 204 1080 Q290 1157 442 1157 Q625 1157 699 1040 Q786 1157 942 1157 Q1088 1157 1178 1067 Q1271 973 1271 816 L1271 563 L769 563 L769 304 Q769 229 813 183 Q857 137 930 137 Q1002 137 1046.5 183 Q1091 229 1091 304 L1091 352 L1271 352 Z M1095 706 L1095 831 Q1095 913 1053 958 Q1011 1003 934 1003 Q856 1003 812.5 958 Q769 913 769 831 L769 706 L1095 706 Z M593 233 L593 563 Q265 555 265 334 L265 284 Q265 213 302 173.5 Q339 134 405 134 Q486 134 593 233 Z M912 1524 L727 1243 L560 1243 L690 1524 L912 1524 Z " />
<glyph glyph-name="Oslashacute" unicode="&#x1fe;" horiz-adv-x="1012" d="M972 1463 Q937 1403 916 1366 Q901 1339 873 1292 L860 1269 Q893 1172 893 1062 L893 372 Q893 175 776 68 Q675 -24 503 -24 Q314 -24 207 95 Q199 81 182 49 Q153 -5 130 -53 L40 0 L53 23 L74 59 Q109 118 150 191 Q119 277 119 376 L119 1076 Q119 1491 504 1491 Q699 1491 807 1368 L880 1507 L972 1463 Z M693 1183 Q659 1322 507 1322 Q310 1322 310 1098 L310 495 L356 577 Q483 801 576 969 L648 1100 L693 1183 Z M317 277 Q347 148 504 148 Q702 148 702 374 L702 970 Q612 809 508 623 L435 492 L362 360 L317 277 Z M741 1827 L557 1546 L389 1546 L519 1827 L741 1827 Z " />
<glyph glyph-name="oslashacute" unicode="&#x1ff;" horiz-adv-x="902" d="M891 1137 Q855 1087 811 1023 L790 992 L776 972 Q803 906 803 827 L803 319 Q803 151 702 59 Q610 -24 451 -24 Q286 -24 182 79 L92 -66 L11 -11 Q54 47 95 105 L118 138 L132 158 Q99 231 99 319 L99 827 Q99 969 188 1060 Q286 1159 451 1159 Q622 1159 726 1056 L735 1072 Q763 1118 783 1149 Q801 1177 809 1190 L891 1137 Z M611 889 Q579 994 454 994 Q376 994 330 947.5 Q284 901 284 823 L284 394 L611 889 Z M293 233 Q325 141 450 141 Q618 141 618 310 L618 724 L293 233 Z M685 1524 L500 1243 L333 1243 L463 1524 L685 1524 Z " />
<glyph glyph-name="uni0200" unicode="&#x200;" horiz-adv-x="954" d="M908 0 L704 0 L624 400 L310 400 L246 0 L46 0 L321 1467 L609 1467 L908 0 Z M598 556 Q537 871 464 1335 L448 1241 Q370 746 332 556 L598 556 Z M90 1825 L284 1825 L411 1546 L266 1546 L90 1825 Z M378 1825 L574 1825 L701 1546 L556 1546 L378 1825 Z " />
<glyph glyph-name="uni0201" unicode="&#x201;" horiz-adv-x="884" d="M778 0 L608 0 L604 95 Q490 -13 359 -13 Q233 -13 157 64 Q81 141 81 268 L81 330 Q81 494 203 583.5 Q325 673 593 706 L593 853 Q593 1009 446 1009 Q362 1009 327 963 Q292 917 292 805 L114 805 L114 842 Q114 1159 454 1159 Q778 1159 778 860 L778 0 Z M593 233 L593 574 Q439 551 371 512 Q265 451 265 334 L265 288 Q265 139 405 139 Q496 139 593 233 Z M79 1524 L272 1524 L400 1245 L255 1245 L79 1524 Z M367 1524 L563 1524 L690 1245 L545 1245 L367 1524 Z " />
<glyph glyph-name="uni0202" unicode="&#x202;" horiz-adv-x="954" d="M908 0 L704 0 L624 400 L310 400 L246 0 L46 0 L321 1467 L609 1467 L908 0 Z M598 556 Q537 871 464 1335 L448 1241 Q370 746 332 556 L598 556 Z M734 1571 L609 1571 Q598 1690 480 1690 Q424 1690 388.5 1659 Q353 1628 345 1571 L220 1571 Q227 1682 289 1743 Q360 1813 478 1813 Q597 1813 667 1744 Q727 1685 734 1571 Z " />
<glyph glyph-name="uni0203" unicode="&#x203;" horiz-adv-x="884" d="M778 0 L608 0 L604 95 Q489 -13 359 -13 Q232 -13 156.5 63.5 Q81 140 81 268 L81 330 Q81 532 276 628 Q383 681 593 706 L593 853 Q593 1009 446 1009 Q361 1009 326.5 963 Q292 917 292 805 L114 805 L114 842 Q114 1159 454 1159 Q778 1159 778 860 L778 0 Z M593 233 L593 574 Q439 551 371 512 Q265 451 265 334 L265 288 Q265 139 405 139 Q495 139 593 233 Z M687 1271 L562 1271 Q550 1390 432 1390 Q376 1390 341 1359 Q306 1328 298 1271 L172 1271 Q179 1382 241 1443 Q312 1513 431 1513 Q549 1513 619 1444 Q680 1385 687 1271 Z " />
<glyph glyph-name="uni0204" unicode="&#x204;" horiz-adv-x="818" d="M774 0 L132 0 L132 1467 L752 1467 L752 1309 L325 1309 L325 840 L701 840 L701 682 L325 682 L325 158 L774 158 L774 0 Z M71 1825 L264 1825 L392 1546 L247 1546 L71 1825 Z M359 1825 L555 1825 L682 1546 L537 1546 L359 1825 Z " />
<glyph glyph-name="uni0205" unicode="&#x205;" horiz-adv-x="884" d="M785 350 L785 295 Q785 139 691 55 Q604 -24 447 -24 Q271 -24 180 77 Q99 167 99 326 L99 801 Q99 978 204 1073 Q297 1157 454 1157 Q616 1157 705 1059 Q785 969 785 818 L785 523 L286 523 L286 304 Q286 139 445 139 Q531 139 567 178.5 Q603 218 603 313 L603 350 L785 350 Z M607 673 L607 831 Q607 913 565 958 Q523 1003 446 1003 Q368 1003 326 958.5 Q284 914 284 831 L284 673 L607 673 Z M76 1524 L269 1524 L397 1245 L252 1245 L76 1524 Z M364 1524 L560 1524 L687 1245 L542 1245 L364 1524 Z " />
<glyph glyph-name="uni0206" unicode="&#x206;" horiz-adv-x="818" d="M774 0 L132 0 L132 1467 L752 1467 L752 1309 L325 1309 L325 840 L701 840 L701 682 L325 682 L325 158 L774 158 L774 0 Z M710 1557 L585 1557 Q574 1676 456 1676 Q400 1676 364.5 1645 Q329 1614 321 1557 L196 1557 Q203 1668 265 1729 Q336 1799 454 1799 Q573 1799 643 1730 Q703 1671 710 1557 Z " />
<glyph glyph-name="uni0207" unicode="&#x207;" horiz-adv-x="884" d="M785 350 L785 295 Q785 139 691 55 Q603 -24 447 -24 Q271 -24 180 77 Q99 167 99 326 L99 801 Q99 978 204 1073 Q297 1157 454 1157 Q616 1157 705 1059 Q785 969 785 818 L785 523 L286 523 L286 304 Q286 139 446 139 Q531 139 567 178.5 Q603 218 603 313 L603 350 L785 350 Z M607 673 L607 831 Q607 913 565 958 Q523 1003 446 1003 Q368 1003 326 958.5 Q284 914 284 831 L284 673 L607 673 Z M699 1271 L574 1271 Q563 1390 445 1390 Q389 1390 353.5 1359 Q318 1328 310 1271 L185 1271 Q192 1382 254 1443 Q325 1513 444 1513 Q561 1513 632 1444 Q692 1385 699 1271 Z " />
<glyph glyph-name="uni0208" unicode="&#x208;" horiz-adv-x="477" d="M334 0 L143 0 L143 1467 L334 1467 L334 0 Z M-141 1825 L52 1825 L180 1546 L35 1546 L-141 1825 Z M147 1825 L343 1825 L470 1546 L325 1546 L147 1825 Z " />
<glyph glyph-name="uni0209" unicode="&#x209;" horiz-adv-x="418" d="M301 0 L116 0 L116 1135 L301 1135 L301 0 Z M-168 1524 L25 1524 L153 1245 L8 1245 L-168 1524 Z M120 1524 L316 1524 L443 1245 L298 1245 L120 1524 Z " />
<glyph glyph-name="uni020A" unicode="&#x20a;" horiz-adv-x="477" d="M334 0 L143 0 L143 1467 L334 1467 L334 0 Z M496 1561 L370 1561 Q359 1680 241 1680 Q185 1680 149.5 1649 Q114 1618 106 1561 L-19 1561 Q-12 1672 50 1733 Q121 1803 239 1803 Q358 1803 428 1734 Q488 1675 496 1561 Z " />
<glyph glyph-name="uni020B" unicode="&#x20b;" horiz-adv-x="418" d="M302 0 L117 0 L117 1135 L302 1135 L302 0 Z M467 1271 L341 1271 Q330 1390 212 1390 Q156 1390 120.5 1359 Q85 1328 77 1271 L-48 1271 Q-41 1382 21 1443 Q92 1513 211 1513 Q329 1513 399 1444 Q459 1385 467 1271 Z " />
<glyph glyph-name="uni020C" unicode="&#x20c;" horiz-adv-x="1012" d="M119 376 L119 1076 Q119 1295 237 1402 Q334 1491 506 1491 Q697 1491 796 1380 Q893 1271 893 1062 L893 372 Q893 175 776 68 Q675 -24 503 -24 Q314 -24 213 88 Q119 193 119 376 Z M702 374 L702 1058 Q702 1322 505 1322 Q411 1322 360.5 1264 Q310 1206 310 1098 L310 381 Q310 148 504 148 Q597 148 650 206 Q702 264 702 374 Z M127 1825 L320 1825 L448 1546 L303 1546 L127 1825 Z M415 1825 L611 1825 L738 1546 L593 1546 L415 1825 Z " />
<glyph glyph-name="uni020D" unicode="&#x20d;" horiz-adv-x="902" d="M99 319 L99 827 Q99 988 199 1076 Q293 1159 454 1159 Q634 1159 726 1059 Q803 975 803 827 L803 319 Q803 149 702 58 Q610 -24 451 -24 Q273 -24 179 80 Q99 169 99 319 Z M618 310 L618 823 Q618 900 572 947 Q526 994 450 994 Q374 994 329 948 Q284 902 284 823 L284 310 Q284 230 328 185.5 Q372 141 451 141 Q530 141 574 185.5 Q618 230 618 310 Z M69 1524 L262 1524 L390 1245 L245 1245 L69 1524 Z M357 1524 L553 1524 L680 1245 L535 1245 L357 1524 Z " />
<glyph glyph-name="uni020E" unicode="&#x20e;" horiz-adv-x="1012" d="M119 376 L119 1076 Q119 1295 237 1402 Q334 1491 506 1491 Q697 1491 796 1380 Q893 1271 893 1062 L893 372 Q893 175 776 68 Q675 -24 503 -24 Q314 -24 213 88 Q119 193 119 376 Z M702 374 L702 1058 Q702 1322 505 1322 Q411 1322 360.5 1264 Q310 1206 310 1098 L310 381 Q310 148 504 148 Q597 148 650 206 Q702 264 702 374 Z M763 1551 L638 1551 Q626 1670 509 1670 Q453 1670 417.5 1639 Q382 1608 374 1551 L249 1551 Q256 1662 318 1723 Q389 1793 507 1793 Q626 1793 696 1724 Q756 1665 763 1551 Z " />
<glyph glyph-name="uni020F" unicode="&#x20f;" horiz-adv-x="902" d="M99 319 L99 827 Q99 988 199 1076 Q293 1159 454 1159 Q634 1159 726 1059 Q803 975 803 827 L803 319 Q803 149 702 58 Q610 -24 451 -24 Q273 -24 179 80 Q99 169 99 319 Z M618 310 L618 823 Q618 900 572 947 Q526 994 450 994 Q374 994 329 948 Q284 902 284 823 L284 310 Q284 230 328 185.5 Q372 141 451 141 Q530 141 574 185.5 Q618 230 618 310 Z M708 1271 L583 1271 Q571 1390 454 1390 Q397 1390 362 1359 Q327 1328 319 1271 L194 1271 Q200 1382 262 1443 Q334 1513 452 1513 Q570 1513 640 1444 Q701 1384 708 1271 Z " />
<glyph glyph-name="uni0210" unicode="&#x210;" horiz-adv-x="963" d="M952 0 L749 0 L481 664 L325 660 L325 0 L132 0 L132 1467 L466 1467 Q688 1467 798 1346 Q888 1247 888 1083 Q888 949 830 852.5 Q772 756 661 708 L952 0 Z M325 809 L404 809 Q695 809 695 1075 Q695 1196 632 1253 Q570 1309 422 1309 L325 1309 L325 809 Z M65 1825 L258 1825 L386 1546 L241 1546 L65 1825 Z M353 1825 L549 1825 L676 1546 L531 1546 L353 1825 Z " />
<glyph glyph-name="uni0211" unicode="&#x211;" horiz-adv-x="607" d="M598 941 Q382 931 294 724 L294 0 L109 0 L109 1135 L287 1135 L287 948 Q362 1056 427 1099.5 Q492 1143 598 1155 L598 941 Z M-54 1524 L139 1524 L267 1245 L122 1245 L-54 1524 Z M234 1524 L430 1524 L557 1245 L412 1245 L234 1524 Z " />
<glyph glyph-name="uni0212" unicode="&#x212;" horiz-adv-x="963" d="M952 0 L750 0 L481 664 L325 660 L325 0 L132 0 L132 1467 L466 1467 Q688 1467 798 1346 Q888 1247 888 1083 Q888 948 830 852 Q772 756 661 708 L952 0 Z M325 809 L404 809 Q695 809 695 1074 Q695 1196 632 1253 Q570 1309 422 1309 L325 1309 L325 809 Z M730 1557 L604 1557 Q594 1676 475 1676 Q419 1676 384 1645 Q349 1614 340 1557 L215 1557 Q222 1668 284 1729 Q355 1799 473 1799 Q592 1799 662 1730 Q723 1671 730 1557 Z " />
<glyph glyph-name="uni0213" unicode="&#x213;" horiz-adv-x="607" d="M599 941 Q383 931 295 724 L295 0 L110 0 L110 1135 L288 1135 L288 948 Q363 1056 428 1099.5 Q493 1143 599 1155 L599 941 Z M607 1271 L481 1271 Q470 1390 352 1390 Q296 1390 260.5 1359 Q225 1328 217 1271 L92 1271 Q99 1382 161 1443 Q232 1513 351 1513 Q469 1513 539 1444 Q599 1385 607 1271 Z " />
<glyph glyph-name="uni0214" unicode="&#x214;" horiz-adv-x="1027" d="M895 1467 L895 365 Q895 -24 514 -24 Q132 -24 132 365 L132 1467 L323 1467 L323 385 Q323 294 345 241 Q386 145 515 145 Q612 145 658 203 Q704 261 704 385 L704 1467 L895 1467 Z M132 1825 L325 1825 L453 1546 L308 1546 L132 1825 Z M420 1825 L616 1825 L743 1546 L598 1546 L420 1825 Z " />
<glyph glyph-name="uni0215" unicode="&#x215;" horiz-adv-x="888" d="M777 0 L610 0 L601 99 Q473 -20 338 -20 Q104 -20 104 268 L104 1135 L289 1135 L289 279 Q289 212 313 184 Q337 156 395 156 Q499 156 592 253 L592 1135 L777 1135 L777 0 Z M61 1524 L254 1524 L382 1245 L237 1245 L61 1524 Z M349 1524 L545 1524 L672 1245 L527 1245 L349 1524 Z " />
<glyph glyph-name="uni0216" unicode="&#x216;" horiz-adv-x="1027" d="M895 1467 L895 365 Q895 -24 515 -24 Q132 -24 132 365 L132 1467 L323 1467 L323 385 Q323 293 345 241 Q386 145 514 145 Q612 145 658 203 Q704 261 704 385 L704 1467 L895 1467 Z M771 1552 L646 1552 Q634 1671 516 1671 Q460 1671 425 1640 Q390 1609 382 1552 L256 1552 Q263 1663 325 1724 Q396 1794 515 1794 Q631 1794 697.5 1731.5 Q764 1669 771 1552 Z " />
<glyph glyph-name="uni0217" unicode="&#x217;" horiz-adv-x="888" d="M776 0 L609 0 L600 99 Q472 -20 337 -20 Q103 -20 103 268 L103 1135 L288 1135 L288 279 Q288 212 312 184 Q336 156 394 156 Q499 156 591 253 L591 1135 L776 1135 L776 0 Z M697 1271 L571 1271 Q561 1390 442 1390 Q386 1390 351 1359 Q316 1328 308 1271 L182 1271 Q189 1382 251 1443 Q322 1513 441 1513 Q559 1513 629 1444 Q690 1385 697 1271 Z " />
<glyph glyph-name="Scommaaccent" unicode="&#x218;" horiz-adv-x="972" d="M659 1056 L659 1104 Q659 1201 629 1252 Q589 1322 481 1322 Q390 1322 344 1272 Q307 1232 307 1168 Q307 1097 358 1026.5 Q409 956 542 842 Q759 657 819 533 Q868 434 868 327 Q868 161 762 66 Q661 -24 485 -24 Q281 -24 177 89 Q92 182 92 341 L92 460 L285 460 L285 370 Q285 148 487 148 Q576 148 626.5 194.5 Q677 241 677 323 Q677 406 621.5 486 Q566 566 427 685 Q298 793 220 891 Q123 1011 123 1169 Q123 1322 220 1408 Q313 1491 483 1491 Q672 1491 766 1387 Q850 1295 850 1124 L850 1056 L659 1056 Z M556 -304 Q496 -424 441 -539 L380 -539 L453 -312 L397 -312 L397 -117 L556 -117 L556 -304 Z " />
<glyph glyph-name="scommaaccent" unicode="&#x219;" horiz-adv-x="805" d="M541 817 L541 863 Q541 1009 391 1009 Q324 1009 286.5 978.5 Q249 948 249 894 Q249 833 295 781 Q341 729 460 655 Q644 541 699 451 Q746 374 746 285 L746 258 Q746 -25 400 -25 Q226 -25 135 53.5 Q44 132 44 280 L44 344 L229 344 L229 291 Q229 122 401 122 Q475 122 517 157.5 Q559 193 559 257 Q559 319 514 371.5 Q469 424 351 497 Q170 610 116 701 Q70 779 70 872 L70 894 Q70 1040 188 1107 Q274 1156 397 1156 Q566 1156 652 1063 Q719 990 719 874 L719 817 L541 817 Z M493 -304 Q469 -351 393 -508 L378 -539 L317 -539 L390 -312 L334 -312 L334 -117 L493 -117 L493 -304 Z " />
<glyph glyph-name="uni021A" unicode="&#x21a;" horiz-adv-x="851" d="M818 1309 L521 1309 L521 0 L330 0 L330 1309 L33 1309 L33 1467 L818 1467 L818 1309 Z M505 -304 Q445 -424 390 -539 L329 -539 L402 -312 L346 -312 L346 -117 L505 -117 L505 -304 Z " />
<glyph glyph-name="uni021B" unicode="&#x21b;" horiz-adv-x="646" d="M615 4 Q516 -13 461 -13 Q323 -13 260.5 53.5 Q198 120 198 266 L198 985 L46 985 L46 1135 L200 1135 L200 1456 L385 1489 L385 1135 L600 1135 L600 985 L385 985 L385 259 Q385 137 503 137 Q544 137 609 152 L615 4 Z M376 -304 Q352 -351 276 -508 L261 -539 L200 -539 L273 -312 L217 -312 L217 -117 L376 -117 L376 -304 Z " />
<glyph glyph-name="uni0226" unicode="&#x226;" horiz-adv-x="954" d="M908 0 L704 0 L624 400 L310 400 L246 0 L46 0 L321 1467 L609 1467 L908 0 Z M598 556 Q537 871 464 1335 L448 1241 Q370 746 332 556 L598 556 Z M571 1602 L378 1602 L378 1811 L571 1811 L571 1602 Z " />
<glyph glyph-name="uni0227" unicode="&#x227;" horiz-adv-x="884" d="M778 0 L608 0 L604 95 Q489 -13 359 -13 Q232 -13 156.5 63.5 Q81 140 81 268 L81 330 Q81 532 276 628 Q383 681 593 706 L593 853 Q593 1009 446 1009 Q361 1009 326.5 963 Q292 917 292 805 L114 805 L114 842 Q114 1159 454 1159 Q778 1159 778 860 L778 0 Z M593 233 L593 574 Q439 551 371 512 Q265 451 265 334 L265 288 Q265 139 405 139 Q495 139 593 233 Z M541 1302 L348 1302 L348 1511 L541 1511 L541 1302 Z " />
<glyph glyph-name="uni0237" unicode="&#x237;" horiz-adv-x="418" d="M301 1135 L299 -145 Q298 -446 49 -446 Q-4 -446 -97 -431 L-93 -268 Q-44 -283 5 -283 Q66 -283 91 -242.5 Q116 -202 116 -101 L116 1135 L301 1135 Z " />
<glyph glyph-name="uni02C9" unicode="&#x2c9;" horiz-adv-x="1099" d="M793 1335 L306 1335 L306 1484 L793 1484 L793 1335 Z " />
<glyph glyph-name="uni0312" unicode="&#x312;" horiz-adv-x="917" d="M591 1775 L504 1492 L570 1492 L570 1247 L376 1247 L376 1481 L517 1775 L591 1775 Z " />
<glyph glyph-name="uni0313" unicode="&#x313;" horiz-adv-x="886" d="M537 1324 Q513 1277 437 1120 L422 1089 L361 1089 L434 1316 L378 1316 L378 1511 L537 1511 L537 1324 Z " />
<glyph glyph-name="uni031B" unicode="&#x31b;" horiz-adv-x="886" d="M537 1324 Q513 1277 437 1120 L422 1089 L361 1089 L434 1316 L378 1316 L378 1511 L537 1511 L537 1324 Z " />
<glyph glyph-name="commaaccent" unicode="&#x326;" horiz-adv-x="886" d="M537 -304 Q513 -351 437 -508 L422 -539 L361 -539 L434 -312 L378 -312 L378 -117 L537 -117 L537 -304 Z " />
<glyph glyph-name="uni037E" unicode="&#x37e;" horiz-adv-x="413" d="M345 844 L149 844 L149 1088 L345 1088 L345 844 Z M343 9 L326 -26 L298 -82 Q240 -199 200 -284 L125 -284 L215 0 L147 0 L147 244 L343 244 L343 9 Z " />
<glyph glyph-name="uni0387" unicode="&#x387;" horiz-adv-x="413" d="M303 486 L110 486 L110 730 L303 730 L303 486 Z " />
<glyph glyph-name="uni0394" unicode="&#x394;" horiz-adv-x="1392" d="M1372 0 L19 0 L600 1467 L793 1467 L1372 0 Z M1116 165 L694 1251 L279 165 L1116 165 Z " />
<glyph glyph-name="uni03A9" unicode="&#x3a9;" horiz-adv-x="1559" d="M1486 0 L888 0 L888 151 Q1047 244 1127 333 Q1291 518 1291 782 Q1291 1015 1155 1173 Q1011 1339 781 1339 Q551 1339 406 1173 Q268 1015 268 781 Q268 478 479 283 Q544 223 671 151 L671 0 L75 0 L75 165 L459 165 Q318 249 248 330 Q90 514 90 793 Q90 1093 286 1292 Q482 1492 780 1492 Q1078 1492 1273 1292 Q1469 1093 1469 794 Q1469 482 1273 290 Q1215 233 1102 165 L1486 165 L1486 0 Z " />
<glyph glyph-name="uni03BC" unicode="&#x3bc;" horiz-adv-x="1158" d="M1009 0 L833 0 L833 130 Q810 74 782 45 Q711 -27 576 -27 Q482 -27 424 6.5 Q366 40 327 117 L327 -398 L149 -398 L149 1139 L327 1139 L327 477 Q327 138 575 138 Q833 138 833 495 L833 1139 L1009 1139 L1009 0 Z " />
<glyph glyph-name="uni04D4" unicode="&#x4d4;" horiz-adv-x="1275" d="M1231 0 L660 0 L660 604 L409 604 L240 0 L44 0 L490 1467 L1218 1467 L1218 1309 L847 1309 L847 840 L1168 840 L1168 680 L847 680 L847 158 L1231 158 L1231 0 Z M660 756 L660 1309 L616 1309 L451 756 L660 756 Z " />
<glyph glyph-name="uni04D5" unicode="&#x4d5;" horiz-adv-x="1370" d="M1271 352 L1271 304 Q1271 143 1173 56 Q1084 -24 934 -24 Q836 -24 768.5 10.5 Q701 45 648 123 Q559 43 496.5 12.5 Q434 -18 359 -18 Q232 -18 156.5 59 Q81 136 81 264 L81 330 Q81 502 215 600.5 Q349 699 593 706 L593 838 Q593 1007 443 1007 Q363 1007 327.5 968.5 Q292 930 292 842 L292 805 L114 805 L114 847 Q114 1000 204 1080 Q290 1157 442 1157 Q625 1157 699 1040 Q786 1157 942 1157 Q1088 1157 1178 1067 Q1271 973 1271 816 L1271 563 L769 563 L769 304 Q769 229 813 183 Q857 137 930 137 Q1002 137 1046.5 183 Q1091 229 1091 304 L1091 352 L1271 352 Z M1095 706 L1095 831 Q1095 913 1053 958 Q1011 1003 934 1003 Q856 1003 812.5 958 Q769 913 769 831 L769 706 L1095 706 Z M593 233 L593 563 Q265 555 265 334 L265 284 Q265 213 302 173.5 Q339 134 405 134 Q486 134 593 233 Z " />
<glyph glyph-name="uni1E02" unicode="&#x1e02;" horiz-adv-x="948" d="M655 789 Q740 767 782 733 Q904 637 904 414 Q904 0 486 0 L132 0 L132 1467 L459 1467 Q862 1467 862 1117 Q862 947 779 855 Q733 805 655 789 Z M323 853 L422 853 Q673 853 673 1099 Q673 1221 615 1265 Q557 1309 396 1309 L323 1309 L323 853 Z M323 158 L459 158 Q592 158 651.5 223 Q711 288 711 431 Q711 697 433 697 L323 697 L323 158 Z M568 1586 L375 1586 L375 1795 L568 1795 L568 1586 Z " />
<glyph glyph-name="uni1E03" unicode="&#x1e03;" horiz-adv-x="908" d="M295 1043 Q417 1155 546 1155 Q693 1155 759 1039 Q807 954 807 820 L807 290 Q807 176 761 97 Q693 -20 548 -20 Q429 -20 291 92 L286 0 L110 0 L110 1513 L295 1513 L295 1043 Z M295 238 Q392 147 488 147 Q622 147 622 308 L622 812 Q622 906 591 947 Q560 988 488 988 Q398 988 295 900 L295 238 Z M604 1305 L411 1305 L411 1514 L604 1514 L604 1305 Z " />
<glyph glyph-name="uni1E0C" unicode="&#x1e0c;" horiz-adv-x="1016" d="M132 1467 L436 1467 Q675 1467 788 1342 Q897 1221 897 968 L897 530 Q897 326 849 216 Q795 90 676 39 Q587 0 449 0 L132 0 L132 1467 Z M321 158 L449 158 Q706 158 706 490 L706 1021 Q706 1309 444 1309 L321 1309 L321 158 Z M572 -347 L379 -347 L379 -138 L572 -138 L572 -347 Z " />
<glyph glyph-name="uni1E0D" unicode="&#x1e0d;" horiz-adv-x="908" d="M798 0 L622 0 L617 92 Q540 30 482.5 5 Q425 -20 359 -20 Q215 -20 147 97 Q101 176 101 290 L101 820 Q101 955 149 1039 Q215 1155 362 1155 Q489 1155 613 1043 L613 1513 L798 1513 L798 0 Z M613 238 L613 900 Q508 988 420 988 Q348 988 317 947 Q286 906 286 812 L286 308 Q286 147 419 147 Q514 147 613 238 Z M572 -347 L379 -347 L379 -138 L572 -138 L572 -347 Z " />
<glyph glyph-name="uni1E1E" unicode="&#x1e1e;" horiz-adv-x="794" d="M750 1309 L325 1309 L325 840 L693 840 L693 682 L325 682 L325 0 L132 0 L132 1467 L750 1467 L750 1309 Z M537 1588 L344 1588 L344 1797 L537 1797 L537 1588 Z " />
<glyph glyph-name="uni1E1F" unicode="&#x1e1f;" horiz-adv-x="616" d="M673 1542 L659 1386 Q587 1401 535 1401 Q453 1401 420 1363.5 Q387 1326 387 1232 L387 1135 L611 1135 L611 985 L389 985 L389 0 L204 0 L204 985 L33 985 L33 1135 L204 1135 L204 1232 Q204 1557 512 1557 Q592 1557 673 1542 Z M444 1602 L251 1602 L251 1811 L444 1811 L444 1602 Z " />
<glyph glyph-name="uni1E24" unicode="&#x1e24;" horiz-adv-x="1036" d="M904 0 L713 0 L713 695 L323 695 L323 0 L132 0 L132 1467 L323 1467 L323 849 L713 849 L713 1467 L904 1467 L904 0 Z M615 -347 L421 -347 L421 -138 L615 -138 L615 -347 Z " />
<glyph glyph-name="uni1E25" unicode="&#x1e25;" horiz-adv-x="902" d="M794 0 L609 0 L609 847 Q609 979 504 979 Q415 979 295 882 L295 0 L110 0 L110 1513 L295 1513 L295 1043 Q446 1153 571 1153 Q794 1153 794 867 L794 0 Z M549 -347 L355 -347 L355 -138 L549 -138 L549 -347 Z " />
<glyph glyph-name="uni1E44" unicode="&#x1e44;" horiz-adv-x="1066" d="M935 0 L671 0 Q440 695 317 1159 L317 1102 L321 655 L321 0 L132 0 L132 1467 L398 1467 Q615 785 748 310 L747 383 L746 498 Q744 756 744 915 L744 1467 L935 1467 L935 0 Z M630 1583 L437 1583 L437 1792 L630 1792 L630 1583 Z " />
<glyph glyph-name="uni1E45" unicode="&#x1e45;" horiz-adv-x="886" d="M783 0 L598 0 L598 842 Q598 983 485 983 Q396 983 295 880 L295 0 L110 0 L110 1135 L282 1135 L288 1029 Q413 1155 539 1155 Q783 1155 783 882 L783 0 Z M543 1302 L350 1302 L350 1511 L543 1511 L543 1302 Z " />
<glyph glyph-name="uni1E5A" unicode="&#x1e5a;" horiz-adv-x="963" d="M952 0 L750 0 L481 664 L325 660 L325 0 L132 0 L132 1467 L466 1467 Q688 1467 798 1346 Q888 1247 888 1083 Q888 948 830 852 Q772 756 661 708 L952 0 Z M325 809 L404 809 Q695 809 695 1074 Q695 1196 632 1253 Q570 1309 422 1309 L325 1309 L325 809 Z M623 -347 L430 -347 L430 -138 L623 -138 L623 -347 Z " />
<glyph glyph-name="uni1E5B" unicode="&#x1e5b;" horiz-adv-x="607" d="M598 941 Q383 931 295 724 L295 0 L110 0 L110 1135 L288 1135 L288 948 Q364 1057 428.5 1100 Q493 1143 598 1155 L598 941 Z M298 -347 L105 -347 L105 -138 L298 -138 L298 -347 Z " />
<glyph glyph-name="uni1E62" unicode="&#x1e62;" horiz-adv-x="972" d="M659 1056 L659 1104 Q659 1201 629 1252 Q589 1322 481 1322 Q390 1322 344 1272 Q307 1232 307 1168 Q307 1097 358 1026.5 Q409 956 542 842 Q759 657 819 533 Q868 434 868 327 Q868 161 762 66 Q661 -24 485 -24 Q281 -24 177 89 Q92 182 92 341 L92 460 L285 460 L285 370 Q285 148 487 148 Q576 148 626.5 194.5 Q677 241 677 323 Q677 406 621.5 486 Q566 566 427 685 Q298 793 220 891 Q123 1011 123 1169 Q123 1322 220 1408 Q313 1491 483 1491 Q672 1491 766 1387 Q850 1295 850 1124 L850 1056 L659 1056 Z M576 -347 L383 -347 L383 -138 L576 -138 L576 -347 Z " />
<glyph glyph-name="uni1E63" unicode="&#x1e63;" horiz-adv-x="789" d="M541 818 L541 864 Q541 1010 391 1010 Q324 1010 286.5 979.5 Q249 949 249 895 Q249 834 295 782 Q341 730 460 656 Q644 542 699 452 Q746 375 746 286 L746 259 Q746 -24 400 -24 Q226 -24 135 54.5 Q44 133 44 281 L44 345 L229 345 L229 292 Q229 123 401 123 Q475 123 517 158.5 Q559 194 559 258 Q559 320 514 372.5 Q469 425 351 498 Q170 611 116 702 Q70 780 70 873 L70 895 Q70 1041 188 1108 Q274 1157 397 1157 Q566 1157 652 1064 Q719 991 719 875 L719 818 L541 818 Z M491 -347 L298 -347 L298 -138 L491 -138 L491 -347 Z " />
<glyph glyph-name="uni1E6C" unicode="&#x1e6c;" horiz-adv-x="851" d="M818 1309 L521 1309 L521 0 L330 0 L330 1309 L33 1309 L33 1467 L818 1467 L818 1309 Z M522 -347 L329 -347 L329 -138 L522 -138 L522 -347 Z " />
<glyph glyph-name="uni1E6D" unicode="&#x1e6d;" horiz-adv-x="646" d="M615 4 Q516 -13 461 -13 Q323 -13 260.5 53.5 Q198 120 198 266 L198 985 L46 985 L46 1135 L200 1135 L200 1456 L385 1489 L385 1135 L600 1135 L600 985 L385 985 L385 259 Q385 137 503 137 Q544 137 609 152 L615 4 Z M390 -347 L197 -347 L197 -138 L390 -138 L390 -347 Z " />
<glyph glyph-name="Wgrave" unicode="&#x1e80;" horiz-adv-x="1445" d="M1412 1467 L1187 0 L902 0 L754 937 Q744 1006 721 1249 Q711 1056 693 939 L543 0 L257 0 L33 1467 L229 1467 L354 587 Q372 459 391 314 L401 239 L407 191 Q435 491 451 589 L592 1467 L855 1467 L998 616 Q1025 459 1040 288 Q1045 236 1049 193 Q1067 354 1104 625 L1214 1467 L1412 1467 Z M840 1546 L673 1546 L488 1827 L710 1827 L840 1546 Z " />
<glyph glyph-name="wgrave" unicode="&#x1e81;" horiz-adv-x="1209" d="M1170 1135 L955 0 L748 0 Q679 362 603 880 Q586 711 563 601 L440 0 L238 0 L40 1135 L225 1135 L326 458 Q347 317 357 194 Q373 327 396 458 L517 1135 L695 1135 Q764 746 845 194 Q921 735 985 1135 L1170 1135 Z M723 1243 L556 1243 L371 1524 L593 1524 L723 1243 Z " />
<glyph glyph-name="Wacute" unicode="&#x1e82;" horiz-adv-x="1445" d="M1412 1467 L1187 0 L902 0 L754 937 Q744 1006 721 1249 Q711 1056 693 939 L543 0 L257 0 L33 1467 L229 1467 L354 587 Q372 459 391 314 L401 239 L407 191 Q435 491 451 589 L592 1467 L855 1467 L998 616 Q1025 459 1040 288 Q1045 236 1049 193 Q1067 354 1104 625 L1214 1467 L1412 1467 Z M957 1827 L773 1546 L605 1546 L735 1827 L957 1827 Z " />
<glyph glyph-name="wacute" unicode="&#x1e83;" horiz-adv-x="1209" d="M1170 1135 L955 0 L748 0 Q679 362 603 880 Q586 711 563 601 L440 0 L238 0 L40 1135 L225 1135 L326 458 Q347 317 357 194 Q373 327 396 458 L517 1135 L695 1135 Q764 746 845 194 Q921 735 985 1135 L1170 1135 Z M840 1524 L655 1243 L488 1243 L618 1524 L840 1524 Z " />
<glyph glyph-name="Wdieresis" unicode="&#x1e84;" horiz-adv-x="1445" d="M1412 1467 L1187 0 L902 0 L754 937 Q744 1006 721 1249 Q711 1056 693 939 L543 0 L257 0 L33 1467 L229 1467 L354 587 Q372 459 391 314 L401 239 L407 191 Q435 491 451 589 L592 1467 L855 1467 L998 616 Q1025 459 1040 288 Q1045 236 1049 193 Q1067 354 1104 625 L1214 1467 L1412 1467 Z M986 1572 L793 1572 L793 1796 L986 1796 L986 1572 Z M652 1572 L459 1572 L459 1796 L652 1796 L652 1572 Z " />
<glyph glyph-name="wdieresis" unicode="&#x1e85;" horiz-adv-x="1209" d="M1170 1135 L955 0 L748 0 Q679 362 603 880 Q586 711 563 601 L440 0 L238 0 L40 1135 L225 1135 L326 458 Q347 317 357 194 Q373 327 396 458 L517 1135 L695 1135 Q764 746 845 194 Q921 735 985 1135 L1170 1135 Z M867 1287 L674 1287 L674 1511 L867 1511 L867 1287 Z M532 1287 L339 1287 L339 1511 L532 1511 L532 1287 Z " />
<glyph glyph-name="uni1E92" unicode="&#x1e92;" horiz-adv-x="893" d="M813 0 L72 0 L72 138 L604 1309 L112 1309 L112 1467 L813 1467 L813 1333 L275 158 L813 158 L813 0 Z M545 -347 L351 -347 L351 -138 L545 -138 L545 -347 Z " />
<glyph glyph-name="uni1E93" unicode="&#x1e93;" horiz-adv-x="776" d="M710 0 L57 0 L57 130 L475 985 L92 985 L92 1135 L688 1135 L688 1001 L270 150 L710 150 L710 0 Z M485 -347 L292 -347 L292 -138 L485 -138 L485 -347 Z " />
<glyph glyph-name="uni2011" unicode="&#x2011;" horiz-adv-x="451" d="M451 519 L0 519 L0 697 L451 697 L451 519 Z " />
<glyph glyph-name="figuredash" unicode="&#x2012;" horiz-adv-x="673" d="M673 519 L0 519 L0 697 L673 697 L673 519 Z " />
<glyph glyph-name="afii00208" unicode="&#x2015;" horiz-adv-x="1106" d="M1106 519 L0 519 L0 697 L1106 697 L1106 519 Z " />
<glyph glyph-name="uni203E" unicode="&#x203e;" horiz-adv-x="1100" d="M794 1334 L306 1334 L306 1484 L794 1484 L794 1334 Z " />
<glyph glyph-name="minus" unicode="&#x2212;" horiz-adv-x="1100" d="M1027 493 L75 493 L75 658 L1027 658 L1027 493 Z " />
<glyph glyph-name="fraction004" unicode="&#x2215;" horiz-adv-x="286" d="M572 1482 L-154 -15 L-286 -15 L440 1482 L572 1482 Z " />
<glyph glyph-name="middot" unicode="&#x2219;" horiz-adv-x="413" d="M303 486 L110 486 L110 730 L303 730 L303 486 Z " />
<glyph glyph-name="dotmath" unicode="&#x22c5;" horiz-adv-x="413" d="M303 486 L110 486 L110 730 L303 730 L303 486 Z " />
</font>
</svg>
